<svg xmlns="http://www.w3.org/2000/svg" enable-background="new 0 0 24 24" viewBox="0 0 24 24"><path fill="#031C29" d="M17.668.727c0 0-.661-1.071-1.437-.613-.377.223-1.004.851-1.752 1.763l.001.001c-.052.063-.103.127-.155.191-.198.246-.404.511-.614.793-.238.316-.483.655-.731 1.011C12.751 4.2 12.518 4.545 12.286 4.9c-.198.302-.397.615-.595.934-.007.011-.014.023-.022.036l0-.001c-.014.024-.029.048-.044.071-.209.34-.415.688-.619 1.042-.206.359-.408.724-.605 1.094-.167.312-.33.627-.487.945C9.883 9.086 9.852 9.15 9.821 9.213c-.195.401-.37.787-.53 1.16-.181.422-.339.823-.478 1.206-.091.251-.175.493-.251.727-.063.199-.122.398-.178.597C8.25 13.37 8.135 13.836 8.04 14.3l.898 1.77c.119-.317.24-.639.366-.964.032-.09.067-.181.102-.272.156-.403.317-.811.483-1.223.159-.393.321-.791.487-1.189.166-.399.337-.798.509-1.197.177-.406.356-.812.54-1.217.181-.399.366-.797.554-1.19.067-.141.136-.283.205-.424.118-.244.238-.484.359-.724.007-.012.012-.025.019-.037l0 .001c.189-.378.383-.751.579-1.116.209-.389.421-.77.634-1.141.222-.385.446-.759.673-1.119.014-.021.027-.043.041-.064.225-.354.45-.695.679-1.021l-.001-.001c.418-.596.841-1.128 1.268-1.606-.24.29-.642.809-1.18 1.634.282-.014.632-.049.998-.091-.366.042-.715.077-.997.091-.202.31-.422.661-.661 1.059-.012.021-.025.042-.038.063-.205.344-.422.723-.651 1.137-.198.357-.404.741-.617 1.154-.187.36-.379.741-.576 1.144l2.271-.248c.662-.304.958-.578 1.244-.976.076-.109.153-.224.229-.343.233-.364.461-.765.666-1.162.198-.384.372-.766.505-1.109.086-.218.153-.422.201-.599.041-.157.074-.307.1-.45-.001 0-.002 0-.003 0C18.188 1.399 17.668.727 17.668.727zM9.859 16.192l-.724.08C9.113 16.33 9.09 16.39 9.068 16.452c-.118.325-.237.655-.356.993-.001.006-.003.01-.006.015-.017.048-.034.095-.05.143-.08.228-.15.433-.31.899.264.12.476.435.675.794-.021-.371-.175-.72-.467-.99 1.299.059 2.418-.269 2.996-1.217.052-.084.1-.174.142-.268-.264.333-.589.473-1.202.44.903-.403 1.356-.791 1.758-1.433.095-.153.187-.318.282-.503C11.739 16.136 10.823 16.367 9.859 16.192zM8.444 17.408c.01-.025.018-.05.028-.076C8.592 17 8.717 16.659 8.846 16.312c.029-.078.059-.158.088-.238 0-.001.001-.003.001-.004L8.038 14.3c-.006.021-.01.042-.014.063-.112.567-.194 1.132-.233 1.692-.001.02-.003.039-.004.059-.281-.448-1.031-.886-1.03-.882.537.777.945 1.55 1.006 2.308-.287.059-.682-.027-1.138-.193.475.436.832.556.971.588C7.16 17.96 6.706 18.26 6.248 18.604c.669-.273 1.211-.381 1.598-.293C7.232 20.048 6.616 21.965 6 24c.189-.056.302-.182.365-.354.109-.368.839-2.787 1.981-5.964C8.378 17.59 8.41 17.501 8.444 17.408z"/><path d="M15.081,7.498c-0.006,0.001-0.01,0.001-0.015,0.003c-0.034,0.006-0.067,0.011-0.101,0.017c0.006-0.003,0.011-0.006,0.017-0.008l-2.271,0.248c-0.003,0.008-0.007,0.017-0.011,0.025c-0.025,0.052-0.052,0.105-0.077,0.158c-0.077,0.16-0.156,0.322-0.236,0.489c-0.086,0.179-0.172,0.364-0.259,0.552c-0.044,0.095-0.088,0.19-0.133,0.287c-0.133,0.29-0.269,0.59-0.407,0.899c-0.17,0.381-0.341,0.776-0.516,1.186c-0.167,0.391-0.335,0.795-0.506,1.216c-0.163,0.398-0.327,0.808-0.494,1.231c-0.149,0.378-0.299,0.765-0.449,1.164c-0.007,0.02-0.014,0.039-0.022,0.057c-0.15,0.396-0.302,0.802-0.455,1.218c-0.003,0.01-0.007,0.02-0.01,0.028l0.724-0.08c-0.014-0.003-0.028-0.004-0.044-0.007c0.864-0.108,2.014-0.752,2.756-1.549c0.342-0.367,0.652-0.8,0.94-1.307c0.213-0.377,0.415-0.795,0.606-1.258c0.167-0.405,0.327-0.842,0.483-1.316c-0.199,0.105-0.426,0.181-0.678,0.234c-0.042,0.009-0.085,0.017-0.129,0.025c-0.005,0.001-0.01,0.002-0.015,0.003c-0.042,0.008-0.085,0.014-0.13,0.021c0,0,0.001,0,0.001-0.001c0.807-0.309,1.314-0.907,1.685-1.64c-0.212,0.144-0.557,0.333-0.971,0.424c-0.056,0.013-0.114,0.022-0.173,0.031c-0.013,0.001-0.026,0.004-0.039,0.006c0.279-0.116,0.515-0.248,0.719-0.401C14.916,9.419,14.959,9.386,15,9.351c0.063-0.053,0.122-0.111,0.178-0.171c0.036-0.038,0.071-0.077,0.105-0.118c0.08-0.095,0.156-0.199,0.226-0.309c0.021-0.034,0.042-0.069,0.063-0.105c0.027-0.052,0.052-0.102,0.077-0.151c0.112-0.225,0.203-0.427,0.275-0.605c0.036-0.088,0.067-0.171,0.094-0.246c0.011-0.031,0.021-0.06,0.031-0.088c0.028-0.085,0.052-0.161,0.07-0.227c0.028-0.099,0.043-0.178,0.053-0.235c-0.027,0.021-0.059,0.043-0.094,0.064C15.836,7.305,15.418,7.436,15.081,7.498z"/></svg>