<svg width="282" height="50" viewBox="0 0 282 50" fill="none" xmlns="http://www.w3.org/2000/svg">
<path d="M33.8743 0L15.5968 16.0194L0 44.314H14.0628L33.8743 0ZM36.3057 3.74806L28.5054 25.969L43.4617 44.9612L14.4463 50H62L36.3057 3.74806Z" fill="#0072C6"/>
<g clip-path="url(#clip0)">
<path d="M104.422 36.5489H101.831V21.7883C101.831 20.6614 101.943 19.1965 102.056 17.5067H101.943C101.718 18.5204 101.493 19.1964 101.267 19.6474L93.8308 36.4362H92.5914L85.1549 19.8727C84.9293 19.4223 84.7043 18.6331 84.4789 17.6193H84.3663C84.4789 18.5207 84.4789 19.8727 84.4789 21.9007V36.5486H82V14.6898H85.38L92.1405 30.0134C92.7039 31.1401 92.9294 32.0419 93.1545 32.6053H93.2672C93.8308 31.253 94.1688 30.3522 94.2812 29.9008L101.155 14.6895H104.422V36.5489ZM111.859 15.2533C111.859 15.704 111.746 16.1547 111.408 16.3798C111.07 16.7178 110.732 16.8302 110.281 16.8302C109.831 16.8302 109.38 16.7178 109.155 16.3798C108.817 16.042 108.704 15.704 108.704 15.1404C108.704 14.6898 108.817 14.3515 109.155 14.0138C109.493 13.6755 109.831 13.5631 110.281 13.5631C110.732 13.5631 111.183 13.6755 111.408 14.0138C111.746 14.4644 111.859 14.8027 111.859 15.2533ZM111.521 36.5489H109.042V20.8869H111.521V36.5489ZM126.281 35.8726C125.042 36.6618 123.69 36.9995 122 36.9995C120.535 36.9995 119.296 36.6618 118.169 35.9858C117.042 35.3095 116.141 34.4082 115.465 33.1686C114.788 31.9293 114.563 30.5773 114.563 29.1126C114.563 26.5208 115.352 24.493 116.817 22.9154C118.281 21.3381 120.309 20.5489 122.788 20.5489C124.14 20.5489 125.38 20.7748 126.394 21.3378V23.9294C125.267 23.1405 124.028 22.6901 122.676 22.6901C121.098 22.6901 119.746 23.2532 118.732 24.3803C117.718 25.5068 117.267 27.0843 117.267 28.8873C117.267 30.6899 117.717 32.1553 118.732 33.1689C119.746 34.1831 120.985 34.7464 122.563 34.7464C123.915 34.7464 125.267 34.2958 126.394 33.3939V35.8729H126.281V35.8726ZM137.324 23.4788C136.873 23.1408 136.197 23.0283 135.408 23.0283C134.282 23.0283 133.38 23.5914 132.704 24.6052C132.028 25.6194 131.69 26.9714 131.69 28.6614V36.6618H129.211V20.8869H131.69V24.1548H131.802C132.14 23.0283 132.704 22.2392 133.38 21.5632C134.056 20.8872 134.957 20.6616 135.859 20.6616C136.535 20.6616 136.986 20.7745 137.324 20.8869V23.4788ZM152.986 28.6614C152.986 31.1404 152.31 33.1686 150.845 34.6335C149.38 36.0982 147.577 36.8866 145.211 36.8866C142.845 36.8866 141.042 36.0977 139.69 34.6335C138.338 33.1681 137.662 31.2533 137.662 28.7744C137.662 26.1828 138.338 24.1545 139.803 22.6899C141.267 21.2249 143.182 20.4363 145.661 20.4363C148.028 20.4363 149.83 21.1125 151.07 22.5774C152.422 24.1543 152.986 26.1825 152.986 28.6614ZM150.507 28.7741C150.507 26.8585 150.056 25.2814 149.155 24.267C148.253 23.2527 147.014 22.6896 145.436 22.6896C143.859 22.6896 142.507 23.2527 141.606 24.267C140.704 25.3939 140.253 26.8585 140.253 28.7741C140.253 30.6895 140.704 32.1544 141.718 33.1684C142.62 34.1826 143.972 34.746 145.549 34.746C147.127 34.746 148.479 34.1826 149.268 33.1684C150.056 32.1546 150.507 30.6895 150.507 28.7741ZM164.591 32.3797C164.591 33.7319 164.028 34.8586 163.014 35.6475C162 36.5491 160.535 36.8869 158.845 36.8869C157.38 36.8869 156.029 36.5491 155.014 35.9855V33.2813C156.254 34.2948 157.606 34.746 159.07 34.746C161.099 34.746 162 34.0697 162 32.6053C162 32.0419 161.774 31.4786 161.436 31.1401C161.099 30.8026 160.197 30.2388 158.845 29.6755C157.493 29.1119 156.479 28.4359 155.915 27.7594C155.352 27.0834 155.014 26.1825 155.014 25.0549C155.014 23.8158 155.577 22.6891 156.591 21.7875C157.605 20.886 158.957 20.4351 160.535 20.4351C161.774 20.4351 162.901 20.6606 163.915 21.2242V23.7029C162.901 22.914 161.661 22.5765 160.422 22.5765C159.633 22.5765 158.957 22.8013 158.394 23.1395C157.943 23.5902 157.605 24.0411 157.605 24.7169C157.605 25.3934 157.83 25.9565 158.169 26.2942C158.506 26.632 159.408 27.0829 160.535 27.6465C162 28.3225 163.014 28.8858 163.69 29.675C164.253 30.4641 164.591 31.3657 164.591 32.3797ZM181.605 28.6614C181.605 31.1404 180.929 33.1686 179.465 34.6335C178 36.0982 176.197 36.8866 173.831 36.8866C171.465 36.8866 169.662 36.0977 168.31 34.6335C166.958 33.1681 166.281 31.2533 166.281 28.7744C166.281 26.1828 166.958 24.1545 168.422 22.6899C169.887 21.2249 171.802 20.4363 174.281 20.4363C176.647 20.4363 178.45 21.1125 179.69 22.5774C180.929 24.1543 181.605 26.1825 181.605 28.6614ZM179.014 28.7741C179.014 26.8585 178.563 25.2814 177.662 24.267C176.76 23.2527 175.521 22.6896 173.944 22.6896C172.366 22.6896 171.014 23.2527 170.113 24.267C169.211 25.3939 168.76 26.8585 168.76 28.7741C168.76 30.6895 169.211 32.1544 170.225 33.1684C171.127 34.1826 172.479 34.746 174.056 34.746C175.634 34.746 176.986 34.1826 177.775 33.1684C178.676 32.1546 179.014 30.6895 179.014 28.7741ZM191.859 15.5911C191.408 15.3655 190.845 15.1404 190.169 15.1404C188.366 15.1404 187.577 16.2673 187.577 18.408V20.8869H191.296V23.0281H187.577V36.5489H184.986V23.0281H182.281V20.8869H184.986V18.408C184.986 16.8309 185.436 15.5913 186.338 14.5771C187.352 13.5631 188.591 13 190.056 13C190.845 13 191.408 13.1127 191.859 13.2253V15.5911Z" fill="#303035"/>
<path d="M200.31 36.4363C199.746 36.7738 198.957 36.8867 197.944 36.8867C195.239 36.8867 193.887 35.3096 193.887 32.2673V23.0281H191.183V20.887H193.887V17.0561L196.366 16.2674V20.8867H200.31V23.0279H196.366V31.8164C196.366 32.8304 196.592 33.6191 196.93 34.0698C197.268 34.5204 197.832 34.746 198.732 34.746C199.408 34.746 199.859 34.6333 200.31 34.2953V36.4363ZM226.563 36.5489H223.747L221.493 30.4642H212.141L210 36.5489H207.183L215.409 14.6898H218.113L226.563 36.5489ZM220.591 28.0982L217.098 18.7458C216.986 18.5203 216.873 18.0698 216.761 17.2809H216.648C216.535 17.9569 216.422 18.4076 216.31 18.7458L212.93 28.0982H220.591ZM240.648 21.563L231.296 34.408H240.422V36.5487H227.578V35.76L236.817 23.0277H228.479V20.8865H240.535V21.5625H240.648V21.563ZM255.634 36.5489H253.155V34.07H253.042C252.028 35.9858 250.45 36.8867 248.197 36.8867C244.479 36.8867 242.563 34.6336 242.563 30.2388V20.8865H245.042V29.9006C245.042 33.1682 246.281 34.8584 248.873 34.8584C250.113 34.8584 251.126 34.4078 251.916 33.5064C252.704 32.6049 253.042 31.4777 253.042 30.0133V20.8865H255.521V36.5484L255.634 36.5489ZM268.028 23.4788C267.577 23.1408 266.901 23.0284 266.112 23.0284C264.986 23.0284 264.084 23.5915 263.408 24.6052C262.732 25.6195 262.394 26.9715 262.394 28.6615V36.6618H259.915V20.887H262.394V24.1548H262.507C262.845 23.0284 263.409 22.2392 264.084 21.5632C264.76 20.8872 265.661 20.6617 266.563 20.6617C267.239 20.6617 267.69 20.7746 268.028 20.887V23.4788ZM282 29.3375H270.958C270.958 31.1402 271.408 32.4924 272.31 33.3935C273.212 34.2951 274.451 34.746 276.028 34.746C277.831 34.746 279.408 34.1827 280.874 33.056V35.422C279.521 36.436 277.718 36.8869 275.465 36.8869C273.212 36.8869 271.521 36.2109 270.282 34.7462C269.042 33.2813 268.366 31.366 268.366 28.7744C268.366 27.1973 268.704 25.8448 269.268 24.4928C269.944 23.2532 270.733 22.2392 271.86 21.5632C272.986 20.8872 274.226 20.5492 275.578 20.5492C277.606 20.5492 279.183 21.2255 280.31 22.578C281.437 23.93 282 25.7329 282 28.0989L282 29.3375ZM279.408 27.1968C279.408 25.7319 279.071 24.605 278.395 23.8166C277.718 23.0281 276.817 22.5775 275.578 22.5775C274.451 22.5775 273.437 23.0281 272.648 23.8166C271.859 24.6052 271.296 25.7324 271.071 27.0842H279.409L279.408 27.1968Z" fill="#303035"/>
</g>
<defs>
<clipPath id="clip0">
<rect width="200" height="24" fill="white" transform="translate(82 13)"/>
</clipPath>
</defs>
</svg>
