<svg width="339" height="57" viewBox="0 0 339 57" fill="none" xmlns="http://www.w3.org/2000/svg">
<path d="M28.4733 56.9776V45.8969C40.2672 45.8969 49.3648 34.3141 44.8177 22.0572C43.9903 19.7823 42.6711 17.7162 40.9534 16.0053C39.2358 14.2943 37.1616 12.9802 34.8778 12.1561C32.227 11.1632 29.3746 10.8232 26.5635 11.1651C23.7525 11.5069 21.066 12.5204 18.7328 14.1193C16.3997 15.7182 14.4891 17.855 13.1637 20.3479C11.8383 22.8408 11.1374 25.6159 11.1207 28.4367H0C0 9.96892 18.0293 -4.63682 37.74 1.40903C41.9758 2.73435 45.8273 5.05979 48.9665 8.18731C52.1057 11.3148 54.4395 15.1518 55.7692 19.3713C61.8354 39.0153 47.1758 56.9776 28.4733 56.9776Z" fill="#0080FF"/>
<path d="M28.6423 45.8961H17.5216V34.984H28.6423V45.8961ZM17.5216 54.4594H9.09736V45.8961H17.5216V54.4594ZM9.09736 45.8961H2.02979V38.846H9.09736V45.8961ZM101.598 16.5162C98.3978 14.3324 94.1857 13.1461 89.4661 13.1461H79.1912V45.8827H89.4695C94.1879 45.8827 98.232 44.7076 101.602 42.3576C103.442 41.0239 104.895 39.2286 105.814 37.1543C106.829 34.9705 107.33 32.2846 107.33 29.4301C107.33 26.5757 106.825 23.8898 105.814 21.8745C104.799 19.3706 103.452 17.6923 101.598 16.5162ZM85.2573 18.6999H88.4579C91.9967 18.6999 95.0281 19.374 97.3862 20.8837C99.9135 22.3935 101.108 25.2648 101.108 29.447C101.108 33.6292 99.7545 36.6656 97.3862 38.3439C95.1973 39.6919 92.3317 40.5277 88.6236 40.5277H85.2573V18.6999ZM114.573 12.6575C114.105 12.645 113.639 12.7283 113.204 12.9022C112.77 13.0761 112.375 13.3369 112.046 13.6685C111.662 13.964 111.354 14.3467 111.149 14.7846C110.944 15.2225 110.846 15.7029 110.865 16.1859C110.865 17.1208 111.238 18.0174 111.902 18.6785C112.565 19.3396 113.465 19.711 114.404 19.711C115.342 19.711 116.243 19.3396 116.906 18.6785C117.57 18.0174 117.943 17.1208 117.943 16.1859C117.955 15.7195 117.871 15.2555 117.697 14.8226C117.522 14.3896 117.261 13.9968 116.928 13.6685C116.424 12.9945 115.574 12.6575 114.56 12.6575H114.573ZM111.515 22.7305H117.412V45.731H111.538V22.7305H111.515ZM138.496 24.7525C136.804 23.2428 134.774 22.2351 132.599 22.2351C131.114 22.2025 129.639 22.4863 128.273 23.0675C126.907 23.6487 125.682 24.5139 124.679 25.6052C122.574 27.8256 121.426 30.7782 121.478 33.8314C121.478 37.0228 122.493 39.8739 124.523 42.0577C126.553 44.2415 129.239 45.2491 132.443 45.2491C134.505 45.2813 136.519 44.6318 138.171 43.4023V43.9045C138.171 45.7512 137.667 47.2745 136.655 48.2855C135.644 49.2965 134.287 49.7953 132.443 49.7953C129.737 49.7953 128.062 48.7843 126.042 45.9332L121.982 49.7953L122.151 49.9638C122.994 51.1399 124.34 52.3228 126.025 53.4888C127.71 54.6549 129.899 55.1739 132.426 55.1739C135.965 55.1739 138.662 54.1628 140.681 51.9824C142.701 49.802 143.882 47.1127 143.882 43.5877V22.7305H138.161V24.7525H138.499H138.496ZM136.984 38.3506C135.969 39.5268 134.615 40.0356 132.924 40.0356C131.232 40.0356 129.879 39.5335 128.864 38.3506C127.849 37.1677 127.348 35.6546 127.348 33.8179C127.348 31.9813 127.886 30.4513 128.901 29.2751C129.916 28.099 131.269 27.5901 132.961 27.5901C134.653 27.5901 136.006 28.0922 137.021 29.2751C138.036 30.458 138.536 31.9712 138.536 33.8078C138.536 35.6445 138.032 37.1779 137.021 38.3405L136.984 38.3506ZM149.319 22.7271H155.216V45.7276H149.282V22.7305L149.319 22.7271ZM152.147 12.6575C151.679 12.6459 151.214 12.7292 150.779 12.9022C150.345 13.0753 149.95 13.3345 149.619 13.6642C149.288 13.9939 149.028 14.3871 148.854 14.82C148.68 15.2529 148.597 15.7165 148.608 16.1825C148.608 17.1174 148.981 18.014 149.645 18.6751C150.309 19.3362 151.209 19.7076 152.147 19.7076C153.086 19.7076 153.986 19.3362 154.65 18.6751C155.313 18.014 155.686 17.1174 155.686 16.1825C155.698 15.7162 155.614 15.2523 155.44 14.8192C155.266 14.386 155.006 13.9927 154.674 13.663C154.343 13.3332 153.948 13.0741 153.513 12.9012C153.078 12.7284 152.612 12.6454 152.144 12.6575H152.147ZM167.808 16.5162H162.087V22.7305H158.704V27.9338H162.087V37.5048C162.087 40.5378 162.764 42.7081 163.941 43.8842C165.119 45.0604 167.324 45.731 170.176 45.731C171.135 45.7587 172.094 45.7023 173.042 45.5625H173.38V40.3558L171.35 40.5243C169.997 40.5243 168.982 40.3558 168.644 39.8503C168.14 39.3482 167.967 38.3405 167.967 36.8173V28.1023H173.36V22.8956H167.984L167.808 16.5162ZM200.494 13.1461H206.391V45.8827H200.5V13.1663L200.494 13.1461ZM265.201 37.6766C264.34 38.6692 263.38 39.5725 262.336 40.3727C261.418 40.9269 260.364 41.2173 259.291 41.2118C258.501 41.2049 257.72 41.0359 256.998 40.7153C256.277 40.3946 255.629 39.9292 255.096 39.3482C253.915 38.0001 253.404 36.4937 253.404 34.4785C253.404 32.4632 253.908 30.9534 255.096 29.6088C255.607 28.9984 256.254 28.5142 256.984 28.1938C257.715 27.8734 258.51 27.7257 259.308 27.762C261.162 27.762 263.182 28.9381 264.866 30.9534L268.74 27.2464C266.213 24.0549 263.012 22.5452 259.135 22.5452C255.935 22.5452 253.238 23.7213 250.88 26.0702C248.673 28.3753 247.459 31.4486 247.497 34.6335C247.497 38.0035 248.678 41.013 250.88 43.1967C251.928 44.3318 253.206 45.2328 254.628 45.8404C256.051 46.448 257.587 46.7484 259.135 46.7218C263.347 46.7218 266.717 44.875 269.075 41.5185L265.201 37.6564V37.6766ZM288.958 26.0736C288.072 24.9102 286.909 23.9839 285.575 23.3776C284.046 22.6721 282.375 22.3262 280.69 22.3665C277.489 22.3665 274.793 23.5427 272.77 25.8916C270.855 28.3332 269.843 31.3572 269.904 34.4549C269.904 37.9799 270.919 40.8343 273.105 43.0181C275.29 45.2019 277.99 46.3882 281.529 46.3882C285.403 46.3882 288.607 44.8784 291.134 41.687L291.303 41.5185L287.429 37.8114C287.091 38.3136 286.587 38.6506 286.076 39.1594C285.598 39.6614 285.022 40.0615 284.384 40.3356C283.508 40.8138 282.517 41.0468 281.519 41.0096C280.051 41.0307 278.62 40.5555 277.459 39.6616C276.444 38.8224 275.943 37.6396 275.767 36.1365H291.269V33.9527C291.307 32.4639 291.078 30.9803 290.593 29.5717C290.346 28.2701 289.763 27.0551 288.901 26.0466L288.958 26.0736ZM276.322 31.4589C276.58 30.4429 277.103 29.5128 277.838 28.7629C278.236 28.3675 278.712 28.0588 279.236 27.8564C279.76 27.6539 280.321 27.5621 280.883 27.5867C282.236 27.5867 283.41 27.9237 284.083 28.7629C284.76 29.4369 285.098 30.4479 285.264 31.4589H276.322ZM311.369 24.5739C309.677 23.0641 307.157 22.3901 304.125 22.3901C302.272 22.4425 300.444 22.8426 298.739 23.5696C297.224 24.4088 295.694 25.5917 294.866 27.2767L298.587 30.8017C300.103 28.2843 301.788 27.4317 304.146 27.4317C305.248 27.4026 306.326 27.7605 307.191 28.4427C307.575 28.7383 307.882 29.1209 308.087 29.5588C308.293 29.9967 308.39 30.4772 308.371 30.9601V32.1363C307.015 31.6803 305.591 31.4525 304.159 31.4623C301.295 31.4623 298.936 32.1363 297.082 33.4843C295.228 34.8323 294.375 36.8543 294.375 39.1931C294.375 41.3769 295.052 43.0552 296.564 44.3965C298.076 45.7378 299.947 46.2433 302.123 46.2433C304.298 46.2433 306.335 45.4041 308.358 43.8842V45.731H314.086V30.9568C314.086 28.2607 313.243 26.0871 311.379 24.5773L311.369 24.5739ZM301.101 36.9992C301.777 36.4971 302.617 36.3252 303.807 36.3252C305.303 36.3755 306.781 36.6586 308.189 37.1644V39.3482C306.794 40.5704 304.991 41.2292 303.134 41.1949C302.119 41.1949 301.28 41.0264 300.766 40.5209C300.252 40.0154 299.923 39.5099 299.923 38.8359C299.983 38.464 300.119 38.1082 300.322 37.7906C300.525 37.4729 300.791 37.2002 301.104 36.9891L301.101 36.9992ZM336.473 24.9109C334.781 23.0641 332.599 22.2149 329.733 22.2149C327.374 22.2149 325.521 22.8889 324.174 24.2369V22.8889H318.443V45.8894H324.34V33.1372C324.34 31.4522 324.679 29.9458 325.521 28.9415C325.933 28.4512 326.452 28.0606 327.038 27.799C327.624 27.5375 328.262 27.4119 328.904 27.4317C329.482 27.4037 330.059 27.511 330.588 27.7451C331.116 27.9792 331.583 28.3336 331.949 28.7797C332.741 29.8528 333.155 31.1555 333.13 32.4868V45.9164H339V32.4665C338.831 29.2762 337.988 26.7577 336.473 24.9109ZM193.257 24.5739C191.565 23.0641 189.045 22.3901 186.013 22.3901C184.157 22.4405 182.328 22.8396 180.621 23.5663C179.105 24.4054 177.576 25.5883 176.747 27.2733L180.468 30.7984C181.984 28.281 183.669 27.4283 186.027 27.4283C187.13 27.3992 188.207 27.7571 189.072 28.4394C189.456 28.7349 189.763 29.1176 189.969 29.5555C190.174 29.9934 190.271 30.4738 190.253 30.9568V32.1329C188.896 31.6769 187.472 31.4492 186.04 31.4589C183.176 31.4589 180.817 32.1329 178.963 33.4809C177.109 34.8289 176.256 36.851 176.256 39.1898C176.256 41.3736 176.933 43.0518 178.445 44.3931C179.957 45.7344 181.828 46.2399 184.004 46.2399C186.179 46.2399 188.216 45.4007 190.239 43.8809V45.7276H195.967V30.9568C195.967 28.2607 194.952 26.0871 193.26 24.5773L193.257 24.5739ZM182.813 36.9992C183.49 36.4971 184.329 36.3252 185.519 36.3252C187.015 36.3755 188.493 36.6586 189.901 37.1644V39.3482C188.506 40.5704 186.703 41.2292 184.846 41.1949C183.831 41.1949 182.992 41.0264 182.478 40.5209C181.964 40.0154 181.635 39.5099 181.635 38.8359C181.887 38.141 182.291 37.5103 182.816 36.9891L182.813 36.9992ZM227.475 46.3915C224.141 46.3929 220.882 45.4093 218.109 43.5653C215.336 41.7212 213.175 39.0995 211.898 36.0318C210.621 32.964 210.286 29.588 210.936 26.3307C211.586 23.0734 213.19 20.0811 215.547 17.7324C217.904 15.3837 220.908 13.784 224.177 13.1356C227.447 12.4872 230.837 12.8193 233.917 14.0899C236.997 15.3604 239.63 17.5124 241.482 20.2736C243.335 23.0347 244.323 26.2811 244.323 29.602C244.307 34.0488 242.527 38.309 239.371 41.454C236.215 44.599 231.939 46.3738 227.475 46.3915ZM227.475 18.5247C225.308 18.5214 223.188 19.1584 221.385 20.3551C219.581 21.5518 218.174 23.2545 217.343 25.2477C216.511 27.241 216.291 29.4352 216.711 31.5529C217.131 33.6706 218.173 35.6165 219.703 37.1446C221.234 38.6726 223.185 39.7141 225.31 40.1373C227.436 40.5605 229.639 40.3463 231.642 39.522C233.645 38.6976 235.357 37.3 236.562 35.506C237.768 33.712 238.412 31.6023 238.413 29.4436C238.416 28.01 238.135 26.5899 237.586 25.2648C237.036 23.9397 236.23 22.7357 235.212 21.7218C234.195 20.7079 232.986 19.9042 231.656 19.3567C230.326 18.8092 228.901 18.5288 227.461 18.5314" fill="#0080FF"/>
</svg>
