<svg width="279" height="228" viewBox="0 0 279 228" fill="none" xmlns="http://www.w3.org/2000/svg">
<g clip-path="url(#clip0)">
<path d="M247.233 44.3032C265.449 80.5982 259.688 126.416 236.916 160.04C214.144 193.663 176.268 215.439 136.45 223.366C108.01 229.027 77.4333 227.85 51.4558 215.013C25.4782 202.176 5.05283 176.263 3.49331 147.318C2.90127 136.387 5.21888 124.777 12.5183 116.612C24.1714 103.572 44.0553 103.117 61.5349 103.616C79.0145 104.114 98.8839 103.745 110.631 90.7639C119.62 80.7859 120.948 66.3098 125.685 53.747C133.749 32.3686 153.193 15.6832 175.539 10.9613C178.632 10.3066 181.769 9.87944 184.925 9.68335C209.473 8.14549 232.815 20.7949 245.71 41.7762L247.233 44.3032Z" fill="#F5F5F5"/>
<path d="M221.942 213.879L222.743 214.168C223.263 214.37 224.057 214.637 225.111 214.933C228.188 215.792 231.39 216.117 234.577 215.894C236.877 215.735 239.158 215.368 241.392 214.796C244.054 214.144 246.648 213.24 249.139 212.096C255.197 209.231 260.581 205.117 264.937 200.024C266.2 198.617 267.18 196.979 267.825 195.201C268.483 193.34 268.384 191.294 267.55 189.505C267.085 188.615 266.389 187.867 265.536 187.339C264.656 186.802 263.671 186.462 262.648 186.342C260.527 186.089 258.377 186.44 256.446 187.353C255.427 187.799 254.378 188.171 253.305 188.465C252.186 188.758 251.007 188.727 249.905 188.378C249.329 188.214 248.803 187.909 248.374 187.49C247.946 187.072 247.628 186.553 247.45 185.981C247.311 185.395 247.299 184.785 247.415 184.194C247.531 183.603 247.771 183.043 248.121 182.552C248.812 181.556 249.767 180.773 250.879 180.292C251.973 179.807 253.1 179.4 254.251 179.072C258.926 177.567 263.327 175.317 267.283 172.408C268.313 171.694 269.249 170.855 270.07 169.91C270.931 169 271.442 167.816 271.514 166.567C271.503 165.951 271.321 165.351 270.987 164.834C270.64 164.314 270.178 163.882 269.637 163.57C268.51 162.956 267.258 162.605 265.976 162.545C264.646 162.485 263.324 162.304 262.027 162.004C261.347 161.844 260.716 161.524 260.183 161.073C259.651 160.621 259.234 160.049 258.966 159.404C258.845 159.061 258.805 158.694 258.849 158.332C258.893 157.97 259.019 157.623 259.218 157.318C259.641 156.759 260.171 156.29 260.778 155.939C261.904 155.217 263.016 154.43 264.092 153.607C266.265 151.947 268.307 150.122 270.2 148.148C272.077 146.149 273.983 144.069 275.16 141.557C275.773 140.318 276.066 138.945 276.012 137.564C275.928 136.18 275.375 134.867 274.445 133.838C273.507 132.82 272.324 132.058 271.009 131.626C269.693 131.194 268.289 131.105 266.929 131.369C264.224 131.956 261.77 133.375 259.911 135.427C256.107 139.434 254.229 144.719 251.11 149.102C250.342 150.206 249.474 151.238 248.518 152.184C248.052 152.679 247.517 153.104 246.93 153.448C246.621 153.637 246.269 153.743 245.907 153.755C245.545 153.768 245.186 153.687 244.865 153.52C244.575 153.318 244.33 153.059 244.143 152.758C243.957 152.458 243.834 152.122 243.782 151.773C243.692 151.109 243.692 150.437 243.782 149.773C243.867 149.148 243.843 148.513 243.71 147.896C243.555 147.298 243.24 146.754 242.8 146.322C242.357 145.891 241.833 145.552 241.257 145.325C240.682 145.099 240.068 144.988 239.45 145.001C238.212 145.079 237.042 145.59 236.143 146.445C235.235 147.273 234.52 148.291 234.049 149.426C233.594 150.563 233.293 151.755 233.154 152.971C233.003 154.184 232.959 155.397 232.916 156.581C232.873 157.766 232.836 159 232.8 160.191C232.719 162.598 232.639 164.961 232.562 167.281C232.519 168.444 232.497 169.592 232.439 170.754C232.395 171.91 232.174 173.052 231.782 174.14C231.592 174.695 231.282 175.201 230.874 175.621C230.466 176.042 229.97 176.367 229.421 176.574C228.319 176.894 227.138 176.818 226.086 176.357C224.073 175.502 222.302 174.163 220.931 172.458C220.261 171.639 219.685 170.748 219.212 169.801C218.78 168.873 218.298 167.969 217.768 167.094C217.279 166.251 216.514 165.604 215.602 165.26C214.683 164.984 213.694 165.053 212.823 165.455C211.957 165.833 211.2 166.421 210.621 167.166C210.071 167.911 209.687 168.765 209.494 169.671C209.211 171.456 209.052 173.258 209.018 175.065C208.895 176.826 208.837 178.552 208.816 180.22C208.78 183.372 208.971 186.524 209.386 189.649C209.732 192.367 210.319 195.049 211.14 197.663C211.473 198.883 211.963 199.995 212.361 201.078C212.584 201.605 212.83 202.111 213.083 202.609C213.335 203.107 213.523 203.598 213.805 204.053C215.292 206.879 217.217 209.452 219.508 211.677C219.839 212.027 220.193 212.352 220.57 212.652L221.371 213.331L222.006 213.887L221.342 213.36L220.534 212.695C220.153 212.401 219.793 212.08 219.458 211.735C217.14 209.522 215.19 206.953 213.682 204.125C213.416 203.657 213.175 203.175 212.96 202.681C212.729 202.183 212.469 201.678 212.238 201.143C211.833 200.06 211.335 198.977 210.996 197.728C210.162 195.104 209.565 192.409 209.213 189.678C208.778 186.547 208.575 183.388 208.606 180.227C208.606 178.552 208.678 176.826 208.794 175.057C208.829 173.234 208.985 171.416 209.263 169.614C209.464 168.672 209.862 167.783 210.433 167.007C211.037 166.224 211.829 165.605 212.736 165.209C213.67 164.774 214.731 164.697 215.718 164.993C216.699 165.357 217.526 166.045 218.064 166.942C218.595 167.827 219.077 168.741 219.508 169.679C219.97 170.603 220.534 171.473 221.191 172.27C222.539 173.933 224.274 175.239 226.245 176.075C227.232 176.503 228.336 176.577 229.371 176.285C229.875 176.091 230.33 175.789 230.705 175.4C231.079 175.01 231.363 174.544 231.537 174.032C232.331 171.946 232.158 169.592 232.259 167.274C232.36 164.957 232.411 162.581 232.49 160.191C232.526 158.993 232.562 157.787 232.605 156.581C232.649 155.376 232.685 154.134 232.844 152.906C232.982 151.668 233.288 150.453 233.753 149.296C234.237 148.112 234.977 147.049 235.919 146.185C236.885 145.286 238.133 144.753 239.45 144.676C240.118 144.664 240.781 144.785 241.401 145.033C242.021 145.281 242.585 145.651 243.06 146.12C243.547 146.597 243.894 147.199 244.064 147.86C244.211 148.513 244.24 149.188 244.15 149.852C244.063 150.482 244.063 151.121 244.15 151.751C244.189 152.051 244.289 152.34 244.446 152.598C244.603 152.857 244.812 153.08 245.06 153.253C245.326 153.391 245.623 153.457 245.923 153.443C246.222 153.429 246.512 153.336 246.764 153.174C247.32 152.846 247.828 152.442 248.273 151.975C249.206 151.04 250.057 150.025 250.814 148.943C252.307 146.7 253.683 144.381 254.937 141.997C256.217 139.548 257.801 137.27 259.652 135.217C261.563 133.107 264.088 131.65 266.872 131.052C268.296 130.775 269.766 130.869 271.144 131.322C272.522 131.776 273.76 132.575 274.741 133.643C275.725 134.734 276.311 136.127 276.402 137.593C276.458 139.036 276.153 140.471 275.514 141.766C274.301 144.351 272.373 146.445 270.46 148.459C268.555 150.447 266.498 152.284 264.308 153.953C263.225 154.784 262.106 155.563 260.973 156.3C260.412 156.623 259.921 157.055 259.529 157.571C259.358 157.828 259.249 158.122 259.212 158.429C259.174 158.737 259.209 159.048 259.312 159.339C259.563 159.926 259.949 160.446 260.438 160.856C260.927 161.266 261.506 161.556 262.128 161.7C263.403 161.997 264.704 162.174 266.012 162.227C267.348 162.297 268.652 162.667 269.825 163.31C270.404 163.655 270.898 164.126 271.269 164.689C271.637 165.264 271.839 165.928 271.853 166.61C271.794 167.954 271.259 169.233 270.344 170.22C269.493 171.187 268.522 172.044 267.456 172.769C263.468 175.696 259.033 177.961 254.323 179.476C253.184 179.795 252.069 180.196 250.988 180.675C249.926 181.134 249.017 181.885 248.367 182.841C248.04 183.291 247.814 183.807 247.704 184.352C247.593 184.898 247.6 185.46 247.724 186.003C247.891 186.521 248.183 186.99 248.575 187.368C248.966 187.746 249.446 188.021 249.97 188.169C251.016 188.502 252.135 188.529 253.197 188.248C254.254 187.961 255.29 187.596 256.294 187.158C258.278 186.232 260.481 185.877 262.655 186.133C263.717 186.269 264.738 186.628 265.651 187.187C266.55 187.742 267.281 188.531 267.767 189.469C268.632 191.329 268.731 193.456 268.041 195.389C267.386 197.2 266.385 198.868 265.095 200.299C260.716 205.406 255.302 209.526 249.211 212.385C246.706 213.527 244.098 214.426 241.421 215.071C239.176 215.632 236.885 215.992 234.577 216.146C231.373 216.349 228.159 215.998 225.075 215.107C224.275 214.88 223.487 214.613 222.714 214.305L221.942 213.879Z" fill="#263238"/>
<path d="M225.978 205.071C228.651 197.381 231.763 189.85 235.299 182.516C236.223 180.566 237.14 178.631 238.049 176.74C238.959 174.848 239.847 172.964 240.844 171.173C242.756 167.749 244.856 164.432 247.132 161.238C249.298 158.177 251.464 155.347 253.479 152.719C255.493 150.091 257.464 147.665 259.334 145.557C262.269 142.193 265.465 139.066 268.893 136.207C270.106 135.196 271.059 134.438 271.731 133.94L272.489 133.369C272.572 133.301 272.662 133.241 272.756 133.189L272.518 133.405L271.796 134.005C271.153 134.532 270.207 135.304 269.009 136.337C265.633 139.241 262.479 142.393 259.572 145.766C257.724 147.896 255.796 150.315 253.796 152.943C251.796 155.571 249.637 158.415 247.493 161.477C245.236 164.663 243.153 167.97 241.255 171.383C240.266 173.159 239.378 175.029 238.475 176.927L235.732 182.703C232.2 190.021 229.083 197.532 226.396 205.201" fill="#263238"/>
<path d="M240.966 171.159C240.868 170.824 240.805 170.481 240.778 170.133C240.677 169.476 240.562 168.516 240.446 167.325C240.201 164.95 239.977 161.664 239.724 158.033C239.472 154.401 239.219 151.123 238.944 148.762C238.807 147.578 238.685 146.596 238.591 145.961C238.518 145.622 238.489 145.275 238.504 144.928C238.624 145.254 238.711 145.59 238.764 145.932C238.901 146.589 239.067 147.542 239.248 148.719C239.609 151.08 239.926 154.372 240.157 158.004C240.388 161.636 240.583 164.827 240.735 167.303C240.814 168.415 240.879 169.361 240.93 170.119C240.98 170.463 240.992 170.812 240.966 171.159V171.159Z" fill="#263238"/>
<path d="M271.68 166.639C271.277 166.709 270.869 166.741 270.46 166.733C269.673 166.776 268.539 166.827 267.132 166.935C264.33 167.13 260.467 167.527 256.222 168.162C252.46 168.725 248.8 169.397 245.392 170.155C244.02 170.458 242.916 170.725 242.15 170.877C241.757 170.997 241.353 171.082 240.945 171.13C241.316 170.948 241.705 170.808 242.107 170.711C242.829 170.48 243.955 170.162 245.327 169.823C248.056 169.101 251.883 168.336 256.157 167.693C259.789 167.14 263.447 166.773 267.117 166.596C268.525 166.523 269.666 166.523 270.453 166.538C270.864 166.527 271.276 166.561 271.68 166.639V166.639Z" fill="#263238"/>
<path d="M226.375 204.522C226.292 204.407 226.227 204.281 226.18 204.147L225.703 203.021C225.292 202.046 224.728 200.616 224.064 198.84C222.728 195.288 221.039 190.328 219.248 184.826C217.458 179.325 215.812 174.35 214.548 170.783C213.935 169.043 213.422 167.614 213.046 166.552C212.888 166.09 212.75 165.715 212.642 165.397C212.586 165.266 212.547 165.127 212.527 164.986C212.611 165.102 212.677 165.231 212.722 165.368L213.205 166.487C213.617 167.469 214.173 168.899 214.837 170.675C216.173 174.22 217.869 179.187 219.66 184.689C221.451 190.191 223.811 195.952 225.075 199.526C225.689 201.266 225.479 201.894 225.855 202.956C226.021 203.418 226.151 203.8 226.259 204.111C226.314 204.243 226.353 204.381 226.375 204.522V204.522Z" fill="#263238"/>
<path d="M267.399 193.035C267.268 193.102 267.13 193.153 266.987 193.187L265.796 193.533L261.406 194.768C257.695 195.815 252.59 197.324 246.966 198.992C241.688 200.551 236.779 201.966 232.468 203.085C230.606 203.576 229.089 203.952 228.035 204.19L226.822 204.457C226.684 204.498 226.541 204.52 226.396 204.522C226.526 204.454 226.664 204.403 226.808 204.371L227.999 204.024L232.389 202.789C236.1 201.742 241.204 200.234 246.829 198.566C252.453 196.898 257.594 195.439 261.327 194.472C263.189 193.981 264.706 193.606 265.752 193.367L266.965 193.1C267.106 193.059 267.252 193.037 267.399 193.035V193.035Z" fill="#263238"/>
<path d="M148.283 38.26C148.283 38.26 147.864 36.2528 147.164 30.4479L140.782 17.9356C140.782 17.9356 142.226 15.3148 145.482 20.8598C146.984 23.3868 151.98 22.3038 151.171 18.3616C150.362 14.4195 145.193 12.5856 142.031 16.5133C142.031 16.5133 139.987 16.7227 139.749 15.1271C139.511 13.5314 144.124 9.58933 148.052 10.7373C149.653 11.2413 151.129 12.0778 152.384 13.1921C152.384 13.1921 151.532 0.0372721 152.601 -0.0782479C153.669 -0.193768 155.149 0.643758 155.958 15.0332C155.958 15.0332 156.406 3.64727 156.629 2.19605C156.853 0.744833 158.795 -0.237087 159.055 3.40901C159.055 3.81333 159.777 15.0043 159.777 15.0043C159.777 15.0043 161.055 7.60383 161.221 7.01179C161.582 5.45227 163.12 5.61833 163.272 7.68325C163.38 9.24999 163.886 15.9357 163.886 15.9357L164.853 36.5199H164.983" fill="#FFBE9D"/>
<path d="M168.701 31.4659L144.731 30.845L142.348 88.8504L115.23 76.9519L115.187 77.0458C113.555 76.3238 112.133 75.6739 111.374 75.2552C96.393 67.0894 86.5593 66.093 70.4804 71.8329L39.6799 84.1647C33.7162 86.9733 18.2004 89.5652 12.8792 114.099L12.1572 117.03L36.8063 134.712L53.7083 179.259L73.9243 223.85L120.457 222.341L144.774 192.017L124.139 152.603L111.317 108.46C120.378 114.474 137.193 122.662 157.33 118.395C179.17 113.774 168.701 31.4659 168.701 31.4659Z" fill="#FFAF2D"/>
<g opacity="0.3">
<path opacity="0.3" d="M53.5496 178.804C57.2488 181.057 61.2404 182.789 65.412 183.952C67.6791 184.631 70.2783 185.129 72.2927 183.887C74.3071 182.645 74.6175 178.97 72.3649 178.234L91.895 173.823C89.2452 166.198 93.6133 157.498 100.22 152.885C106.826 148.271 114.335 146.928 122.378 146.228L132.118 176.443L99.5626 220.846L72.9064 221.619L53.5496 178.804Z" fill="black"/>
</g>
<path d="M43.3332 137.066C43.3332 137.066 31.1242 163.78 33.9472 177.093C35.5068 184.544 59.8887 190.905 75.4261 192.804L70.7692 218.883C70.7692 218.883 13.0092 213.388 2.21533 190.523C-3.92167 177.527 2.29475 145.759 13.9839 109.803L43.3332 137.066Z" fill="#FFAF2D"/>
<path d="M98.9416 168.35C98.8132 168.44 98.6752 168.515 98.53 168.574L97.3099 169.137C96.2485 169.628 94.6962 170.299 92.7685 171.108C88.913 172.711 83.5124 174.776 77.4404 176.725C71.3684 178.674 65.7729 180.133 61.7008 181.057C59.6648 181.526 58.0114 181.88 56.8634 182.097L55.5422 182.342C55.3914 182.383 55.2362 182.405 55.0801 182.407C55.2236 182.345 55.3738 182.299 55.5277 182.27L56.8345 181.952C57.9753 181.692 59.6142 181.295 61.6431 180.797C65.6935 179.794 71.2601 178.292 77.3249 176.35C83.3897 174.407 88.7903 172.386 92.6674 170.841C94.6096 170.075 96.1691 169.44 97.2521 168.992L98.494 168.487C98.6379 168.426 98.7879 168.38 98.9416 168.35V168.35Z" fill="white"/>
<path d="M115.021 76.0927C115.021 76.1866 92.2993 84.4391 64.199 94.5182C36.0988 104.597 13.2764 112.691 13.2403 112.568C13.2042 112.445 35.9616 104.222 64.0691 94.1427C92.1765 84.0636 114.985 75.9917 115.021 76.0927Z" fill="white"/>
<path d="M37.3983 150.596C37.4106 150.541 37.4301 150.487 37.4561 150.437L37.6438 149.99L38.3658 148.264C39.0012 146.762 39.9037 144.574 40.8206 141.809C41.901 138.566 42.6414 135.22 43.0299 131.824C43.5084 127.677 43.2048 123.477 42.1346 119.442C41.0842 115.396 39.0106 111.689 36.1132 108.677C33.7038 106.265 30.7421 104.478 27.4853 103.471C25.2872 102.8 22.9812 102.555 20.6912 102.749L19.6155 102.886C19.305 102.93 19.0523 102.995 18.8357 103.031L18.3592 103.124H18.1931C18.1931 103.124 18.2437 103.124 18.3447 103.074L18.8213 102.944C19.0306 102.893 19.2906 102.814 19.601 102.756L20.6768 102.59C22.9884 102.336 25.3273 102.545 27.5575 103.204C30.8778 104.185 33.9021 105.977 36.3586 108.417C39.3126 111.462 41.427 115.22 42.4956 119.326C43.5788 123.406 43.8777 127.654 43.3765 131.846C42.9627 135.256 42.1883 138.613 41.0661 141.86C40.113 144.625 39.1744 146.798 38.4958 148.286C38.1492 149.008 37.8748 149.6 37.6799 149.982L37.4561 150.423C37.4344 150.531 37.4055 150.596 37.3983 150.596Z" fill="#263238"/>
<path d="M95.411 70.0786C95.5551 70.1217 95.6933 70.1823 95.8225 70.2591C96.2106 70.4515 96.5845 70.6711 96.9416 70.9161C98.2676 71.812 99.4444 72.9108 100.429 74.1724C101.873 76.0543 103.027 78.1425 103.851 80.3671C104.833 83.0812 105.669 85.8455 106.357 88.6485L110.378 103.81L111.548 108.424L111.851 109.68C111.896 109.826 111.923 109.976 111.93 110.128C111.864 109.992 111.813 109.849 111.779 109.702C111.685 109.377 111.562 108.98 111.411 108.46L110.118 103.883L105.996 88.7207C105.201 85.7605 104.472 82.9447 103.526 80.461C102.727 78.2614 101.613 76.1894 100.22 74.3095C99.268 73.0513 98.1368 71.9396 96.8622 71.01C95.9525 70.3891 95.3893 70.1075 95.411 70.0786Z" fill="#263238"/>
<path d="M135.338 85.616L135.02 85.7676L134.06 86.1863L130.392 87.7314C127.186 89.0888 122.529 91.0093 116.768 93.363C105.216 98.0632 89.2595 104.41 71.4911 111.11C53.7226 117.81 37.557 123.608 25.7668 127.716C19.8897 129.759 15.1245 131.384 11.825 132.488L8.02003 133.752L7.03088 134.069L6.68433 134.17L7.01645 134.033L7.99837 133.68L11.7744 132.351L25.6801 127.463C37.4126 123.319 53.5855 117.485 71.3611 110.785C89.1367 104.085 105.122 97.7889 116.667 93.1392L130.334 87.6231L134.052 86.1214L135.027 85.7387L135.338 85.616Z" fill="white"/>
<path d="M114.198 114.402L113.923 114.532L113.1 114.886L109.916 116.207C107.151 117.355 103.136 118.965 98.1547 120.922C88.1911 124.828 74.3287 130.019 58.8995 135.304C43.4704 140.589 29.2975 144.957 19.0523 147.968C13.9189 149.47 9.75297 150.654 6.86497 151.441L3.54377 152.343L2.67737 152.567C2.58101 152.598 2.48188 152.62 2.38135 152.632C2.47245 152.591 2.56659 152.557 2.66293 152.531L3.52211 152.271L6.82887 151.318C9.71687 150.488 13.8539 149.26 18.9801 147.708C29.2253 144.639 43.3332 140.228 58.7768 134.95C74.2204 129.672 88.0755 124.517 98.0608 120.669C103.05 118.749 107.079 117.175 109.858 116.07L113.071 114.814L113.909 114.496L114.198 114.402Z" fill="white"/>
<path d="M170.643 89.4065C170.515 89.5388 170.374 89.6596 170.225 89.7675L168.961 90.7494C168.412 91.1754 167.734 91.688 166.932 92.2584C166.131 92.8288 165.228 93.5002 164.196 94.1861C162.153 95.594 159.662 97.1897 156.839 98.8647C154.016 100.54 150.839 102.265 147.453 103.919C144.067 105.572 140.731 107.009 137.684 108.251C134.637 109.493 131.836 110.417 129.468 111.175C128.291 111.565 127.208 111.897 126.262 112.149C125.316 112.402 124.5 112.655 123.829 112.821L122.277 113.218C122.099 113.269 121.918 113.305 121.735 113.326C121.902 113.248 122.076 113.185 122.255 113.139L123.786 112.684C124.45 112.489 125.23 112.251 126.204 111.962C127.179 111.673 128.211 111.348 129.381 110.937C131.735 110.157 134.507 109.146 137.554 107.94C140.601 106.735 143.893 105.276 147.287 103.608C150.68 101.94 153.842 100.222 156.673 98.5542C159.503 96.8864 161.994 95.3269 164.052 93.9479C165.091 93.2764 166.001 92.6266 166.817 92.0707C167.633 91.5147 168.319 91.0238 168.882 90.6267L170.181 89.7025C170.326 89.5894 170.48 89.4903 170.643 89.4065Z" fill="white"/>
<path d="M171.77 70.1434C171.806 70.2445 165.178 72.9087 156.969 76.0999C148.76 79.2912 142.067 81.7965 142.031 81.6954C141.995 81.5943 148.615 78.9374 156.832 75.7461C165.048 72.5549 171.734 70.0496 171.77 70.1434Z" fill="white"/>
<path d="M170.311 52.1801C170.311 52.2812 164.535 54.0212 157.315 56.0645C150.095 58.1077 144.24 59.6745 144.211 59.5806C144.182 59.4868 149.987 57.7467 157.207 55.7035C164.427 53.6602 170.282 52.079 170.311 52.1801Z" fill="white"/>
<path d="M169.04 34.6066C169.04 34.7077 163.431 36.0506 156.463 37.5596C149.496 39.0686 143.835 40.2527 143.814 40.1516C143.792 40.0505 149.417 38.7076 156.384 37.1986C163.351 35.6896 169.012 34.5055 169.04 34.6066Z" fill="white"/>
<path d="M118.746 134.279C118.746 134.373 102.718 140.777 82.8699 148.618C63.0221 156.459 46.8926 162.711 46.8565 162.617C46.8204 162.523 62.8777 156.119 82.7327 148.271C102.588 140.423 118.71 134.178 118.746 134.279Z" fill="white"/>
<path d="M33.81 166.068C33.708 166.133 33.599 166.187 33.4851 166.227L32.5176 166.624C31.6729 166.956 30.4455 167.426 28.9076 167.989C25.8608 169.115 21.6226 170.595 16.9007 172.097C12.1789 173.599 7.86131 174.848 4.72783 175.707C3.16109 176.126 1.88315 176.429 1.00231 176.675L-0.015709 176.913C-0.132407 176.95 -0.254139 176.97 -0.376709 176.971C-0.27016 176.912 -0.155957 176.868 -0.0373709 176.841L0.966211 176.53L4.65563 175.447C7.76745 174.537 12.0633 173.281 16.7852 171.751C21.5071 170.22 25.7452 168.805 28.8137 167.743L32.4237 166.494L33.4129 166.162C33.5385 166.107 33.6731 166.076 33.81 166.068V166.068Z" fill="white"/>
<path d="M42.38 184.364C42.4233 184.458 34.6402 187.707 25.0015 191.62C15.3628 195.533 7.50742 198.63 7.47132 198.537C7.43522 198.443 15.2112 195.187 24.8571 191.273C34.503 187.36 42.3439 184.263 42.38 184.364Z" fill="white"/>
<path d="M56.5529 189.418C56.6323 189.49 52.2642 194.66 46.8059 200.97C41.3476 207.28 36.8495 212.341 36.7701 212.276C36.6907 212.211 41.0588 207.035 46.5171 200.724C51.9754 194.414 56.4735 189.353 56.5529 189.418Z" fill="white"/>
<path d="M71.0435 193.1C71.1446 193.136 69.3901 198.638 67.1303 205.374C64.8704 212.11 62.9571 217.583 62.8632 217.547C62.7694 217.511 64.5166 212.016 66.7765 205.273C69.0363 198.529 70.9424 193.064 71.0435 193.1Z" fill="white"/>
<path d="M165.77 111.861C165.813 111.954 161.662 113.673 156.5 115.694C151.337 117.716 147.114 119.268 147.114 119.174C147.114 119.081 151.229 117.362 156.391 115.341C161.554 113.319 165.727 111.76 165.77 111.861Z" fill="white"/>
<g opacity="0.3">
<path opacity="0.3" d="M104.147 81.6956C110.847 99.8394 122.919 109.984 139.966 119.081C129.885 117.963 120.224 114.424 111.808 108.763" fill="black"/>
</g>
<path d="M98.0752 226.406H226.685V171.462C226.686 169.014 226.205 166.59 225.269 164.328C224.333 162.067 222.96 160.012 221.23 158.28C219.499 156.549 217.444 155.176 215.183 154.239C212.922 153.302 210.498 152.82 208.05 152.82H116.717C111.773 152.82 107.031 154.784 103.535 158.28C100.039 161.776 98.0752 166.518 98.0752 171.462V226.406Z" fill="#455A64"/>
<path d="M114.746 152.82H135.179C137.182 152.82 139.103 153.616 140.519 155.032C141.935 156.448 142.731 158.369 142.731 160.372V225.446C142.731 225.7 142.63 225.945 142.45 226.125C142.27 226.305 142.025 226.406 141.771 226.406H99.0428C98.7881 226.406 98.5439 226.305 98.3638 226.125C98.1837 225.945 98.0825 225.7 98.0825 225.446V169.491C98.0825 165.071 99.8379 160.831 102.963 157.705C106.088 154.579 110.326 152.822 114.746 152.82V152.82Z" fill="#455A64"/>
<path d="M107.562 226.406V171.382C107.562 166.461 109.517 161.74 112.997 158.259C116.476 154.778 121.196 152.822 126.118 152.82H112.891C112.891 152.82 97.3604 154.885 97.3604 174.321C97.3604 193.757 97.8585 226.406 97.8585 226.406H107.562Z" fill="#263238"/>
<path d="M142.731 221.179H34.8281V227.301H142.731V221.179Z" fill="#263238"/>
<path d="M230.887 221.179H142.731V227.301H230.887V221.179Z" fill="#455A64"/>
<path d="M142.731 224.24C142.722 224.168 142.722 224.095 142.731 224.023C142.731 223.857 142.731 223.641 142.731 223.374C142.731 222.782 142.731 221.93 142.731 220.897C142.731 218.731 142.731 215.619 142.731 211.793C142.767 204.075 142.825 193.468 142.89 181.743C142.89 178.812 142.984 175.967 142.803 173.195C142.678 170.551 142.212 167.935 141.417 165.411C140.249 161.829 137.988 158.704 134.95 156.475C131.913 154.246 128.253 153.025 124.486 152.986C124.004 152.97 123.522 152.982 123.042 153.022C122.694 153.035 122.346 153.069 122.002 153.123L121.367 153.21H121.143L121.36 153.159L121.995 153.036C122.338 152.967 122.685 152.921 123.035 152.899C123.514 152.842 123.996 152.818 124.479 152.827C127.547 152.812 130.569 153.58 133.258 155.058C137.323 157.214 140.372 160.888 141.742 165.281C142.559 167.834 143.044 170.482 143.186 173.158C143.366 175.931 143.308 178.805 143.28 181.736C143.171 193.454 143.077 204.067 143.005 211.778C142.955 215.605 142.911 218.709 142.883 220.89C142.883 221.944 142.839 222.774 142.832 223.366V224.009C142.806 224.089 142.772 224.167 142.731 224.24V224.24Z" fill="#263238"/>
<path d="M230.281 221.027C230.281 221.128 210.195 221.251 185.43 221.294C160.665 221.338 140.579 221.294 140.579 221.179C140.579 221.063 160.651 220.955 185.43 220.912C210.209 220.868 230.281 220.926 230.281 221.027Z" fill="#263238"/>
<path d="M230.281 227.547C230.281 227.648 210.339 227.677 185.755 227.612C161.171 227.547 141.222 227.41 141.229 227.301C141.236 227.193 161.156 227.171 185.755 227.236C210.354 227.301 230.281 227.438 230.281 227.547Z" fill="#263238"/>
<path d="M218.671 214.19C218.671 214.19 218.671 214.096 218.671 213.93C218.671 213.764 218.671 213.497 218.671 213.172C218.671 212.5 218.671 211.526 218.671 210.284C218.671 207.749 218.635 204.06 218.613 199.396L218.721 199.511L161.012 199.584C161.091 199.504 160.817 199.771 161.192 199.396V214.197L161.005 214.016L202.159 214.096L214.296 214.146H217.573H218.425H218.721C218.63 214.153 218.538 214.153 218.447 214.146H217.617H214.382L202.289 214.197L161.005 214.284H160.824V214.096C160.824 211.689 160.824 209.258 160.824 206.804V199.295C161.2 198.919 160.933 199.194 161.019 199.107L218.729 199.179H218.844V199.295C218.844 203.988 218.794 207.699 218.779 210.255C218.779 211.506 218.779 212.469 218.779 213.143C218.779 213.453 218.779 213.699 218.779 213.865C218.757 213.977 218.72 214.086 218.671 214.19V214.19Z" fill="#263238"/>
<path d="M186.08 203.194V209.8H185.408V204.529L182.824 208.962H182.491L179.907 204.558V209.8H179.242V203.215H179.813L182.701 208.096L185.531 203.215L186.08 203.194Z" fill="#263238"/>
<path d="M192.354 208.017H188.686L187.892 209.778H187.17L190.181 203.194H190.867L193.877 209.778H193.155L192.354 208.017ZM192.101 207.453L190.52 203.916L188.939 207.453H192.101Z" fill="#263238"/>
<path d="M194.968 203.194H195.69V209.8H194.968V203.194Z" fill="#263238"/>
<path d="M197.812 203.194H198.534V209.172H202.224V209.8H197.841L197.812 203.194Z" fill="#263238"/>
<path d="M211.256 137.759V126.929H191.04V170.35C189.403 171.317 188.134 172.801 187.432 174.567C186.73 176.334 186.635 178.284 187.162 180.111C187.689 181.938 188.808 183.538 190.342 184.659C191.877 185.781 193.742 186.361 195.642 186.308C197.542 186.255 199.371 185.573 200.842 184.367C202.312 183.162 203.34 181.502 203.764 179.649C204.189 177.796 203.986 175.854 203.187 174.129C202.388 172.404 201.038 170.994 199.35 170.119V137.759H211.256Z" fill="#FFAF2D"/>
<path d="M195.618 180.906C197.444 180.906 198.924 179.425 198.924 177.599C198.924 175.772 197.444 174.292 195.618 174.292C193.791 174.292 192.311 175.772 192.311 177.599C192.311 179.425 193.791 180.906 195.618 180.906Z" fill="#263238"/>
<path d="M71.3973 72.1001C71.4716 72.2416 71.5344 72.3889 71.585 72.5405C71.7534 72.972 71.8956 73.4132 72.011 73.8618C72.4366 75.5107 72.6022 77.2158 72.502 78.9158C72.3589 81.4507 71.6404 83.9198 70.401 86.1358C68.8534 88.8642 66.4937 91.0422 63.6503 92.3667C60.8164 93.7254 57.612 94.1062 54.5386 93.4497C52.0566 92.8739 49.7597 91.682 47.8601 89.984C46.5857 88.8435 45.5097 87.4991 44.6761 86.0058C44.4491 85.6045 44.2466 85.1898 44.0696 84.764C43.996 84.6197 43.9402 84.4669 43.9036 84.3091C43.9469 84.3091 44.1851 84.9156 44.8061 85.9336C45.6729 87.378 46.7621 88.6767 48.0334 89.7819C49.916 91.4196 52.1763 92.5634 54.6108 93.1103C57.6104 93.7313 60.7311 93.3482 63.4914 92.0201C66.2662 90.7287 68.5755 88.6135 70.1049 85.9625C71.334 83.7898 72.0617 81.3699 72.2348 78.8797C72.3609 77.2004 72.2368 75.5118 71.8666 73.869C71.6067 72.7282 71.354 72.1145 71.3973 72.1001Z" fill="#263238"/>
<path d="M132.854 183.866L142.709 183.736L142.327 217.215L133.179 217.576L132.854 183.866Z" fill="#EBEBEB"/>
<path d="M133.179 217.576C134.528 215.833 135.974 214.167 137.511 212.587C138.969 210.92 140.521 209.339 142.161 207.851C140.793 209.592 139.333 211.257 137.785 212.84C136.338 214.502 134.801 216.083 133.179 217.576V217.576Z" fill="#263238"/>
<path d="M142.709 195.013C140.936 193.313 139.25 191.525 137.655 189.656C135.964 187.873 134.366 186.003 132.868 184.053C134.643 185.752 136.33 187.54 137.922 189.411C139.612 191.196 141.209 193.066 142.709 195.013Z" fill="#263238"/>
<path d="M59.0221 37.0254C59.0221 37.5338 59.1711 38.0312 59.4509 38.4557C59.7307 38.8803 60.1288 39.2136 60.596 39.4141C61.0633 39.6147 61.5791 39.6738 62.0796 39.5842C62.5801 39.4945 63.0433 39.2601 63.4119 38.9098C64.8054 37.5885 64.3288 35.2637 63.4624 33.5453C62.596 31.827 61.3975 30.0869 61.6502 28.1881C61.8452 26.7441 62.856 25.5383 63.5346 24.2315C64.1356 23.0974 64.4647 21.8392 64.496 20.5561C64.5273 19.2731 64.26 18.0003 63.7151 16.8382C63.1412 15.6887 62.2612 14.7199 61.1721 14.0383C60.0829 13.3568 58.8268 12.9891 57.542 12.9755C54.9356 13.0261 52.1848 14.6578 49.8672 13.4593C48.1849 12.5857 47.4846 10.5713 46.0189 9.32945C43.7591 7.45947 40.344 8.08039 37.6654 9.32945C34.9868 10.5785 32.4237 12.3041 29.4851 12.4485C27.0375 12.564 24.6838 11.5388 22.2651 11.2066C19.6147 10.8492 16.9188 11.3266 14.5523 12.5723C12.1858 13.8181 10.2663 15.7703 9.06078 18.1576C7.85524 20.5448 7.42357 23.2484 7.82582 25.8924C8.22806 28.5363 9.44421 30.9892 11.3052 32.91C12.5984 34.3416 14.3545 35.2721 16.2653 35.538" fill="#263238"/>
<path d="M62.293 92.2006C58.6192 93.4116 54.6152 93.1165 51.1586 91.3801C47.702 89.6437 45.0749 86.6076 43.8531 82.9374C42.4091 78.5621 41.1745 74.8799 41.1745 74.8799C41.1745 74.8799 29.5503 76.656 25.9114 65.6166C22.2725 54.5772 16.5254 30.0148 16.5254 30.0148L16.1716 28.5275C27.2616 18.961 43.03 17.3653 56.7841 22.3832L57.5061 24.672L71.9461 74.7138C72.8568 78.3094 72.3661 82.1167 70.5736 85.3639C68.781 88.6111 65.8208 91.0552 62.293 92.2006V92.2006Z" fill="#FFBE9D"/>
<path d="M26.2506 46.2959C26.5282 46.092 26.7374 45.8087 26.8508 45.4835C26.9641 45.1583 26.9763 44.8063 26.8856 44.474C26.7949 44.1418 26.6056 43.8448 26.3428 43.6222C26.0799 43.3997 25.7557 43.262 25.4131 43.2274C25.0034 43.1772 24.5906 43.2915 24.2651 43.5451C23.9824 43.7469 23.7682 44.0304 23.6512 44.3574C23.5341 44.6844 23.5198 45.0394 23.6101 45.3747C23.7005 45.7101 23.8911 46.0099 24.1566 46.2339C24.422 46.4579 24.7496 46.5954 25.0954 46.628C25.3003 46.6514 25.5078 46.6341 25.7061 46.5771C25.9043 46.5201 26.0894 46.4246 26.2506 46.2959V46.2959Z" fill="#263238"/>
<path d="M21.6371 44.9095C21.8754 45.0467 22.6984 43.8626 24.2219 43.3717C25.7453 42.8807 27.1099 43.3211 27.2037 43.0756C27.2615 42.9601 26.9799 42.6713 26.3807 42.4547C25.5823 42.1893 24.7199 42.1863 23.9197 42.4461C23.1194 42.7059 22.4233 43.2149 21.9331 43.8987C21.5793 44.4619 21.5288 44.8518 21.6371 44.9095Z" fill="#263238"/>
<path d="M40.2648 40.1298C40.0462 40.3826 39.9075 40.6945 39.8662 41.0261C39.8249 41.3578 39.8829 41.6942 40.0328 41.9928C40.1827 42.2915 40.4179 42.539 40.7084 42.704C40.999 42.869 41.332 42.9442 41.6653 42.9199C41.9986 42.8957 42.3172 42.7731 42.5809 42.5678C42.8445 42.3625 43.0413 42.0836 43.1465 41.7664C43.2516 41.4492 43.2603 41.1079 43.1714 40.7858C43.0826 40.4636 42.9002 40.175 42.6474 39.9565C42.3076 39.6655 41.8666 39.5204 41.4204 39.5528C40.9742 39.5853 40.5588 39.7927 40.2648 40.1298Z" fill="#263238"/>
<path d="M38.2431 41.1914C38.4741 41.3286 39.2972 40.1517 40.8206 39.6607C42.344 39.1698 43.7086 39.6102 43.8097 39.3575C43.8675 39.2492 43.5859 38.9532 42.9866 38.7438C42.1882 38.4784 41.3259 38.4753 40.5256 38.7352C39.7254 38.995 39.0293 39.504 38.5391 40.1878C38.1853 40.7365 38.1276 41.1336 38.2431 41.1914Z" fill="#263238"/>
<path d="M36.0987 55.718C36.0987 55.6025 35.0662 55.718 33.4706 55.9924C33.0591 56.079 32.7053 56.0934 32.597 55.8696C32.4496 55.4723 32.422 55.0406 32.5176 54.6278C32.5898 53.5015 32.662 52.3463 32.7414 51.1405C33.0085 46.1948 33.0374 42.1805 32.8064 42.1661C32.5753 42.1516 32.1566 46.1515 31.8822 51.0972C31.8245 52.3029 31.7739 53.4509 31.7234 54.5845C31.6281 55.1727 31.735 55.7759 32.0266 56.2956C32.1286 56.4274 32.2602 56.5333 32.4107 56.6048C32.5612 56.6763 32.7264 56.7114 32.893 56.7071C33.1383 56.7004 33.3813 56.6591 33.615 56.5844C35.1673 56.1584 36.1204 55.8335 36.0987 55.718Z" fill="#263238"/>
<path d="M41.586 55.8406C42.8784 54.3966 37.976 59.5445 34.792 60.3748C35.5622 61.0142 36.5267 61.3731 37.5275 61.3928C38.5283 61.4124 39.5061 61.0917 40.3009 60.4831C43.2322 58.2232 41.586 55.8406 41.586 55.8406Z" fill="white"/>
<path d="M41.1094 74.7282C46.2544 73.2085 50.831 70.1926 54.257 66.0642C54.257 66.0642 53.3617 75.1181 41.983 77.6162L41.1094 74.7282Z" fill="#EB996E"/>
<path d="M59.1089 32.2384C59.3327 32.0796 67.1736 29.0039 68.7981 38.7725C70.4226 48.5412 60.0186 46.9384 59.9536 46.664C59.8886 46.3896 59.1089 32.2384 59.1089 32.2384Z" fill="#FFBE9D"/>
<path d="M62.3795 42.7437C62.3795 42.7003 62.5673 42.8303 62.8777 42.9169C63.312 43.0199 63.7693 42.9527 64.1557 42.7292C65.1231 42.1805 65.7152 40.3972 65.4769 38.6355C65.3606 37.7933 65.0599 36.9871 64.5961 36.2745C64.4525 35.985 64.2409 35.7346 63.9793 35.5447C63.7178 35.3548 63.4141 35.2312 63.0943 35.1843C62.8902 35.1649 62.6858 35.218 62.5168 35.3341C62.3479 35.4503 62.2252 35.6222 62.1702 35.8197C62.0835 36.1085 62.1702 36.2962 62.1702 36.3179C62.1702 36.3395 61.9319 36.1951 61.9391 35.7764C61.9576 35.5244 62.0592 35.2857 62.2279 35.0977C62.4629 34.8522 62.7837 34.7073 63.1232 34.6934C63.5373 34.7072 63.941 34.8265 64.296 35.04C64.6511 35.2536 64.9457 35.5542 65.152 35.9135C65.6862 36.6977 66.023 37.5993 66.1339 38.5416C66.4011 40.5127 65.7007 42.5271 64.3578 43.1624C64.1082 43.2843 63.8341 43.3476 63.5564 43.3476C63.2787 43.3476 63.0046 43.2843 62.755 43.1624C62.4373 42.9747 62.3507 42.7653 62.3795 42.7437Z" fill="#EB996E"/>
<path d="M15.2546 35.3719C15.2546 35.3719 22.915 36.7509 30.4744 29.9064C35.4273 25.4155 41.752 22.1232 43.5642 22.8669C45.3765 23.6105 47.3403 29.4659 53.5423 29.5959C53.5423 29.5959 56.322 41.0396 60.7262 39.3718C65.1304 37.704 57.3905 20.9391 57.3905 20.9391L44.9649 16.3833L32.2649 17.488L19.37 22.6936L13.0886 29.3937L15.2546 35.3719Z" fill="#263238"/>
<path d="M55.5421 11.25C54.7159 11.5588 53.9265 11.9583 53.1884 12.4413C52.5213 13.0208 51.923 13.6748 51.405 14.3907C51.6677 13.4934 52.2113 12.704 52.956 12.1386C53.7007 11.5733 54.6072 11.2618 55.5421 11.25V11.25Z" fill="#263238"/>
<path d="M49.6435 8.08032C49.8754 8.36229 50.0518 8.68568 50.1633 9.03336C50.5086 9.84223 50.7511 10.6912 50.8853 11.5604C51.0195 12.4336 50.9951 13.3239 50.8131 14.1884C50.7722 14.5554 50.6434 14.9071 50.4377 15.2137C50.6066 14.0176 50.6309 12.8055 50.5099 11.6037C50.2066 9.63984 49.5279 8.12364 49.6435 8.08032Z" fill="#263238"/>
<path d="M79.3176 183.36L129.316 174.061L136.789 207.851L84.8626 216.616L79.3176 183.36Z" fill="#E0E0E0"/>
<path d="M129.316 174.061C129.316 174.061 129.316 174.112 129.229 174.198L128.948 174.595L127.836 176.083L123.677 181.519C120.111 186.126 115.215 192.458 109.764 199.49L109.671 199.613L109.533 199.54L108.559 199.028L87.8445 188.017L81.5919 184.638L79.8952 183.707L79.462 183.454C79.4097 183.427 79.3611 183.393 79.3176 183.353L79.4765 183.418L79.9313 183.635L81.6569 184.53C83.1803 185.317 85.3247 186.436 87.9744 187.801L108.732 198.696L109.699 199.208L109.461 199.259L123.461 181.36L127.713 175.989C128.211 175.382 128.601 174.899 128.883 174.545C129.013 174.4 129.114 174.278 129.193 174.177L129.316 174.061Z" fill="#263238"/>
<path d="M84.8626 216.616C84.7759 216.558 87.9888 211.461 92.0465 205.23C96.1041 198.999 99.4542 193.988 99.5408 194.046C99.6275 194.104 96.4146 199.201 92.3208 205.432C88.2271 211.663 84.9492 216.673 84.8626 216.616Z" fill="#263238"/>
<path d="M136.789 207.851C136.724 207.93 132.045 204.349 126.342 199.851C120.638 195.353 116.068 191.642 116.133 191.562C116.198 191.483 120.869 195.057 126.58 199.555C132.291 204.053 136.89 207.764 136.789 207.851Z" fill="#263238"/>
<path d="M80.6316 190.898C80.6316 190.898 80.9854 197.446 84.1405 197.396C87.2957 197.345 98.4289 191.266 99.7213 193.374C101.014 195.483 97.5986 198.428 97.5986 198.428C97.5986 198.428 101.519 198.371 100.061 200.717C98.6022 203.064 94.2341 214.052 90.1981 215.085C84.4221 216.565 71.0435 217.143 71.0435 217.143L75.1661 194.132L80.6316 190.898Z" fill="#FFBE9D"/>
<path d="M98.8116 197.006C98.6909 197.178 98.5504 197.336 98.3928 197.475C98.104 197.757 97.6708 198.154 97.1221 198.616C94.2335 201.037 90.9805 202.987 87.4834 204.392C86.8119 204.659 86.2632 204.854 85.8806 204.977C85.6845 205.057 85.4777 205.108 85.2668 205.129C85.9514 204.759 86.6579 204.431 87.3823 204.147C90.7881 202.602 94.0012 200.663 96.956 198.371C97.5456 197.878 98.1653 197.422 98.8116 197.006V197.006Z" fill="#EB996E"/>
<path d="M98.6238 203.49C98.3204 204.09 97.934 204.644 97.4759 205.136C95.3612 207.633 92.62 209.522 89.5339 210.609C88.9098 210.863 88.2539 211.03 87.5845 211.107C88.1886 210.831 88.8081 210.59 89.44 210.385C92.4089 209.184 95.0745 207.339 97.2448 204.984C97.6781 204.462 98.1384 203.964 98.6238 203.49V203.49Z" fill="#EB996E"/>
</g>
<defs>
<clipPath id="clip0">
<rect width="279" height="228" fill="white"/>
</clipPath>
</defs>
</svg>
