<svg width="343" height="348" viewBox="0 0 343 348" fill="none" xmlns="http://www.w3.org/2000/svg">
<path d="M171.063 348C265.538 348 342.126 300.21 342.126 241.258C342.126 182.306 265.538 134.516 171.063 134.516C76.5875 134.516 0 182.306 0 241.258C0 300.21 76.5875 348 171.063 348Z" fill="#F5F5F5"/>
<path d="M283.854 293.604C310.656 293.604 332.384 280.046 332.384 263.321C332.384 246.597 310.656 233.039 283.854 233.039C257.052 233.039 235.325 246.597 235.325 263.321C235.325 280.046 257.052 293.604 283.854 293.604Z" fill="#E0E0E0"/>
<path d="M161.037 279.657L106.292 245.485L168.867 206.442L223.62 240.606L161.037 279.657Z" fill="#E0E0E0"/>
<path d="M11.9669 269.089L82.5761 313.145L141.8 276.2L71.1908 232.143L11.9669 269.089Z" fill="#E0E0E0"/>
<path d="M116.376 62.0081V57.6709C116.346 57.4203 116.256 57.1823 116.116 56.98C115.976 56.7777 115.79 56.6178 115.576 56.5159L91.3441 41.4926C90.7666 41.1789 90.1292 41.0155 89.4829 41.0155C88.8365 41.0155 88.1992 41.1789 87.6217 41.4926L17.9795 84.708C17.7655 84.81 17.5795 84.9698 17.4394 85.1722C17.2993 85.3745 17.2099 85.6125 17.1797 85.8631V90.2003C17.2092 90.4511 17.2984 90.6894 17.4385 90.8919C17.5787 91.0943 17.7651 91.254 17.9795 91.3553L42.2041 106.355C42.7816 106.669 43.419 106.832 44.0653 106.832C44.7116 106.832 45.349 106.669 45.9265 106.355L115.569 63.1396C115.783 63.0383 115.969 62.8786 116.11 62.6762C116.25 62.4737 116.339 62.2354 116.368 61.9846L116.376 62.0081Z" fill="#F0F0F0"/>
<path d="M17.9785 86.9945L42.2032 102.018C42.7796 102.335 43.4174 102.501 44.0644 102.501C44.7113 102.501 45.3491 102.335 45.9256 102.018L115.568 58.8024C116.593 58.1659 116.593 57.1366 115.568 56.4923L91.3432 41.4926C90.7657 41.1789 90.1283 41.0155 89.482 41.0155C88.8356 41.0155 88.1982 41.1789 87.6208 41.4926L17.9785 84.708C16.9534 85.3288 16.9534 86.3581 17.9785 86.9945Z" fill="#FAFAFA"/>
<path d="M44.0653 102.505V106.834C43.4176 106.845 42.7779 106.68 42.2041 106.355L17.9795 91.3711C17.7651 91.2698 17.5787 91.1102 17.4385 90.9077C17.2984 90.7052 17.2092 90.467 17.1797 90.2161V90.2161V85.871C17.194 85.6953 17.2463 85.5257 17.3324 85.376C17.0489 85.9338 17.2597 86.5782 17.9795 87.026L42.2041 102.026C42.7763 102.355 43.4172 102.52 44.0653 102.505V102.505Z" fill="#E0E0E0"/>
<path d="M57.0792 65.8585L77.6032 78.5009L111.505 57.4747L90.9879 44.8243L57.0792 65.8585Z" fill="#E0E0E0"/>
<path d="M77.8359 77.5423L58.0388 65.2613C58.5533 63.4473 58.5151 61.5027 57.9298 59.714L77.6032 71.8614C77.6032 71.8614 77.9813 73.2051 77.8359 77.5423Z" fill="white"/>
<path d="M76.5927 70.1562C77.1452 70.542 77.6057 71.0633 77.9366 71.6777C78.2676 72.2921 78.4598 72.9823 78.4975 73.692V77.825C78.4975 79.1293 77.6396 79.6558 76.5927 79.0115L57.1082 66.8797V65.8582L76.36 77.7228C76.9925 78.1157 77.5015 77.7936 77.5015 77.0157V73.1813C77.4796 72.7554 77.3647 72.3412 77.1664 71.9725C76.968 71.6038 76.6917 71.291 76.36 71.0598L57.1082 59.1559V57.993L76.5927 70.1562Z" fill="#EBEBEB"/>
<path d="M57.1073 58.0325L90.9869 36.9984L110.493 49.0987C111.047 49.4849 111.508 50.0073 111.84 50.6232C112.171 51.2392 112.362 51.9311 112.398 52.6424V56.7989C112.424 57.0531 112.385 57.3101 112.287 57.5425C112.188 57.775 112.033 57.9742 111.838 58.119L77.9368 79.1531C78.1282 79.005 78.28 78.805 78.3771 78.5733C78.4741 78.3415 78.5128 78.0862 78.4893 77.833V73.6922C78.4539 72.9819 78.2627 72.2908 77.9315 71.676C77.6003 71.0612 77.1386 70.5404 76.5845 70.1564L57.1073 58.0325Z" fill="#FAFAFA"/>
<path d="M77.9377 71.6571C78.2833 72.2634 78.4763 72.9568 78.4975 73.6686V77.8094C78.521 78.0625 78.4823 78.3179 78.3853 78.5496C78.2882 78.7814 78.1364 78.9814 77.9449 79.1295L111.846 58.0953C112.041 57.9506 112.196 57.7513 112.295 57.5189C112.394 57.2864 112.432 57.0295 112.406 56.7753V52.6423C112.385 51.9306 112.192 51.2372 111.846 50.6309L77.9377 71.6571Z" fill="#F0F0F0"/>
<path d="M36.2134 34.3898L36.0171 37.187L58.9331 50.4738L59.4492 48.8394L36.2134 34.3898Z" fill="#EBEBEB"/>
<path d="M59.1439 49.4916L36.9477 35.647L33.0871 38.0513L55.7196 52.3595L59.1439 49.4916Z" fill="white"/>
<path d="M51.5537 50.8745L49.3726 78.6738C49.3833 78.9876 49.4635 79.2941 49.6065 79.5676C49.7494 79.841 49.951 80.0734 50.1942 80.2453L63.0699 88.2991C63.2753 88.4218 63.5042 88.4917 63.7387 88.5033L55.7414 53.2946C55.5081 53.2808 55.2802 53.2138 55.0725 53.0981L54.1492 52.5167L51.5537 50.8745Z" fill="#E0E0E0"/>
<path d="M56.7011 53.0666L58.9985 50.9373L60.6779 49.3658C60.8524 49.0672 61.056 48.8472 60.9469 48.5801L68.8425 83.5296C68.9515 83.7731 68.9806 84.3153 68.668 84.5196L64.6911 88.1968C64.3901 88.3691 64.0483 88.4403 63.7096 88.4011L55.7123 53.1923C56.0462 53.2546 56.3897 53.211 56.7011 53.0666V53.0666Z" fill="#F0F0F0"/>
<path d="M60.6852 48.3523C61.136 48.6351 61.0269 48.9494 60.6852 49.3737L56.7011 53.0588C56.4475 53.202 56.1657 53.2768 55.8795 53.2768C55.5934 53.2768 55.3116 53.202 55.058 53.0588L51.5537 50.8745C51.0957 50.5916 51.0157 50.183 51.372 49.963C51.6061 49.8604 51.8588 49.817 52.1108 49.836C52.3628 49.8551 52.6074 49.9362 52.826 50.073L55.5887 51.8016C55.6732 51.8479 55.7666 51.872 55.8614 51.872C55.9561 51.872 56.0495 51.8479 56.134 51.8016L59.0421 49.0673C59.1948 48.973 59.1948 48.8237 59.0421 48.7294L36.2134 34.3898L37.3039 33.7062L60.6852 48.3523Z" fill="#FAFAFA"/>
<path d="M29.5974 35.7333L51.4301 49.3579V94.2548L29.5974 80.6223V35.7333Z" fill="#EBEBEB"/>
<path d="M50.7249 50.1045L29.5974 36.9984C28.3053 38.479 26.613 39.4801 24.7627 39.8585L45.7157 52.9095C45.7157 52.9095 47.068 52.5638 50.7249 50.1045Z" fill="white"/>
<path d="M43.6873 52.8702C44.3169 53.2111 45.0115 53.3886 45.7157 53.3886C46.4199 53.3886 47.1144 53.2111 47.7441 52.8702L51.292 50.623C52.4116 49.9237 52.4116 48.8001 51.292 48.1008L30.4771 35.1833L29.5974 35.7334L50.0779 48.5173C50.2289 48.5649 50.3615 48.6641 50.4559 48.8001C50.5503 48.9361 50.6013 49.1016 50.6013 49.2716C50.6013 49.4416 50.5503 49.607 50.4559 49.743C50.3615 49.879 50.2289 49.9783 50.0779 50.0259L46.7699 52.0845C46.392 52.2897 45.975 52.3966 45.5521 52.3966C45.1292 52.3966 44.7122 52.2897 44.3343 52.0845L23.8612 39.2927L22.8578 39.9135L43.6873 52.8702Z" fill="#FAFAFA"/>
<path d="M22.8651 39.9135V84.8025L43.6873 97.72C44.3169 98.0608 45.0114 98.2383 45.7157 98.2383C46.4199 98.2383 47.1144 98.0608 47.7441 97.72L51.3065 95.512C51.5381 95.4016 51.7379 95.2259 51.885 95.0034C52.0321 94.7808 52.1211 94.5195 52.1426 94.247V49.358C52.1201 49.6313 52.0289 49.8928 51.879 50.1144C51.7291 50.3359 51.5262 50.509 51.292 50.6152L47.7441 52.8702C47.1144 53.2111 46.4199 53.3885 45.7157 53.3885C45.0114 53.3885 44.3169 53.2111 43.6873 52.8702L22.8651 39.9135Z" fill="#EBEBEB"/>
<path d="M45.7157 53.3496C46.4215 53.3646 47.1193 53.1862 47.7441 52.831L51.292 50.6152C51.5234 50.5068 51.7234 50.3327 51.8706 50.1114C52.0178 49.89 52.1068 49.6297 52.1281 49.358V94.2471C52.1065 94.5196 52.0176 94.7808 51.8705 95.0034C51.7233 95.226 51.5235 95.4017 51.292 95.5121L47.7295 97.72C47.1047 98.0752 46.4069 98.2536 45.7011 98.2386L45.7157 53.3496Z" fill="#F0F0F0"/>
<path d="M221.104 216.303C220.995 214.315 220.748 211.934 220.45 209.169C219.338 198.671 217.818 184.292 221.846 170.518C224.296 162.134 230.2 152.195 239.418 149.437C241.469 148.824 246.427 147.92 248.332 152.674C248.599 153.361 248.759 154.091 248.804 154.835C249.001 157.852 247.743 160.516 246.347 162.944C244.74 165.765 242.879 168.444 241.076 171.053C239.375 173.52 237.608 176.065 236.067 178.706C234.402 181.574 232.944 184.577 231.705 187.687L231.116 187.412C232.353 184.27 233.811 181.236 235.478 178.336C237.026 175.673 238.8 173.111 240.516 170.636C242.305 168.043 244.151 165.372 245.751 162.582C247.089 160.225 248.295 157.703 248.114 154.882C248.074 154.217 247.932 153.563 247.692 152.949C245.991 148.698 241.425 149.547 239.542 150.105C230.57 152.792 224.805 162.519 222.406 170.723C218.422 184.363 219.934 198.655 221.039 209.09C221.33 211.864 221.584 214.26 221.693 216.264L221.104 216.303Z" fill="#FFAF2D"/>
<path d="M221.759 227.728C221.711 227.735 221.662 227.735 221.613 227.728C221.474 227.698 221.343 227.634 221.23 227.54C221.118 227.446 221.027 227.324 220.966 227.185C220.839 226.796 220.839 226.372 220.966 225.983C221.069 225.23 221.069 224.465 220.966 223.712C220.966 223.288 220.901 222.84 220.901 222.44V217.56C221.481 208.795 223.858 200.279 227.859 192.629C231.406 185.958 235.332 181.519 240.218 178.643C242.852 177.079 245.74 176.078 248.724 175.696C251.359 175.382 254.008 176.138 256.155 177.818C258.372 179.711 259.368 182.956 258.532 185.526C257.943 187.325 256.598 188.669 255.224 189.887C252.774 192.047 250.098 193.98 247.517 195.85C245.373 197.422 243.155 198.993 241.083 200.722C234.744 206.01 229.426 212.59 225.43 220.09C224.776 221.308 224.158 222.565 223.591 223.822L223.358 224.318C223.131 224.766 222.932 225.231 222.762 225.708C222.726 225.81 222.689 226.023 222.638 226.266C222.602 226.714 222.47 227.147 222.253 227.531C222.117 227.661 221.94 227.731 221.759 227.728ZM249.771 176.348C249.444 176.348 249.117 176.348 248.782 176.396C245.886 176.761 243.083 177.732 240.531 179.256C235.761 182.061 231.915 186.422 228.426 192.975C224.479 200.53 222.132 208.938 221.555 217.592V222.424C221.555 222.801 221.555 223.21 221.621 223.642C221.738 224.465 221.738 225.302 221.621 226.125C221.542 226.38 221.542 226.655 221.621 226.91C221.639 226.95 221.666 226.985 221.699 227.012C221.731 227.039 221.769 227.058 221.81 227.068C221.939 226.777 222.028 226.467 222.071 226.148C222.106 225.93 222.155 225.715 222.217 225.504C222.394 224.999 222.603 224.508 222.842 224.035L223.067 223.547C223.649 222.275 224.274 221.01 224.929 219.776C226.288 217.234 227.796 214.788 229.443 212.453C232.701 207.854 236.502 203.735 240.749 200.203C242.843 198.475 245.067 196.864 247.219 195.308C249.793 193.446 252.447 191.521 254.882 189.384C256.176 188.244 257.449 186.964 257.987 185.329C258.714 183.027 257.819 180.112 255.806 178.391C254.067 176.99 251.939 176.27 249.771 176.348Z" fill="#FFAF2D"/>
<path d="M221.214 221.017H221.134C221.093 221.007 221.054 220.988 221.02 220.962C220.986 220.935 220.957 220.902 220.935 220.863C220.914 220.824 220.899 220.781 220.893 220.736C220.888 220.691 220.89 220.645 220.901 220.601C226.899 194.75 243.482 183.216 252.338 180.474C252.419 180.449 252.505 180.46 252.579 180.504C252.652 180.549 252.707 180.622 252.73 180.709C252.753 180.798 252.743 180.892 252.702 180.973C252.662 181.054 252.593 181.114 252.512 181.141C243.788 183.837 227.451 195.222 221.526 220.766C221.506 220.839 221.465 220.902 221.408 220.948C221.352 220.993 221.284 221.017 221.214 221.017V221.017Z" fill="#FFAF2D"/>
<path d="M221.177 199.803C221.092 199.795 221.012 199.751 220.957 199.68C220.901 199.609 220.873 199.518 220.879 199.425C222.791 171.508 239.687 156.21 241.607 154.568C241.639 154.538 241.677 154.516 241.718 154.503C241.758 154.49 241.801 154.486 241.843 154.491C241.885 154.496 241.926 154.51 241.963 154.533C242 154.556 242.032 154.586 242.057 154.623C242.084 154.658 242.103 154.699 242.115 154.743C242.127 154.787 242.13 154.833 242.126 154.878C242.121 154.923 242.108 154.967 242.088 155.007C242.067 155.047 242.04 155.082 242.007 155.11C240.109 156.736 223.409 171.854 221.526 199.48C221.517 199.572 221.476 199.657 221.411 199.716C221.346 199.776 221.262 199.807 221.177 199.803V199.803Z" fill="#FFAF2D"/>
<path d="M219.163 102.442L178.733 77.228C178.421 76.9855 178.054 76.8366 177.671 76.7966C177.288 76.7566 176.902 76.8268 176.552 77.0002L173.644 78.8152C173.324 79.0558 173.07 79.3846 172.908 79.7673C172.745 80.1501 172.681 80.5728 172.721 80.9917V200.588C172.78 201.754 173.093 202.887 173.633 203.898C174.174 204.908 174.927 205.766 175.832 206.403L216.255 231.586C216.567 231.829 216.933 231.98 217.316 232.021C217.699 232.062 218.086 231.994 218.436 231.821L221.344 229.998C221.66 229.757 221.911 229.428 222.071 229.047C222.23 228.666 222.293 228.246 222.253 227.83V108.257C222.197 107.093 221.888 105.961 221.351 104.951C220.814 103.94 220.065 103.081 219.163 102.442V102.442Z" fill="#263238"/>
<path d="M181.43 202.639L178.522 204.454V214.402C178.537 214.693 178.615 214.976 178.75 215.229C178.885 215.482 179.074 215.696 179.3 215.855L180.66 216.704C180.901 216.836 181.167 216.904 181.438 216.904C181.708 216.904 181.974 216.836 182.216 216.704L183.575 215.855C184.058 215.518 184.432 215.026 184.644 214.449L187.268 206.277L181.43 202.639Z" fill="#263238"/>
<path d="M178.522 214.402C178.537 214.693 178.615 214.976 178.75 215.229C178.885 215.482 179.074 215.696 179.3 215.855L180.66 216.704C180.754 216.765 180.859 216.803 180.969 216.814C181.078 216.825 181.188 216.809 181.291 216.767C181.394 216.726 181.487 216.66 181.562 216.574C181.638 216.488 181.695 216.385 181.729 216.272L184.339 208.092L178.522 204.454V214.402Z" fill="#37474F"/>
<path d="M210.599 220.782L207.691 222.605V232.544C207.704 232.836 207.781 233.12 207.915 233.374C208.049 233.628 208.236 233.844 208.461 234.006L209.828 234.854C210.068 234.986 210.333 235.055 210.603 235.055C210.872 235.055 211.137 234.986 211.377 234.854L212.744 234.006C213.227 233.668 213.6 233.177 213.812 232.599L216.43 224.42L210.599 220.782Z" fill="#263238"/>
<path d="M207.691 232.544C207.704 232.836 207.781 233.12 207.915 233.374C208.049 233.628 208.236 233.844 208.461 234.006L209.828 234.854C209.922 234.916 210.028 234.953 210.137 234.964C210.246 234.975 210.357 234.96 210.459 234.918C210.562 234.876 210.655 234.81 210.731 234.724C210.807 234.638 210.863 234.535 210.897 234.422L213.522 226.243L207.705 222.605L207.691 232.544Z" fill="#37474F"/>
<path d="M176.021 79.1373L216.444 104.281C217.349 104.919 218.103 105.779 218.643 106.791C219.184 107.802 219.496 108.937 219.556 110.103V229.7C219.633 230.12 219.586 230.555 219.422 230.945C219.259 231.335 218.986 231.66 218.643 231.874C218.3 232.088 217.903 232.181 217.509 232.139C217.115 232.097 216.742 231.923 216.444 231.641L176.021 206.45C175.117 205.813 174.365 204.954 173.826 203.944C173.286 202.934 172.975 201.8 172.917 200.636V81.0703C172.839 80.6509 172.885 80.2158 173.048 79.8262C173.212 79.4366 173.484 79.1122 173.827 78.8987C174.17 78.6852 174.566 78.5934 174.96 78.6362C175.353 78.6791 175.725 78.8543 176.021 79.1373V79.1373Z" fill="#37474F"/>
<path d="M117.321 242.609L161.044 269.89L222.26 231.696L219.345 229.873L175.621 202.592L117.321 238.971V242.609Z" fill="#455A64"/>
<path d="M161.045 269.89V266.252L222.26 228.058V231.696L161.045 269.89Z" fill="#263238"/>
<path d="M161.321 264.594L160.877 264.272C168.635 251.583 168.584 229.661 167.951 224.16C167.9 223.791 167.864 223.563 167.857 223.477L168.388 223.383C168.388 223.555 168.446 223.76 168.475 224.003C169.042 227.893 172.248 249.021 176.043 255.433L175.592 255.747C172.59 250.71 170.023 237.117 168.736 229.276C168.816 238.178 167.617 254.356 161.321 264.594Z" fill="#FAFAFA"/>
<path d="M186.854 245.218C186.192 245.006 170.736 239.946 169.311 232.576L169.842 232.458C171.194 239.49 186.847 244.613 187.007 244.668L186.854 245.218Z" fill="#FAFAFA"/>
<path d="M171.252 242.232L170.859 240.433C170.806 240.102 170.65 239.801 170.418 239.579C170.185 239.356 169.89 239.225 169.58 239.207C169.324 239.167 169.063 239.212 168.831 239.337C168.6 239.462 168.409 239.661 168.286 239.906L167.784 239.679C167.952 239.319 168.22 239.025 168.549 238.836C168.878 238.648 169.254 238.574 169.623 238.626C169.891 238.644 170.152 238.723 170.389 238.859C170.626 238.994 170.833 239.183 170.998 239.411C171.085 238.666 171.437 237.987 171.979 237.518C172.185 237.402 172.415 237.345 172.646 237.353C172.878 237.362 173.104 237.434 173.302 237.565L173.062 238.084C172.941 237.999 172.802 237.95 172.658 237.94C172.514 237.931 172.371 237.961 172.241 238.029C171.623 238.406 171.383 239.859 171.347 240.386L171.252 242.232Z" fill="#FAFAFA"/>
<path d="M172.771 248.227L172.292 246.593C171.746 244.747 170.838 243.686 169.762 243.615C169.312 243.606 168.87 243.738 168.489 243.996C168.108 244.255 167.805 244.627 167.617 245.069L167.13 244.817C167.36 244.266 167.736 243.8 168.211 243.48C168.686 243.159 169.238 242.999 169.798 243.018C170.445 243.057 171.557 243.434 172.386 245.257C172.568 243.819 173.113 241.509 174.516 240.543C175.02 240.245 175.586 240.092 176.161 240.098C176.735 240.105 177.298 240.272 177.795 240.582L177.57 241.109C177.153 240.842 176.681 240.696 176.197 240.684C175.713 240.671 175.235 240.793 174.807 241.038C172.939 242.295 172.815 246.452 172.815 246.499L172.771 248.227Z" fill="#FAFAFA"/>
<path d="M166.206 252.219L165.727 251.952C166.803 249.712 169.165 248.102 171.216 248.212C171.651 248.217 172.079 248.328 172.469 248.536C172.859 248.744 173.201 249.044 173.469 249.414C173.667 248.283 174.074 247.207 174.666 246.251C175.258 245.295 176.024 244.479 176.916 243.851C177.873 243.164 178.977 242.754 180.123 242.662C181.269 242.57 182.418 242.798 183.459 243.324L183.248 243.851C182.289 243.371 181.233 243.164 180.18 243.249C179.126 243.335 178.11 243.709 177.228 244.338C176.285 244.998 175.498 245.888 174.93 246.936C174.362 247.984 174.029 249.16 173.957 250.372V251.857L173.448 250.475C173.279 249.983 172.976 249.559 172.578 249.258C172.181 248.958 171.708 248.796 171.223 248.793C169.34 248.691 167.195 250.168 166.206 252.219Z" fill="#FAFAFA"/>
<path d="M163.255 260.893L162.782 260.611C163.436 259.322 166.919 252.848 171.041 251.677C171.623 251.497 172.234 251.452 172.833 251.545C173.432 251.639 174.005 251.868 174.516 252.219L174.24 252.714C173.79 252.406 173.284 252.205 172.757 252.122C172.23 252.039 171.692 252.078 171.179 252.235C168.155 253.099 165.029 257.436 163.255 260.893Z" fill="#FAFAFA"/>
<path d="M216.43 191.678V195.316L161.044 229.873L117.321 202.592V198.954L172.706 164.397L216.43 191.678Z" fill="#263238"/>
<path d="M216.43 191.678L161.044 226.235L117.321 198.954L172.706 164.397L216.43 191.678Z" fill="#455A64"/>
<path d="M216.43 151.668V155.299L161.044 189.863L117.321 162.574V158.944L172.706 124.38L216.43 151.668Z" fill="#263238"/>
<path d="M216.43 151.668L161.044 186.225L117.321 158.944L172.706 124.38L216.43 151.668Z" fill="#455A64"/>
<path d="M160.855 138.775L120.433 113.592C120.121 113.348 119.755 113.198 119.371 113.156C118.988 113.115 118.602 113.184 118.252 113.356C117.728 113.678 115.867 114.849 115.343 115.171C115.025 115.413 114.772 115.742 114.611 116.124C114.45 116.507 114.387 116.929 114.427 117.348V236.913C114.487 238.078 114.799 239.212 115.34 240.222C115.881 241.232 116.634 242.091 117.539 242.727L157.962 267.918C158.274 268.162 158.64 268.312 159.023 268.353C159.406 268.395 159.793 268.326 160.143 268.154C160.666 267.824 162.542 266.661 163.051 266.323C163.371 266.084 163.626 265.757 163.79 265.375C163.953 264.994 164.02 264.573 163.982 264.154V144.597C163.922 143.429 163.607 142.293 163.064 141.281C162.521 140.269 161.764 139.41 160.855 138.775V138.775Z" fill="#263238"/>
<path opacity="0.2" d="M161.045 157.129L163.967 155.306V144.385L161.037 146.208L161.045 157.129Z" fill="black"/>
<path opacity="0.2" d="M219.352 120.75L222.275 118.935V108.013L219.345 109.836L219.352 120.75Z" fill="black"/>
<path d="M123.152 238.971L120.244 240.787V250.734C120.258 251.025 120.336 251.309 120.472 251.561C120.607 251.814 120.795 252.029 121.022 252.188L122.381 253.036C122.622 253.168 122.889 253.237 123.159 253.237C123.429 253.237 123.696 253.168 123.937 253.036L125.296 252.188C125.778 251.852 126.151 251.363 126.365 250.789L128.99 242.609L123.152 238.971Z" fill="#263238"/>
<path d="M120.236 250.734C120.251 251.025 120.329 251.309 120.464 251.561C120.599 251.814 120.788 252.029 121.014 252.188L122.374 253.036C122.468 253.098 122.573 253.135 122.683 253.146C122.792 253.157 122.902 253.142 123.005 253.1C123.108 253.058 123.201 252.992 123.276 252.906C123.352 252.82 123.409 252.717 123.443 252.604L126.067 244.425L120.251 240.787L120.236 250.734Z" fill="#37474F"/>
<path d="M152.298 257.161L149.39 258.976V268.924C149.404 269.215 149.48 269.498 149.614 269.75C149.748 270.003 149.935 270.218 150.161 270.377L151.528 271.226C151.768 271.358 152.033 271.426 152.302 271.426C152.571 271.426 152.836 271.358 153.076 271.226L154.443 270.377C154.922 270.039 155.295 269.551 155.512 268.979L158.129 260.799L152.298 257.161Z" fill="#263238"/>
<path d="M149.39 268.884C149.404 269.175 149.48 269.459 149.614 269.711C149.748 269.964 149.935 270.179 150.161 270.338L151.528 271.187C151.622 271.248 151.727 271.286 151.837 271.297C151.946 271.308 152.056 271.292 152.159 271.25C152.262 271.209 152.355 271.143 152.43 271.057C152.506 270.971 152.563 270.867 152.596 270.755L155.214 262.575L149.398 258.937L149.39 268.884Z" fill="#37474F"/>
<path d="M117.51 115.415L157.94 140.597C158.844 141.236 159.597 142.096 160.136 143.108C160.675 144.119 160.987 145.254 161.045 146.42V269.89C161.045 269.89 158.798 268.452 157.94 267.918L117.517 242.727C116.612 242.091 115.859 241.232 115.318 240.222C114.778 239.212 114.465 238.078 114.406 236.913V117.348C114.328 116.928 114.374 116.493 114.537 116.104C114.7 115.714 114.972 115.39 115.315 115.176C115.658 114.963 116.054 114.871 116.448 114.914C116.842 114.956 117.213 115.132 117.51 115.415V115.415Z" fill="#37474F"/>
<path opacity="0.2" d="M157.94 140.597L117.51 115.415C117.213 115.132 116.842 114.956 116.448 114.914C116.054 114.871 115.658 114.963 115.315 115.176C114.972 115.39 114.7 115.714 114.537 116.104C114.374 116.493 114.328 116.928 114.406 117.348V128.026L161.045 157.098V146.42C160.987 145.254 160.675 144.119 160.136 143.108C159.597 142.096 158.844 141.236 157.94 140.597Z" fill="black"/>
<path d="M213.514 151.959C213.444 151.957 213.376 151.926 213.326 151.872C213.276 151.818 213.247 151.745 213.245 151.668V115.792L181.583 135.545C181.553 135.566 181.52 135.58 181.485 135.586C181.45 135.592 181.415 135.59 181.381 135.581C181.346 135.571 181.314 135.554 181.287 135.53C181.259 135.506 181.236 135.477 181.22 135.443C181.201 135.41 181.189 135.374 181.184 135.335C181.179 135.297 181.181 135.259 181.189 135.221C181.198 135.184 181.214 135.149 181.235 135.118C181.257 135.088 181.283 135.062 181.314 135.042L213.42 115.038C213.46 115.01 213.507 114.996 213.554 114.996C213.602 114.996 213.648 115.01 213.689 115.038C213.729 115.064 213.762 115.1 213.785 115.144C213.808 115.189 213.82 115.238 213.82 115.289V151.668C213.82 151.71 213.812 151.752 213.796 151.79C213.781 151.828 213.757 151.862 213.728 151.889C213.699 151.917 213.665 151.937 213.628 151.949C213.591 151.962 213.553 151.965 213.514 151.959V151.959Z" fill="#FAFAFA"/>
<path d="M207.683 142.86H207.604C207.534 142.843 207.474 142.798 207.436 142.733C207.398 142.668 207.385 142.59 207.4 142.515L212.824 117.128L202.064 137.266C202.047 137.3 202.024 137.329 201.997 137.353C201.969 137.377 201.937 137.394 201.903 137.405C201.87 137.415 201.834 137.418 201.799 137.413C201.764 137.408 201.73 137.395 201.7 137.376C201.669 137.357 201.641 137.332 201.619 137.301C201.597 137.271 201.581 137.236 201.571 137.199C201.562 137.161 201.559 137.122 201.564 137.084C201.568 137.046 201.58 137.009 201.598 136.975L213.231 115.148C213.264 115.088 213.316 115.042 213.377 115.019C213.438 114.996 213.505 114.997 213.565 115.022C213.625 115.048 213.674 115.097 213.703 115.159C213.733 115.221 213.74 115.292 213.725 115.36L207.909 142.648C207.896 142.704 207.867 142.755 207.827 142.792C207.787 142.83 207.737 142.854 207.683 142.86V142.86Z" fill="#FAFAFA"/>
<path d="M196.029 133.801C195.992 133.801 195.956 133.793 195.922 133.776C195.888 133.76 195.858 133.736 195.833 133.707C195.783 133.652 195.755 133.579 195.755 133.502C195.755 133.426 195.783 133.352 195.833 133.298L213.325 115.108C213.376 115.054 213.444 115.024 213.514 115.024C213.585 115.024 213.653 115.054 213.703 115.108C213.754 115.164 213.782 115.239 213.782 115.316C213.782 115.394 213.754 115.469 213.703 115.525L196.211 133.707C196.188 133.734 196.16 133.757 196.129 133.773C196.098 133.79 196.064 133.799 196.029 133.801V133.801Z" fill="#FAFAFA"/>
<path d="M213.514 146.153C213.444 146.151 213.376 146.119 213.326 146.065C213.276 146.011 213.247 145.938 213.245 145.862C213.245 141.1 208.331 140.778 208.12 140.77C208.08 140.767 208.041 140.755 208.006 140.735C207.971 140.715 207.941 140.687 207.916 140.653C207.893 140.619 207.878 140.581 207.87 140.54C207.862 140.499 207.863 140.457 207.873 140.417C208.052 139.444 207.991 138.437 207.696 137.498C207.401 136.559 206.883 135.72 206.193 135.066C205.941 134.794 205.638 134.583 205.304 134.448C204.971 134.312 204.615 134.255 204.259 134.28C204.07 134.315 203.889 134.393 203.73 134.51C203.57 134.626 203.436 134.779 203.336 134.956C203.306 135.013 203.258 135.058 203.201 135.082C203.144 135.106 203.082 135.109 203.023 135.09C202.965 135.07 202.915 135.03 202.881 134.976C202.846 134.922 202.83 134.856 202.834 134.791C202.834 134.61 203.132 130.375 199.686 129.959C199.642 129.953 199.6 129.935 199.563 129.908C199.526 129.881 199.496 129.844 199.475 129.802C199.456 129.76 199.445 129.714 199.445 129.668C199.445 129.621 199.456 129.576 199.475 129.534C199.475 129.534 201.002 126.446 200.413 124.93C200.345 124.752 200.239 124.594 200.104 124.468C199.969 124.342 199.808 124.253 199.635 124.207C199.601 124.197 199.569 124.18 199.541 124.156C199.513 124.132 199.489 124.103 199.472 124.069C199.455 124.035 199.445 123.998 199.442 123.959C199.438 123.921 199.442 123.882 199.454 123.846C199.475 123.773 199.522 123.712 199.584 123.675C199.647 123.639 199.72 123.629 199.788 123.649C200.038 123.719 200.27 123.851 200.465 124.035C200.659 124.22 200.811 124.451 200.908 124.71C201.467 126.148 200.522 128.529 200.115 129.424C202.791 129.982 203.285 132.709 203.358 134.06C203.597 133.877 203.869 133.751 204.157 133.691C204.594 133.645 205.035 133.707 205.447 133.872C205.859 134.036 206.231 134.3 206.535 134.642C207.257 135.33 207.81 136.202 208.144 137.178C208.478 138.155 208.582 139.205 208.447 140.236C209.625 140.401 213.783 141.289 213.776 145.878C213.772 145.951 213.743 146.02 213.695 146.07C213.646 146.121 213.582 146.151 213.514 146.153V146.153Z" fill="#FAFAFA"/>
<path d="M213.514 138.311C213.447 138.311 213.381 138.284 213.331 138.234C213.282 138.185 213.251 138.117 213.245 138.044C213.129 136.378 212.235 134.225 211.108 133.691C210.885 133.583 210.637 133.548 210.396 133.59C210.154 133.632 209.929 133.749 209.748 133.927C209.704 133.957 209.652 133.974 209.599 133.974C209.546 133.974 209.495 133.957 209.45 133.927C209.404 133.899 209.366 133.858 209.342 133.808C209.317 133.757 209.307 133.7 209.312 133.644C209.312 133.644 209.552 130.697 208.323 129.479C208.057 129.239 207.741 129.071 207.402 128.989C207.063 128.907 206.711 128.913 206.375 129.008C206.328 129.019 206.28 129.015 206.236 128.999C206.191 128.982 206.151 128.953 206.12 128.914C206.089 128.874 206.068 128.827 206.059 128.776C206.05 128.725 206.054 128.672 206.069 128.623C206.317 127.892 206.797 125.841 206.149 125.111C205.844 124.773 205.284 124.741 204.477 125.024C204.422 125.044 204.363 125.044 204.308 125.024C204.253 125.004 204.205 124.966 204.172 124.914C204.139 124.864 204.121 124.803 204.121 124.741C204.121 124.679 204.139 124.619 204.172 124.569C204.623 123.956 205.735 122.164 205.459 121.308C205.413 121.189 205.339 121.086 205.245 121.009C205.15 120.932 205.038 120.883 204.921 120.868C204.886 120.859 204.854 120.842 204.825 120.819C204.797 120.797 204.773 120.768 204.755 120.735C204.736 120.702 204.724 120.666 204.719 120.628C204.714 120.59 204.716 120.551 204.724 120.514C204.731 120.477 204.745 120.441 204.765 120.41C204.785 120.378 204.811 120.352 204.841 120.332C204.871 120.312 204.905 120.299 204.94 120.294C204.975 120.289 205.01 120.292 205.044 120.302C205.248 120.334 205.441 120.424 205.603 120.562C205.765 120.699 205.891 120.881 205.968 121.088C206.266 122.023 205.539 123.445 205.03 124.231C205.292 124.163 205.565 124.166 205.826 124.239C206.087 124.311 206.328 124.451 206.528 124.647C207.327 125.543 206.942 127.436 206.702 128.324C207.057 128.279 207.416 128.314 207.757 128.43C208.098 128.545 208.412 128.736 208.68 128.992C209.763 130.061 209.879 132.135 209.865 133.086C210.092 132.97 210.34 132.91 210.592 132.91C210.843 132.91 211.091 132.97 211.319 133.086C212.693 133.738 213.645 136.056 213.783 137.934C213.786 137.972 213.782 138.01 213.771 138.046C213.76 138.082 213.743 138.115 213.72 138.144C213.697 138.172 213.669 138.196 213.637 138.212C213.605 138.229 213.571 138.238 213.536 138.24L213.514 138.311Z" fill="#FAFAFA"/>
<path d="M229.175 102.56C229.141 102.143 229.004 101.743 228.779 101.402C228.554 101.061 228.249 100.791 227.896 100.619L184.558 73.5743C183.594 73.0475 182.529 72.7729 181.45 72.7729C180.37 72.7729 179.305 73.0475 178.341 73.5743L111.687 115.171C111.334 115.343 111.029 115.613 110.804 115.954C110.579 116.295 110.442 116.695 110.408 117.112V120.75C110.442 121.167 110.579 121.567 110.804 121.908C111.029 122.249 111.334 122.519 111.687 122.691L155.026 149.728C155.988 150.258 157.053 150.535 158.134 150.535C159.214 150.535 160.279 150.258 161.242 149.728L227.896 108.139C228.249 107.967 228.554 107.697 228.779 107.356C229.004 107.015 229.141 106.615 229.175 106.198V102.56Z" fill="#37474F"/>
<path d="M155.025 146.09L111.686 119.053C109.971 117.976 109.971 116.24 111.686 115.171L178.341 73.5743C179.304 73.0475 180.369 72.7729 181.449 72.7729C182.528 72.7729 183.593 73.0475 184.557 73.5743L227.895 100.619C229.618 101.696 229.618 103.424 227.895 104.501L161.241 146.09C160.278 146.62 159.213 146.897 158.133 146.897C157.052 146.897 155.987 146.62 155.025 146.09V146.09Z" fill="#455A64"/>
<path opacity="0.1" d="M219.345 113.466L198.945 140.755L163.967 162.582L163.96 148.03L219.345 113.466Z" fill="black"/>
<path opacity="0.1" d="M216.43 155.299L198.945 180.764L163.967 202.6V188.04L216.43 155.299Z" fill="black"/>
<path opacity="0.1" d="M216.43 195.316L198.945 220.782L163.967 242.617V228.058L216.43 195.316Z" fill="black"/>
<path d="M136.195 274.793L82.5688 308.258L22.1817 270.487L75.8074 237.031L136.195 274.793Z" fill="#FFAF2D"/>
<path opacity="0.5" d="M136.195 274.793L82.5688 308.258L22.1817 270.487L75.8074 237.031L136.195 274.793Z" fill="black"/>
<path d="M75.8074 191.67V237.031L22.1817 270.487V225.135L75.8074 191.67Z" fill="#FFAF2D"/>
<path opacity="0.23" d="M75.8074 191.67V237.031L22.1817 270.487V225.135L75.8074 191.67Z" fill="black"/>
<path d="M82.5688 262.897V308.257L22.1817 270.487V225.135L82.5688 262.897Z" fill="#FFAF2D"/>
<path opacity="0.38" d="M82.5688 262.897V308.257L22.1817 270.487V225.135L82.5688 262.897Z" fill="black"/>
<path d="M136.195 229.433V274.793L75.8074 237.031V191.67L136.195 229.433Z" fill="#FFAF2D"/>
<path opacity="0.4" d="M136.195 229.433V274.793L75.8074 237.031V191.67L136.195 229.433Z" fill="black"/>
<path d="M136.195 274.793V229.433L82.5688 262.897V308.258L136.195 274.793Z" fill="#FFAF2D"/>
<path opacity="0.23" d="M136.195 274.793V229.433L82.5688 262.897V308.258L136.195 274.793Z" fill="black"/>
<path d="M75.8074 191.67L75.8802 166.558L136.122 204.368L136.195 229.433L75.8074 191.67Z" fill="#FFAF2D"/>
<path opacity="0.2" d="M75.8074 191.67L75.8802 166.558L136.122 204.368L136.195 229.433L75.8074 191.67Z" fill="black"/>
<path d="M82.5688 262.897L87.5999 240.928L140.739 207.77L136.195 229.433L82.5688 262.897Z" fill="#FFAF2D"/>
<path opacity="0.3" d="M82.5688 262.897L87.5999 240.928L140.739 207.77L136.195 229.433L82.5688 262.897Z" fill="black"/>
<path d="M22.1817 225.135L15.7838 202.348L69.4096 168.892L75.8075 191.67L22.1817 225.135Z" fill="#FFAF2D"/>
<path opacity="0.1" d="M22.1817 225.135L15.7838 202.348L69.4096 168.892L75.8075 191.67L22.1817 225.135Z" fill="black"/>
<path d="M22.1817 225.135L9.56046 206.301L69.9549 244.063L82.5688 262.897L22.1817 225.135Z" fill="#FFAF2D"/>
<path opacity="0.45" d="M22.1817 225.135L9.56046 206.301L69.9549 244.063L82.5688 262.897L22.1817 225.135Z" fill="black"/>
<g opacity="0.7">
<path opacity="0.7" d="M98.3599 294.766C98.2725 294.766 98.1885 294.729 98.126 294.663C98.0635 294.597 98.0274 294.507 98.0255 294.413V286.43C98.0273 286.334 98.0632 286.244 98.1255 286.176C98.1878 286.109 98.2718 286.07 98.3599 286.068C98.4474 286.07 98.5306 286.109 98.5917 286.177C98.6529 286.244 98.6871 286.335 98.6871 286.43V294.413C98.6871 294.507 98.6526 294.597 98.5913 294.663C98.5299 294.729 98.4467 294.766 98.3599 294.766V294.766Z" fill="white"/>
<path opacity="0.7" d="M97.393 289.195C97.3496 289.203 97.3055 289.203 97.2621 289.195C97.1828 289.156 97.1205 289.085 97.088 288.997C97.0556 288.91 97.0554 288.812 97.0876 288.724L98.2654 285.793L99.5741 287.428C99.6209 287.501 99.6411 287.59 99.6309 287.678C99.6206 287.767 99.5806 287.848 99.5185 287.906C99.4564 287.964 99.3765 287.996 99.2942 287.995C99.2119 287.993 99.133 287.959 99.0724 287.899L98.4544 287.113L97.7274 288.999C97.696 289.064 97.6474 289.117 97.5879 289.152C97.5283 289.187 97.4605 289.202 97.393 289.195V289.195Z" fill="white"/>
<path opacity="0.7" d="M101.406 292.888C101.319 292.886 101.236 292.847 101.174 292.78C101.113 292.712 101.079 292.622 101.079 292.527V284.552C101.079 284.458 101.114 284.368 101.175 284.302C101.236 284.235 101.319 284.198 101.406 284.198C101.493 284.198 101.576 284.235 101.638 284.302C101.699 284.368 101.733 284.458 101.733 284.552V292.519C101.734 292.567 101.727 292.614 101.711 292.658C101.695 292.702 101.671 292.743 101.641 292.777C101.61 292.811 101.574 292.839 101.534 292.858C101.493 292.877 101.45 292.887 101.406 292.888V292.888Z" fill="white"/>
<path opacity="0.7" d="M100.439 287.318C100.396 287.325 100.352 287.325 100.308 287.318C100.268 287.299 100.232 287.272 100.202 287.238C100.172 287.204 100.149 287.164 100.133 287.12C100.118 287.076 100.11 287.029 100.112 286.982C100.113 286.935 100.123 286.889 100.141 286.846L101.312 283.876L102.62 285.503C102.681 285.57 102.715 285.66 102.715 285.754C102.715 285.848 102.681 285.938 102.62 286.005C102.59 286.039 102.554 286.065 102.514 286.083C102.474 286.101 102.431 286.11 102.388 286.11C102.344 286.11 102.302 286.101 102.262 286.083C102.222 286.065 102.185 286.039 102.155 286.005L101.537 285.22L100.81 287.105C100.78 287.181 100.727 287.244 100.659 287.282C100.592 287.321 100.514 287.333 100.439 287.318Z" fill="white"/>
</g>
<g opacity="0.7">
<path opacity="0.7" d="M89.5701 300.18C89.4459 300.182 89.3232 300.15 89.2139 300.086C89.0824 299.995 88.976 299.867 88.9056 299.717C88.8353 299.566 88.8037 299.398 88.814 299.229V298.247C88.8159 298.153 88.852 298.063 88.9145 297.997C88.977 297.931 89.061 297.894 89.1484 297.894C89.2352 297.894 89.3184 297.931 89.3798 297.997C89.4411 298.064 89.4756 298.154 89.4756 298.247V299.229C89.4756 299.371 89.4756 299.449 89.541 299.465C89.6065 299.481 89.6428 299.465 89.7519 299.402C89.9565 299.198 90.1177 298.948 90.2244 298.67C90.3311 298.392 90.3807 298.092 90.3699 297.792V293.706C90.3699 293.612 90.4043 293.522 90.4657 293.456C90.527 293.389 90.6102 293.352 90.697 293.352C90.7838 293.352 90.867 293.389 90.9284 293.456C90.9897 293.522 91.0242 293.612 91.0242 293.706V297.792C91.0404 298.216 90.964 298.638 90.8011 299.024C90.6381 299.411 90.3932 299.75 90.0863 300.015C89.9309 300.119 89.7527 300.176 89.5701 300.18V300.18Z" fill="white"/>
<path opacity="0.7" d="M86.1022 296.888V296.275C86.1886 294.701 86.6143 293.171 87.3451 291.807C88.076 290.443 89.0919 289.282 90.3117 288.418C91.504 287.679 92.6382 287.569 93.5106 288.119C93.976 288.464 94.347 288.938 94.5849 289.491C94.8228 290.044 94.9188 290.655 94.8629 291.262V291.466L86.1022 296.888ZM92.2892 288.449C91.7071 288.478 91.1415 288.667 90.6461 288.999C89.6009 289.743 88.7158 290.72 88.051 291.866C87.3861 293.011 86.957 294.298 86.7929 295.639L94.1868 291.019C94.2183 290.563 94.1405 290.107 93.9609 289.694C93.7813 289.281 93.506 288.925 93.1617 288.661C92.8931 288.509 92.5922 288.436 92.2892 288.449V288.449Z" fill="white"/>
</g>
<path opacity="0.7" d="M9.56046 206.301L69.9549 244.063L82.5688 262.897L69.286 244.731L9.56046 206.301Z" fill="white"/>
<path opacity="0.7" d="M136.195 229.433L82.5688 262.897V308.258L83.5721 263.809L136.195 229.433Z" fill="white"/>
<path d="M57.5008 211.29C63.0335 210.426 68.0864 206.576 71.3144 201.736C72.8198 199.474 73.9287 196.933 74.586 194.24C75.2842 191.721 75.399 189.055 74.9205 186.477C73.9244 182.163 70.2311 179.609 66.327 179.075C64.3459 178.793 62.3314 179.006 60.438 179.696C58.4748 180.424 56.7715 181.798 55.5669 183.624C54.8116 184.598 54.3365 185.789 54.2001 187.05C54.1885 187.544 54.3497 188.025 54.6516 188.396C54.9534 188.768 55.3737 189.003 55.8287 189.054C56.9993 189.16 58.1693 188.839 59.1512 188.142C60.3485 187.417 61.4031 186.445 62.2556 185.282C64.0843 182.843 65.4527 180.04 66.2834 177.032C66.8662 174.451 66.8662 171.756 66.2834 169.175C65.8406 166.475 64.6986 163.965 62.9899 161.938C61.031 160.013 58.5452 158.83 55.9086 158.567C53.2846 158.178 50.6127 158.447 48.1003 159.353C46.9968 159.715 45.9744 160.319 45.0977 161.129C44.4725 161.757 43.76 162.795 44.0144 163.816C44.2689 164.837 45.6502 165.293 46.5881 165.16C47.9762 164.879 49.2476 164.134 50.2233 163.03C51.3106 161.873 52.2342 160.55 52.9642 159.102C53.5065 158.061 53.7896 156.886 53.7857 155.692C53.6912 150.71 48.5947 147.488 44.6033 146.577C43.5258 146.334 42.4222 146.254 41.3244 146.341C40.9536 146.341 41.179 147.001 41.4771 146.978C43.6249 146.872 45.7595 147.393 47.6568 148.486C49.5288 149.416 51.101 150.929 52.1717 152.831C52.6489 153.769 52.8844 154.828 52.8537 155.898C52.823 156.968 52.5272 158.009 51.9972 158.913C51.2853 160.253 50.399 161.476 49.3654 162.543C48.5002 163.392 47.1843 164.374 45.9701 164.28C45.7697 164.279 45.5734 164.218 45.4037 164.102C45.234 163.987 45.0977 163.822 45.0105 163.627C44.9738 163.369 44.9935 163.106 45.068 162.857C45.1425 162.609 45.2697 162.383 45.4394 162.197C46.0814 161.45 46.8754 160.875 47.7586 160.516C49.9398 159.536 52.3015 159.116 54.6581 159.29C57.0868 159.338 59.4486 160.158 61.4486 161.647C63.1909 163.211 64.4282 165.332 64.982 167.705C65.6834 170.116 65.9015 172.661 65.6218 175.17C65.19 177.695 64.2925 180.1 62.9826 182.242C61.6376 184.646 59.9509 186.956 57.4209 187.899C56.7956 188.142 55.487 188.496 55.2398 187.514C54.9926 186.532 55.7051 185.322 56.1631 184.559C57.1759 182.837 58.6526 181.49 60.3944 180.701C62.0752 179.973 63.8897 179.677 65.6945 179.837C69.1188 180.112 72.594 182.045 73.7863 185.722C74.3844 187.92 74.4495 190.247 73.9753 192.48C73.5476 194.927 72.7336 197.276 71.5689 199.426C69.0635 203.992 65.2692 207.569 60.7434 209.632C59.6674 210.135 58.5623 210.559 57.4354 210.952C57.3191 210.999 57.37 211.314 57.5008 211.29Z" fill="#E0E0E0"/>
<path d="M34.3885 143.073C31.4804 142.845 27.4745 145.32 28.8994 147.127C30.3244 148.934 34.105 146.011 34.105 146.011C34.105 146.011 33.7487 149.665 34.9847 150.081C36.2206 150.498 37.8928 147.009 36.6569 144.778C37.2529 145.032 37.8987 145.119 38.5342 145.031C39.1697 144.943 39.7744 144.683 40.292 144.275C42.0514 142.876 40.1902 141.556 37.7111 141.792C37.7111 141.792 39.485 135.506 35.9007 136.708C34.105 137.297 33.4725 139.568 34.3885 143.073Z" fill="#FFAF2D"/>
<path opacity="0.65" d="M34.3885 143.073C31.4804 142.845 27.4745 145.32 28.8994 147.127C30.3244 148.934 34.105 146.011 34.105 146.011C34.105 146.011 33.7487 149.665 34.9847 150.081C36.2206 150.498 37.8928 147.009 36.6569 144.778C37.2529 145.032 37.8987 145.119 38.5342 145.031C39.1697 144.943 39.7744 144.683 40.292 144.275C42.0514 142.876 40.1902 141.556 37.7111 141.792C37.7111 141.792 39.485 135.506 35.9007 136.708C34.105 137.297 33.4725 139.568 34.3885 143.073Z" fill="white"/>
<path d="M37.0931 144.408C36.9322 144.238 36.7623 144.078 36.5842 143.929C36.3297 143.717 36.0607 143.513 35.8062 143.308C35.5585 143.114 35.2986 142.938 35.0283 142.782C34.8728 142.689 34.7126 142.605 34.5485 142.531C34.3219 142.416 34.0699 142.372 33.8215 142.405C33.7563 142.407 33.6929 142.428 33.6378 142.465C33.5827 142.503 33.538 142.556 33.5083 142.618C33.4785 142.681 33.4649 142.751 33.4689 142.821C33.4728 142.892 33.4941 142.959 33.5306 143.018C33.7305 143.252 33.98 143.43 34.2577 143.536L34.6503 143.764C34.9193 143.937 35.1592 144.133 35.3773 144.33C35.5954 144.526 35.8862 144.715 36.1043 144.911C36.4794 145.24 36.8986 145.505 37.3476 145.697C37.3677 145.709 37.3902 145.715 37.413 145.715C37.4358 145.715 37.4583 145.709 37.4784 145.697C37.8492 145.383 37.3039 144.636 37.0931 144.408Z" fill="#455A64"/>
<path d="M268.878 56.6339C265.701 61.254 261.447 86.6568 259.841 94.8049C252.112 94.5613 241.774 94.1684 237.863 93.7284C233.5 93.2334 224.187 92.2669 219.614 92.9427C208.265 94.5141 208.709 102.576 208.985 104.682C209.283 107.086 210.875 108.186 216.982 106.685C218.349 106.361 219.742 106.184 221.141 106.159C221.73 106.159 222.973 105.837 223.438 106.379C224.165 107.164 222.064 108.485 221.541 108.846C220.734 109.412 219.89 110.127 219.723 111.148C219.675 111.335 219.678 111.533 219.731 111.718C219.783 111.903 219.884 112.068 220.021 112.193C220.317 112.324 220.649 112.324 220.945 112.193C223.732 111.478 226.421 110.371 228.942 108.901C229.892 108.282 230.892 107.756 231.93 107.329C233.508 106.779 235.136 107.102 236.721 107.102C240.131 107.102 258.154 109.035 266.166 109.915C271.713 110.52 272.302 104.603 274.214 98.6078C276.562 91.1748 282.124 52.0845 282.124 52.0845C276.511 51.2044 272.658 51.1494 268.878 56.6339Z" fill="#FFA8A7"/>
<path d="M282.211 51.4716C279.529 50.9373 273.487 50.128 270.201 54.096C266.915 58.0639 266.137 62.2283 264.69 68.2392C263.243 74.25 260.677 85.0146 260.677 85.0146C260.677 85.0146 264.915 91.5912 278.184 89.729L282.211 51.4716Z" fill="#37474F"/>
<path d="M315.531 259.236L306.203 259.243L303.521 237.361L315.291 236.858L315.531 259.236Z" fill="#FFA8A7"/>
<path d="M284.56 248.306C282.975 251.284 277.878 251.04 273.654 249.987L273.167 228.474L285.636 227.94L284.56 248.306Z" fill="#FFA8A7"/>
<path d="M314.899 120.962C315.233 130.273 314.092 185.329 314.092 185.329C314.404 188.001 316.963 192.66 317.494 202.301C318.272 216.303 315.633 246.161 315.633 246.161C315.633 246.161 310.289 249.178 304.531 246.868C304.531 246.868 298.671 203.653 296.534 189.839C294.687 177.818 292.317 145.571 292.317 145.571L287.715 186.901C288.559 191.793 288.907 196.77 288.755 201.743C288.566 208.171 285.178 239.38 285.178 239.38C281.312 240.747 277.161 240.853 273.24 239.686C273.24 239.686 270.463 191.254 270.143 185.384C269.779 178.69 270.026 119.595 270.026 119.595L314.899 120.962Z" fill="#FFAF2D"/>
<path opacity="0.2" d="M292.332 145.587C292.332 145.587 284.182 143.088 278.627 137.729C278.627 137.729 281.23 142.53 288.602 146.789L288.18 182.862L292.332 145.587Z" fill="black"/>
<path d="M295.574 277.488C295.276 277.818 295.451 279.995 295.814 280.56C296.178 281.126 298.402 283.043 302.263 283.185C305.949 283.311 309.206 282.635 311.307 281.063C313.408 279.492 314.397 277.818 314.521 275.563C314.644 273.308 314.332 271.116 315.248 269.332C316.113 267.69 317.516 265.812 317.799 264.924C318.432 262.999 317.661 260.32 317.661 260.32L295.574 277.488Z" fill="#263238"/>
<path d="M304.88 257.318C304.885 258.178 304.772 259.033 304.546 259.856C303.757 262.536 302.571 265.059 301.034 267.329C299.973 268.798 298.635 270.032 297.508 271.454C296.302 272.802 295.563 274.559 295.414 276.427C295.371 279.57 298.54 280.474 300.962 280.835C303.586 281.21 306.254 280.941 308.77 280.05C310.095 279.618 311.276 278.782 312.171 277.642C313.066 276.501 313.637 275.105 313.815 273.622C313.917 272.75 313.815 271.87 313.903 270.998C314.149 268.995 314.851 267.089 315.946 265.451C316.579 264.503 317.12 263.486 317.56 262.418C318.236 260.453 317.56 258.308 317.007 256.415C316.535 254.773 315.996 252.91 315.466 253.091C315.466 253.963 315.466 254.042 314.95 254.663C314.223 255.448 314.259 256.54 313.496 257.224C313.716 256.499 313.867 255.751 313.946 254.993C313.982 254.683 313.912 254.37 313.75 254.113C313.487 253.882 313.179 253.721 312.848 253.641C311.699 253.274 310.517 253.034 309.322 252.926C308.185 252.764 307.031 252.804 305.905 253.044C305.573 253.127 305.275 253.329 305.062 253.618C304.875 253.939 304.781 254.314 304.793 254.694C304.793 255.205 304.873 256.485 304.88 257.318Z" fill="#455A64"/>
<path d="M302.117 265.592C303.164 264.681 305.564 264.563 306.887 264.665C308.228 264.731 309.531 265.163 310.675 265.922C310.843 266.044 311.046 266.096 311.248 266.071C311.449 266.045 311.635 265.942 311.772 265.781V265.781C311.853 265.689 311.914 265.58 311.951 265.46C311.988 265.341 312.001 265.214 311.989 265.088C311.976 264.963 311.939 264.842 311.879 264.733C311.819 264.625 311.738 264.532 311.642 264.461C310.378 263.535 308.899 263.012 307.374 262.952C304.131 262.85 303.208 263.486 303.208 263.486C303.208 263.486 301.761 264.571 302.117 265.592Z" fill="#F5F5F5"/>
<path d="M299.762 268.892C301.078 267.973 303.731 267.981 305.047 268.106C306.366 268.197 307.64 268.66 308.741 269.45C308.908 269.571 309.11 269.624 309.31 269.598C309.51 269.572 309.695 269.469 309.831 269.309C309.913 269.218 309.976 269.109 310.014 268.99C310.053 268.871 310.067 268.743 310.055 268.617C310.043 268.492 310.006 268.37 309.946 268.261C309.886 268.153 309.805 268.06 309.708 267.989C308.423 267.015 306.912 266.449 305.345 266.354C302.096 266.244 301.281 266.991 301.281 266.991C300.912 267.164 300.584 267.425 300.321 267.754C300.057 268.083 299.866 268.472 299.762 268.892V268.892Z" fill="#F5F5F5"/>
<path d="M308.537 259.558C307.165 259.355 305.767 259.539 304.48 260.092C303.928 260.461 303.586 261.451 303.957 261.663C305.083 261.117 306.317 260.879 307.548 260.972C308.765 261.049 309.96 261.352 311.082 261.868C311.365 261.986 311.7 262.158 311.99 262.316C312.084 262.367 312.185 262.397 312.29 262.405C312.394 262.413 312.499 262.397 312.597 262.36C312.696 262.322 312.786 262.264 312.863 262.187C312.94 262.111 313.002 262.018 313.045 261.915V261.915C313.114 261.736 313.119 261.536 313.06 261.354C313.001 261.171 312.882 261.018 312.725 260.925C311.436 260.149 310.008 259.683 308.537 259.558V259.558Z" fill="#F5F5F5"/>
<path d="M252.338 261.726C252.007 262.625 252.007 263.625 252.338 264.524C252.658 265.364 256.511 267.973 261.862 267.863C265.841 267.758 269.722 266.505 273.102 264.233C275.203 262.881 277.333 262.716 279.979 262.661C282.626 262.606 286.159 261.388 286.799 260.084C287.439 258.78 286.872 256.446 286.872 256.446L252.338 261.726Z" fill="#263238"/>
<path d="M274.658 244.833L274.243 244.715C274.008 244.638 273.76 244.614 273.516 244.645C273.254 244.713 273.018 244.866 272.84 245.085C272.29 245.781 271.803 246.534 271.386 247.332C270.186 249.241 267.751 250.758 265.133 252.117C263.345 253.036 261.607 253.736 259.768 254.513C257.929 255.291 255.406 255.731 253.952 256.706C251.771 258.128 251.356 261.939 253.668 263.573C255.675 264.987 261.026 266.677 266.755 265.231C269.888 264.445 273.48 261.051 277.551 260.917C280.147 260.831 285.061 260.296 286.813 258.261C287.475 257.358 286.813 254.333 286.225 251.724C285.614 248.88 285.89 244.652 284.712 244.652L284.64 246.075C284.531 246.499 283.607 246.915 283.316 247.245L282.27 248.44C281.841 248.993 281.317 249.451 280.728 249.791C279.689 250.294 278.474 249.995 277.362 249.681C277.318 249.681 277.922 247.497 277.987 247.285C278.053 247.119 278.073 246.936 278.045 246.758C277.99 246.584 277.879 246.437 277.733 246.342C276.815 245.615 275.768 245.101 274.658 244.833V244.833Z" fill="#455A64"/>
<path d="M267.62 250.718C267.823 250.344 268.11 250.031 268.454 249.807C268.798 249.583 269.189 249.456 269.59 249.437C270.775 249.265 272.804 250.302 274.047 251.52C274.164 251.634 274.254 251.777 274.308 251.937C274.362 252.098 274.379 252.27 274.358 252.439C274.336 252.607 274.277 252.768 274.184 252.907C274.092 253.045 273.97 253.157 273.829 253.233V253.233C273.651 253.328 273.451 253.36 273.256 253.327C273.06 253.293 272.879 253.194 272.738 253.044C271.377 251.579 269.541 250.745 267.62 250.718V250.718Z" fill="#F5F5F5"/>
<path d="M263.883 252.737C264.155 252.361 264.508 252.061 264.91 251.863C265.313 251.664 265.753 251.574 266.195 251.598C266.195 251.598 269.263 251.85 271.073 253.861C271.185 253.971 271.27 254.109 271.322 254.263C271.374 254.417 271.391 254.581 271.371 254.744C271.351 254.906 271.295 255.06 271.207 255.194C271.12 255.328 271.004 255.436 270.87 255.511V255.511C270.698 255.602 270.505 255.633 270.316 255.6C270.128 255.568 269.953 255.474 269.816 255.33C269.07 254.444 268.15 253.751 267.123 253.302C266.096 252.853 264.989 252.66 263.883 252.737V252.737Z" fill="#F5F5F5"/>
<path d="M259.775 254.513C260.084 254.168 260.458 253.898 260.872 253.723C261.286 253.548 261.731 253.472 262.174 253.5C263.913 253.707 265.546 254.502 266.842 255.77C266.954 255.882 267.039 256.02 267.091 256.174C267.142 256.329 267.159 256.494 267.139 256.657C267.119 256.819 267.063 256.974 266.976 257.109C266.889 257.243 266.773 257.353 266.638 257.428V257.428C266.466 257.52 266.272 257.551 266.083 257.517C265.894 257.484 265.72 257.386 265.584 257.24C264.879 256.329 263.986 255.608 262.978 255.135C261.969 254.661 260.873 254.449 259.775 254.513V254.513Z" fill="#F5F5F5"/>
<path d="M297.755 51.6445C301.187 52.0688 305.244 52.2967 308.523 52.7603C312.747 53.3574 316.04 58.0797 317.072 65.387C318.207 73.4329 313.437 96.5021 313.437 96.5021L314.957 123.704C308.77 128.631 282.422 131.216 269.292 120.97C269.292 120.97 269.597 74.6744 270.622 67.5399C272.033 57.7575 274.258 51.6838 284.436 50.9845L297.755 51.6445Z" fill="#455A64"/>
<path d="M321.217 110.575C320.104 112.586 318.985 114.598 317.836 116.585C317.414 117.324 316.985 118.055 316.542 118.778C316.301 119.132 316.02 119.451 315.706 119.728C315.153 120.137 314.004 119.878 313.336 119.901C310.049 120.022 306.773 120.284 303.506 120.687C303.233 120.678 302.961 120.733 302.71 120.85C302.458 120.967 302.234 121.142 302.052 121.363C301.918 121.667 301.891 122.014 301.977 122.338C302.062 122.662 302.255 122.941 302.517 123.123C303.052 123.47 303.66 123.665 304.284 123.689L307.119 124.05C307.524 124.065 307.917 124.201 308.254 124.443C309.286 125.346 307.316 126.431 306.727 126.871C305.542 127.76 304.278 128.518 302.954 129.134C297.043 131.821 296.323 133.769 297.414 135.985C298.359 137.91 302.445 144.911 312.827 138.885C317.007 136.457 323.369 128.788 326.269 125.079C330.443 119.728 337.502 107.793 337.502 107.793C341.515 101.837 342.031 99.3936 342.126 96.9185C342.22 94.4435 329.766 75.4051 325.535 68.7185C321.304 62.0319 319.29 53.8996 308.523 52.7838C308.523 52.7838 304.422 66.8327 311.213 75.9237L326.895 99.5665C326.895 99.5665 322.743 107.817 321.217 110.575Z" fill="#FFA8A7"/>
<path d="M332.595 77.7859C330.581 74.643 328.48 71.4058 326.451 68.2C317.909 54.7246 318.628 52.2574 306.312 52.0688C305.222 53.876 304.575 61.6548 306.218 69.465C307.592 76.0259 312.761 80.6539 312.761 80.6539L318.926 89.682C318.926 89.682 322.7 89.5562 327.222 85.9733C329.833 83.9961 331.732 81.1034 332.595 77.7859V77.7859Z" fill="#37474F"/>
<path d="M305.876 16.2314C305.257 15.2343 304.399 14.4374 303.394 13.9254C302.389 13.4135 301.275 13.2057 300.169 13.3241L299.529 30.1939L298.482 36.4247L298.664 43.3628C299.272 43.2699 299.848 43.0122 300.339 42.6138C300.829 42.2154 301.219 41.6891 301.47 41.0841C302.43 39.0884 305.106 29.4396 305.106 29.4396C307.505 21.5115 306.996 17.9285 305.876 16.2314Z" fill="#263238"/>
<path d="M298.802 30.2726C299.072 29.2473 299.592 28.3192 300.307 27.5853C301.201 26.5482 304.764 25.4246 306.385 28.6932C308.006 31.9619 305.273 36.2756 303.164 37.5956C300.467 39.2928 298.882 36.9827 298.882 36.9827L298.948 52.5167C297.69 55.6596 292.012 58.4569 288.631 58.0168C285.941 57.6476 283.462 55.3611 285.868 52.0295L285.672 47.598C285.672 47.598 282.073 48.3837 280.292 48.1873C277.333 47.8573 275.363 45.4451 274.316 42.0507C272.629 36.5977 271.88 32.1662 272.593 21.2287C273.378 9.24629 286.196 8.43699 293.342 12.7742C300.489 17.1115 298.802 30.2726 298.802 30.2726Z" fill="#FFA8A7"/>
<path d="M268.514 8.78265C268.187 6.16615 269.023 3.36108 271.56 2.43391C272.491 2.01295 273.514 1.88474 274.509 2.06407C275.505 2.24339 276.433 2.72294 277.188 3.44751C277.506 2.52443 278.056 1.71553 278.776 1.11171C279.496 0.507888 280.358 0.133083 281.264 0.0294146C282.17 -0.0742543 283.085 0.0973223 283.907 0.524863C284.728 0.952403 285.422 1.61896 285.912 2.44963C286.586 1.3433 287.627 0.558613 288.82 0.257428C289.556 0.0798586 290.317 0.0634643 291.059 0.209216C291.801 0.354968 292.508 0.659907 293.139 1.10602C294.171 1.93104 295.385 3.46323 295.08 5.45113C297.123 4.56325 299.253 5.30184 300.772 7.25047C301.677 8.44373 302.188 9.92804 302.227 11.4699C302.279 12.2707 302.173 13.0744 301.914 13.8271C301.623 14.5421 301.027 15.0135 300.852 15.8228C300.599 16.5349 300.468 17.2913 300.467 18.0543C300.634 19.3744 300.903 20.6944 301.063 21.983C301.235 23.2665 301.335 24.5601 301.361 25.8567C301.323 26.1616 301.225 26.4541 301.073 26.7144C300.922 26.9747 300.72 27.1967 300.482 27.3653C299.803 28.0068 299.277 28.8153 298.948 29.7225C298.693 30.2882 298.446 31.6868 297.944 32.0797C296.396 33.2504 296.221 29.4632 296.149 28.7325C296.049 27.0553 296.049 25.373 296.149 23.6959C295.368 23.685 294.597 23.4976 293.887 23.1458C293.177 22.7939 292.544 22.2854 292.026 21.653C291.49 20.9423 291.136 20.0913 291.001 19.1858C290.917 18.667 290.878 18.1409 290.885 17.6143C289.874 19.4215 287.526 20.1601 285.854 19.9715C283.047 19.6965 282.08 18.4 281.63 17.4493C281.452 18.3864 281.071 19.2645 280.517 20.0108C279.8 20.7388 278.937 21.2768 277.995 21.5823C277.182 21.8166 276.325 21.8074 275.517 21.5554C274.709 21.3035 273.979 20.8184 273.407 20.1522C272.266 21.9201 269.372 21.1344 268.732 20.6394C267.278 19.5001 266.806 18.1408 266.646 16.2C266.486 14.2592 267.213 12.0434 269.205 11.2813C268.846 10.4965 268.612 9.65169 268.514 8.78265V8.78265Z" fill="#263238"/>
<path d="M285.672 47.5744C285.672 47.5744 292.172 45.7986 294.396 44.3529C295.712 43.5202 296.764 42.2766 297.414 40.7856C297.133 42.2564 296.581 43.6511 295.792 44.8872C294.222 47.2994 285.745 49.468 285.745 49.468L285.672 47.5744Z" fill="#F28F8F"/>
<path d="M286.036 29.7539C286.06 30.0515 286.165 30.3348 286.337 30.5685C286.51 30.8021 286.742 30.976 287.005 31.0683C287.268 31.1606 287.55 31.1674 287.816 31.0878C288.083 31.0081 288.322 30.8456 288.503 30.6204C288.685 30.3952 288.802 30.1172 288.838 29.8211C288.875 29.5249 288.83 29.2236 288.71 28.9547C288.59 28.6857 288.399 28.4609 288.161 28.3082C287.923 28.1556 287.649 28.0817 287.373 28.096C286.994 28.1282 286.641 28.3198 286.391 28.6298C286.141 28.9397 286.013 29.3433 286.036 29.7539Z" fill="#263238"/>
<path d="M283.862 41.1235C283.895 41.5068 284.032 41.8712 284.255 42.1712C284.478 42.4712 284.778 42.6937 285.117 42.8111C285.457 42.9284 285.82 42.9354 286.163 42.8312C286.506 42.7269 286.813 42.5161 287.046 42.2248C287.279 41.9335 287.428 41.5747 287.474 41.1929C287.52 40.8111 287.461 40.4231 287.304 40.0773C287.148 39.7314 286.901 39.4428 286.594 39.2475C286.287 39.0521 285.933 38.9586 285.578 38.9785C285.088 39.0207 284.634 39.2694 284.313 39.6708C283.992 40.0722 283.83 40.594 283.862 41.1235V41.1235Z" fill="#F28F8F"/>
<path d="M287.206 24.5208L290.201 26.0923C290.388 25.6486 290.41 25.1444 290.262 24.6838C290.115 24.2232 289.809 23.8414 289.409 23.6172C289.21 23.5145 288.994 23.4565 288.774 23.4466C288.554 23.4367 288.335 23.4751 288.129 23.5596C287.923 23.6441 287.735 23.7728 287.576 23.938C287.418 24.1032 287.292 24.3015 287.206 24.5208V24.5208Z" fill="#263238"/>
<path d="M274.178 25.8802L276.73 23.523C276.596 23.335 276.429 23.1783 276.238 23.0627C276.047 22.9471 275.836 22.8749 275.618 22.8506C275.4 22.8263 275.18 22.8504 274.971 22.9215C274.762 22.9925 274.569 23.109 274.403 23.2637C274.063 23.5857 273.85 24.0366 273.808 24.5234C273.766 25.0102 273.898 25.4958 274.178 25.8802V25.8802Z" fill="#263238"/>
<path d="M274.941 29.4474C274.959 29.7381 275.055 30.0166 275.219 30.2481C275.383 30.4795 275.606 30.6535 275.861 30.7482C276.116 30.8429 276.391 30.854 276.651 30.7802C276.912 30.7063 277.147 30.5509 277.326 30.3333C277.505 30.1157 277.621 29.8457 277.658 29.5573C277.696 29.2689 277.654 28.9749 277.537 28.7123C277.421 28.4496 277.235 28.2301 277.003 28.0813C276.772 27.9325 276.504 27.8611 276.235 27.876C275.872 27.9023 275.533 28.0817 275.291 28.3756C275.049 28.6695 274.923 29.0544 274.941 29.4474V29.4474Z" fill="#263238"/>
<path d="M281.688 27.7031L281.644 36.9984L277.093 35.584L281.688 27.7031Z" fill="#F28F8F"/>
<path d="M270.266 40.7072C270.308 40.6972 270.348 40.6781 270.383 40.6511C270.418 40.6241 270.447 40.5897 270.47 40.5501C270.496 40.5113 270.514 40.4672 270.524 40.4205C270.533 40.3738 270.534 40.3255 270.526 40.2785C270.518 40.2315 270.501 40.1867 270.476 40.147C270.452 40.1072 270.42 40.0733 270.383 40.0472L266.428 37.2028C266.391 37.1764 266.35 37.158 266.306 37.1488C266.263 37.1396 266.218 37.1397 266.175 37.1492C266.132 37.1587 266.091 37.1774 266.054 37.2041C266.018 37.2308 265.986 37.2651 265.962 37.305C265.937 37.3443 265.919 37.3888 265.91 37.4358C265.901 37.4828 265.901 37.5313 265.909 37.5784C265.918 37.6254 265.936 37.6701 265.961 37.7095C265.987 37.749 266.019 37.7824 266.057 37.8079L270.005 40.6522C270.042 40.6817 270.084 40.7019 270.13 40.7114C270.175 40.7209 270.222 40.7195 270.266 40.7072Z" fill="#E0E0E0"/>
<path d="M269.845 42.5457C269.906 42.5291 269.962 42.4948 270.007 42.4464C270.052 42.3979 270.084 42.3372 270.099 42.2707C270.119 42.1759 270.103 42.0766 270.055 41.9942C270.008 41.9119 269.932 41.8531 269.845 41.8307L265.221 40.6756C265.178 40.6639 265.133 40.6616 265.089 40.6687C265.045 40.6758 265.003 40.6923 264.965 40.7172C264.928 40.742 264.895 40.7748 264.869 40.8135C264.842 40.8522 264.824 40.8962 264.814 40.9428C264.794 41.0375 264.81 41.1369 264.857 41.2192C264.905 41.3016 264.981 41.3603 265.068 41.3828L269.692 42.5457C269.743 42.5535 269.794 42.5535 269.845 42.5457V42.5457Z" fill="#E0E0E0"/>
<path d="M265.548 45.8693H265.591L270.048 44.1093C270.132 44.076 270.2 44.008 270.238 43.9203C270.275 43.8326 270.279 43.7324 270.248 43.6418C270.217 43.5511 270.154 43.4774 270.073 43.4369C269.992 43.3964 269.899 43.3924 269.816 43.4257L265.359 45.1858C265.317 45.2023 265.279 45.2277 265.246 45.2606C265.213 45.2934 265.187 45.3329 265.169 45.3768C265.151 45.4207 265.141 45.4682 265.139 45.5163C265.138 45.5645 265.146 45.6124 265.163 45.6572C265.193 45.7361 265.249 45.8008 265.319 45.8396C265.39 45.8785 265.471 45.889 265.548 45.8693V45.8693Z" fill="#E0E0E0"/>
<path d="M227.844 83.5611C227.936 83.7605 228.08 83.9264 228.258 84.0382C228.436 84.1501 228.641 84.203 228.847 84.1904C229.053 84.1779 229.251 84.1004 229.416 83.9676C229.581 83.8348 229.707 83.6525 229.778 83.4433L233.093 74.6038C233.147 74.462 233.174 74.3101 233.172 74.1569C233.17 74.0037 233.14 73.8525 233.083 73.7123C233.026 73.5721 232.943 73.4458 232.84 73.3409C232.737 73.236 232.615 73.1547 232.482 73.1018C232.349 73.049 232.207 73.0257 232.066 73.0333C231.924 73.0409 231.785 73.0792 231.658 73.1461C231.53 73.213 231.417 73.3069 231.323 73.4224C231.23 73.5378 231.16 73.6724 231.116 73.818L227.793 82.6575C227.744 82.8039 227.723 82.9596 227.732 83.115C227.741 83.2704 227.779 83.4223 227.844 83.5611Z" fill="#E0E0E0"/>
<path d="M222.384 83.514C222.49 83.7456 222.665 83.9315 222.882 84.0411C223.098 84.1508 223.343 84.1776 223.575 84.1174C223.808 84.0571 224.014 83.9132 224.161 83.7093C224.308 83.5055 224.386 83.2537 224.383 82.9954L224.274 71.9951C224.252 71.7103 224.132 71.4448 223.938 71.2513C223.743 71.0577 223.488 70.9503 223.224 70.9503C222.959 70.9503 222.705 71.0577 222.51 71.2513C222.315 71.4448 222.195 71.7103 222.173 71.9951L222.275 82.9954C222.273 83.1751 222.31 83.3528 222.384 83.514V83.514Z" fill="#E0E0E0"/>
<path d="M213.129 77.393L213.194 77.5265L218.204 85.3839C218.359 85.6327 218.599 85.8052 218.871 85.864C219.143 85.9229 219.426 85.8633 219.658 85.6982C219.884 85.5266 220.039 85.2671 220.092 84.9742C220.145 84.6812 220.091 84.3775 219.941 84.1267L214.932 76.2694C214.786 76.0256 214.559 75.8519 214.298 75.784C214.037 75.7161 213.761 75.7592 213.529 75.9046C213.296 76.0499 213.124 76.2862 213.049 76.5647C212.973 76.8432 212.999 77.1426 213.122 77.4008L213.129 77.393Z" fill="#E0E0E0"/>
</svg>
