<svg width="313" height="55" viewBox="0 0 313 55" fill="none" xmlns="http://www.w3.org/2000/svg">
<g clip-path="url(#clip0)">
<path d="M38.5954 16.5941H40.3536L45.3645 11.5684L45.6107 9.43465C42.7401 6.89348 39.271 5.12821 35.5311 4.30561C31.7912 3.48301 27.9039 3.63023 24.2365 4.73336C20.5691 5.83649 17.2426 7.85911 14.5713 10.6102C11.9 13.3612 9.97198 16.7499 8.96948 20.456C9.52772 20.2265 10.1461 20.1893 10.7277 20.3502L20.7495 18.6926C20.7495 18.6926 21.2594 17.8462 21.5231 17.8991C23.6705 15.5337 26.6381 14.0811 29.8184 13.8385C32.9987 13.5959 36.1512 14.5817 38.6306 16.5941H38.5954Z" fill="#EA4335"/>
<path d="M52.5031 20.456C51.3513 16.202 48.9865 12.3777 45.6988 9.45227L38.6659 16.506C40.1316 17.7071 41.3063 19.2265 42.1012 20.9493C42.8961 22.6722 43.2906 24.5536 43.2549 26.4517V27.7037C44.0768 27.7037 44.8908 27.8661 45.6502 28.1816C46.4096 28.497 47.0996 28.9595 47.6808 29.5424C48.262 30.1253 48.7231 30.8174 49.0376 31.5791C49.3522 32.3407 49.5141 33.1571 49.5141 33.9815C49.5141 34.8059 49.3522 35.6222 49.0376 36.3839C48.7231 37.1455 48.262 37.8376 47.6808 38.4205C47.0996 39.0035 46.4096 39.4659 45.6502 39.7814C44.8908 40.0969 44.0768 40.2592 43.2549 40.2592H30.7364L29.488 41.5289V49.0587L30.7364 50.3107H43.2549C46.7506 50.338 50.1623 49.2361 52.9852 47.1679C55.8081 45.0998 57.8923 42.1752 58.9296 38.8269C59.9668 35.4785 59.9019 31.8843 58.7445 28.5758C57.5872 25.2674 55.3988 22.4204 52.5031 20.456Z" fill="#4285F4"/>
<path d="M18.2002 50.2403H30.7187V40.1888H18.2002C17.3084 40.1886 16.4269 39.9962 15.6157 39.6245L13.8575 40.1712L8.81138 45.1969L8.37183 46.9603C11.2016 49.1034 14.6544 50.2557 18.2002 50.2403Z" fill="#34A853"/>
<path d="M18.2002 17.6345C14.8083 17.6548 11.5074 18.7372 8.75855 20.7304C6.00972 22.7236 3.95023 25.5281 2.86772 28.7522C1.78522 31.9763 1.73375 35.459 2.72053 38.7139C3.7073 41.9688 5.68302 44.8333 8.37175 46.9073L15.6332 39.6244C14.7104 39.2062 13.9025 38.5698 13.2789 37.7697C12.6553 36.9695 12.2345 36.0296 12.0527 35.0305C11.8709 34.0315 11.9335 33.003 12.2351 32.0336C12.5367 31.0641 13.0683 30.1824 13.7843 29.4643C14.5003 28.7462 15.3793 28.213 16.346 27.9105C17.3126 27.608 18.338 27.5453 19.3341 27.7276C20.3302 27.91 21.2674 28.332 22.0651 28.9574C22.8629 29.5829 23.4975 30.3931 23.9144 31.3187L31.1758 24.0357C29.6517 22.0373 27.6873 20.4197 25.4363 19.3092C23.1853 18.1987 20.7087 17.6255 18.2002 17.6345Z" fill="#FBBC05"/>
<path d="M92.9947 43.2218C90.8394 43.2493 88.7007 42.8403 86.7068 42.0191C84.7128 41.198 82.9046 39.9816 81.3905 38.4429C79.8287 36.9695 78.5893 35.1866 77.7509 33.2074C76.9125 31.2281 76.4934 29.0957 76.5203 26.9454C76.4945 24.7953 76.9141 22.6632 77.7524 20.6841C78.5907 18.705 79.8296 16.922 81.3905 15.4479C82.8972 13.8933 84.7021 12.6606 86.6964 11.8241C88.6907 10.9877 90.8331 10.5648 92.9947 10.5809C95.0544 10.5533 97.0989 10.9367 99.0096 11.7086C100.92 12.4806 102.659 13.6258 104.124 15.0776L100.995 18.2694C98.8514 16.192 95.9749 15.0507 92.9947 15.0952C91.4488 15.0762 89.9158 15.3799 88.4931 15.987C87.0705 16.5942 85.7894 17.4916 84.7311 18.6221C83.6313 19.7164 82.7637 21.0227 82.1805 22.4622C81.5973 23.9017 81.3107 25.4447 81.3378 26.9983C81.3249 28.5342 81.6184 30.0571 82.2012 31.4774C82.784 32.8978 83.6442 34.1869 84.7311 35.2688C86.9084 37.445 89.8466 38.683 92.9203 38.7192C95.9939 38.7554 98.9603 37.587 101.188 35.4627C102.567 33.9479 103.413 32.0215 103.597 29.9785H93.0475V25.4641H107.975C108.121 26.3733 108.18 27.2946 108.151 28.2151C108.243 30.1203 107.95 32.0246 107.288 33.8129C106.626 35.6011 105.61 37.2362 104.3 38.6193C102.844 40.14 101.084 41.3358 99.1364 42.1288C97.1885 42.9218 95.0958 43.2943 92.9947 43.2218ZM127.702 40.224C125.699 42.15 123.031 43.2252 120.256 43.2252C117.481 43.2252 114.813 42.15 112.81 40.224C111.813 39.2543 111.027 38.0874 110.504 36.7972C109.98 35.5071 109.73 34.1218 109.768 32.7294C109.731 31.3371 109.982 29.9522 110.505 28.6622C111.029 27.3722 111.814 26.2052 112.81 25.2349C114.815 23.3129 117.482 22.2404 120.256 22.2404C123.03 22.2404 125.697 23.3129 127.702 25.2349C128.698 26.2052 129.483 27.3722 130.006 28.6622C130.53 29.9522 130.781 31.3371 130.744 32.7294C130.78 34.1231 130.526 35.5092 130 36.7994C129.473 38.0896 128.685 39.2559 127.684 40.224H127.702ZM116.098 37.2791C116.631 37.8498 117.275 38.3048 117.99 38.6158C118.705 38.9268 119.476 39.0873 120.256 39.0873C121.035 39.0873 121.807 38.9268 122.522 38.6158C123.237 38.3048 123.881 37.8498 124.414 37.2791C124.995 36.6768 125.45 35.964 125.752 35.1826C126.054 34.4012 126.197 33.5671 126.172 32.7294C126.198 31.889 126.056 31.0518 125.754 30.2674C125.452 29.4829 124.996 28.7671 124.414 28.1622C123.874 27.5973 123.226 27.1478 122.508 26.8407C121.791 26.5336 121.018 26.3753 120.238 26.3753C119.458 26.3753 118.686 26.5336 117.968 26.8407C117.251 27.1478 116.602 27.5973 116.063 28.1622C115.48 28.7671 115.025 29.4829 114.723 30.2674C114.421 31.0518 114.278 31.889 114.304 32.7294C114.282 33.5683 114.428 34.4032 114.733 35.1846C115.038 35.9661 115.496 36.6782 116.08 37.2791H116.098ZM150.594 40.224C148.591 42.15 145.923 43.2252 143.148 43.2252C140.373 43.2252 137.705 42.15 135.702 40.224C134.705 39.2543 133.919 38.0874 133.396 36.7972C132.872 35.5071 132.622 34.1218 132.66 32.7294C132.623 31.3371 132.874 29.9522 133.397 28.6622C133.921 27.3722 134.706 26.2052 135.702 25.2349C137.705 23.3089 140.373 22.2336 143.148 22.2336C145.923 22.2336 148.591 23.3089 150.594 25.2349C151.59 26.2052 152.375 27.3722 152.898 28.6622C153.422 29.9522 153.673 31.3371 153.636 32.7294C153.674 34.1218 153.423 35.5071 152.9 36.7972C152.376 38.0874 151.591 39.2543 150.594 40.224ZM138.99 37.2791C139.522 37.8498 140.166 38.3048 140.882 38.6158C141.597 38.9268 142.368 39.0873 143.148 39.0873C143.927 39.0873 144.699 38.9268 145.414 38.6158C146.129 38.3048 146.773 37.8498 147.306 37.2791C147.887 36.6768 148.342 35.964 148.644 35.1826C148.946 34.4012 149.089 33.5671 149.064 32.7294C149.09 31.889 148.948 31.0518 148.646 30.2674C148.344 29.4829 147.888 28.7671 147.306 28.1622C146.766 27.5973 146.118 27.1478 145.4 26.8407C144.683 26.5336 143.91 26.3753 143.13 26.3753C142.35 26.3753 141.578 26.5336 140.86 26.8407C140.143 27.1478 139.494 27.5973 138.954 28.1622C138.372 28.7671 137.917 29.4829 137.615 30.2674C137.313 31.0518 137.17 31.889 137.196 32.7294C137.174 33.5683 137.32 34.4032 137.625 35.1846C137.93 35.9661 138.388 36.6782 138.972 37.2791H138.99ZM165.644 52.6385C163.537 52.7057 161.47 52.0459 159.789 50.7692C158.297 49.644 157.122 48.1491 156.378 46.4312L160.387 44.756C160.823 45.7826 161.506 46.6852 162.374 47.3835C163.303 48.1346 164.469 48.5286 165.662 48.4944C166.418 48.5406 167.176 48.4227 167.883 48.1488C168.59 47.875 169.229 47.4515 169.758 46.9073C170.818 45.6258 171.341 43.9825 171.218 42.3224V40.8059H171.059C170.389 41.604 169.543 42.2347 168.588 42.6479C167.633 43.0611 166.595 43.2455 165.556 43.1865C164.236 43.1905 162.93 42.9199 161.719 42.3918C160.509 41.8637 159.42 41.0895 158.523 40.1182C157.55 39.1546 156.782 38.0029 156.265 36.7329C155.748 35.4629 155.494 34.1009 155.517 32.7294C155.493 31.3499 155.746 29.9797 156.263 28.7009C156.78 27.4222 157.548 26.2612 158.523 25.2878C159.418 24.3124 160.506 23.5344 161.716 23.0031C162.927 22.4719 164.235 22.199 165.556 22.2018C166.675 22.1998 167.78 22.4468 168.791 22.9248C169.667 23.3082 170.447 23.8801 171.077 24.6001H171.235V22.9248H175.596V41.7052C175.71 43.1909 175.522 44.6844 175.041 46.0944C174.56 47.5043 173.798 48.801 172.8 49.9052C171.85 50.817 170.727 51.5287 169.498 51.9981C168.269 52.4676 166.958 52.6853 165.644 52.6385ZM165.961 39.0954C166.711 39.1119 167.457 38.9625 168.143 38.6578C168.83 38.353 169.441 37.9004 169.934 37.332C171.019 36.0851 171.591 34.4714 171.534 32.8176C171.599 31.1359 171.028 29.4916 169.934 28.2151C169.442 27.6457 168.831 27.1924 168.144 26.8876C167.457 26.5827 166.712 26.4339 165.961 26.4516C165.189 26.4358 164.424 26.5848 163.714 26.8889C163.005 27.1929 162.368 27.645 161.846 28.2151C160.683 29.4458 160.052 31.0871 160.088 32.7823C160.07 33.6139 160.216 34.4408 160.518 35.2155C160.82 35.9902 161.271 36.6975 161.846 37.2967C162.366 37.8723 163.001 38.3303 163.71 38.6405C164.42 38.9506 165.187 39.1057 165.961 39.0954ZM183.349 11.7623V42.587H178.76V11.7623H183.349ZM195.938 43.2218C194.564 43.2572 193.197 43.0077 191.923 42.4888C190.65 41.9699 189.497 41.1929 188.536 40.2063C187.562 39.227 186.796 38.0593 186.285 36.7739C185.774 35.4886 185.529 34.1126 185.565 32.7294C185.513 31.3429 185.74 29.96 186.232 28.6633C186.724 27.3666 187.472 26.1826 188.431 25.182C189.334 24.227 190.426 23.4718 191.637 22.9647C192.848 22.4576 194.151 22.2097 195.463 22.2371C196.67 22.2243 197.867 22.4583 198.98 22.9248C199.983 23.3308 200.897 23.9299 201.67 24.6882C202.334 25.3311 202.924 26.0469 203.428 26.822C203.836 27.4764 204.183 28.167 204.466 28.8852L204.94 30.0843L190.875 35.886C191.3 36.8662 192.011 37.6943 192.915 38.2609C193.819 38.8275 194.873 39.1062 195.938 39.0601C196.974 39.0629 197.994 38.7964 198.896 38.2865C199.799 37.7765 200.555 37.0406 201.09 36.1505L204.606 38.5311C203.709 39.8188 202.56 40.9106 201.23 41.7405C199.649 42.7428 197.809 43.2578 195.938 43.2218ZM190.066 32.412L199.419 28.5149C199.131 27.8277 198.616 27.261 197.96 26.9101C197.226 26.4942 196.395 26.2813 195.551 26.2929C194.121 26.3301 192.762 26.9321 191.771 27.9682C191.178 28.5373 190.718 29.2307 190.423 29.9989C190.128 30.767 190.006 31.5911 190.066 32.412ZM228.975 43.2218C227.023 43.2556 225.085 42.8935 223.277 42.1573C221.468 41.421 219.826 40.3258 218.45 38.9374C217.074 37.549 215.992 35.8961 215.269 34.0778C214.545 32.2594 214.196 30.3133 214.241 28.3561C214.196 26.399 214.545 24.4528 215.269 22.6345C215.992 20.8162 217.074 19.1633 218.45 17.7749C219.826 16.3865 221.468 15.2913 223.277 14.555C225.085 13.8188 227.023 13.4567 228.975 13.4905C230.95 13.4286 232.914 13.8151 234.719 14.6212C236.525 15.4274 238.125 16.6323 239.401 18.1459L236.869 20.6147C235.933 19.433 234.731 18.4898 233.362 17.8616C231.994 17.2335 230.497 16.9382 228.993 16.9997C227.545 16.967 226.105 17.2282 224.761 17.7676C223.416 18.307 222.194 19.1135 221.169 20.1386C220.102 21.2143 219.269 22.4996 218.721 23.9138C218.173 25.3279 217.923 26.8404 217.986 28.3561C217.923 29.8719 218.173 31.3844 218.721 32.7985C219.269 34.2127 220.102 35.498 221.169 36.5737C222.194 37.5988 223.416 38.4053 224.761 38.9447C226.105 39.4841 227.545 39.7453 228.993 39.7126C230.673 39.7315 232.336 39.3703 233.858 38.6559C235.38 37.9415 236.722 36.8923 237.784 35.5862L240.316 38.1255C238.99 39.7154 237.326 40.9868 235.445 41.8463C233.418 42.7849 231.207 43.2549 228.975 43.2218ZM247.12 42.587H243.48V14.1077H247.12V42.587ZM253.063 25.4465C254.97 23.5469 257.548 22.4809 260.236 22.4809C262.924 22.4809 265.503 23.5469 267.41 25.4465C268.342 26.4341 269.071 27.5968 269.554 28.8679C270.036 30.139 270.264 31.4933 270.223 32.8529C270.264 34.2124 270.036 35.5667 269.554 36.8378C269.071 38.1089 268.342 39.2717 267.41 40.2592C265.503 42.1588 262.924 43.2249 260.236 43.2249C257.548 43.2249 254.97 42.1588 253.063 40.2592C252.13 39.2717 251.401 38.1089 250.919 36.8378C250.436 35.5667 250.208 34.2124 250.249 32.8529C250.208 31.4933 250.436 30.139 250.919 28.8679C251.401 27.5968 252.13 26.4341 253.063 25.4465ZM255.77 37.9668C256.344 38.5746 257.035 39.0588 257.801 39.3896C258.567 39.7205 259.393 39.8912 260.227 39.8912C261.062 39.8912 261.887 39.7205 262.654 39.3896C263.42 39.0588 264.111 38.5746 264.684 37.9668C265.321 37.2822 265.814 36.4774 266.137 35.5995C266.46 34.7215 266.606 33.7878 266.566 32.8529C266.606 31.9179 266.46 30.9843 266.137 30.1063C265.814 29.2283 265.321 28.4236 264.684 27.7389C264.111 27.1311 263.42 26.647 262.654 26.3161C261.887 25.9852 261.062 25.8146 260.227 25.8146C259.393 25.8146 258.567 25.9852 257.801 26.3161C257.035 26.647 256.344 27.1311 255.77 27.7389C255.134 28.4236 254.64 29.2283 254.317 30.1063C253.994 30.9843 253.849 31.9179 253.889 32.8529C253.853 33.7861 254.003 34.7172 254.329 35.592C254.655 36.4669 255.151 37.2681 255.788 37.9492L255.77 37.9668ZM290.389 42.587H286.873V39.8889H286.768C286.142 40.9137 285.256 41.7534 284.201 42.3224C283.105 42.959 281.862 43.2936 280.596 43.2923C279.569 43.3628 278.538 43.1996 277.582 42.8149C276.626 42.4302 275.769 41.8338 275.075 41.0704C273.744 39.3808 273.074 37.2606 273.194 35.1101V23.1188H276.834V34.44C276.834 38.0726 278.434 39.8889 281.634 39.8889C282.345 39.9112 283.051 39.7627 283.693 39.456C284.335 39.1493 284.895 38.6931 285.326 38.1255C286.269 36.9264 286.772 35.4382 286.75 33.9109V23.1188H290.389V42.587ZM302.75 43.2218C301.515 43.2259 300.294 42.9616 299.171 42.4472C298.048 41.9327 297.05 41.1802 296.244 40.2416C294.422 38.2224 293.445 35.5758 293.519 32.8529C293.445 30.1299 294.422 27.4834 296.244 25.4641C297.05 24.5255 298.048 23.7731 299.171 23.2586C300.294 22.7441 301.515 22.4798 302.75 22.4839C304.133 22.462 305.499 22.7895 306.723 23.4362C307.799 23.979 308.71 24.8011 309.361 25.8168H309.519L309.361 23.1188V14.1077H313V42.587H309.484V39.8889H309.325C308.674 40.9047 307.764 41.7267 306.688 42.2695C305.475 42.9105 304.121 43.2378 302.75 43.2218ZM303.348 39.8889C304.17 39.9009 304.986 39.7373 305.741 39.409C306.496 39.0806 307.172 38.595 307.725 37.9844C308.962 36.5725 309.594 34.7288 309.484 32.8529C309.594 30.977 308.962 29.1332 307.725 27.7213C307.169 27.1074 306.49 26.6169 305.733 26.2813C304.976 25.9456 304.158 25.7723 303.33 25.7723C302.502 25.7723 301.684 25.9456 300.927 26.2813C300.17 26.6169 299.491 27.1074 298.934 27.7213C298.32 28.4158 297.849 29.225 297.547 30.1025C297.245 30.9801 297.119 31.9087 297.176 32.8352C297.119 33.7617 297.245 34.6904 297.547 35.568C297.849 36.4455 298.32 37.2547 298.934 37.9492C299.489 38.5707 300.169 39.0656 300.931 39.4002C301.692 39.7349 302.516 39.9016 303.348 39.8889Z" fill="#5F6368"/>
</g>
<defs>
<clipPath id="clip0">
<rect width="313" height="55" fill="white"/>
</clipPath>
</defs>
</svg>
