<svg width="307" height="288" viewBox="0 0 307 288" fill="none" xmlns="http://www.w3.org/2000/svg">
<g clip-path="url(#clip0)">
<path d="M132.323 263.489C130.048 260.43 126.362 257.892 122.459 255.204C118.257 252.316 113.941 249.345 111.779 245.892C119.981 244.258 130.358 241.297 130.858 241.156C131.75 240.901 132.45 240.233 132.715 239.383C132.982 238.532 132.782 237.61 132.182 236.93C131.647 236.324 119.084 222.268 98.8045 215.372C97.91 213.664 96.9127 211.474 95.7536 208.941C87.5865 191.074 70.6314 153.995 25.8977 149.006C22.333 146.71 12.9907 141 8.30194 141C2.48358 141 0 143.368 0 148.916C0 151.616 2.30509 154.773 6.06431 159.702C7.90189 162.111 10.9775 166.144 11.0693 167.386C11.0693 171.705 16.3229 185.686 21.6063 191.667C21.4551 191.974 21.3036 192.275 21.1549 192.574C18.8145 197.276 16.6039 201.719 16.6039 212.242C16.6039 226.1 23.5653 233.351 30.4404 233.351C34.7076 233.351 36.8316 228.733 37.8532 223.327C41.6449 230.663 47.8389 240.221 56.5165 246.062C57.7678 246.897 59.4946 246.613 60.3756 245.428C61.2567 244.235 60.9594 242.591 59.7107 241.748C45.9497 232.487 38.6775 211.634 38.6046 211.422C38.183 210.191 36.8588 209.428 35.5398 209.637C34.1967 209.84 33.2075 210.946 33.2075 212.242C33.2075 219.488 31.7591 227.208 30.4401 228.073C26.4487 228.073 22.1382 222.02 22.1382 212.242C22.1382 202.906 23.9109 199.345 26.154 194.836C26.573 193.993 27.0052 193.127 27.4351 192.205C27.9296 191.141 27.6377 189.893 26.7136 189.133C22.4492 185.632 16.6039 170.89 16.6039 167.386C16.6039 164.685 14.2988 161.529 10.5396 156.6C8.70199 154.19 5.62638 150.158 5.53454 148.916C5.53454 146.277 5.53454 146.277 8.30194 146.277C10.545 146.277 17.8551 150.144 23.3412 153.731C23.7168 153.976 24.1519 154.131 24.6085 154.177C66.6669 158.527 82.2896 192.694 90.6808 211.051C92.0942 214.144 93.3157 216.816 94.4183 218.769C94.7506 219.359 95.3047 219.805 95.9668 220.019C109.779 224.482 120.078 232.822 124.905 237.301C120.192 238.561 112.665 240.478 107.471 241.303C106.709 241.424 106.033 241.844 105.612 242.46C105.188 243.076 105.053 243.831 105.242 244.544C106.941 251.038 113.465 255.526 119.219 259.484C122.74 261.907 126.064 264.195 127.805 266.539C128.345 267.266 129.199 267.653 130.067 267.653C130.62 267.653 131.177 267.496 131.664 267.168C132.909 266.326 133.207 264.679 132.323 263.489Z" fill="#0E191F"/>
<path d="M24.9056 162.109C24.9056 163.567 26.1434 164.748 27.673 164.748C29.1998 164.748 30.4404 165.93 30.4404 167.386C30.4404 168.845 31.6782 170.025 33.2078 170.025C34.7375 170.025 35.9752 168.845 35.9752 167.386C35.9752 163.021 32.2513 159.47 27.6733 159.47C26.1434 159.47 24.9056 160.65 24.9056 162.109Z" fill="#0E191F"/>
<path d="M132.323 263.489C130.048 260.43 126.362 257.892 122.459 255.204C118.257 252.316 113.941 249.345 111.779 245.892C119.981 244.258 130.358 241.297 130.858 241.156C131.75 240.901 132.45 240.233 132.715 239.383C132.982 238.532 132.782 237.61 132.182 236.93C131.647 236.324 119.084 222.268 98.8045 215.372C97.91 213.664 96.9127 211.474 95.7536 208.941C87.5865 191.074 70.6314 153.995 25.8977 149.006C22.333 146.71 12.9907 141 8.30194 141C2.48358 141 0 143.368 0 148.916C0 151.616 2.30509 154.773 6.06431 159.702C7.90189 162.111 10.9775 166.144 11.0693 167.386C11.0693 171.705 16.3229 185.686 21.6063 191.667C21.4551 191.974 21.3036 192.275 21.1549 192.574C18.8145 197.276 16.6039 201.719 16.6039 212.242C16.6039 226.1 23.5653 233.351 30.4404 233.351C34.7076 233.351 36.8316 228.733 37.8532 223.327C41.6449 230.663 47.8389 240.221 56.5165 246.062C57.7678 246.897 59.4946 246.613 60.3756 245.428C61.2567 244.235 60.9594 242.591 59.7107 241.748C45.9497 232.487 38.6775 211.634 38.6046 211.422C38.183 210.191 36.8588 209.428 35.5398 209.637C34.1967 209.84 33.2075 210.946 33.2075 212.242C33.2075 219.488 31.7591 227.208 30.4401 228.073C26.4487 228.073 22.1382 222.02 22.1382 212.242C22.1382 202.906 23.9109 199.345 26.154 194.836C26.573 193.993 27.0052 193.127 27.4351 192.205C27.9296 191.141 27.6377 189.893 26.7136 189.133C22.4492 185.632 16.6039 170.89 16.6039 167.386C16.6039 164.685 14.2988 161.529 10.5396 156.6C8.70199 154.19 5.62638 150.158 5.53454 148.916C5.53454 146.277 5.53454 146.277 8.30194 146.277C10.545 146.277 17.8551 150.144 23.3412 153.731C23.7168 153.976 24.1519 154.131 24.6085 154.177C66.6669 158.527 82.2896 192.694 90.6808 211.051C92.0942 214.144 93.3157 216.816 94.4183 218.769C94.7506 219.359 95.3047 219.805 95.9668 220.019C109.779 224.482 120.078 232.822 124.905 237.301C120.192 238.561 112.665 240.478 107.471 241.303C106.709 241.424 106.033 241.844 105.612 242.46C105.188 243.076 105.053 243.831 105.242 244.544C106.941 251.038 113.465 255.526 119.219 259.484C122.74 261.907 126.064 264.195 127.805 266.539C128.345 267.266 129.199 267.653 130.067 267.653C130.62 267.653 131.177 267.496 131.664 267.168C132.909 266.326 133.207 264.679 132.323 263.489ZM24.9058 162.109C24.9058 163.567 26.1436 164.747 27.6732 164.747C29.2 164.747 30.4406 165.93 30.4406 167.386C30.4406 168.845 31.6784 170.025 33.208 170.025C34.7377 170.025 35.9754 168.845 35.9754 167.386C35.9754 163.021 32.2515 159.47 27.6735 159.47C26.1436 159.47 24.9058 160.65 24.9058 162.109Z" fill="url(#paint0_linear)"/>
</g>
<g clip-path="url(#clip1)">
<path d="M14.8914 85.8514C23.0663 85.8514 29.6934 79.2244 29.6934 71.0494C29.6934 62.8745 23.0663 56.2474 14.8914 56.2474C6.71644 56.2474 0.0893555 62.8745 0.0893555 71.0494C0.0893555 79.2244 6.71644 85.8514 14.8914 85.8514Z" fill="#0E191F"/>
<path d="M115.546 29.604C123.721 29.604 130.348 22.9769 130.348 14.802C130.348 6.62708 123.721 0 115.546 0C107.371 0 100.744 6.62708 100.744 14.802C100.744 22.9769 107.371 29.604 115.546 29.604Z" fill="#0E191F"/>
<path d="M115.546 142.099C123.721 142.099 130.348 135.472 130.348 127.297C130.348 119.122 123.721 112.495 115.546 112.495C107.371 112.495 100.744 119.122 100.744 127.297C100.744 135.472 107.371 142.099 115.546 142.099Z" fill="#0E191F"/>
<path d="M63.7974 93.5486C60.5475 90.7694 57.9382 87.3191 56.1491 83.4351C54.3601 79.5512 53.4337 75.3257 53.4337 71.0495C53.4337 66.7733 54.3601 62.5479 56.1491 58.6639C57.9382 54.78 60.5475 51.3297 63.7974 48.5505C64.3246 48.1028 64.6784 47.4846 64.7974 46.8032C64.9163 46.1218 64.793 45.4203 64.4487 44.8204L52.6071 24.1568C52.3996 23.7959 52.1183 23.4828 51.7817 23.2379C51.445 22.9931 51.0605 22.822 50.6532 22.7358C50.2432 22.6522 49.8201 22.6565 49.4119 22.7483C49.0037 22.8402 48.6196 23.0175 48.2849 23.2687C38.4313 30.3925 31.01 40.3772 27.0292 51.8661C26.8278 52.4348 26.805 53.0514 26.9637 53.6333C27.1224 54.2153 27.4551 54.7349 27.9173 55.1226C30.3009 57.0367 32.2245 59.4614 33.5462 62.2179C34.8679 64.9745 35.5541 67.9925 35.5541 71.0495C35.5541 74.1065 34.8679 77.1246 33.5462 79.8811C32.2245 82.6376 30.3009 85.0624 27.9173 86.9765C27.4551 87.3641 27.1224 87.8837 26.9637 88.4657C26.805 89.0477 26.8278 89.6643 27.0292 90.2329C30.9675 101.728 38.3471 111.733 48.1665 118.89C48.6626 119.262 49.2632 119.469 49.8835 119.482H50.4756C50.8828 119.396 51.2674 119.224 51.6041 118.98C51.9407 118.735 52.222 118.422 52.4294 118.061L64.271 97.3971C64.6682 96.8059 64.839 96.0914 64.752 95.3845C64.665 94.6776 64.3261 94.0258 63.7974 93.5486ZM69.5405 41.86C69.8876 42.4576 70.4327 42.915 71.0815 43.1529C71.7303 43.3908 72.4419 43.3942 73.093 43.1626C77.1546 41.6462 81.4996 41.0404 85.8211 41.3881C90.1425 41.7357 94.3348 43.0282 98.1018 45.1743C101.869 47.3204 105.118 50.2677 107.621 53.8078C110.124 57.3479 111.818 61.3945 112.585 65.6616C112.709 66.3412 113.067 66.9559 113.597 67.3992C114.127 67.8425 114.795 68.0866 115.486 68.0891H139.169C139.584 68.0912 139.995 68.006 140.375 67.8391C140.755 67.6722 141.095 67.4272 141.375 67.1201C141.654 66.8131 141.865 66.4508 141.995 66.0567C142.125 65.6626 142.171 65.2456 142.13 64.8327C140.908 53.3842 136.336 42.5507 128.985 33.6893C128.549 33.1666 127.945 32.8106 127.276 32.6812C126.608 32.5517 125.915 32.6569 125.314 32.9788C122.322 34.6315 118.963 35.5068 115.545 35.5247C110.151 35.5575 104.959 33.4738 101.085 29.7209C97.2102 25.9681 94.9618 20.8455 94.8224 15.4532C94.8036 14.7641 94.545 14.1031 94.091 13.5842C93.637 13.0654 93.0162 12.7213 92.3356 12.6112C81.0027 10.7111 69.3609 12.2153 58.8831 16.9334C58.5013 17.1016 58.1593 17.3487 57.8797 17.6583C57.6 17.968 57.389 18.3333 57.2604 18.7302C57.1318 19.1271 57.0886 19.5468 57.1335 19.9616C57.1785 20.3764 57.3107 20.777 57.5213 21.1372L69.5405 41.86ZM139.228 74.0099H115.545C114.854 74.0125 114.186 74.2565 113.656 74.6999C113.126 75.1432 112.768 75.7579 112.644 76.4375C111.872 80.683 110.181 84.7084 107.69 88.2318C105.199 91.7551 101.967 94.6913 98.222 96.8347C94.4768 98.978 90.3083 100.277 86.0085 100.64C81.7087 101.003 77.3814 100.421 73.3299 98.9365C72.6788 98.7048 71.9672 98.7083 71.3184 98.9462C70.6695 99.1841 70.1244 99.6415 69.7774 100.239L57.9358 120.962C57.7251 121.322 57.593 121.723 57.548 122.137C57.503 122.552 57.5463 122.972 57.6748 123.369C57.8034 123.766 58.0145 124.131 58.2941 124.441C58.5738 124.75 58.9157 124.997 59.2976 125.166C69.7754 129.884 81.4172 131.388 92.7501 129.488C93.4306 129.378 94.0515 129.034 94.5054 128.515C94.9594 127.996 95.2181 127.335 95.2368 126.646C95.2622 123.091 96.2122 119.604 97.9933 116.528C99.7745 113.451 102.326 110.891 105.396 109.099C108.466 107.307 111.949 106.345 115.504 106.307C119.059 106.27 122.562 107.157 125.67 108.883C126.27 109.205 126.963 109.31 127.632 109.181C128.3 109.052 128.904 108.696 129.341 108.173C136.542 99.342 141.008 88.6 142.189 77.2664C142.23 76.8535 142.184 76.4364 142.054 76.0424C141.924 75.6483 141.713 75.286 141.434 74.9789C141.155 74.6718 140.814 74.4269 140.434 74.26C140.054 74.093 139.643 74.0078 139.228 74.0099V74.0099Z" fill="#0E191F"/>
</g>
<path d="M233.594 176.845C194.518 176.845 163.903 193.425 163.903 214.594C163.903 235.762 194.518 252.343 233.594 252.343C272.67 252.343 303.284 235.762 303.284 214.594C303.284 193.425 272.67 176.845 233.594 176.845ZM226.358 188.46H233.966L231.552 200.075H238.347C242.656 200.075 245.549 200.676 247.195 202.186C248.804 203.67 249.292 206.109 248.647 209.434L245.627 223.305H237.891L240.67 210.476C241.013 208.72 240.874 207.494 240.287 206.847C239.698 206.199 238.402 205.883 236.463 205.883H230.374L226.697 223.305H219.075L226.358 188.46ZM192.941 200.075H208.424C215.808 200.075 220.277 205.02 218.529 212.404C216.499 220.982 211.058 223.305 201.051 223.305H196.266L194.744 232.017H187.055L192.941 200.075ZM253.92 200.075H269.403C276.787 200.075 281.256 205.02 279.508 212.404C277.481 220.982 272.037 223.305 262.033 223.305H257.248L255.726 232.017H248.037L253.92 200.075ZM199.533 205.883L197.343 217.498H202.309C206.609 217.498 210.602 217.01 211.27 210.601C211.519 208.119 210.489 205.883 205.52 205.883H199.533ZM260.512 205.883L258.322 217.498H263.288C267.588 217.498 271.581 217.01 272.252 210.601C272.498 208.119 271.468 205.883 266.499 205.883H260.512Z" fill="#0E191F"/>
<g clip-path="url(#clip2)">
<path d="M269.095 13.2712C269.095 13.2712 265.044 6.97909 260.287 9.66984C257.976 10.98 254.132 14.6695 249.547 20.0275L249.554 20.0333C249.235 20.4035 248.922 20.7795 248.603 21.1555C247.39 22.6007 246.127 24.1576 244.84 25.8143C243.381 27.6708 241.879 29.6625 240.359 31.754C238.955 33.6751 237.527 35.702 236.105 37.7876C234.891 39.5618 233.671 41.4007 232.457 43.2748C232.415 43.3395 232.372 43.41 232.323 43.4863V43.4805C232.237 43.6215 232.145 43.7625 232.053 43.8976C230.772 45.8951 229.509 47.9396 228.259 50.0193C226.996 52.1285 225.758 54.2728 224.55 56.4466C223.526 58.2796 222.527 60.1302 221.565 61.9985C221.375 62.3803 221.185 62.7563 220.995 63.1265C219.799 65.4823 218.727 67.7501 217.746 69.9415C216.636 72.4207 215.668 74.7766 214.816 77.0267C214.258 78.5013 213.743 79.9231 213.277 81.2978C212.891 82.467 212.529 83.6361 212.186 84.8052C211.365 87.5488 210.66 90.2866 210.078 93.0126L215.582 103.411C216.312 101.549 217.053 99.6572 217.826 97.7478C218.022 97.2191 218.236 96.6844 218.451 96.1498C219.407 93.7822 220.394 91.3852 221.412 88.9647C222.386 86.6558 223.379 84.3176 224.397 81.9793C225.414 79.6352 226.463 77.2911 227.517 74.947C228.602 72.5617 229.699 70.1765 230.827 67.7971C231.936 65.453 233.07 63.1147 234.223 60.8058C234.634 59.9775 235.057 59.1432 235.479 58.3148C236.203 56.8813 236.938 55.4713 237.68 54.0613C237.723 53.9908 237.754 53.9145 237.797 53.844V53.8498C238.955 51.6291 240.144 49.4377 241.346 47.2933C242.627 45.008 243.926 42.7696 245.232 40.59C246.593 38.3281 247.966 36.1308 249.357 34.0158C249.443 33.8925 249.523 33.7632 249.609 33.6398C250.988 31.5601 252.367 29.5567 253.771 27.6415L253.765 27.6356C256.327 24.1341 258.92 21.0086 261.537 18.2003C260.066 19.9041 257.602 22.9532 254.304 27.8001C256.033 27.7178 258.178 27.5122 260.422 27.2655C258.178 27.5122 256.039 27.7178 254.31 27.8001C253.072 29.6213 251.723 31.6835 250.258 34.0217C250.185 34.1451 250.105 34.2685 250.026 34.3918C248.769 36.4128 247.439 38.6395 246.035 41.0717C244.821 43.1691 243.559 45.4251 242.253 47.8515C241.107 49.9665 239.93 52.2048 238.722 54.5725L252.643 53.1155C256.701 51.3295 258.515 49.7197 260.268 47.3815C260.734 46.7411 261.206 46.0655 261.672 45.3663C263.1 43.2278 264.498 40.872 265.755 38.5396C266.968 36.2836 268.035 34.0393 268.85 32.0242C269.377 30.7435 269.788 29.545 270.082 28.5051C270.334 27.5827 270.536 26.7015 270.695 25.8613C270.689 25.8613 270.683 25.8613 270.677 25.8613C272.283 17.2192 269.095 13.2712 269.095 13.2712ZM221.228 104.128L216.79 104.598C216.655 104.939 216.514 105.291 216.379 105.656C215.656 107.565 214.926 109.504 214.197 111.489C214.191 111.525 214.178 111.548 214.16 111.578C214.056 111.86 213.952 112.136 213.854 112.418C213.363 113.757 212.934 114.962 211.953 117.699C213.572 118.404 214.871 120.255 216.091 122.364C215.962 120.184 215.018 118.134 213.228 116.548C221.191 116.894 228.05 114.967 231.593 109.398C231.912 108.904 232.206 108.376 232.464 107.823C230.845 109.78 228.853 110.602 225.096 110.408C230.631 108.041 233.408 105.761 235.872 101.99C236.454 101.091 237.018 100.121 237.6 99.0344C232.752 103.799 227.137 105.156 221.228 104.128ZM212.554 111.272C212.615 111.125 212.664 110.978 212.726 110.826C213.461 108.875 214.227 106.872 215.018 104.833C215.196 104.375 215.38 103.905 215.558 103.435C215.558 103.429 215.564 103.417 215.564 103.411L210.065 93.0126C210.029 93.136 210.004 93.2593 209.979 93.3827C209.293 96.7138 208.79 100.033 208.551 103.323C208.545 103.441 208.533 103.552 208.527 103.67C206.804 101.038 202.207 98.4646 202.213 98.4881C205.505 103.053 208.006 107.594 208.38 112.048C206.62 112.394 204.199 111.889 201.404 110.914C204.316 113.475 206.504 114.18 207.356 114.368C204.683 114.515 201.9 116.278 199.093 118.299C203.194 116.695 206.516 116.06 208.888 116.577C205.125 126.782 201.349 138.044 197.573 150C198.731 149.671 199.424 148.931 199.81 147.92C200.478 145.758 204.953 131.547 211.953 112.882C212.149 112.341 212.346 111.818 212.554 111.272Z" fill="#0E191F"/>
<path d="M253.236 53.0506C253.199 53.0565 253.175 53.0565 253.144 53.0682C252.936 53.1035 252.734 53.1328 252.525 53.1681C252.562 53.1505 252.593 53.1328 252.629 53.1211L238.709 54.5781C238.69 54.6251 238.666 54.678 238.641 54.725C238.488 55.0305 238.322 55.3418 238.169 55.6532C237.697 56.5932 237.213 57.545 236.722 58.5261C236.195 59.5777 235.668 60.6646 235.135 61.7691C234.865 62.3272 234.595 62.8853 234.32 63.4552C233.504 65.159 232.671 66.9215 231.825 68.7369C230.783 70.9752 229.734 73.2959 228.662 75.7046C227.638 78.0017 226.608 80.3752 225.56 82.8486C224.561 85.1869 223.556 87.5956 222.532 90.0807C221.619 92.3015 220.699 94.5751 219.78 96.9192C219.737 97.0367 219.694 97.1484 219.645 97.2541C218.725 99.5806 217.794 101.966 216.856 104.41C216.837 104.469 216.813 104.527 216.794 104.574L221.232 104.104C221.147 104.087 221.061 104.081 220.963 104.063C226.259 103.429 233.308 99.6452 237.856 94.9629C239.953 92.8067 241.853 90.2629 243.618 87.2842C244.924 85.0694 246.162 82.6136 247.333 79.8935C248.357 77.5141 249.338 74.9467 250.294 72.162C249.074 72.7789 247.683 73.2254 246.138 73.5367C245.88 73.5896 245.617 73.6366 245.347 73.6836C245.316 73.6895 245.286 73.6954 245.255 73.7012C244.998 73.7482 244.734 73.7835 244.458 73.8246C244.458 73.8246 244.464 73.8246 244.464 73.8187C249.411 72.0034 252.519 68.4901 254.793 64.1837C253.494 65.0297 251.379 66.1401 248.841 66.6747C248.498 66.7511 248.142 66.804 247.781 66.8568C247.701 66.8627 247.621 66.8804 247.542 66.8921C249.252 66.2106 250.698 65.4351 251.949 64.5362C252.225 64.3365 252.488 64.1426 252.74 63.937C253.126 63.6256 253.487 63.2849 253.831 62.9324C254.051 62.7091 254.266 62.48 254.474 62.2391C254.965 61.681 255.431 61.07 255.86 60.4237C255.988 60.224 256.117 60.0183 256.246 59.8068C256.411 59.5013 256.565 59.2076 256.718 58.9197C257.404 57.5978 257.962 56.4111 258.404 55.3653C258.624 54.8483 258.814 54.3607 258.98 53.9201C259.047 53.738 259.109 53.5676 259.17 53.4031C259.341 52.9037 259.489 52.4572 259.599 52.0695C259.771 51.4878 259.862 51.0237 259.924 50.6888C259.758 50.8122 259.562 50.9415 259.348 51.0648C257.864 51.9167 255.302 52.6863 253.236 53.0506Z" fill="#0E191F"/>
</g>
<defs>
<linearGradient id="paint0_linear" x1="-12.4664" y1="171.657" x2="141.869" y2="247.122" gradientUnits="userSpaceOnUse">
<stop stop-color="white" stop-opacity="0.2"/>
<stop offset="1" stop-color="white" stop-opacity="0"/>
</linearGradient>
<clipPath id="clip0">
<rect width="132.832" height="126.654" fill="white" transform="translate(0 141)"/>
</clipPath>
<clipPath id="clip1">
<rect width="142.099" height="142.099" fill="white" transform="translate(0.0893555)"/>
</clipPath>
<clipPath id="clip2">
<rect width="100" height="141" fill="white" transform="translate(183 9)"/>
</clipPath>
</defs>
</svg>
