<svg width="881" height="1087" viewBox="0 0 881 1087" fill="none" xmlns="http://www.w3.org/2000/svg">
<path fill-rule="evenodd" clip-rule="evenodd" d="M87.9904 1057H1198.99C1343.33 925.45 1309.81 753.611 1098.41 640.776C847.179 506.673 439.797 506.673 188.562 640.776C-22.8304 753.611 -56.3543 925.45 87.9904 1057Z" fill="#F0F0F0"/>
<path d="M635.549 945.663L819.172 1051.23C820.358 1051.82 821.666 1052.13 822.994 1052.13C824.321 1052.13 825.63 1051.82 826.816 1051.23L1151.83 863.59C1152.3 863.436 1152.7 863.14 1152.99 862.742C1153.27 862.345 1153.43 861.867 1153.43 861.377C1153.43 860.887 1153.27 860.409 1152.99 860.012C1152.7 859.614 1152.3 859.318 1151.83 859.164L968.207 753.6C967.026 752.989 965.715 752.67 964.385 752.67C963.055 752.67 961.745 752.989 960.563 753.6L635.549 941.236C635.084 941.39 634.679 941.687 634.392 942.084C634.105 942.482 633.95 942.959 633.95 943.45C633.95 943.94 634.105 944.418 634.392 944.815C634.679 945.212 635.084 945.509 635.549 945.663Z" fill="#E0E0E0"/>
<path d="M768.441 628.41L797.953 611.352C799.934 610.349 802.122 609.826 804.343 609.826C806.563 609.826 808.752 610.349 810.732 611.352L996.155 718.392" stroke="#FFAF2D" stroke-miterlimit="10"/>
<path d="M756.46 621.505L798.012 597.511C799.993 596.508 802.182 595.985 804.402 595.985C806.622 595.985 808.811 596.508 810.791 597.511L1008.28 711.368" stroke="#FFAF2D" stroke-miterlimit="10"/>
<path d="M1020.09 704.551L810.702 583.552C808.722 582.549 806.533 582.026 804.313 582.026C802.093 582.026 799.904 582.549 797.924 583.552L744.448 614.569" stroke="#FFAF2D" stroke-miterlimit="10"/>
<path d="M1032.16 697.645L810.821 569.829C808.84 568.826 806.651 568.303 804.431 568.303C802.211 568.303 800.022 568.826 798.042 569.829L732.467 607.664" stroke="#FFAF2D" stroke-miterlimit="10"/>
<path d="M582.192 2.34475L391.161 112.631C389.303 113.844 387.758 115.478 386.65 117.401C385.542 119.324 384.904 121.482 384.787 123.698V648.773C384.909 650.988 385.549 653.144 386.656 655.066C387.763 656.988 389.307 658.624 391.161 659.84L582.192 770.126C584.172 771.13 586.361 771.653 588.581 771.653C590.801 771.653 592.99 771.13 594.971 770.126L785.972 659.84C787.835 658.63 789.387 656.997 790.499 655.074C791.612 653.151 792.255 650.992 792.376 648.773V123.698C792.26 121.478 791.619 119.317 790.506 117.393C789.392 115.469 787.839 113.837 785.972 112.631L595.118 2.34475C593.119 1.31692 590.903 0.780762 588.655 0.780762C586.407 0.780762 584.191 1.31692 582.192 2.34475Z" fill="#37474F"/>
<path d="M792.375 123.668V648.773C792.254 650.988 791.613 653.144 790.506 655.066C789.399 656.988 787.856 658.624 786.001 659.84L595.118 770.126C593.162 771.182 590.965 771.711 588.743 771.661V231.8C590.958 231.85 593.15 231.342 595.118 230.324L786.149 120.038L787.89 118.592L790.162 116.703C791.538 118.772 792.305 121.185 792.375 123.668Z" fill="#263238"/>
<path d="M415.095 175.373L558.169 258.006C560.022 259.225 561.564 260.861 562.671 262.782C563.778 264.704 564.42 266.859 564.544 269.073V323.552C564.544 327.625 561.593 329.278 558.14 327.241L415.095 244.608C413.232 243.398 411.68 241.765 410.568 239.842C409.455 237.919 408.812 235.76 408.691 233.541V179.062C408.75 174.989 411.613 173.337 415.095 175.373Z" fill="#455A64"/>
<path d="M420.732 199.366C420.893 201.511 421.556 203.588 422.669 205.428C423.781 207.269 425.312 208.822 427.136 209.961L546.217 278.723C549.758 280.76 552.621 279.314 552.621 275.507C552.465 273.357 551.804 271.274 550.691 269.428C549.578 267.582 548.045 266.024 546.217 264.882L427.136 196.12C423.595 194.083 420.732 195.529 420.732 199.366Z" fill="#FFAF2D"/>
<path d="M420.732 227.049C420.893 229.193 421.556 231.27 422.669 233.111C423.781 234.952 425.312 236.504 427.136 237.643L546.217 306.406C549.758 308.442 552.621 306.996 552.621 303.189C552.465 301.039 551.804 298.956 550.691 297.11C549.578 295.264 548.045 293.707 546.217 292.565L427.136 223.802C423.595 221.766 420.732 223.212 420.732 227.049Z" fill="#263238"/>
<path d="M427.136 223.802L492.682 261.666V275.507L427.136 237.643C425.312 236.504 423.781 234.952 422.669 233.111C421.556 231.27 420.893 229.193 420.732 227.049C420.732 223.212 423.595 221.766 427.136 223.802Z" fill="#FFAF2D"/>
<path d="M415.095 272.26L558.169 354.894C560.024 356.111 561.567 357.746 562.674 359.668C563.782 361.59 564.422 363.746 564.544 365.961V420.381C564.544 424.453 561.593 426.106 558.14 424.07L415.095 341.436C413.232 340.226 411.68 338.593 410.568 336.67C409.455 334.747 408.812 332.588 408.691 330.369V275.949C408.75 271.877 411.613 270.224 415.095 272.26Z" fill="#455A64"/>
<path d="M420.732 296.254C420.888 298.404 421.55 300.486 422.662 302.333C423.775 304.179 425.308 305.736 427.136 306.878L546.217 375.611C549.758 377.647 552.621 376.201 552.621 372.394C552.465 370.244 551.804 368.162 550.691 366.315C549.578 364.469 548.045 362.912 546.217 361.77L427.136 293.037C423.595 291 420.732 292.447 420.732 296.254Z" fill="#FFAF2D"/>
<path d="M420.732 323.936C420.888 326.086 421.55 328.169 422.662 330.015C423.775 331.861 425.308 333.418 427.136 334.56L546.217 403.293C549.758 405.359 552.621 403.884 552.621 400.077C552.465 397.927 551.804 395.844 550.691 393.998C549.578 392.152 548.045 390.594 546.217 389.452L427.136 320.719C423.595 318.683 420.732 320.129 420.732 323.936Z" fill="#263238"/>
<path d="M427.136 320.719L528.628 379.3V393.141L427.136 334.56C425.308 333.418 423.775 331.861 422.662 330.015C421.55 328.169 420.888 326.086 420.732 323.936C420.732 320.129 423.595 318.683 427.136 320.719Z" fill="#FFAF2D"/>
<path d="M415.095 369.03L558.169 451.663C560.024 452.88 561.567 454.516 562.674 456.438C563.782 458.36 564.422 460.515 564.544 462.73V517.18C564.544 521.253 561.593 522.905 558.14 520.869L415.095 438.383C413.232 437.173 411.68 435.54 410.568 433.617C409.455 431.694 408.812 429.535 408.691 427.316V372.837C408.75 368.765 411.613 367.112 415.095 369.03Z" fill="#455A64"/>
<path d="M420.732 393.141C420.888 395.291 421.55 397.374 422.662 399.22C423.775 401.066 425.308 402.623 427.136 403.765L546.217 472.528C549.758 474.564 552.621 473.118 552.621 469.282C552.461 467.137 551.797 465.06 550.685 463.219C549.572 461.379 548.041 459.826 546.217 458.687L427.136 389.924C423.595 387.888 420.732 389.334 420.732 393.141Z" fill="#FFAF2D"/>
<path d="M420.732 420.853C420.893 422.998 421.556 425.075 422.669 426.915C423.781 428.756 425.312 430.309 427.136 431.448L546.217 500.211C549.758 502.247 552.621 500.801 552.621 496.964C552.461 494.819 551.797 492.742 550.685 490.902C549.572 489.061 548.041 487.508 546.217 486.369L427.136 417.607C423.595 415.57 420.732 417.016 420.732 420.853Z" fill="#263238"/>
<path d="M427.136 417.607L468.689 441.6V455.441L427.136 431.448C425.312 430.309 423.781 428.756 422.669 426.915C421.556 425.075 420.893 422.998 420.732 420.853C420.732 417.016 423.595 415.57 427.136 417.607Z" fill="#FFAF2D"/>
<path d="M415.095 466.065L558.169 548.698C560.024 549.915 561.567 551.55 562.674 553.473C563.782 555.395 564.422 557.55 564.544 559.765V614.244C564.544 618.317 561.593 619.969 558.14 617.933L415.095 535.3C413.232 534.09 411.68 532.457 410.568 530.534C409.455 528.61 408.812 526.452 408.691 524.233V469.754C408.75 465.681 411.613 464.029 415.095 466.065Z" fill="#455A64"/>
<path d="M420.732 490.029C420.893 492.174 421.556 494.251 422.669 496.091C423.781 497.932 425.312 499.485 427.136 500.624L546.217 569.386C549.758 571.423 552.621 569.977 552.621 566.14C552.461 563.995 551.797 561.918 550.685 560.078C549.572 558.237 548.041 556.684 546.217 555.545L427.136 486.782C423.595 484.776 420.732 486.222 420.732 490.029Z" fill="#FFAF2D"/>
<path d="M420.732 517.741C420.893 519.885 421.556 521.962 422.669 523.803C423.781 525.644 425.312 527.196 427.136 528.335L546.217 597.098C549.758 599.134 552.621 597.688 552.621 593.881C552.465 591.731 551.804 589.648 550.691 587.802C549.578 585.956 548.045 584.399 546.217 583.257L427.136 514.494C423.595 512.458 420.732 513.904 420.732 517.741Z" fill="#263238"/>
<path d="M427.136 514.494L492.682 552.328V566.169L427.136 528.394C425.312 527.255 423.781 525.702 422.669 523.861C421.556 522.021 420.893 519.944 420.732 517.799C420.732 513.903 423.595 512.457 427.136 514.494Z" fill="#FFAF2D"/>
<path d="M415.095 562.952L558.169 645.586C560.024 646.802 561.567 648.438 562.674 650.36C563.782 652.282 564.422 654.438 564.544 656.653V711.073C564.544 715.145 561.593 716.798 558.14 714.762L415.095 632.128C413.232 630.918 411.68 629.285 410.568 627.362C409.455 625.439 408.812 623.28 408.691 621.061V566.759C408.75 562.569 411.613 560.857 415.095 562.952Z" fill="#455A64"/>
<path d="M420.732 586.946C420.888 589.096 421.55 591.179 422.662 593.025C423.775 594.871 425.308 596.429 427.136 597.57L546.217 666.304C549.758 668.34 552.621 666.894 552.621 663.087C552.465 660.937 551.804 658.854 550.691 657.008C549.578 655.162 548.045 653.604 546.217 652.463L427.136 583.729C423.595 581.663 420.732 583.139 420.732 586.946Z" fill="#FFAF2D"/>
<path d="M420.732 614.628C420.888 616.778 421.55 618.861 422.662 620.707C423.775 622.553 425.308 624.11 427.136 625.252L546.217 693.985C549.758 696.022 552.621 694.576 552.621 690.768C552.465 688.619 551.804 686.536 550.691 684.69C549.578 682.843 548.045 681.286 546.217 680.144L427.136 611.411C423.595 609.375 420.732 610.821 420.732 614.628Z" fill="#263238"/>
<path d="M427.136 611.411L516.646 663.086V676.927L427.136 625.252C425.308 624.11 423.775 622.553 422.662 620.707C421.55 618.861 420.888 616.778 420.732 614.628C420.732 610.821 423.595 609.375 427.136 611.411Z" fill="#FFAF2D"/>
<path d="M618.551 265.148C625.161 261.312 630.533 264.794 630.533 272.939V589.513C630.374 593.819 629.207 598.027 627.126 601.799C625.045 605.572 622.108 608.803 618.551 611.234C611.94 615.071 606.569 611.559 606.569 603.413V286.839C606.727 282.538 607.894 278.334 609.976 274.566C612.057 270.798 614.994 267.572 618.551 265.148Z" fill="#37474F"/>
<path d="M618.551 604.21C620.315 602.994 621.768 601.38 622.793 599.499C623.819 597.617 624.387 595.521 624.453 593.379V275.92C624.453 271.847 621.767 270.018 618.551 271.995C616.786 273.217 615.332 274.837 614.307 276.723C613.282 278.609 612.714 280.71 612.648 282.855V600.315C612.56 604.387 615.245 606.129 618.551 604.21Z" fill="#263238"/>
<path d="M618.551 604.211C620.315 602.994 621.768 601.381 622.794 599.499C623.819 597.618 624.387 595.521 624.453 593.38V441.6L612.471 448.535V600.315C612.56 604.388 615.245 606.129 618.551 604.211Z" fill="#FFAF2D"/>
<path d="M654.496 244.372C661.136 240.535 666.507 244.047 666.507 252.192V568.767C666.349 573.068 665.182 577.272 663.101 581.04C661.019 584.807 658.082 588.033 654.526 590.458C647.885 594.294 642.514 590.812 642.514 582.667V266.093C642.673 261.787 643.839 257.579 645.92 253.806C648.001 250.034 650.939 246.802 654.496 244.372Z" fill="#37474F"/>
<path d="M654.526 583.463C656.287 582.244 657.737 580.629 658.762 578.749C659.787 576.868 660.358 574.773 660.428 572.633V255.173C660.428 251.071 657.743 249.271 654.526 251.248C652.765 252.468 651.314 254.082 650.289 255.963C649.264 257.844 648.694 259.938 648.623 262.079V579.538C648.505 583.611 651.191 585.382 654.526 583.463Z" fill="#FFAF2D"/>
<path d="M690.471 223.625C697.082 219.789 702.453 223.271 702.453 231.416V547.99C702.301 552.297 701.138 556.508 699.056 560.282C696.974 564.055 694.033 567.285 690.471 569.711C683.861 573.548 678.489 570.036 678.489 561.89V245.316C678.648 241.015 679.815 236.811 681.896 233.043C683.977 229.275 686.915 226.049 690.471 223.625Z" fill="#37474F"/>
<path d="M690.471 562.687C692.235 561.471 693.689 559.857 694.714 557.976C695.739 556.094 696.308 553.998 696.373 551.856V234.397C696.373 230.324 693.688 228.494 690.471 230.472C688.71 231.691 687.259 233.306 686.234 235.187C685.209 237.067 684.639 239.162 684.569 241.303V558.792C684.48 562.864 687.166 564.605 690.471 562.687Z" fill="#263238"/>
<path d="M690.471 562.688C692.235 561.471 693.689 559.857 694.714 557.976C695.739 556.095 696.308 553.998 696.374 551.857V306.642L684.392 313.548V558.792C684.48 562.865 687.166 564.606 690.471 562.688Z" fill="#FFAF2D"/>
<path d="M726.446 202.849C733.057 199.012 738.428 202.495 738.428 210.669V527.244C738.288 531.565 737.13 535.793 735.048 539.582C732.966 543.372 730.019 546.617 726.446 549.053C719.806 552.889 714.464 549.407 714.464 541.262V224.57C714.614 220.262 715.777 216.051 717.858 212.277C719.94 208.503 722.882 205.273 726.446 202.849Z" fill="#37474F"/>
<path d="M726.446 541.94C728.207 540.721 729.658 539.106 730.683 537.225C731.708 535.344 732.278 533.25 732.349 531.109V213.62C732.349 209.548 729.663 207.718 726.446 209.725C724.682 210.941 723.229 212.555 722.203 214.436C721.178 216.318 720.609 218.414 720.544 220.556V538.015C720.455 542.088 723.141 543.858 726.446 541.94Z" fill="#263238"/>
<path d="M726.446 541.94C728.207 540.721 729.658 539.106 730.683 537.225C731.708 535.345 732.278 533.25 732.349 531.109V477.516L720.367 484.422V538.015C720.455 542.088 723.141 543.859 726.446 541.94Z" fill="#FFAF2D"/>
<path d="M762.391 182.102C769.032 178.265 774.403 181.748 774.403 189.893V506.467C774.246 510.776 773.076 514.987 770.99 518.761C768.903 522.534 765.958 525.764 762.391 528.188C755.781 532.024 750.41 528.512 750.41 520.367V203.763C750.573 199.467 751.742 195.269 753.823 191.507C755.904 187.744 758.839 184.523 762.391 182.102Z" fill="#37474F"/>
<path d="M762.391 521.164C764.156 519.948 765.609 518.334 766.634 516.453C767.66 514.571 768.228 512.475 768.294 510.333V192.874C768.294 188.801 765.638 186.971 762.391 188.949C760.631 190.168 759.18 191.783 758.155 193.664C757.13 195.544 756.559 197.639 756.489 199.78V517.269C756.401 521.341 759.086 523.082 762.391 521.164Z" fill="#263238"/>
<path d="M762.391 521.164C764.156 519.947 765.609 518.333 766.634 516.452C767.66 514.571 768.228 512.474 768.294 510.333V344.712L756.312 351.618V517.268C756.401 521.341 759.086 523.082 762.391 521.164Z" fill="#FFAF2D"/>
<path d="M611.674 649.747L769.238 558.762C772.19 557.109 774.373 558.437 774.373 561.713V619.114C774.274 620.89 773.758 622.617 772.865 624.155C771.973 625.694 770.73 627 769.238 627.967L611.645 718.953C608.694 720.576 606.539 719.277 606.539 716.001V658.601C606.636 656.825 607.152 655.096 608.044 653.558C608.937 652.019 610.181 650.713 611.674 649.747Z" fill="#37474F"/>
<path d="M618.137 666.775C618.137 670.582 621.089 672.029 624.542 669.992L756.401 593.851C758.229 592.71 759.762 591.152 760.875 589.306C761.988 587.46 762.649 585.377 762.805 583.227C762.805 579.42 759.854 577.974 756.401 580.01L624.63 656.151C622.785 657.283 621.235 658.836 620.106 660.683C618.978 662.529 618.303 664.617 618.137 666.775Z" fill="#263238"/>
<path d="M618.137 666.775C618.137 670.582 621.089 672.029 624.542 669.992L720.455 614.598V600.757L624.63 656.151C622.785 657.283 621.235 658.836 620.106 660.683C618.978 662.529 618.303 664.617 618.137 666.775Z" fill="#FFAF2D"/>
<path d="M618.137 694.457C618.137 698.264 621.089 699.71 624.542 697.674L756.401 621.533C758.229 620.392 759.762 618.834 760.875 616.988C761.988 615.142 762.649 613.059 762.805 610.909C762.805 607.102 759.854 605.656 756.401 607.692L624.63 683.833C622.785 684.965 621.235 686.518 620.106 688.365C618.978 690.211 618.303 692.299 618.137 694.457Z" fill="#263238"/>
<path d="M618.137 694.457C618.137 698.264 621.089 699.71 624.542 697.674L660.517 677.016V663.175L624.542 683.833C622.713 684.975 621.18 686.532 620.067 688.378C618.955 690.225 618.293 692.307 618.137 694.457Z" fill="#FFAF2D"/>
<path d="M785.972 112.631L595.118 2.34469C593.138 1.34125 590.949 0.818359 588.729 0.818359C586.509 0.818359 584.32 1.34125 582.34 2.34469L391.162 112.631C390.391 112.892 389.721 113.389 389.247 114.05C388.773 114.712 388.518 115.506 388.518 116.32C388.518 117.134 388.773 117.927 389.247 118.589C389.721 119.251 390.391 119.747 391.162 120.009L582.192 230.324C584.172 231.328 586.361 231.85 588.581 231.85C590.801 231.85 592.99 231.328 594.971 230.324L785.972 120.068C786.764 119.82 787.457 119.326 787.949 118.657C788.441 117.988 788.706 117.179 788.706 116.349C788.706 115.519 788.441 114.71 787.949 114.041C787.457 113.372 786.764 112.878 785.972 112.631Z" fill="#455A64"/>
<path d="M584.73 204.059L436.58 118.474C435.467 117.744 434.54 116.763 433.874 115.61C433.207 114.457 432.82 113.164 432.744 111.834V106.817C432.82 105.488 433.207 104.195 433.874 103.042C434.54 101.888 435.467 100.907 436.58 100.177L584.73 14.5925C585.917 13.9816 587.232 13.6628 588.567 13.6628C589.901 13.6628 591.217 13.9816 592.403 14.5925L740.582 100.177C741.701 100.902 742.631 101.882 743.298 103.036C743.965 104.19 744.349 105.486 744.419 106.817V111.805C744.342 113.134 743.955 114.427 743.289 115.58C742.623 116.733 741.696 117.714 740.582 118.445L592.403 204.029C591.219 204.645 589.905 204.969 588.57 204.974C587.236 204.979 585.919 204.665 584.73 204.059Z" fill="#263238"/>
<path d="M436.58 104.663L584.73 190.247C585.917 190.858 587.232 191.177 588.567 191.177C589.901 191.177 591.217 190.858 592.403 190.247L740.582 104.663C742.707 103.423 742.707 101.446 740.582 100.236L592.403 17.6025C591.217 16.9916 589.901 16.6729 588.567 16.6729C587.232 16.6729 585.917 16.9916 584.73 17.6025L436.58 100.236C434.455 101.475 434.455 103.423 436.58 104.663Z" fill="#455A64"/>
<path d="M588.596 191.132V204.974C587.26 205.004 585.938 204.689 584.76 204.059L436.58 118.474C435.462 117.749 434.531 116.769 433.864 115.615C433.198 114.461 432.814 113.165 432.744 111.834V106.876C432.795 105.701 433.089 104.548 433.607 103.492C434.125 102.436 434.856 101.498 435.754 100.738C434.367 101.948 434.603 103.689 436.462 104.663L584.642 190.247C585.858 190.887 587.223 191.193 588.596 191.132Z" fill="#37474F"/>
<path d="M584.73 162.447L484.39 104.574C483.275 103.845 482.346 102.865 481.68 101.711C481.014 100.558 480.627 99.264 480.553 97.9339V93.035C480.634 91.7066 481.023 90.4152 481.689 89.2629C482.355 88.1105 483.279 87.1287 484.39 86.3948L548.785 49.2984C551.256 47.769 553.443 45.8217 555.248 43.5435L585.94 2.22688C586.682 1.27168 587.741 0.613003 588.926 0.369517C590.111 0.12603 591.344 0.313744 592.403 0.89884L692.744 58.7422C693.86 59.4692 694.79 60.4494 695.456 61.6032C696.123 62.757 696.508 64.0518 696.58 65.3823V98.052C696.503 99.3815 696.117 100.675 695.45 101.828C694.784 102.981 693.857 103.962 692.744 104.692L592.403 162.535C591.21 163.133 589.891 163.436 588.556 163.421C587.221 163.406 585.91 163.072 584.73 162.447Z" fill="#263238"/>
<path d="M592.403 148.694L656.68 111.598C659.156 110.014 661.342 108.018 663.143 105.696L693.835 64.3789C694.204 63.9335 694.468 63.4112 694.608 62.8503C694.748 62.2894 694.76 61.7042 694.644 61.1379C694.528 60.5716 694.286 60.0385 693.937 59.578C693.588 59.1174 693.14 58.741 692.625 58.4765L592.285 0.633215C591.226 0.0481185 589.993 -0.139595 588.808 0.103892C587.623 0.347378 586.564 1.00606 585.822 1.96125L555.13 43.2779C553.524 45.5771 551.526 47.5752 549.227 49.1803L484.301 86.0406C483.836 86.1946 483.431 86.4914 483.144 86.8888C482.857 87.2861 482.702 87.7638 482.702 88.254C482.702 88.7442 482.857 89.222 483.144 89.6193C483.431 90.0167 483.836 90.3134 484.301 90.4674L584.641 148.34C585.811 149.021 587.127 149.409 588.479 149.471C589.83 149.533 591.177 149.266 592.403 148.694Z" fill="#455A64"/>
<path d="M692.507 58.7126L592.167 0.869299C591.108 0.284203 589.875 0.0964888 588.69 0.339976C587.505 0.583462 586.446 1.24214 585.704 2.19734L555.011 43.514C554.072 44.7004 553.025 45.7971 551.883 46.7898C551.883 46.7898 660.044 109.119 660.044 109.089C661.185 108.106 662.232 107.02 663.172 105.843L693.865 64.5265C694.211 64.0731 694.453 63.5485 694.573 62.9905C694.693 62.4325 694.688 61.8549 694.558 61.2991C694.429 60.7433 694.177 60.2231 693.823 59.7759C693.468 59.3287 693.019 58.9656 692.507 58.7126Z" fill="#37474F"/>
<path d="M508.825 87.4275C510.219 86.7152 511.761 86.3438 513.326 86.3438C514.891 86.3438 516.433 86.7152 517.826 87.4275C518.368 87.6127 518.838 87.9626 519.171 88.4283C519.504 88.894 519.683 89.4521 519.683 90.0246C519.683 90.597 519.504 91.1552 519.171 91.6209C518.838 92.0865 518.368 92.4364 517.826 92.6216C516.429 93.3203 514.888 93.6841 513.326 93.6841C511.764 93.6841 510.223 93.3203 508.825 92.6216C508.284 92.4364 507.813 92.0865 507.48 91.6209C507.148 91.1552 506.969 90.597 506.969 90.0246C506.969 89.4521 507.148 88.894 507.48 88.4283C507.813 87.9626 508.284 87.6127 508.825 87.4275Z" fill="#FFAF2D"/>
<path d="M526.828 97.8159C528.2 97.1233 529.717 96.7625 531.254 96.7625C532.792 96.7625 534.308 97.1233 535.681 97.8159C536.223 98.0011 536.693 98.351 537.026 98.8167C537.359 99.2824 537.538 99.8405 537.538 100.413C537.538 100.985 537.359 101.544 537.026 102.009C536.693 102.475 536.223 102.825 535.681 103.01C534.304 103.689 532.79 104.043 531.254 104.043C529.719 104.043 528.204 103.689 526.828 103.01C526.286 102.825 525.816 102.475 525.483 102.009C525.15 101.544 524.971 100.985 524.971 100.413C524.971 99.8405 525.15 99.2824 525.483 98.8167C525.816 98.351 526.286 98.0011 526.828 97.8159Z" fill="#FFAF2D"/>
<path d="M544.948 108.175C546.345 107.476 547.886 107.112 549.448 107.112C551.011 107.112 552.552 107.476 553.949 108.175C554.491 108.36 554.961 108.71 555.294 109.175C555.627 109.641 555.806 110.199 555.806 110.772C555.806 111.344 555.627 111.902 555.294 112.368C554.961 112.834 554.491 113.183 553.949 113.369C552.556 114.081 551.013 114.452 549.448 114.452C547.884 114.452 546.341 114.081 544.948 113.369C544.406 113.183 543.936 112.834 543.603 112.368C543.27 111.902 543.091 111.344 543.091 110.772C543.091 110.199 543.27 109.641 543.603 109.175C543.936 108.71 544.406 108.36 544.948 108.175Z" fill="#263238"/>
<path d="M562.655 118.562C564.052 117.864 565.593 117.5 567.156 117.5C568.718 117.5 570.259 117.864 571.656 118.562C572.198 118.748 572.668 119.098 573.001 119.563C573.334 120.029 573.513 120.587 573.513 121.159C573.513 121.732 573.334 122.29 573.001 122.756C572.668 123.221 572.198 123.571 571.656 123.757C570.263 124.469 568.72 124.84 567.156 124.84C565.591 124.84 564.048 124.469 562.655 123.757C562.113 123.571 561.643 123.221 561.31 122.756C560.977 122.29 560.798 121.732 560.798 121.159C560.798 120.587 560.977 120.029 561.31 119.563C561.643 119.098 562.113 118.748 562.655 118.562Z" fill="#263238"/>
<path d="M526.828 85.8932C530.332 85.8932 533.173 84.2548 533.173 82.2337C533.173 80.2126 530.332 78.5742 526.828 78.5742C523.323 78.5742 520.483 80.2126 520.483 82.2337C520.483 84.2548 523.323 85.8932 526.828 85.8932Z" fill="#FFAF2D"/>
<path d="M540.315 90.0244C541.687 89.3318 543.204 88.9709 544.741 88.9709C546.279 88.9709 547.795 89.3318 549.168 90.0244C549.71 90.2096 550.18 90.5595 550.513 91.0252C550.846 91.4909 551.025 92.049 551.025 92.6215C551.025 93.1939 550.846 93.7521 550.513 94.2178C550.18 94.6834 549.71 95.0334 549.168 95.2185C547.791 95.8979 546.277 96.2512 544.741 96.2512C543.206 96.2512 541.691 95.8979 540.315 95.2185C537.806 93.7725 537.806 91.441 540.315 90.0244Z" fill="#263238"/>
<path d="M562.773 106.67C566.277 106.67 569.118 105.031 569.118 103.01C569.118 100.989 566.277 99.3508 562.773 99.3508C559.269 99.3508 556.428 100.989 556.428 103.01C556.428 105.031 559.269 106.67 562.773 106.67Z" fill="#FFAF2D"/>
<path d="M576.26 110.772C577.638 110.097 579.152 109.746 580.687 109.746C582.221 109.746 583.736 110.097 585.114 110.772C585.655 110.957 586.126 111.307 586.459 111.773C586.791 112.238 586.97 112.796 586.97 113.369C586.97 113.941 586.791 114.499 586.459 114.965C586.126 115.431 585.655 115.781 585.114 115.966C583.739 116.654 582.224 117.012 580.687 117.012C579.15 117.012 577.634 116.654 576.26 115.966C575.718 115.781 575.248 115.431 574.915 114.965C574.582 114.499 574.403 113.941 574.403 113.369C574.403 112.796 574.582 112.238 574.915 111.773C575.248 111.307 575.718 110.957 576.26 110.772Z" fill="#263238"/>
<path d="M535.799 71.8455C537.177 71.1705 538.692 70.8196 540.226 70.8196C541.761 70.8196 543.275 71.1705 544.653 71.8455C545.195 72.0307 545.665 72.3806 545.998 72.8463C546.331 73.312 546.51 73.8701 546.51 74.4426C546.51 75.015 546.331 75.5731 545.998 76.0388C545.665 76.5045 545.195 76.8544 544.653 77.0396C543.279 77.7277 541.763 78.0861 540.226 78.0861C538.689 78.0861 537.173 77.7277 535.799 77.0396C535.258 76.8544 534.787 76.5045 534.454 76.0388C534.122 75.5731 533.943 75.015 533.943 74.4426C533.943 73.8701 534.122 73.312 534.454 72.8463C534.787 72.3806 535.258 72.0307 535.799 71.8455Z" fill="#263238"/>
<path d="M553.802 82.2337C555.174 81.541 556.691 81.1802 558.228 81.1802C559.766 81.1802 561.282 81.541 562.655 82.2337C563.197 82.4188 563.667 82.7688 564 83.2344C564.333 83.7001 564.512 84.2582 564.512 84.8307C564.512 85.4032 564.333 85.9613 564 86.427C563.667 86.8927 563.197 87.2426 562.655 87.4278C561.278 88.1071 559.764 88.4604 558.228 88.4604C556.693 88.4604 555.178 88.1071 553.802 87.4278C553.26 87.2426 552.79 86.8927 552.457 86.427C552.124 85.9613 551.945 85.4032 551.945 84.8307C551.945 84.2582 552.124 83.7001 552.457 83.2344C552.79 82.7688 553.26 82.4188 553.802 82.2337Z" fill="#FFAF2D"/>
<path d="M571.774 92.6219C573.149 91.9337 574.664 91.5754 576.201 91.5754C577.738 91.5754 579.254 91.9337 580.628 92.6219C581.17 92.8071 581.64 93.157 581.973 93.6227C582.306 94.0883 582.485 94.6465 582.485 95.2189C582.485 95.7914 582.306 96.3495 581.973 96.8152C581.64 97.2809 581.17 97.6308 580.628 97.816C579.25 98.491 577.736 98.8419 576.201 98.8419C574.667 98.8419 573.152 98.491 571.774 97.816C571.233 97.6308 570.763 97.2809 570.43 96.8152C570.097 96.3495 569.918 95.7914 569.918 95.2189C569.918 94.6465 570.097 94.0883 570.43 93.6227C570.763 93.157 571.233 92.8071 571.774 92.6219Z" fill="#263238"/>
<path d="M580.864 128.744C582.257 128.032 583.8 127.66 585.365 127.66C586.929 127.66 588.472 128.032 589.865 128.744C590.407 128.929 590.877 129.279 591.21 129.745C591.543 130.211 591.722 130.769 591.722 131.341C591.722 131.914 591.543 132.472 591.21 132.938C590.877 133.403 590.407 133.753 589.865 133.938C588.468 134.637 586.927 135.001 585.365 135.001C583.802 135.001 582.261 134.637 580.864 133.938C580.322 133.753 579.852 133.403 579.519 132.938C579.186 132.472 579.007 131.914 579.007 131.341C579.007 130.769 579.186 130.211 579.519 129.745C579.852 129.279 580.322 128.929 580.864 128.744Z" fill="#FFAF2D"/>
<path d="M598.837 127.21C602.341 127.21 605.182 125.571 605.182 123.55C605.182 121.529 602.341 119.891 598.837 119.891C595.332 119.891 592.492 121.529 592.492 123.55C592.492 125.571 595.332 127.21 598.837 127.21Z" fill="#263238"/>
<path d="M589.747 103.01C591.121 102.322 592.637 101.963 594.174 101.963C595.711 101.963 597.226 102.322 598.6 103.01C599.142 103.195 599.612 103.545 599.945 104.011C600.278 104.476 600.457 105.034 600.457 105.607C600.457 106.179 600.278 106.737 599.945 107.203C599.612 107.669 599.142 108.019 598.6 108.204C597.222 108.879 595.708 109.23 594.174 109.23C592.639 109.23 591.125 108.879 589.747 108.204C589.205 108.019 588.735 107.669 588.402 107.203C588.069 106.737 587.89 106.179 587.89 105.607C587.89 105.034 588.069 104.476 588.402 104.011C588.735 103.545 589.205 103.195 589.747 103.01Z" fill="#263238"/>
<path d="M549.286 64.0838C550.68 63.3714 552.222 63 553.787 63C555.352 63 556.894 63.3714 558.287 64.0838C558.829 64.269 559.299 64.6189 559.632 65.0846C559.965 65.5502 560.144 66.1084 560.144 66.6808C560.144 67.2533 559.965 67.8114 559.632 68.2771C559.299 68.7428 558.829 69.0927 558.287 69.2779C556.89 69.9766 555.349 70.3403 553.787 70.3403C552.224 70.3403 550.684 69.9766 549.286 69.2779C548.745 69.0927 548.274 68.7428 547.941 68.2771C547.608 67.8114 547.429 67.2533 547.429 66.6808C547.429 66.1084 547.608 65.5502 547.941 65.0846C548.274 64.6189 548.745 64.269 549.286 64.0838Z" fill="#FFAF2D"/>
<path d="M571.774 80.6988C575.279 80.6988 578.119 79.0604 578.119 77.0394C578.119 75.0183 575.279 73.3799 571.774 73.3799C568.27 73.3799 565.429 75.0183 565.429 77.0394C565.429 79.0604 568.27 80.6988 571.774 80.6988Z" fill="#263238"/>
<path d="M585.261 84.8305C586.638 84.1512 588.153 83.7979 589.688 83.7979C591.223 83.7979 592.738 84.1512 594.115 84.8305C594.656 85.0157 595.127 85.3656 595.46 85.8313C595.793 86.297 595.972 86.8551 595.972 87.4276C595.972 88 595.793 88.5582 595.46 89.0238C595.127 89.4895 594.656 89.8394 594.115 90.0246C592.742 90.7173 591.226 91.0781 589.688 91.0781C588.15 91.0781 586.634 90.7173 585.261 90.0246C584.72 89.8394 584.249 89.4895 583.916 89.0238C583.583 88.5582 583.404 88 583.404 87.4276C583.404 86.8551 583.583 86.297 583.916 85.8313C584.249 85.3656 584.72 85.0157 585.261 84.8305Z" fill="#FFAF2D"/>
<path d="M607.72 101.475C611.224 101.475 614.065 99.8368 614.065 97.8157C614.065 95.7946 611.224 94.1562 607.72 94.1562C604.216 94.1562 601.375 95.7946 601.375 97.8157C601.375 99.8368 604.216 101.475 607.72 101.475Z" fill="#263238"/>
<path d="M607.838 113.191C609.231 112.479 610.774 112.108 612.338 112.108C613.903 112.108 615.446 112.479 616.839 113.191C617.384 113.369 617.86 113.714 618.197 114.178C618.534 114.642 618.715 115.2 618.715 115.774C618.715 116.347 618.534 116.906 618.197 117.37C617.86 117.834 617.384 118.179 616.839 118.356C615.446 119.068 613.903 119.44 612.338 119.44C610.774 119.44 609.231 119.068 607.838 118.356C607.292 118.179 606.817 117.834 606.48 117.37C606.143 116.906 605.961 116.347 605.961 115.774C605.961 115.2 606.143 114.642 606.48 114.178C606.817 113.714 607.292 113.369 607.838 113.191Z" fill="#FFAF2D"/>
<path d="M621.325 105.4C622.698 104.708 624.214 104.347 625.751 104.347C627.289 104.347 628.805 104.708 630.178 105.4C632.687 106.817 632.687 109.148 630.178 110.595C628.801 111.274 627.287 111.627 625.751 111.627C624.216 111.627 622.701 111.274 621.325 110.595C620.783 110.409 620.313 110.059 619.98 109.594C619.647 109.128 619.468 108.57 619.468 107.997C619.468 107.425 619.647 106.867 619.98 106.401C620.313 105.936 620.783 105.586 621.325 105.4Z" fill="#263238"/>
<path d="M588.803 149.609V163.421C587.4 163.488 586.005 163.183 584.76 162.535L484.419 104.662C483.301 103.937 482.37 102.957 481.703 101.803C481.036 100.649 480.652 99.3533 480.583 98.0222V93.0347C480.648 91.8502 480.961 90.6925 481.499 89.6356C482.038 88.5786 482.791 87.6456 483.711 86.8962C482.324 88.1062 482.56 89.8474 484.419 90.8213L584.76 148.694C586.003 149.352 587.398 149.668 588.803 149.609Z" fill="#37474F"/>
<path d="M568.557 41.8025C569.05 41.1623 569.756 40.7207 570.547 40.5581C571.338 40.3956 572.161 40.523 572.866 40.9171L660.044 91.1464C660.37 91.3271 660.652 91.5764 660.871 91.877C661.091 92.1776 661.242 92.5223 661.315 92.8872C661.388 93.2522 661.381 93.6286 661.294 93.9905C661.207 94.3523 661.042 94.691 660.812 94.9829C660.32 95.623 659.616 96.0667 658.826 96.2343C658.036 96.402 657.212 96.2827 656.503 95.8978L569.295 45.6686C568.971 45.4821 568.692 45.2281 568.475 44.9237C568.258 44.6192 568.11 44.2717 568.04 43.9047C567.97 43.5377 567.98 43.1599 568.069 42.7971C568.158 42.4343 568.325 42.0951 568.557 41.8025Z" fill="#263238"/>
<path d="M568.557 41.8025C569.05 41.1623 569.756 40.7207 570.547 40.5581C571.338 40.3956 572.161 40.523 572.866 40.9171L637.792 78.3382L634.192 83.2077L569.266 45.7866C568.925 45.5999 568.631 45.3393 568.405 45.0239C568.178 44.7085 568.026 44.3464 567.958 43.9641C567.89 43.5819 567.908 43.1893 568.012 42.8152C568.116 42.4411 568.302 42.0951 568.557 41.8025Z" fill="#FFAF2D"/>
<path d="M575.729 32.1223C576.221 31.4822 576.927 31.0405 577.719 30.8779C578.51 30.7154 579.333 30.8428 580.038 31.237L667.245 81.5843C667.573 81.7624 667.858 82.0097 668.08 82.3091C668.303 82.6085 668.457 82.9527 668.533 83.3179C668.609 83.683 668.604 84.0603 668.519 84.4234C668.435 84.7866 668.272 85.1269 668.042 85.4208C667.537 86.0534 666.826 86.4886 666.034 86.6504C665.241 86.8122 664.416 86.6903 663.704 86.3062L576.526 35.9884C576.197 35.8071 575.912 35.5569 575.69 35.2549C575.467 34.9529 575.313 34.6062 575.237 34.2388C575.161 33.8715 575.166 33.492 575.251 33.1267C575.336 32.7613 575.499 32.4187 575.729 32.1223Z" fill="#263238"/>
<path d="M575.729 32.1223C576.221 31.4822 576.927 31.0405 577.718 30.8779C578.509 30.7154 579.332 30.8428 580.037 31.237L601.699 43.75L598.069 48.4719L576.407 35.9884C576.088 35.7969 575.814 35.539 575.603 35.2323C575.392 34.9255 575.25 34.577 575.185 34.2103C575.121 33.8437 575.136 33.4675 575.23 33.1072C575.324 32.747 575.494 32.4111 575.729 32.1223Z" fill="#FFAF2D"/>
<path d="M582.93 22.4719C583.422 21.8318 584.128 21.3901 584.919 21.2275C585.711 21.065 586.534 21.1924 587.239 21.5866L674.446 71.9339C674.775 72.1151 675.06 72.3653 675.282 72.6674C675.505 72.9694 675.659 73.316 675.735 73.6834C675.811 74.0508 675.806 74.4302 675.721 74.7956C675.636 75.1609 675.473 75.5036 675.243 75.7999C674.743 76.4302 674.038 76.8643 673.25 77.0262C672.462 77.1881 671.642 77.0674 670.934 76.6853L583.727 26.3085C583.399 26.1304 583.114 25.883 582.892 25.5836C582.669 25.2842 582.515 24.94 582.439 24.5749C582.363 24.2097 582.368 23.8325 582.453 23.4693C582.537 23.1061 582.7 22.7658 582.93 22.4719Z" fill="#263238"/>
<path d="M582.93 22.4719C583.422 21.8318 584.128 21.3901 584.919 21.2275C585.711 21.065 586.534 21.1924 587.239 21.5866L632.657 47.7341L629.057 52.5741L583.638 26.456C583.293 26.2734 582.995 26.0147 582.765 25.6994C582.536 25.3842 582.381 25.0208 582.312 24.6367C582.244 24.2527 582.264 23.8581 582.371 23.483C582.478 23.108 582.669 22.7622 582.93 22.4719Z" fill="#FFAF2D"/>
<path d="M590.131 12.792C590.623 12.1519 591.327 11.7082 592.116 11.5406C592.906 11.3729 593.73 11.4922 594.439 11.8771L681.765 62.1063C682.091 62.2902 682.374 62.5423 682.593 62.8456C682.813 63.1488 682.964 63.4959 683.037 63.8631C683.11 64.2303 683.103 64.6089 683.015 64.9729C682.928 65.337 682.764 65.6779 682.532 65.9724C682.04 66.6125 681.334 67.0542 680.543 67.2168C679.752 67.3793 678.929 67.2519 678.224 66.8578L590.928 16.6285C590.6 16.4504 590.315 16.203 590.093 15.9036C589.87 15.6043 589.716 15.26 589.64 14.8949C589.564 14.5298 589.569 14.1525 589.653 13.7893C589.738 13.4262 589.901 13.0858 590.131 12.792Z" fill="#263238"/>
<path d="M590.131 12.792C590.623 12.1519 591.327 11.7082 592.116 11.5406C592.906 11.3729 593.73 11.4922 594.439 11.8771L673.62 57.591L669.99 62.431L590.928 16.6285C590.6 16.4504 590.315 16.203 590.093 15.9036C589.87 15.6043 589.716 15.26 589.64 14.8949C589.564 14.5298 589.569 14.1525 589.653 13.7893C589.738 13.4262 589.901 13.0858 590.131 12.792Z" fill="#FFAF2D"/>
<path d="M432.802 822.244L462.314 805.156C464.295 804.153 466.484 803.63 468.704 803.63C470.924 803.63 473.113 804.153 475.093 805.156L650.748 906.589C651.738 907.157 652.86 907.455 654.002 907.454C655.144 907.453 656.265 907.152 657.254 906.581C658.243 906.011 659.065 905.19 659.637 904.202C660.21 903.215 660.513 902.094 660.516 900.952V755.635" stroke="#FFAF2D" stroke-miterlimit="10"/>
<path d="M420.732 815.309L462.315 791.315C464.295 790.312 466.484 789.789 468.704 789.789C470.924 789.789 473.113 790.312 475.093 791.315L662.73 899.653C663.72 900.222 664.842 900.52 665.984 900.519C667.126 900.517 668.247 900.216 669.236 899.646C670.225 899.075 671.047 898.255 671.619 897.267C672.192 896.279 672.495 895.159 672.498 894.017V755.635" stroke="#FFAF2D" stroke-miterlimit="10"/>
<path d="M408.75 808.373L462.314 777.474C464.295 776.47 466.484 775.947 468.704 775.947C470.924 775.947 473.113 776.47 475.093 777.474L674.8 892.747C675.788 893.318 676.909 893.618 678.05 893.617C679.191 893.616 680.311 893.315 681.299 892.744C682.286 892.172 683.105 891.351 683.674 890.362C684.243 889.373 684.541 888.251 684.539 887.11V756.491" stroke="#FFAF2D" stroke-miterlimit="10"/>
<path d="M396.739 801.467L462.314 763.633C464.295 762.629 466.484 762.106 468.704 762.106C470.924 762.106 473.113 762.629 475.093 763.633L686.605 885.812C687.593 886.382 688.714 886.682 689.855 886.682C690.995 886.681 692.116 886.38 693.103 885.808C694.091 885.237 694.91 884.415 695.479 883.426C696.048 882.437 696.346 881.316 696.344 880.175V756.491" stroke="#FFAF2D" stroke-miterlimit="10"/>
<path d="M234.542 203.025L43.511 313.311C41.6529 314.525 40.1072 316.159 38.9996 318.082C37.892 320.005 37.2536 322.162 37.1365 324.378V849.454C37.2583 851.669 37.8986 853.824 39.0058 855.746C40.113 857.669 41.6562 859.304 43.511 860.521L234.542 970.807C236.522 971.81 238.711 972.333 240.931 972.333C243.151 972.333 245.34 971.81 247.32 970.807L438.321 860.521C440.185 859.311 441.736 857.678 442.849 855.755C443.962 853.831 444.605 851.673 444.725 849.454V324.378C444.605 322.16 443.962 320.001 442.849 318.078C441.736 316.154 440.185 314.521 438.321 313.311L247.32 203.025C245.34 202.022 243.151 201.499 240.931 201.499C238.711 201.499 236.522 202.022 234.542 203.025Z" fill="#37474F"/>
<path d="M444.607 324.349V849.454C444.486 851.669 443.845 853.824 442.738 855.747C441.631 857.669 440.088 859.304 438.233 860.521L247.202 970.807C245.247 971.863 243.05 972.392 240.828 972.341V432.48C243.048 432.512 245.24 431.984 247.202 430.946L438.233 320.66L439.974 319.214L442.246 317.325C443.685 319.394 444.504 321.831 444.607 324.349Z" fill="#263238"/>
<path d="M67.5043 376.054L210.578 458.687C212.436 459.9 213.982 461.535 215.089 463.458C216.197 465.381 216.835 467.538 216.953 469.754V524.203C216.953 528.276 214.001 529.929 210.548 527.892L67.5043 445.259C65.6407 444.049 64.0893 442.416 62.9764 440.493C61.8635 438.57 61.2207 436.411 61.1002 434.192V379.743C61.1002 375.67 63.9039 374.017 67.5043 376.054Z" fill="#455A64"/>
<path d="M73.1115 400.047C73.264 402.19 73.9209 404.267 75.0287 406.108C76.1365 407.949 77.6638 409.503 79.486 410.641L198.567 479.404C202.108 481.44 204.971 479.994 204.971 476.187C204.815 474.037 204.153 471.955 203.041 470.108C201.928 468.262 200.395 466.705 198.567 465.563L79.486 396.8C75.9446 394.764 73.1115 396.21 73.1115 400.047Z" fill="#FFAF2D"/>
<path d="M73.1115 427.729C73.264 429.872 73.9209 431.949 75.0287 433.79C76.1365 435.632 77.6638 437.185 79.486 438.324L198.567 507.086C202.108 509.123 204.971 507.677 204.971 503.869C204.815 501.72 204.153 499.637 203.041 497.791C201.928 495.944 200.395 494.387 198.567 493.245L79.486 424.482C75.9446 422.446 73.1115 423.892 73.1115 427.729Z" fill="#263238"/>
<path d="M79.486 424.482L145.032 462.346V476.187L79.486 438.324C77.6638 437.185 76.1365 435.632 75.0287 433.79C73.9209 431.949 73.264 429.872 73.1115 427.729C73.1115 423.892 75.9446 422.446 79.486 424.482Z" fill="#FFAF2D"/>
<path d="M67.5043 472.941L210.578 555.574C212.433 556.791 213.976 558.427 215.083 560.349C216.19 562.271 216.831 564.426 216.953 566.641V621.061C216.953 625.134 214.001 626.787 210.548 624.75L67.5043 542.117C65.6407 540.907 64.0893 539.274 62.9764 537.351C61.8635 535.428 61.2207 533.269 61.1002 531.05V476.63C61.1002 472.558 63.9039 470.905 67.5043 472.941Z" fill="#455A64"/>
<path d="M73.1115 496.934C73.2618 499.082 73.9176 501.164 75.0253 503.01C76.1331 504.857 77.6616 506.415 79.486 507.558L198.567 576.291C202.108 578.328 204.971 576.882 204.971 573.075C204.815 570.925 204.153 568.842 203.041 566.996C201.928 565.15 200.395 563.592 198.567 562.45L79.486 493.717C75.9446 491.681 73.1115 493.127 73.1115 496.934Z" fill="#FFAF2D"/>
<path d="M73.1115 524.617C73.2618 526.765 73.9176 528.847 75.0253 530.693C76.1331 532.539 77.6616 534.098 79.486 535.241L198.567 604.004C202.108 606.04 204.971 604.594 204.971 600.757C204.812 598.608 204.15 596.526 203.038 594.68C201.925 592.834 200.393 591.277 198.567 590.133L79.486 521.4C75.9446 519.364 73.1115 520.81 73.1115 524.617Z" fill="#263238"/>
<path d="M79.486 521.4L180.977 579.981V593.822L79.486 535.241C77.6615 534.098 76.1331 532.539 75.0253 530.693C73.9176 528.847 73.2618 526.765 73.1115 524.617C73.1115 520.81 75.9446 519.364 79.486 521.4Z" fill="#FFAF2D"/>
<path d="M67.5043 569.711L210.578 652.344C212.433 653.561 213.976 655.196 215.083 657.118C216.19 659.041 216.831 661.196 216.953 663.411V717.861C216.953 721.933 214.001 723.586 210.548 721.55L67.5043 638.916C65.6407 637.706 64.0893 636.073 62.9764 634.15C61.8635 632.227 61.2207 630.068 61.1002 627.849V573.518C61.1002 569.445 63.9039 567.793 67.5043 569.711Z" fill="#455A64"/>
<path d="M73.1115 593.821C73.2618 595.969 73.9176 598.051 75.0253 599.898C76.1331 601.744 77.6616 603.302 79.486 604.446L198.567 673.208C202.108 675.245 204.971 673.799 204.971 669.962C204.81 667.817 204.147 665.74 203.034 663.9C201.922 662.059 200.391 660.506 198.567 659.367L79.486 590.605C75.9446 588.568 73.1115 590.014 73.1115 593.821Z" fill="#FFAF2D"/>
<path d="M73.1115 621.533C73.264 623.677 73.9209 625.754 75.0287 627.595C76.1365 629.436 77.6638 630.989 79.486 632.128L198.567 700.891C202.108 702.927 204.971 701.481 204.971 697.645C204.81 695.5 204.147 693.423 203.034 691.582C201.922 689.742 200.391 688.189 198.567 687.05L79.486 618.287C75.9446 616.251 73.1115 617.697 73.1115 621.533Z" fill="#263238"/>
<path d="M79.486 618.287L121.039 642.28V656.121L79.486 632.128C77.6638 630.989 76.1365 629.436 75.0287 627.595C73.9209 625.754 73.264 623.677 73.1115 621.533C73.1115 617.697 75.9446 616.251 79.486 618.287Z" fill="#FFAF2D"/>
<path d="M67.5043 666.746L210.578 749.379C212.433 750.596 213.976 752.231 215.083 754.153C216.19 756.075 216.831 758.231 216.953 760.446V814.925C216.953 818.997 214.001 820.65 210.548 818.614L67.5043 735.98C65.6407 734.771 64.0893 733.137 62.9764 731.214C61.8635 729.291 61.2207 727.132 61.1002 724.914V670.435C61.1002 666.362 63.9039 664.709 67.5043 666.746Z" fill="#455A64"/>
<path d="M73.1115 690.709C73.264 692.852 73.9209 694.929 75.0287 696.771C76.1365 698.612 77.6638 700.165 79.486 701.304L198.567 770.067C202.108 772.103 204.971 770.657 204.971 766.85C204.815 764.7 204.153 762.617 203.041 760.771C201.928 758.925 200.395 757.367 198.567 756.225L79.486 687.463C75.9446 685.456 73.1115 686.902 73.1115 690.709Z" fill="#FFAF2D"/>
<path d="M73.1115 718.421C73.2549 720.575 73.9075 722.664 75.0158 724.516C76.124 726.368 77.6561 727.931 79.486 729.075L198.567 797.838C202.108 799.874 204.971 798.428 204.971 794.621C204.815 792.471 204.153 790.388 203.041 788.542C201.928 786.696 200.395 785.138 198.567 783.997L79.486 715.234C75.9446 713.139 73.1115 714.585 73.1115 718.421Z" fill="#263238"/>
<path d="M79.486 715.175L145.032 753.038V766.879L79.486 729.075C77.6638 727.936 76.1365 726.383 75.0287 724.541C73.9209 722.7 73.264 720.623 73.1115 718.48C73.1115 714.584 75.9446 713.138 79.486 715.175Z" fill="#FFAF2D"/>
<path d="M67.5042 763.633L210.578 846.266C212.433 847.483 213.976 849.118 215.083 851.041C216.19 852.963 216.831 855.118 216.952 857.333V911.753C216.952 915.826 214.001 917.478 210.548 915.442L67.5042 832.809C65.6406 831.599 64.0891 829.966 62.9763 828.043C61.8634 826.119 61.2205 823.961 61.1001 821.742V767.44C61.1001 763.249 63.9037 761.538 67.5042 763.633Z" fill="#455A64"/>
<path d="M73.1115 787.626C73.2618 789.774 73.9176 791.856 75.0253 793.703C76.1331 795.549 77.6616 797.107 79.486 798.251L198.567 866.984C202.108 869.02 204.971 867.574 204.971 863.767C204.815 861.617 204.153 859.534 203.041 857.688C201.928 855.842 200.395 854.285 198.567 853.143L79.486 784.41C75.9446 782.373 73.1115 783.819 73.1115 787.626Z" fill="#FFAF2D"/>
<path d="M73.1115 815.309C73.2618 817.456 73.9176 819.538 75.0253 821.385C76.1331 823.231 77.6616 824.789 79.486 825.933L198.567 894.666C202.108 896.702 204.971 895.256 204.971 891.449C204.815 889.299 204.153 887.216 203.041 885.37C201.928 883.524 200.395 881.967 198.567 880.825L79.486 812.092C75.9446 810.055 73.1115 811.501 73.1115 815.309Z" fill="#263238"/>
<path d="M79.486 812.092L168.996 863.767V877.608L79.486 825.933C77.6616 824.789 76.1331 823.231 75.0253 821.385C73.9176 819.538 73.2618 817.456 73.1115 815.309C73.1115 811.501 75.9446 810.055 79.486 812.092Z" fill="#FFAF2D"/>
<path d="M270.9 465.829C277.511 461.992 282.882 465.475 282.882 473.62V790.194C282.728 794.501 281.563 798.711 279.482 802.484C277.4 806.257 274.461 809.488 270.9 811.915C264.289 815.751 258.918 812.269 258.918 804.094V487.52C259.077 483.219 260.244 479.015 262.325 475.247C264.406 471.479 267.343 468.253 270.9 465.829Z" fill="#37474F"/>
<path d="M270.9 804.891C272.664 803.675 274.118 802.061 275.143 800.179C276.168 798.298 276.737 796.202 276.803 794.06V476.6C276.803 472.528 274.117 470.698 270.9 472.675C269.137 473.899 267.685 475.519 266.66 477.405C265.635 479.291 265.066 481.39 264.998 483.536V800.995C264.909 805.068 267.536 806.809 270.9 804.891Z" fill="#263238"/>
<path d="M270.9 804.891C272.664 803.675 274.118 802.061 275.143 800.179C276.168 798.298 276.737 796.202 276.803 794.06V642.281L264.821 649.216V800.995C264.909 805.068 267.536 806.809 270.9 804.891Z" fill="#FFAF2D"/>
<path d="M306.875 445.052C313.486 441.216 318.857 444.728 318.857 452.873V769.447C318.699 773.749 317.532 777.953 315.451 781.72C313.369 785.488 310.432 788.714 306.875 791.138C300.235 794.975 294.864 791.493 294.864 783.347V466.773C295.021 462.464 296.191 458.253 298.277 454.479C300.364 450.706 303.309 447.477 306.875 445.052Z" fill="#37474F"/>
<path d="M306.875 784.144C308.636 782.924 310.087 781.309 311.112 779.429C312.137 777.548 312.707 775.453 312.778 773.313V455.853C312.778 451.751 310.092 449.951 306.875 451.928C305.114 453.148 303.664 454.762 302.639 456.643C301.614 458.524 301.043 460.618 300.973 462.759V780.219C300.855 784.291 303.54 786.062 306.875 784.144Z" fill="#FFAF2D"/>
<path d="M342.821 424.306C349.431 420.469 354.802 423.951 354.802 432.097V748.671C354.651 752.978 353.487 757.188 351.405 760.962C349.324 764.736 346.383 767.966 342.821 770.391C336.21 774.228 330.839 770.716 330.839 762.571V445.997C330.997 441.695 332.164 437.491 334.245 433.724C336.327 429.956 339.264 426.73 342.821 424.306Z" fill="#37474F"/>
<path d="M342.821 763.368C344.585 762.152 346.038 760.538 347.063 758.656C348.089 756.775 348.657 754.679 348.723 752.537V435.078C348.723 431.005 346.037 429.175 342.821 431.153C341.056 432.375 339.602 433.994 338.577 435.881C337.552 437.767 336.984 439.867 336.918 442.013V759.472C336.83 763.545 339.515 765.286 342.821 763.368Z" fill="#263238"/>
<path d="M342.821 763.368C344.585 762.152 346.038 760.538 347.064 758.656C348.089 756.775 348.657 754.679 348.723 752.537V507.323L336.741 514.228V759.472C336.83 763.545 339.515 765.286 342.821 763.368Z" fill="#FFAF2D"/>
<path d="M378.796 403.529C385.406 399.692 390.778 403.204 390.778 411.349V727.924C390.637 732.245 389.479 736.473 387.397 740.262C385.315 744.052 382.368 747.297 378.796 749.733C372.156 753.569 366.814 750.087 366.814 741.942V425.25C366.963 420.942 368.126 416.73 370.208 412.957C372.29 409.183 375.232 405.953 378.796 403.529Z" fill="#37474F"/>
<path d="M378.796 742.621C380.557 741.401 382.007 739.786 383.032 737.906C384.057 736.025 384.628 733.931 384.698 731.79V414.301C384.698 410.228 382.013 408.399 378.796 410.405C377.032 411.621 375.578 413.235 374.553 415.117C373.528 416.998 372.959 419.095 372.893 421.236V738.696C372.805 742.768 375.49 744.539 378.796 742.621Z" fill="#263238"/>
<path d="M378.796 742.621C380.557 741.401 382.007 739.787 383.032 737.906C384.057 736.025 384.628 733.931 384.698 731.79V678.196L372.716 685.132V738.696C372.805 742.768 375.49 744.539 378.796 742.621Z" fill="#FFAF2D"/>
<path d="M414.741 382.782C421.381 378.946 426.752 382.428 426.752 390.573V707.147C426.595 711.456 425.426 715.668 423.339 719.441C421.253 723.215 418.307 726.444 414.741 728.868C408.13 732.705 402.759 729.193 402.759 721.047V404.444C402.922 400.147 404.091 395.949 406.172 392.187C408.253 388.425 411.188 385.203 414.741 382.782Z" fill="#37474F"/>
<path d="M414.741 721.845C416.509 720.632 417.965 719.019 418.99 717.136C420.016 715.254 420.583 713.156 420.644 711.014V393.554C420.644 389.482 417.958 387.652 414.741 389.629C412.98 390.849 411.529 392.463 410.505 394.344C409.48 396.225 408.909 398.319 408.839 400.46V717.949C408.75 722.022 411.436 723.763 414.741 721.845Z" fill="#263238"/>
<path d="M414.741 721.844C416.509 720.631 417.965 719.018 418.99 717.136C420.016 715.254 420.583 713.156 420.644 711.013V545.393L408.662 552.298V717.949C408.75 722.021 411.436 723.762 414.741 721.844Z" fill="#FFAF2D"/>
<path d="M264.024 850.427L421.617 759.442C424.568 757.79 426.752 759.118 426.752 762.393V819.794C426.653 821.57 426.137 823.297 425.244 824.835C424.352 826.374 423.109 827.68 421.617 828.648L264.024 919.633C261.073 921.285 258.918 919.957 258.918 916.682V859.281C259.012 857.507 259.523 855.781 260.41 854.242C261.297 852.704 262.535 851.397 264.024 850.427Z" fill="#37474F"/>
<path d="M270.487 867.456C270.487 871.263 273.438 872.709 276.891 870.673L408.75 794.532C410.579 793.39 412.111 791.833 413.224 789.987C414.337 788.14 414.998 786.058 415.154 783.908C415.154 780.101 412.203 778.655 408.75 780.691L276.891 856.832C275.063 857.973 273.53 859.531 272.417 861.377C271.304 863.223 270.643 865.306 270.487 867.456Z" fill="#263238"/>
<path d="M270.487 867.456C270.487 871.263 273.438 872.709 276.891 870.673L372.805 815.279V801.438L276.891 856.832C275.063 857.974 273.53 859.531 272.417 861.377C271.304 863.223 270.643 865.306 270.487 867.456Z" fill="#FFAF2D"/>
<path d="M270.487 895.138C270.487 898.945 273.438 900.421 276.891 898.355L408.75 822.214C410.552 821.078 412.064 819.536 413.166 817.712C414.267 815.888 414.928 813.832 415.095 811.708C415.095 807.901 412.144 806.455 408.691 808.491L276.832 884.632C275.03 885.769 273.518 887.311 272.416 889.134C271.315 890.958 270.654 893.014 270.487 895.138Z" fill="#263238"/>
<path d="M270.487 895.138C270.487 898.945 273.438 900.421 276.891 898.355L312.866 877.696V863.855L276.891 884.514C275.063 885.656 273.53 887.213 272.417 889.059C271.304 890.905 270.643 892.988 270.487 895.138Z" fill="#FFAF2D"/>
<path d="M438.321 313.311L247.32 203.025C245.34 202.022 243.151 201.499 240.931 201.499C238.711 201.499 236.522 202.022 234.542 203.025L43.511 313.311C42.7402 313.573 42.0706 314.069 41.5964 314.731C41.1222 315.393 40.8672 316.186 40.8672 317C40.8672 317.814 41.1222 318.608 41.5964 319.27C42.0706 319.931 42.7402 320.428 43.511 320.689L234.542 431.005C236.52 432.015 238.71 432.542 240.931 432.542C243.152 432.542 245.342 432.015 247.32 431.005L438.321 320.748C439.114 320.501 439.806 320.007 440.298 319.338C440.79 318.669 441.056 317.86 441.056 317.03C441.056 316.2 440.79 315.391 440.298 314.722C439.806 314.053 439.114 313.559 438.321 313.311Z" fill="#455A64"/>
<path d="M237.08 404.739L88.9298 319.155C87.8163 318.424 86.8893 317.443 86.2231 316.29C85.5569 315.137 85.17 313.844 85.0933 312.514V307.527C85.163 306.196 85.547 304.9 86.2139 303.746C86.8807 302.592 87.8114 301.612 88.9298 300.887L237.08 215.302C238.266 214.691 239.581 214.373 240.916 214.373C242.251 214.373 243.566 214.691 244.753 215.302L392.932 300.887C394.05 301.612 394.981 302.592 395.648 303.746C396.315 304.9 396.699 306.196 396.768 307.527V312.514C396.692 313.844 396.305 315.137 395.639 316.29C394.972 317.443 394.045 318.424 392.932 319.155L244.753 404.739C243.566 405.35 242.251 405.669 240.916 405.669C239.581 405.669 238.266 405.35 237.08 404.739Z" fill="#263238"/>
<path d="M88.9301 305.373L237.08 390.957C238.266 391.568 239.582 391.887 240.916 391.887C242.251 391.887 243.566 391.568 244.753 390.957L392.932 305.373C395.057 304.133 395.057 302.156 392.932 300.946L244.753 218.312C243.566 217.702 242.251 217.383 240.916 217.383C239.582 217.383 238.266 217.702 237.08 218.312L88.9301 300.946C86.8052 302.156 86.8052 304.104 88.9301 305.373Z" fill="#455A64"/>
<path d="M240.975 391.813V405.654C239.639 405.684 238.317 405.369 237.139 404.739L88.9593 319.155C87.8409 318.429 86.9102 317.45 86.2434 316.295C85.5765 315.141 85.1925 313.846 85.1228 312.514V307.527C85.1887 306.342 85.5009 305.185 86.0395 304.128C86.5782 303.071 87.3314 302.138 88.2511 301.388C86.864 302.598 87.1001 304.34 88.9593 305.314L237.139 390.898C238.317 391.528 239.639 391.843 240.975 391.813Z" fill="#37474F"/>
<path d="M237.08 363.128L136.739 305.284C135.633 304.549 134.713 303.566 134.052 302.414C133.391 301.261 133.008 299.97 132.932 298.644V293.627C133.008 292.301 133.391 291.01 134.052 289.858C134.713 288.705 135.633 287.722 136.739 286.987L201.016 249.89C203.5 248.317 205.687 246.319 207.479 243.988L238.172 202.671C238.914 201.716 239.973 201.058 241.158 200.814C242.343 200.571 243.576 200.758 244.635 201.343L344.975 259.187C346.092 259.914 347.021 260.894 347.688 262.048C348.355 263.202 348.74 264.496 348.812 265.827V298.526C348.735 299.856 348.348 301.149 347.682 302.302C347.016 303.455 346.089 304.436 344.975 305.166L244.635 363.01C243.473 363.619 242.183 363.948 240.871 363.968C239.559 363.989 238.26 363.701 237.08 363.128Z" fill="#263238"/>
<path d="M244.753 349.375L309.03 312.278C311.506 310.695 313.692 308.698 315.493 306.376L346.185 265.059C346.554 264.614 346.818 264.092 346.958 263.531C347.098 262.97 347.11 262.385 346.994 261.818C346.878 261.252 346.636 260.719 346.287 260.258C345.938 259.798 345.489 259.421 344.975 259.157L244.635 201.314C243.576 200.729 242.343 200.541 241.158 200.784C239.973 201.028 238.914 201.686 238.172 202.642L207.479 243.958C205.874 246.258 203.876 248.256 201.577 249.861L136.651 286.721C136.185 286.875 135.78 287.172 135.493 287.569C135.206 287.967 135.052 288.444 135.052 288.934C135.052 289.425 135.206 289.902 135.493 290.3C135.78 290.697 136.185 290.994 136.651 291.148L236.991 349.021C238.16 349.702 239.477 350.09 240.829 350.151C242.18 350.213 243.527 349.947 244.753 349.375Z" fill="#455A64"/>
<path d="M344.975 259.393L244.635 201.55C243.576 200.965 242.343 200.777 241.158 201.02C239.973 201.264 238.914 201.923 238.172 202.878L207.479 244.194C206.54 245.381 205.493 246.477 204.351 247.47C204.351 247.47 312.217 309.77 312.247 309.74C313.387 308.757 314.435 307.671 315.375 306.494L346.067 265.177C346.419 264.742 346.671 264.235 346.808 263.692C346.944 263.149 346.961 262.583 346.857 262.033C346.753 261.483 346.531 260.962 346.206 260.506C345.881 260.05 345.461 259.671 344.975 259.393Z" fill="#37474F"/>
<path d="M161.293 288.108C162.686 287.396 164.229 287.024 165.794 287.024C167.358 287.024 168.901 287.396 170.294 288.108C170.836 288.293 171.306 288.643 171.639 289.109C171.972 289.575 172.151 290.133 172.151 290.705C172.151 291.278 171.972 291.836 171.639 292.301C171.306 292.767 170.836 293.117 170.294 293.302C168.897 294.001 167.356 294.365 165.794 294.365C164.231 294.365 162.69 294.001 161.293 293.302C160.751 293.117 160.281 292.767 159.948 292.301C159.615 291.836 159.436 291.278 159.436 290.705C159.436 290.133 159.615 289.575 159.948 289.109C160.281 288.643 160.751 288.293 161.293 288.108Z" fill="#FFAF2D"/>
<path d="M179.177 298.496C180.55 297.803 182.066 297.443 183.604 297.443C185.142 297.443 186.658 297.803 188.031 298.496C188.573 298.681 189.043 299.031 189.376 299.497C189.709 299.963 189.888 300.521 189.888 301.093C189.888 301.666 189.709 302.224 189.376 302.689C189.043 303.155 188.573 303.505 188.031 303.69C186.654 304.37 185.139 304.723 183.604 304.723C182.069 304.723 180.554 304.37 179.177 303.69C178.636 303.505 178.165 303.155 177.832 302.689C177.5 302.224 177.321 301.666 177.321 301.093C177.321 300.521 177.5 299.963 177.832 299.497C178.165 299.031 178.636 298.681 179.177 298.496Z" fill="#FFAF2D"/>
<path d="M197.15 308.855C198.528 308.18 200.042 307.829 201.577 307.829C203.111 307.829 204.625 308.18 206.004 308.855C206.545 309.04 207.015 309.39 207.348 309.856C207.681 310.321 207.86 310.88 207.86 311.452C207.86 312.025 207.681 312.583 207.348 313.048C207.015 313.514 206.545 313.864 206.004 314.049C204.629 314.737 203.114 315.096 201.577 315.096C200.04 315.096 198.524 314.737 197.15 314.049C196.608 313.864 196.138 313.514 195.805 313.048C195.472 312.583 195.293 312.025 195.293 311.452C195.293 310.88 195.472 310.321 195.805 309.856C196.138 309.39 196.608 309.04 197.15 308.855Z" fill="#263238"/>
<path d="M215.123 319.243C216.52 318.545 218.061 318.181 219.623 318.181C221.186 318.181 222.727 318.545 224.124 319.243C224.666 319.429 225.136 319.778 225.469 320.244C225.802 320.71 225.981 321.268 225.981 321.84C225.981 322.413 225.802 322.971 225.469 323.437C225.136 323.902 224.666 324.252 224.124 324.437C222.731 325.15 221.188 325.521 219.623 325.521C218.059 325.521 216.516 325.15 215.123 324.437C214.581 324.252 214.111 323.902 213.778 323.437C213.445 322.971 213.266 322.413 213.266 321.84C213.266 321.268 213.445 320.71 213.778 320.244C214.111 319.778 214.581 319.429 215.123 319.243Z" fill="#263238"/>
<path d="M174.662 280.317C176.036 279.629 177.552 279.271 179.089 279.271C180.626 279.271 182.141 279.629 183.516 280.317C184.057 280.502 184.528 280.852 184.86 281.318C185.193 281.783 185.372 282.342 185.372 282.914C185.372 283.486 185.193 284.045 184.86 284.51C184.528 284.976 184.057 285.326 183.516 285.511C182.141 286.199 180.626 286.557 179.089 286.557C177.552 286.557 176.036 286.199 174.662 285.511C174.12 285.326 173.65 284.976 173.317 284.51C172.984 284.045 172.805 283.486 172.805 282.914C172.805 282.342 172.984 281.783 173.317 281.318C173.65 280.852 174.12 280.502 174.662 280.317Z" fill="#FFAF2D"/>
<path d="M197.15 296.962C200.654 296.962 203.495 295.323 203.495 293.302C203.495 291.281 200.654 289.643 197.15 289.643C193.646 289.643 190.805 291.281 190.805 293.302C190.805 295.323 193.646 296.962 197.15 296.962Z" fill="#263238"/>
<path d="M210.637 301.152C212.011 300.464 213.527 300.106 215.064 300.106C216.601 300.106 218.116 300.464 219.491 301.152C220.036 301.33 220.511 301.675 220.848 302.139C221.185 302.603 221.367 303.161 221.367 303.735C221.367 304.308 221.185 304.867 220.848 305.331C220.511 305.795 220.036 306.14 219.491 306.317C218.116 307.005 216.601 307.363 215.064 307.363C213.527 307.363 212.011 307.005 210.637 306.317C210.092 306.14 209.616 305.795 209.279 305.331C208.942 304.867 208.761 304.308 208.761 303.735C208.761 303.161 208.942 302.603 209.279 302.139C209.616 301.675 210.092 301.33 210.637 301.152Z" fill="#FFAF2D"/>
<path d="M233.125 317.708C236.629 317.708 239.47 316.07 239.47 314.049C239.47 312.028 236.629 310.389 233.125 310.389C229.621 310.389 226.78 312.028 226.78 314.049C226.78 316.07 229.621 317.708 233.125 317.708Z" fill="#263238"/>
<path d="M188.149 272.526C189.546 271.827 191.087 271.463 192.65 271.463C194.212 271.463 195.753 271.827 197.15 272.526C197.692 272.711 198.162 273.061 198.495 273.527C198.828 273.992 199.007 274.55 199.007 275.123C199.007 275.695 198.828 276.253 198.495 276.719C198.162 277.185 197.692 277.535 197.15 277.72C195.757 278.432 194.214 278.804 192.65 278.804C191.085 278.804 189.542 278.432 188.149 277.72C187.607 277.535 187.137 277.185 186.804 276.719C186.471 276.253 186.292 275.695 186.292 275.123C186.292 274.55 186.471 273.992 186.804 273.527C187.137 273.061 187.607 272.711 188.149 272.526Z" fill="#263238"/>
<path d="M206.151 282.914C207.524 282.221 209.04 281.86 210.578 281.86C212.116 281.86 213.632 282.221 215.005 282.914C215.546 283.099 216.017 283.449 216.35 283.914C216.683 284.38 216.862 284.938 216.862 285.511C216.862 286.083 216.683 286.641 216.35 287.107C216.017 287.573 215.546 287.923 215.005 288.108C213.628 288.787 212.113 289.14 210.578 289.14C209.043 289.14 207.528 288.787 206.151 288.108C205.61 287.923 205.139 287.573 204.806 287.107C204.473 286.641 204.294 286.083 204.294 285.511C204.294 284.938 204.473 284.38 204.806 283.914C205.139 283.449 205.61 283.099 206.151 282.914Z" fill="#FFAF2D"/>
<path d="M224.124 293.302C225.498 292.614 227.014 292.256 228.551 292.256C230.087 292.256 231.603 292.614 232.977 293.302C233.519 293.487 233.989 293.837 234.322 294.303C234.655 294.769 234.834 295.327 234.834 295.899C234.834 296.472 234.655 297.03 234.322 297.495C233.989 297.961 233.519 298.311 232.977 298.496C231.599 299.171 230.085 299.522 228.551 299.522C227.016 299.522 225.502 299.171 224.124 298.496C223.582 298.311 223.112 297.961 222.779 297.495C222.446 297.03 222.267 296.472 222.267 295.899C222.267 295.327 222.446 294.769 222.779 294.303C223.112 293.837 223.582 293.487 224.124 293.302Z" fill="#263238"/>
<path d="M233.213 329.424C234.588 328.736 236.103 328.378 237.64 328.378C239.177 328.378 240.693 328.736 242.067 329.424C242.609 329.61 243.079 329.959 243.412 330.425C243.745 330.891 243.924 331.449 243.924 332.021C243.924 332.594 243.745 333.152 243.412 333.618C243.079 334.083 242.609 334.433 242.067 334.618C240.689 335.293 239.175 335.644 237.64 335.644C236.106 335.644 234.591 335.293 233.213 334.618C232.672 334.433 232.201 334.083 231.869 333.618C231.536 333.152 231.357 332.594 231.357 332.021C231.357 331.449 231.536 330.891 231.869 330.425C232.201 329.959 232.672 329.61 233.213 329.424Z" fill="#FFAF2D"/>
<path d="M246.701 321.634C248.079 320.959 249.593 320.608 251.127 320.608C252.662 320.608 254.176 320.959 255.554 321.634C256.096 321.819 256.566 322.169 256.899 322.634C257.232 323.1 257.411 323.658 257.411 324.231C257.411 324.803 257.232 325.361 256.899 325.827C256.566 326.293 256.096 326.643 255.554 326.828C254.18 327.516 252.664 327.874 251.127 327.874C249.59 327.874 248.075 327.516 246.701 326.828C246.159 326.643 245.689 326.293 245.356 325.827C245.023 325.361 244.844 324.803 244.844 324.231C244.844 323.658 245.023 323.1 245.356 322.634C245.689 322.169 246.159 321.819 246.701 321.634Z" fill="#263238"/>
<path d="M242.097 303.69C243.49 302.978 245.032 302.607 246.597 302.607C248.162 302.607 249.704 302.978 251.098 303.69C251.639 303.876 252.11 304.226 252.443 304.691C252.775 305.157 252.954 305.715 252.954 306.288C252.954 306.86 252.775 307.418 252.443 307.884C252.11 308.349 251.639 308.699 251.098 308.885C249.7 309.583 248.159 309.947 246.597 309.947C245.035 309.947 243.494 309.583 242.097 308.885C241.555 308.699 241.085 308.349 240.752 307.884C240.419 307.418 240.24 306.86 240.24 306.288C240.24 305.715 240.419 305.157 240.752 304.691C241.085 304.226 241.555 303.876 242.097 303.69Z" fill="#263238"/>
<path d="M206.151 271.021C209.655 271.021 212.496 269.382 212.496 267.361C212.496 265.34 209.655 263.702 206.151 263.702C202.647 263.702 199.806 265.34 199.806 267.361C199.806 269.382 202.647 271.021 206.151 271.021Z" fill="#FFAF2D"/>
<path d="M219.638 275.123C221.015 274.444 222.53 274.09 224.065 274.09C225.6 274.09 227.115 274.444 228.492 275.123C229.033 275.308 229.504 275.658 229.837 276.124C230.17 276.589 230.349 277.148 230.349 277.72C230.349 278.293 230.17 278.851 229.837 279.316C229.504 279.782 229.033 280.132 228.492 280.317C227.119 281.01 225.603 281.371 224.065 281.371C222.527 281.371 221.011 281.01 219.638 280.317C217.13 278.901 217.13 276.569 219.638 275.123Z" fill="#263238"/>
<path d="M242.097 291.767C245.601 291.767 248.442 290.129 248.442 288.108C248.442 286.087 245.601 284.448 242.097 284.448C238.592 284.448 235.752 286.087 235.752 288.108C235.752 290.129 238.592 291.767 242.097 291.767Z" fill="#FFAF2D"/>
<path d="M255.731 295.899C257.105 295.211 258.621 294.853 260.158 294.853C261.695 294.853 263.211 295.211 264.585 295.899C265.126 296.084 265.597 296.434 265.93 296.9C266.263 297.366 266.442 297.924 266.442 298.496C266.442 299.069 266.263 299.627 265.93 300.093C265.597 300.558 265.126 300.908 264.585 301.093C263.207 301.768 261.692 302.119 260.158 302.119C258.623 302.119 257.109 301.768 255.731 301.093C255.189 300.908 254.719 300.558 254.386 300.093C254.053 299.627 253.874 299.069 253.874 298.496C253.874 297.924 254.053 297.366 254.386 296.9C254.719 296.434 255.189 296.084 255.731 295.899Z" fill="#263238"/>
<path d="M260.187 313.872C261.561 313.184 263.077 312.826 264.614 312.826C266.151 312.826 267.667 313.184 269.041 313.872C269.586 314.049 270.061 314.395 270.399 314.858C270.736 315.322 270.917 315.881 270.917 316.454C270.917 317.028 270.736 317.587 270.399 318.05C270.061 318.514 269.586 318.86 269.041 319.037C267.667 319.725 266.151 320.083 264.614 320.083C263.077 320.083 261.561 319.725 260.187 319.037C259.642 318.86 259.167 318.514 258.83 318.05C258.492 317.587 258.311 317.028 258.311 316.454C258.311 315.881 258.492 315.322 258.83 314.858C259.167 314.395 259.642 314.049 260.187 313.872Z" fill="#FFAF2D"/>
<path d="M278.16 312.337C281.665 312.337 284.505 310.699 284.505 308.678C284.505 306.657 281.665 305.018 278.16 305.018C274.656 305.018 271.815 306.657 271.815 308.678C271.815 310.699 274.656 312.337 278.16 312.337Z" fill="#263238"/>
<path d="M241.152 350.29V364.101C239.75 364.169 238.355 363.863 237.109 363.216L136.769 305.343C135.65 304.618 134.72 303.638 134.053 302.484C133.386 301.33 133.002 300.034 132.932 298.703V293.715C132.998 292.531 133.31 291.373 133.849 290.316C134.388 289.259 135.141 288.326 136.06 287.577C134.673 288.787 134.909 290.528 136.769 291.502L237.109 349.375C238.352 350.032 239.747 350.348 241.152 350.29Z" fill="#37474F"/>
<path d="M220.848 242.483C221.34 241.843 222.047 241.401 222.838 241.238C223.629 241.076 224.452 241.203 225.157 241.597L312.394 291.945C312.719 292.125 313.001 292.375 313.221 292.675C313.44 292.976 313.592 293.321 313.665 293.685C313.738 294.05 313.73 294.427 313.644 294.789C313.557 295.151 313.392 295.489 313.161 295.781V295.929C312.662 296.559 311.956 296.993 311.168 297.155C310.38 297.317 309.56 297.196 308.853 296.814L221.645 246.467C221.298 246.288 220.995 246.034 220.76 245.722C220.525 245.41 220.363 245.05 220.286 244.667C220.21 244.284 220.221 243.889 220.318 243.511C220.415 243.132 220.596 242.781 220.848 242.483Z" fill="#263238"/>
<path d="M220.848 242.483C221.341 241.843 222.047 241.401 222.838 241.238C223.629 241.076 224.452 241.203 225.157 241.597L290.083 279.018L286.483 283.888L221.557 246.467C221.216 246.28 220.922 246.019 220.696 245.704C220.469 245.389 220.316 245.027 220.248 244.644C220.181 244.262 220.199 243.869 220.303 243.495C220.407 243.121 220.593 242.775 220.848 242.483Z" fill="#FFAF2D"/>
<path d="M228.078 232.803C228.571 232.163 229.277 231.721 230.068 231.559C230.859 231.396 231.682 231.523 232.387 231.918L319.595 282.265C319.922 282.443 320.207 282.69 320.43 282.99C320.652 283.289 320.807 283.633 320.882 283.999C320.958 284.364 320.954 284.741 320.869 285.104C320.784 285.467 320.621 285.808 320.392 286.101C319.887 286.734 319.176 287.169 318.383 287.331C317.59 287.493 316.766 287.371 316.053 286.987L228.875 236.669C228.547 236.488 228.262 236.238 228.039 235.936C227.817 235.634 227.662 235.287 227.587 234.92C227.511 234.552 227.516 234.173 227.601 233.807C227.685 233.442 227.848 233.099 228.078 232.803Z" fill="#263238"/>
<path d="M228.078 232.803C228.571 232.163 229.277 231.721 230.068 231.559C230.859 231.396 231.682 231.523 232.387 231.918L254.049 244.431L250.448 249.271L228.787 236.787C228.446 236.6 228.152 236.34 227.926 236.024C227.699 235.709 227.547 235.347 227.479 234.965C227.411 234.582 227.429 234.19 227.533 233.816C227.637 233.442 227.823 233.096 228.078 232.803Z" fill="#FFAF2D"/>
<path d="M235.279 223.152C235.768 222.507 236.472 222.06 237.263 221.892C238.055 221.724 238.88 221.846 239.588 222.237L326.796 272.585C327.124 272.766 327.409 273.016 327.632 273.318C327.854 273.62 328.009 273.967 328.084 274.334C328.16 274.702 328.155 275.081 328.071 275.446C327.986 275.812 327.823 276.154 327.593 276.451C327.093 277.081 326.387 277.515 325.599 277.677C324.811 277.839 323.992 277.718 323.284 277.336L236.076 226.989C235.749 226.811 235.464 226.563 235.241 226.264C235.019 225.965 234.864 225.62 234.789 225.255C234.713 224.89 234.717 224.513 234.802 224.15C234.887 223.787 235.05 223.446 235.279 223.152Z" fill="#263238"/>
<path d="M235.279 223.152C235.767 222.507 236.472 222.06 237.263 221.892C238.054 221.724 238.88 221.846 239.588 222.237L285.243 248.267L281.642 253.107L236.224 226.989C235.884 226.824 235.585 226.587 235.348 226.294C235.111 226 234.941 225.659 234.851 225.292C234.76 224.926 234.752 224.544 234.826 224.175C234.9 223.805 235.055 223.456 235.279 223.152Z" fill="#FFAF2D"/>
<path d="M242.48 213.473C242.972 212.833 243.676 212.389 244.466 212.221C245.256 212.054 246.079 212.173 246.789 212.558L334.115 262.787C334.44 262.968 334.722 263.217 334.942 263.518C335.161 263.818 335.312 264.163 335.385 264.528C335.458 264.893 335.451 265.269 335.364 265.631C335.277 265.993 335.113 266.332 334.882 266.624C334.39 267.264 333.684 267.705 332.892 267.868C332.101 268.03 331.278 267.903 330.573 267.509L243.366 217.162C243.053 216.989 242.78 216.754 242.563 216.47C242.347 216.186 242.192 215.86 242.109 215.512C242.026 215.165 242.016 214.805 242.08 214.453C242.144 214.102 242.28 213.768 242.48 213.473Z" fill="#263238"/>
<path d="M242.48 213.473C242.972 212.833 243.676 212.389 244.466 212.221C245.256 212.054 246.079 212.173 246.789 212.558L325.969 258.272L322.339 263.112L243.188 217.427C242.849 217.244 242.555 216.986 242.328 216.673C242.102 216.361 241.949 216.001 241.881 215.621C241.813 215.241 241.831 214.85 241.935 214.478C242.039 214.106 242.225 213.763 242.48 213.473Z" fill="#FFAF2D"/>
<path d="M646.823 778.655V940.292C646.858 940.956 647.05 941.601 647.383 942.176C647.717 942.751 648.182 943.238 648.741 943.597L803.679 1033.05C804.272 1033.35 804.93 1033.51 805.597 1033.51C806.264 1033.51 806.922 1033.35 807.515 1033.05L812.68 1030.1C813.233 1029.72 813.693 1029.23 814.026 1028.65C814.358 1028.07 814.554 1027.43 814.598 1026.76V865.007C814.59 864.422 814.355 863.864 813.941 863.45C813.528 863.037 812.969 862.801 812.385 862.794L649.036 776.442C648.452 776.45 647.893 776.685 647.48 777.099C647.066 777.512 646.831 778.071 646.823 778.655Z" fill="#FAFAFA"/>
<path d="M812.384 862.794H807.81C807.223 862.794 806.66 863.027 806.245 863.442C805.83 863.857 805.597 864.42 805.597 865.007V1031.84C805.597 1033.05 806.453 1033.55 807.515 1032.93L812.68 1029.98C813.233 1029.61 813.693 1029.11 814.026 1028.53C814.358 1027.96 814.554 1027.31 814.598 1026.64V865.007C814.59 864.423 814.354 863.864 813.941 863.451C813.528 863.037 812.969 862.802 812.384 862.794Z" fill="#F5F5F5"/>
<path d="M631.714 773.579V772.074C631.788 770.744 632.174 769.45 632.841 768.297C633.507 767.143 634.435 766.163 635.55 765.434L960.565 577.797C961.746 577.187 963.057 576.868 964.387 576.868C965.717 576.868 967.027 577.187 968.209 577.797L1140.38 677.164C1141.49 677.898 1142.42 678.88 1143.08 680.032C1143.75 681.184 1144.14 682.476 1144.22 683.804V685.339C1144.14 686.669 1143.76 687.963 1143.09 689.116C1142.42 690.27 1141.5 691.25 1140.38 691.979L815.366 879.586C814.185 880.197 812.874 880.515 811.545 880.515C810.215 880.515 808.904 880.197 807.723 879.586L635.55 780.219C634.435 779.491 633.507 778.51 632.841 777.357C632.174 776.203 631.788 774.909 631.714 773.579Z" fill="#F5F5F5"/>
<path d="M811.558 870.172V880.56C810.178 880.578 808.817 880.243 807.603 879.586L635.461 780.19C634.344 779.463 633.414 778.483 632.748 777.329C632.081 776.175 631.696 774.881 631.624 773.55V772.015C631.686 770.83 631.997 769.671 632.536 768.614C633.075 767.556 633.83 766.624 634.752 765.877C633.365 767.057 633.601 768.828 635.461 769.802L807.603 869.257C808.817 869.907 810.182 870.223 811.558 870.172Z" fill="#EBEBEB"/>
<path d="M635.549 769.861L807.604 869.227C808.785 869.838 810.096 870.157 811.425 870.157C812.755 870.157 814.066 869.838 815.247 869.227L1140.26 681.591C1140.73 681.437 1141.13 681.14 1141.42 680.743C1141.71 680.345 1141.86 679.867 1141.86 679.377C1141.86 678.887 1141.71 678.409 1141.42 678.012C1141.13 677.615 1140.73 677.318 1140.26 677.164L968.089 577.797C966.908 577.187 965.597 576.868 964.267 576.868C962.938 576.868 961.627 577.187 960.446 577.797L635.549 765.434C635.084 765.588 634.679 765.885 634.392 766.282C634.105 766.679 633.95 767.157 633.95 767.647C633.95 768.138 634.105 768.615 634.392 769.013C634.679 769.41 635.084 769.707 635.549 769.861Z" fill="#FAFAFA"/>
<path d="M930.284 665.536L919.955 659.634C919.65 659.526 919.385 659.327 919.198 659.062C919.011 658.798 918.91 658.482 918.91 658.158C918.91 657.834 919.011 657.518 919.198 657.254C919.385 656.99 919.65 656.79 919.955 656.683L1000.85 609.995C1001.15 609.887 1001.42 609.688 1001.6 609.423C1001.79 609.159 1001.89 608.843 1001.89 608.519C1001.89 608.195 1001.79 607.879 1001.6 607.615C1001.42 607.351 1001.15 607.151 1000.85 607.044L1000.02 606.542C999.22 606.155 998.343 605.954 997.454 605.954C996.564 605.954 995.687 606.155 994.886 606.542L916.207 651.813C914.82 652.64 913.492 652.699 913.463 651.961C913.403 651.51 913.403 651.054 913.463 650.603L917.919 627.525C918.038 626.685 917.913 625.829 917.556 625.059C917.2 624.29 916.629 623.639 915.912 623.187L915.086 622.715C914.806 622.508 914.476 622.38 914.13 622.344C913.785 622.308 913.435 622.366 913.119 622.51C912.803 622.655 912.531 622.881 912.332 623.166C912.133 623.451 912.014 623.784 911.987 624.131L906.852 650.928C906.678 651.904 906.678 652.903 906.852 653.879C907.008 654.709 906.914 655.567 906.584 656.344C906.253 657.122 905.699 657.784 904.993 658.247L855.944 686.578C854.527 687.375 854.527 688.703 855.944 689.529L856.77 690.002C857.565 690.408 858.445 690.62 859.338 690.62C860.231 690.62 861.111 690.408 861.905 690.002L908.77 662.939C909.623 662.359 910.558 661.912 911.544 661.611H911.751L927.687 670.819C928.477 671.225 929.352 671.437 930.24 671.437C931.128 671.437 932.003 671.225 932.793 670.819L966.141 651.636C967.558 650.81 968.03 649.777 967.204 649.305C966.513 649.091 965.786 649.018 965.067 649.089C964.347 649.16 963.649 649.373 963.013 649.718L932.911 664.208C931.553 665.005 930.314 665.566 930.284 665.536Z" fill="#EBEBEB"/>
<path d="M998.31 469.371C999.184 469.969 999.907 470.764 1000.42 471.691C1000.93 472.619 1001.22 473.654 1001.26 474.713V583.434C1001.2 584.529 1000.88 585.593 1000.34 586.542C999.787 587.491 999.022 588.297 998.103 588.894L862.614 667.101C861.702 667.68 860.649 667.997 859.569 668.019C858.489 668.041 857.424 667.766 856.489 667.224C855.555 666.682 854.787 665.894 854.269 664.946C853.752 663.998 853.504 662.926 853.554 661.847V553.244C853.613 552.149 853.93 551.085 854.479 550.136C855.028 549.187 855.793 548.381 856.711 547.784L992.201 469.548C993.133 469.041 994.172 468.76 995.234 468.729C996.295 468.699 997.349 468.918 998.31 469.371Z" fill="#455A64"/>
<path d="M862.614 667.1C861.702 667.679 860.649 667.997 859.569 668.019C858.489 668.041 857.424 667.766 856.489 667.224C855.555 666.682 854.787 665.894 854.269 664.946C853.752 663.998 853.504 662.926 853.554 661.847V553.243C853.615 552.2 853.929 551.188 854.468 550.292L959.914 611.028L862.614 667.1Z" fill="#263238"/>
<path d="M1001.26 583.494V474.772C1001.26 472.765 999.844 471.821 998.103 472.971L862.614 551.207C861.697 551.8 860.934 552.601 860.385 553.545C859.836 554.488 859.518 555.548 859.456 556.638V665.36C859.456 667.366 860.873 668.311 862.614 667.189L998.103 588.953C999.022 588.356 999.786 587.55 1000.34 586.601C1000.88 585.653 1001.2 584.588 1001.26 583.494Z" fill="#37474F"/>
<path d="M993.529 479.021L864.916 553.273C864.178 553.742 863.562 554.38 863.121 555.135C862.68 555.889 862.425 556.738 862.378 557.611V654.145C862.378 655.738 863.499 656.417 864.916 655.591L993.529 581.516C994.262 581.038 994.871 580.392 995.307 579.633C995.743 578.874 995.993 578.023 996.037 577.148V480.644C996.067 478.874 994.945 478.224 993.529 479.021Z" fill="white"/>
<path d="M813.742 831.158L737.454 787.126C736.339 786.397 735.41 785.417 734.744 784.263C734.078 783.11 733.692 781.816 733.617 780.486V733.975C733.687 732.644 734.071 731.348 734.738 730.194C735.405 729.04 736.335 728.06 737.454 727.335L789.719 697.174C790.906 696.563 792.221 696.244 793.556 696.244C794.89 696.244 796.206 696.563 797.392 697.174L873.622 741.176C874.74 741.901 875.671 742.881 876.338 744.035C877.004 745.189 877.388 746.485 877.458 747.816V794.327C877.388 795.658 877.004 796.954 876.338 798.108C875.671 799.262 874.74 800.242 873.622 800.967L821.386 831.128C820.203 831.732 818.895 832.049 817.567 832.054C816.24 832.059 814.929 831.752 813.742 831.158Z" fill="#263238"/>
<path d="M821.386 775.763L873.622 745.602C874.087 745.448 874.492 745.151 874.779 744.754C875.066 744.357 875.221 743.879 875.221 743.389C875.221 742.898 875.066 742.421 874.779 742.023C874.492 741.626 874.087 741.329 873.622 741.175L797.392 697.173C796.206 696.562 794.891 696.243 793.556 696.243C792.221 696.243 790.906 696.562 789.719 697.173L737.454 727.334C736.988 727.488 736.583 727.785 736.296 728.182C736.009 728.58 735.855 729.057 735.855 729.548C735.855 730.038 736.009 730.516 736.296 730.913C736.583 731.31 736.988 731.607 737.454 731.761L813.713 775.793C814.904 776.392 816.219 776.702 817.553 776.697C818.886 776.692 820.199 776.372 821.386 775.763Z" fill="#455A64"/>
<path d="M817.578 776.708V832.072C816.244 832.088 814.926 831.774 813.742 831.157L737.483 787.155C736.366 786.428 735.437 785.448 734.77 784.294C734.104 783.14 733.719 781.845 733.647 780.514V733.974C733.725 732.844 734.026 731.741 734.533 730.728C735.039 729.715 735.741 728.813 736.598 728.072C735.535 729.282 735.831 730.757 737.542 731.761L813.83 775.793C814.986 776.399 816.273 776.713 817.578 776.708Z" fill="#37474F"/>
<path d="M756.548 730.138C757.329 729.739 758.194 729.531 759.071 729.531C759.949 729.531 760.813 729.739 761.595 730.138L816.457 761.804C817.844 762.631 817.903 763.959 816.457 764.755C815.682 765.157 814.822 765.366 813.949 765.366C813.076 765.366 812.216 765.157 811.44 764.755L756.607 733.119C755.22 732.263 755.191 730.964 756.548 730.138Z" fill="#37474F"/>
<path d="M756.548 730.138C757.329 729.739 758.194 729.531 759.071 729.531C759.948 729.531 760.813 729.739 761.594 730.138L794.972 749.409L790.014 752.36L756.636 733.089C755.22 732.263 755.19 730.964 756.548 730.138Z" fill="#FFAF2D"/>
<path d="M766.051 724.649C766.832 724.25 767.697 724.042 768.574 724.042C769.451 724.042 770.316 724.25 771.097 724.649L825.93 756.286C827.347 757.112 827.377 758.44 825.93 759.237C825.155 759.638 824.295 759.847 823.422 759.847C822.549 759.847 821.689 759.638 820.914 759.237L766.287 727.6C764.723 726.774 764.693 725.475 766.051 724.649Z" fill="#37474F"/>
<path d="M766.051 724.649C766.832 724.25 767.697 724.042 768.574 724.042C769.451 724.042 770.316 724.25 771.097 724.649L775.583 727.216L770.596 730.168L766.287 727.6C764.723 726.774 764.693 725.475 766.051 724.649Z" fill="#FFAF2D"/>
<path d="M775.583 719.16C776.358 718.758 777.219 718.549 778.092 718.549C778.965 718.549 779.825 718.758 780.6 719.16L835.433 750.796C836.85 751.623 836.879 752.951 835.433 753.747C834.652 754.146 833.787 754.354 832.91 754.354C832.033 754.354 831.168 754.146 830.387 753.747L775.554 722.111C774.226 721.284 774.196 719.986 775.583 719.16Z" fill="#37474F"/>
<path d="M775.583 719.16C776.359 718.758 777.219 718.549 778.092 718.549C778.965 718.549 779.825 718.758 780.6 719.16L799.99 730.344L795.032 733.296L775.642 722.111C774.226 721.284 774.196 719.986 775.583 719.16Z" fill="#FFAF2D"/>
<path d="M785.086 713.67C785.861 713.269 786.722 713.06 787.595 713.06C788.467 713.06 789.328 713.269 790.103 713.67L844.936 745.307C846.353 746.133 846.382 747.432 844.936 748.258C844.155 748.657 843.29 748.865 842.413 748.865C841.536 748.865 840.671 748.657 839.89 748.258L785.056 716.621C783.758 715.795 783.699 714.497 785.086 713.67Z" fill="#37474F"/>
<path d="M785.086 713.67C785.861 713.269 786.722 713.06 787.594 713.06C788.467 713.06 789.328 713.269 790.103 713.67L829.383 736.335L824.425 739.286L785.145 716.621C783.758 715.795 783.699 714.497 785.086 713.67Z" fill="#FFAF2D"/>
<path d="M794.589 708.181C795.37 707.782 796.235 707.574 797.112 707.574C797.99 707.574 798.854 707.782 799.635 708.181L854.469 739.818C855.856 740.644 855.885 741.943 854.469 742.769C853.687 743.168 852.823 743.376 851.945 743.376C851.068 743.376 850.203 743.168 849.422 742.769L794.619 711.132C793.261 710.306 793.231 708.978 794.589 708.181Z" fill="#37474F"/>
<path d="M794.589 708.181C795.37 707.782 796.235 707.574 797.112 707.574C797.989 707.574 798.854 707.782 799.635 708.181L848.92 736.689L843.962 739.641L794.589 711.162C793.261 710.306 793.231 708.978 794.589 708.181Z" fill="#FFAF2D"/>
<path d="M823.54 816.017V806.573C823.524 805.392 823.782 804.222 824.294 803.157C824.806 802.092 825.558 801.16 826.491 800.435C828.144 799.461 829.442 800.671 829.442 803.121V812.535C829.461 813.721 829.204 814.895 828.692 815.966C828.18 817.036 827.426 817.973 826.491 818.703C824.898 819.647 823.54 818.437 823.54 816.017Z" fill="#37474F"/>
<path d="M826.698 801.852C826.112 802.218 825.623 802.72 825.274 803.317C824.924 803.913 824.724 804.585 824.691 805.275C824.691 806.544 825.576 807.046 826.698 806.426C827.276 806.046 827.756 805.536 828.1 804.936C828.443 804.336 828.64 803.664 828.675 802.973C828.675 801.734 827.79 801.202 826.698 801.852Z" fill="#FFAF2D"/>
<path d="M833.013 810.587V801.144C832.995 799.961 833.252 798.791 833.764 797.726C834.277 796.66 835.03 795.729 835.965 795.005C837.617 794.031 838.916 795.241 838.916 797.691V807.105C838.932 808.291 838.674 809.464 838.162 810.534C837.65 811.604 836.898 812.541 835.965 813.273C834.341 814.217 833.013 813.007 833.013 810.587Z" fill="#37474F"/>
<path d="M835.994 807.282C835.417 807.655 834.936 808.16 834.593 808.755C834.249 809.35 834.052 810.019 834.017 810.705C834.017 811.974 834.902 812.476 835.994 811.856C836.574 811.476 837.058 810.967 837.406 810.367C837.754 809.768 837.958 809.095 838.001 808.403C838.001 807.134 837.115 806.633 835.994 807.282Z" fill="#FFAF2D"/>
<path d="M960.593 958.973C961.744 960.478 961.921 963.931 963.072 968.564C964.086 970.569 964.592 972.793 964.544 975.04C964.496 977.286 963.895 979.486 962.796 981.446C961.697 983.406 960.132 985.065 958.239 986.277C956.347 987.489 954.186 988.217 951.946 988.396C945.808 990.314 938.252 988.721 930.963 984.353C923.674 979.985 918.125 974.673 907.737 971.722C897.349 968.771 892.125 966.351 887.079 962.396C881.176 957.763 877.606 950.828 888.614 947.876C899.621 944.925 919.69 949.5 941.499 950.444L960.593 958.973Z" fill="#263238"/>
</svg>
