<svg width="369" height="47" viewBox="0 0 369 47" fill="none" xmlns="http://www.w3.org/2000/svg">
<path d="M21.152 1.2H0.16V46H8.864V32.304H20.768C31.072 32.304 36.704 24.304 36.704 16.752C36.704 9.328 31.008 1.2 21.152 1.2ZM20.512 24.496H8.864V9.136H20.896C25.184 9.136 28.192 12.848 28.192 16.816C28.192 20.72 25.248 24.496 20.512 24.496ZM78.384 9.136V1.2H45.36V46H78.32V38.064H53.936V27.056H75.12V19.376H53.936V9.136H78.384ZM124.271 1.2H85.4225V9.136H100.463V46H109.231V9.136H124.271V1.2ZM160.989 46H171.101L159.965 29.424C166.301 27.248 169.757 21.68 169.757 15.792C169.757 8.688 164.125 1.2 154.397 1.2H132.573V46H141.277V30.32H150.813L160.989 46ZM141.277 9.072H154.141C158.301 9.072 161.245 12.208 161.245 15.792C161.245 19.504 158.365 22.64 153.821 22.64H141.277V9.072ZM201.344 46.896C214.848 46.896 224.832 36.784 224.832 23.536C224.832 10.352 214.848 0.303997 201.344 0.303997C187.776 0.303997 177.792 10.352 177.792 23.536C177.792 36.784 187.776 46.896 201.344 46.896ZM201.344 38.768C192.448 38.768 186.688 32.112 186.688 23.536C186.688 15.152 192.448 8.432 201.344 8.432C210.176 8.432 216 15.152 216 23.536C216 32.112 210.176 38.768 201.344 38.768ZM264.233 1.2V30.256L241.705 1.2H234.473V46H243.241V16.88L265.769 46H273.001V1.2H264.233ZM317.252 46H326.404L309.188 1.2H297.796L280.644 46H289.732L293.444 36.272H313.604L317.252 46ZM296.324 28.528L303.492 9.584L310.66 28.528H296.324ZM350.551 46.896C361.303 46.896 368.471 40.688 368.471 33.008C368.471 25.712 363.287 22.832 356.439 20.72L345.303 17.136C342.359 16.24 341.015 14.896 341.015 12.912C341.015 10.288 343.831 8.048 348.247 8.048C353.303 8.048 357.463 10.544 359.319 14.192L367.447 11.824C365.015 5.616 357.847 0.303997 348.183 0.303997C338.839 0.303997 332.055 6.192 332.119 13.168C332.055 18.928 336.343 22.704 342.231 24.56L353.687 28.144C357.975 29.552 359.575 31.152 359.575 33.52C359.575 36.464 356.311 39.152 351.063 39.152C344.599 39.152 340.055 35.44 338.263 30.768L329.879 33.328C332.375 40.304 339.607 46.896 350.551 46.896Z" fill="white"/>
</svg>
