<svg width="416" height="366" viewBox="0 0 416 366" fill="none" xmlns="http://www.w3.org/2000/svg"><path d="M164.711 365.87L-2 269.618v11.763L144.57 366h20.366l-.225-.13zm35.055.13H179.4L-2 261.27v-11.763L199.541 365.87l.225.13zm-69.665 0h-20.366L-2 301.492v-11.763l131.876 76.141.225.13zm-27.526-64.551L207 241.159v-11.763l-.075.043-104.425 60.29L-2 229.396v11.763l104.5 60.333.075-.043zm-.075-40.179L-2 200.937v-11.763l104.5 60.333 104.425-60.29.075-.043v11.762l-104.425 60.291-.075.043zm0 20.111L-2 221.048v-11.763l104.5 60.333 104.425-60.29.075-.044v11.764l-104.425 60.29-.075.043zm271.211 84.489L207 269.618v11.763L353.57 366h20.366l-.225-.13zm35.055.13H388.4L207 261.27v-11.763L408.541 365.87l.225.13zm-69.665 0h-20.366L207 301.492v-11.763l131.876 76.141.225.13z" fill="#D6EBFF"/><path d="M311.575 301.449L416 241.159v-11.763l-.075.043-104.425 60.29L207 229.396v11.763l104.5 60.333.075-.043zm-.075-40.179L207 200.937v-11.763l104.5 60.333 104.425-60.29.075-.043v11.762l-104.425 60.291-.075.043zm0 20.111L207 221.048v-11.763l104.5 60.333 104.425-60.29.075-.044v11.764l-104.425 60.29-.075.043z" fill="#D6EBFF"/><path d="M207.74 66.361a.742.742 0 00-.456-.684.741.741 0 00-.967.967.738.738 0 001.206.24.739.739 0 00.217-.523zm0 60.333a.736.736 0 00-.457-.683.735.735 0 00-.806.16.745.745 0 00-.203.379.746.746 0 00.315.76.744.744 0 00.935-.092.745.745 0 00.216-.524zm0-70.388a.742.742 0 00-.456-.684.742.742 0 00-1.01.539.745.745 0 00.315.76.741.741 0 001.151-.615zm0-10.056a.735.735 0 00-.457-.684.738.738 0 00-.966.967.737.737 0 00.967.4.752.752 0 00.4-.4.744.744 0 00.056-.283zm0 30.167a.742.742 0 00-.456-.684.74.74 0 10.456.684zm0 10.055a.735.735 0 00-.457-.683.738.738 0 00-.966.967.737.737 0 00.967.4.75.75 0 00.4-.4.744.744 0 00.056-.284zm0 10.056a.735.735 0 00-.457-.684.739.739 0 10.457.684zm0 20.111a.743.743 0 00-.456-.684.746.746 0 00-.807.161.745.745 0 00-.203.378.746.746 0 00.315.76.736.736 0 00.934-.092.74.74 0 00.217-.523zm0-10.055a.744.744 0 00-.456-.684.74.74 0 10.456.684zm0 70.388a.736.736 0 00-.457-.683.735.735 0 00-.806.16.745.745 0 00-.203.379.747.747 0 00.315.76.743.743 0 001.095-.333.74.74 0 00.056-.283zm0-170.944a.735.735 0 00-.457-.684.738.738 0 00-.966.967.737.737 0 00.967.4.751.751 0 00.4-.4.744.744 0 00.056-.283zm0 10.056a.742.742 0 00-.456-.684.74.74 0 10.456.684zm0 140.777a.743.743 0 00-.456-.684.746.746 0 00-.807.161.743.743 0 00.523 1.263.738.738 0 00.74-.74zm0 10.056a.743.743 0 00-.456-.684.738.738 0 00-.807.16.752.752 0 00-.203.379.746.746 0 00.315.76.738.738 0 001.151-.615zm0-20.111a.744.744 0 00-.456-.684.738.738 0 00-.807.16.748.748 0 00-.203.379.747.747 0 00.315.76.743.743 0 00.934-.092.74.74 0 00.217-.523zm0-120.667a.742.742 0 00-.456-.684.742.742 0 00-1.01.54.745.745 0 00.315.76.741.741 0 001.151-.616zm0 10.055a.735.735 0 00-.457-.683.74.74 0 10.457.683zm0 100.556a.736.736 0 00-.457-.684.744.744 0 00-1.009.54.743.743 0 00.726.884.749.749 0 00.524-.217.737.737 0 00.216-.523zm-209 0a.742.742 0 00-1.263-.523.74.74 0 101.263.523zm0-20.111a.741.741 0 10-1.482 0 .741.741 0 001.482 0zm0-10.056a.74.74 0 10-1.482 0 .74.74 0 001.482 0zm0 20.111a.742.742 0 00-1.263-.523.744.744 0 00-.16.807.74.74 0 001.423-.284zm0 30.167a.741.741 0 10-1.482 0 .741.741 0 001.482 0zm0-10.055a.742.742 0 00-.456-.684.736.736 0 00-.807.16.74.74 0 101.263.524zm0-120.667a.74.74 0 10-1.48 0 .74.74 0 001.48 0zm0 140.778a.741.741 0 10-1.482 0 .741.741 0 001.482 0zm0-130.723a.74.74 0 10-1.48 0 .74.74 0 001.48 0zm0-30.166a.74.74 0 10-1.48 0 .74.74 0 001.48 0zm0 40.222a.74.74 0 10-1.48 0 .74.74 0 001.48 0zm0-30.166a.74.74 0 10-1.48-.001.74.74 0 001.48 0zm0 70.388a.74.74 0 10-1.48 0 .74.74 0 001.48 0zm0 10.056a.74.74 0 10-1.48 0 .74.74 0 001.48 0zm0 80.444a.741.741 0 00-1.263-.523.744.744 0 00-.16.807.745.745 0 00.683.456.744.744 0 00.684-.457.736.736 0 00.056-.283zm0-110.61a.74.74 0 10-1.48-.001.74.74 0 001.48 0zm0-10.056a.74.74 0 10-1.48 0 .74.74 0 001.48 0zm0 20.111a.74.74 0 10-1.48 0 .74.74 0 001.48 0zM197.552 182a.74.74 0 101.481.002.74.74 0 00-1.481-.002zm-85.604 0a.743.743 0 00-.457-.684.752.752 0 00-.427-.042.74.74 0 10.884.726zm-52.25 0a.742.742 0 00-1.263-.523.74.74 0 101.264.523zm-52.25 0a.741.741 0 00-1.263-.523.74.74 0 101.263.523zm87.084 0a.742.742 0 00-1.263-.523.736.736 0 00-.16.806.734.734 0 00.683.457.744.744 0 00.684-.457.74.74 0 00.056-.283zm52.25 0a.744.744 0 00-.457-.684.754.754 0 00-.428-.042.74.74 0 10.885.726zm-69.667 0a.741.741 0 00-1.263-.523.74.74 0 101.263.523zm-52.25 0a.741.741 0 00-1.263-.523.74.74 0 101.263.523zm156.75 0a.744.744 0 00-.457-.684.737.737 0 00-.806.161.745.745 0 00-.161.807.743.743 0 00.967.4.739.739 0 00.457-.684zm-17.417 0a.743.743 0 00-.457-.684.752.752 0 00-.427-.042.74.74 0 10.884.726zm-34.833 0a.736.736 0 00-.457-.684.744.744 0 00-1.009.54.743.743 0 00.726.884.74.74 0 00.74-.74zm-87.083 0a.742.742 0 00-1.263-.523.736.736 0 00-.16.806.734.734 0 00.683.457.744.744 0 00.684-.457.74.74 0 00.056-.283zm95.791-125.694a.734.734 0 00-.456-.684.741.741 0 00-.967.967.743.743 0 00.683.456.741.741 0 00.74-.74zM24.865 61.334a.74.74 0 10-1.479-.001.74.74 0 001.48 0zm17.417 0a.74.74 0 10-1.48 0 .74.74 0 001.48 0zm-34.834 0a.74.74 0 10-1.48-.001.74.74 0 001.48 0zm182.875-5.028a.734.734 0 00-.456-.684.741.741 0 00-.967.967.743.743 0 00.683.456.741.741 0 00.74-.74zM155.49 176.972a.744.744 0 00-.457-.683.737.737 0 00-.806.16.745.745 0 00-.161.807.738.738 0 00.967.4.752.752 0 00.241-.16.752.752 0 00.216-.524zm17.417-120.666a.743.743 0 00-.884-.726.736.736 0 00-.582.581.736.736 0 00.315.76.736.736 0 00.934-.092.739.739 0 00.217-.523zm-17.417 0a.736.736 0 00-.457-.684.739.739 0 10.457.684zM33.573 66.36a.74.74 0 10-1.48 0 .74.74 0 001.48 0zm104.5 110.611a.739.739 0 00-.884-.725.74.74 0 10.884.725zm26.125-115.639a.734.734 0 00-.456-.683.741.741 0 00-.967.966.743.743 0 00.683.457.74.74 0 00.74-.74zm17.417 0a.735.735 0 00-.457-.683.738.738 0 00-1.009.539.745.745 0 00.315.76.74.74 0 001.151-.615zm17.417 0a.736.736 0 00-.457-.683.738.738 0 00-1.009.538.737.737 0 00.315.76.736.736 0 00.934-.091.739.739 0 00.217-.523zm-78.375-5.027a.743.743 0 00-.884-.726.736.736 0 00-.582.581.736.736 0 00.315.76.736.736 0 00.934-.092.739.739 0 00.217-.523zM16.157 66.36a.74.74 0 10-1.48 0 .74.74 0 001.48 0zm130.625-5.028a.743.743 0 00-.884-.726.737.737 0 00-.582.582.737.737 0 00.315.76.736.736 0 00.934-.093.739.739 0 00.217-.523zm-52.25 0a.74.74 0 10-1.48 0 .74.74 0 001.48 0zm-17.417 0a.74.74 0 10-1.479 0 .74.74 0 001.48 0zm52.25 0a.742.742 0 00-.456-.683.742.742 0 00-1.01.539.745.745 0 00.315.76.741.741 0 001.151-.615zm-69.667 0a.74.74 0 10-1.48 0 .74.74 0 001.48 0zm52.25 0a.734.734 0 00-.456-.683.741.741 0 00-.967.966.743.743 0 00.683.457.74.74 0 00.74-.74zM7.448 51.279a.74.74 0 10-1.479 0 .74.74 0 001.48 0zm182.875 125.694a.739.739 0 00-.884-.725.74.74 0 10.884.725zM94.532 51.278a.74.74 0 10-1.48 0 .74.74 0 001.48 0zm-52.25 0a.74.74 0 10-1.48 0 .74.74 0 001.48 0zm-17.417 0a.74.74 0 10-1.48 0 .74.74 0 001.48 0zm34.834 0a.74.74 0 10-1.482 0 .74.74 0 001.482 0zm17.416 0a.74.74 0 10-1.48 0 .74.74 0 001.48 0zM50.99 66.36a.74.74 0 10-1.48 0 .74.74 0 001.48 0zm69.667-20.111a.743.743 0 00-.885-.725.745.745 0 00-.581.581.736.736 0 00.315.76.736.736 0 00.934-.093.751.751 0 00.217-.523zm-52.25 40.222a.74.74 0 10-1.48 0 .74.74 0 001.48 0zM190.323 46.25a.742.742 0 00-.456-.684.742.742 0 00-1.009.54.736.736 0 00.314.76.741.741 0 001.151-.616zm-17.416 0a.743.743 0 00-.885-.725.745.745 0 00-.581.581.736.736 0 00.315.76.736.736 0 00.934-.093.751.751 0 00.217-.523zm-17.417 0a.743.743 0 00-.885-.725.738.738 0 00-.581.581.745.745 0 00.315.76.741.741 0 001.151-.616zm26.125 5.028a.742.742 0 00-.885-.726.738.738 0 00-.581.582.745.745 0 00.315.76.741.741 0 001.151-.616zm-8.708 125.694a.744.744 0 00-.457-.683.737.737 0 00-.807.16.743.743 0 00.113 1.139.738.738 0 00.934-.092.755.755 0 00.217-.524zM16.157 56.306a.74.74 0 10-1.48 0 .74.74 0 001.48 0zm34.833 0a.74.74 0 10-1.479-.001.74.74 0 001.48 0zm-17.416 0a.74.74 0 10-1.48 0 .74.74 0 001.48 0zm34.833 0a.74.74 0 10-1.48 0 .74.74 0 001.48 0zm17.416 0a.74.74 0 10-1.48 0 .74.74 0 001.48 0zm26.125-5.028a.741.741 0 00-.884-.726.74.74 0 10.884.726zm17.417 0a.734.734 0 00-.457-.684.739.739 0 10.457.684zm17.417 0a.742.742 0 00-.885-.726.745.745 0 00-.581.582.736.736 0 00.315.76.736.736 0 00.934-.093.75.75 0 00.217-.523zm52.25 0a.735.735 0 00-.457-.684.74.74 0 10.457.684zm-95.792 5.028a.742.742 0 00-.456-.684.742.742 0 00-1.01.539.745.745 0 00.315.76.741.741 0 001.151-.615zm0-10.056a.735.735 0 00-.457-.684.738.738 0 00-.966.967.737.737 0 00.966.4.745.745 0 00.401-.4.744.744 0 00.056-.283zm60.958 5.028a.741.741 0 00-.884-.726.74.74 0 10.884.726zM68.407 76.417a.74.74 0 10-1.48 0 .74.74 0 001.48 0zm17.416 100.555a.742.742 0 00-1.263-.523.745.745 0 00-.16.807.745.745 0 00.683.456.743.743 0 00.684-.457.738.738 0 00.056-.283zm104.5-100.555a.734.734 0 00-.456-.684.74.74 0 10.456.684zM7.448 81.444a.74.74 0 10-1.48 0 .74.74 0 001.48 0zm17.417 0a.74.74 0 10-1.48 0 .74.74 0 001.48 0zm17.417 0a.74.74 0 10-1.48.001.74.74 0 001.48 0zm78.375-5.027a.743.743 0 00-.884-.726.736.736 0 00-.582.581.737.737 0 00.315.76.736.736 0 00.934-.092.739.739 0 00.217-.523zm-34.834 0a.74.74 0 10-1.48 0 .74.74 0 001.48 0zm17.417 0a.742.742 0 00-.456-.684.742.742 0 00-1.01.54.745.745 0 00.315.759.741.741 0 001.151-.615zm34.833 0a.734.734 0 00-.456-.684.74.74 0 10.456.684zm17.417 0a.735.735 0 00-.457-.684.738.738 0 00-1.009.54.745.745 0 00.315.76.74.74 0 001.151-.616zm-95.792 5.027a.74.74 0 10-1.48.001.74.74 0 001.48 0zm113.209-5.027a.743.743 0 00-.884-.726.737.737 0 00-.582.581.737.737 0 00.315.76.736.736 0 00.934-.092.739.739 0 00.217-.523zm-104.5 100.555a.742.742 0 00-1.263-.523.74.74 0 101.263.523zm113.208-95.528a.743.743 0 00-.885-.725.739.739 0 10.885.725zm17.417 0a.735.735 0 00-.457-.683.74.74 0 10.457.683zM16.157 86.472a.74.74 0 10-1.48 0 .74.74 0 001.48 0zm17.417 0a.74.74 0 10-1.482.001.74.74 0 001.482 0zm17.416 0a.74.74 0 10-1.48 0 .74.74 0 001.48 0zm43.542-5.028a.74.74 0 10-1.48.001.74.74 0 001.48 0zm69.666 0a.741.741 0 00-.884-.725.74.74 0 10.884.725zm-52.25 0a.741.741 0 00-.884-.725.74.74 0 10.884.725zm-34.833 0a.74.74 0 10-1.48 0 .74.74 0 001.48 0zm69.667 0a.742.742 0 00-.885-.725.745.745 0 00-.581.581.736.736 0 00.315.76.736.736 0 00.934-.092.75.75 0 00.217-.524zm-17.417 0a.734.734 0 00-.457-.683.739.739 0 10.457.683zM50.99 76.417a.74.74 0 10-1.479 0 .74.74 0 001.48 0zm69.667 100.555a.744.744 0 00-.457-.683.737.737 0 00-.807.16.743.743 0 00.113 1.139.738.738 0 00.934-.092.755.755 0 00.217-.524zm52.25-110.61a.743.743 0 00-.457-.684.738.738 0 00-1.009.539.736.736 0 00.315.76.736.736 0 00.934-.093.739.739 0 00.217-.523zM7.448 71.388a.74.74 0 10-1.48 0 .74.74 0 001.48 0zm182.875-5.028a.735.735 0 00-.456-.684.74.74 0 10.456.684zM24.865 71.39a.74.74 0 10-1.479 0 .74.74 0 001.48 0zm17.417 0a.74.74 0 10-1.48 0 .74.74 0 001.48 0zm95.791-5.028a.735.735 0 00-.456-.684.74.74 0 10.456.684zm-34.833 0a.742.742 0 00-.456-.684.74.74 0 10.456.684zm-17.416 0a.74.74 0 10-1.482 0 .74.74 0 001.481 0zm69.666 0a.735.735 0 00-.457-.684.737.737 0 00-1.009.54.745.745 0 00.315.76.741.741 0 001.151-.616zm-34.833 0a.743.743 0 00-.457-.684.737.737 0 00-.806.16.74.74 0 101.263.524zM59.699 71.39a.74.74 0 10-1.48 0 .74.74 0 001.48 0zm-43.542 5.028a.74.74 0 10-1.48 0 .74.74 0 001.48 0zm182.875-5.028a.736.736 0 00-.457-.684.739.739 0 10.457.684zm-17.417 0a.736.736 0 00-.457-.684.739.739 0 10.457.684zM103.24 176.972a.736.736 0 00-.457-.683.735.735 0 00-.806.16.745.745 0 00-.203.379.747.747 0 00.315.76.743.743 0 001.095-.333.74.74 0 00.056-.283zM77.115 71.389a.74.74 0 10-1.479 0 .74.74 0 001.48 0zm-8.708-5.028a.74.74 0 10-1.48 0 .74.74 0 001.48 0zM33.574 76.417a.74.74 0 10-1.48 0 .74.74 0 001.48 0zm60.958-5.028a.74.74 0 10-1.48 0 .74.74 0 001.48 0zm17.416 0a.734.734 0 00-.456-.684.74.74 0 10.456.684zm17.417 0a.742.742 0 00-.456-.684.742.742 0 00-1.01.54.745.745 0 00.315.76.741.741 0 001.151-.616zm34.833 0a.734.734 0 00-.456-.684.741.741 0 00-.967.967.743.743 0 00.683.457.741.741 0 00.74-.74zm-17.416 0a.743.743 0 00-.884-.726.737.737 0 00-.582.582.736.736 0 00.315.76.736.736 0 00.934-.093.739.739 0 00.217-.523zm-8.709-25.139a.742.742 0 00-.457-.684.738.738 0 00-.966.967.743.743 0 00.683.457.74.74 0 00.74-.74zm17.417-30.166a.735.735 0 00-.457-.684.738.738 0 00-1.009.539.745.745 0 00.315.76.74.74 0 001.151-.616zm17.417 0a.743.743 0 00-.884-.727.737.737 0 00-.582.582.737.737 0 00.315.76.736.736 0 00.934-.093.739.739 0 00.217-.523zM24.865 21.11a.74.74 0 10-1.48 0 .74.74 0 001.48 0zm95.792-5.027a.743.743 0 00-.884-.727.736.736 0 00-.582.582.737.737 0 00.315.76.736.736 0 00.934-.093.739.739 0 00.217-.523zm69.666 0a.734.734 0 00-.456-.684.741.741 0 00-.967.966.743.743 0 00.683.457.74.74 0 00.74-.74zM7.448 21.11a.74.74 0 10-1.48 0 .74.74 0 001.48 0zm130.625-5.027a.734.734 0 00-.456-.684.741.741 0 00-.967.966.743.743 0 00.683.457.74.74 0 00.74-.74zm-34.833 0a.742.742 0 00-.456-.684.742.742 0 00-1.01.539.745.745 0 00.315.76.741.741 0 001.151-.616zm-52.25 0a.74.74 0 10-1.479-.001.74.74 0 001.48 0zm-17.416 0a.74.74 0 10-1.48 0 .74.74 0 001.48 0zm52.25 0a.74.74 0 10-1.48 0 .74.74 0 001.48 0zm-17.417 0a.74.74 0 10-1.48 0 .74.74 0 001.48 0zm60.958 5.027a.742.742 0 00-.456-.684.74.74 0 10.456.684zm52.25 0a.735.735 0 00-.457-.684.737.737 0 00-1.009.54.745.745 0 00.315.76.741.741 0 001.151-.616zm-17.417 0a.735.735 0 00-.456-.684.74.74 0 10.456.684zm-17.416 0a.743.743 0 00-.457-.684.737.737 0 00-.806.16.74.74 0 101.263.524zm52.25 0a.735.735 0 00-.457-.684.738.738 0 00-1.009.54.737.737 0 00.315.76.737.737 0 00.934-.093.739.739 0 00.217-.523zm-156.75 0a.74.74 0 10-1.48 0 .74.74 0 001.48 0zm-26.125 5.03a.74.74 0 10-1.48 0 .74.74 0 001.48 0zm0-10.055a.74.74 0 10-1.48 0 .74.74 0 001.48 0zm60.958 5.027a.74.74 0 10-1.48 0 .74.74 0 001.48 0zm-17.416 0a.74.74 0 10-1.482 0 .74.74 0 001.482 0zm34.833 0a.74.74 0 10-1.48 0 .74.74 0 001.48 0zM33.574 26.14a.74.74 0 10-1.48 0 .74.74 0 001.48 0zm78.374-5.028a.735.735 0 00-.456-.684.74.74 0 10.456.684zm8.709-15.083a.743.743 0 00-.885-.726.745.745 0 00-.581.582.736.736 0 00.315.76.736.736 0 00.934-.093.75.75 0 00.217-.523zm-17.417 0a.735.735 0 00-.457-.684.738.738 0 00-.966.967.737.737 0 00.966.4.744.744 0 00.401-.4.744.744 0 00.056-.283zm34.833 0a.742.742 0 00-.456-.684.743.743 0 00-1.009.54.736.736 0 00.314.76.741.741 0 001.151-.616zm52.25 0a.742.742 0 00-.456-.684.743.743 0 00-1.009.54.736.736 0 00.314.76.741.741 0 001.151-.616zm-34.833 0a.743.743 0 00-.885-.726.738.738 0 00-.581.582.745.745 0 00.315.76.741.741 0 001.151-.616zm17.417 0a.743.743 0 00-.885-.726.745.745 0 00-.581.582.736.736 0 00.315.76.736.736 0 00.934-.093.75.75 0 00.217-.523zM85.823 46.25a.741.741 0 10-1.482.001.741.741 0 001.483-.001zM33.573 6.028a.74.74 0 10-1.481 0 .74.74 0 001.482 0zm52.25 0a.74.74 0 10-1.481 0 .74.74 0 001.481 0zm-17.416 0a.74.74 0 10-1.481 0 .74.74 0 001.481 0zm-17.417 0a.74.74 0 10-1.48 0 .74.74 0 001.48 0zm78.375 5.028a.742.742 0 00-.456-.684.742.742 0 00-1.01.539.745.745 0 00.315.76.741.741 0 001.151-.615zm-121.917 0a.74.74 0 10-1.48 0 .74.74 0 001.48 0zm139.334 0a.743.743 0 00-.884-.726.736.736 0 00-.582.581.736.736 0 00.315.76.736.736 0 00.934-.092.739.739 0 00.217-.523zm34.833 0a.736.736 0 00-.457-.684.739.739 0 10.457.684zm-17.417 0a.734.734 0 00-.456-.684.741.741 0 00-.967.966.743.743 0 00.683.457.741.741 0 00.74-.74zm-52.25 0a.734.734 0 00-.456-.684.741.741 0 00-.967.966.743.743 0 00.683.457.741.741 0 00.74-.74zm87.084 0a.735.735 0 00-.457-.684.738.738 0 00-1.009.539.737.737 0 00.315.76.736.736 0 00.934-.092.739.739 0 00.217-.523zm-156.75 0a.74.74 0 10-1.48 0 .74.74 0 001.48 0zm52.25 0a.74.74 0 10-1.48 0 .74.74 0 001.48 0zm-69.667 0a.74.74 0 10-1.479-.001.74.74 0 001.48 0zm34.834 0a.74.74 0 10-1.48 0 .74.74 0 001.48 0zm17.416 0a.74.74 0 10-1.479-.001.74.74 0 001.48 0zM16.157 6.028a.74.74 0 10-1.481 0 .74.74 0 001.481 0zM7.448 41.222a.74.74 0 10-1.48 0 .74.74 0 001.48 0zm182.875-5.028a.741.741 0 00-.884-.725.74.74 0 10.884.725zM24.865 41.222a.74.74 0 10-1.48 0 .74.74 0 001.48 0zm17.417 0a.74.74 0 10-1.482.001.74.74 0 001.482 0zm17.417 0a.74.74 0 10-1.482.001.74.74 0 001.482 0zm113.208-5.028a.742.742 0 00-.885-.725.745.745 0 00-.581.581.736.736 0 00.315.76.736.736 0 00.934-.092.75.75 0 00.217-.524zm-34.834 0a.741.741 0 00-.884-.725.74.74 0 10.884.725zm-52.25 0a.74.74 0 10-1.48.001.74.74 0 001.48 0zm69.667 0a.743.743 0 00-.885-.725.738.738 0 00-.581.581.745.745 0 00.315.76.741.741 0 001.151-.616zm-52.25 0a.734.734 0 00-.457-.683.739.739 0 10.457.683zm-26.125 5.028a.74.74 0 10-1.48 0 .74.74 0 001.48 0zm43.542-5.028a.742.742 0 00-.885-.725.745.745 0 00-.581.581.736.736 0 00.315.76.736.736 0 00.934-.092.75.75 0 00.217-.524zm43.541 5.028a.742.742 0 00-.457-.683.739.739 0 10.457.683zM33.573 46.25a.741.741 0 10-1.482.001.741.741 0 001.483-.001zm-17.416 0a.74.74 0 10-1.48 0 .74.74 0 001.48 0zm34.833 0a.74.74 0 10-1.48 0 .74.74 0 001.48 0zm148.042-5.028a.735.735 0 00-.457-.684.74.74 0 10.457.684zM68.407 46.25a.74.74 0 10-1.48 0 .74.74 0 001.48 0zm26.125-5.028a.74.74 0 10-1.48 0 .74.74 0 001.48 0zm17.416 0a.742.742 0 00-.457-.683.739.739 0 10.457.683zm69.667 0a.743.743 0 00-.885-.725.738.738 0 00-.581.581.745.745 0 00.315.76.74.74 0 001.151-.616zm-52.25 0a.735.735 0 00-.457-.683.739.739 0 10.457.683zm17.417 0a.743.743 0 00-.885-.725.745.745 0 00-.581.581.737.737 0 00.315.76.736.736 0 00.934-.092.75.75 0 00.217-.524zm-78.375-5.028a.74.74 0 10-1.48.001.74.74 0 001.48 0zM85.823 26.14a.74.74 0 10-1.48 0 .74.74 0 001.48 0zM50.99 36.194a.74.74 0 10-1.48 0 .74.74 0 001.48 0zm104.5-10.055a.736.736 0 00-.457-.684.739.739 0 10.457.684zm34.833 0a.734.734 0 00-.456-.684.74.74 0 10.456.684zM24.865 31.167a.74.74 0 10-1.479 0 .74.74 0 001.48 0zm-17.417 0a.74.74 0 10-1.48 0 .74.74 0 001.48 0zm43.542-5.028a.74.74 0 10-1.479 0 .74.74 0 001.48 0zm-8.708 5.028a.74.74 0 10-1.48 0 .74.74 0 001.48 0zm26.125-5.028a.74.74 0 10-1.48 0 .74.74 0 001.48 0zm34.833 0a.742.742 0 00-.456-.684.741.741 0 00-.967.967.737.737 0 00.683.457.739.739 0 00.74-.74zm34.833 0a.734.734 0 00-.456-.684.74.74 0 10.456.684zm-17.416 0a.743.743 0 00-.884-.726.737.737 0 00-.582.581.736.736 0 00.315.76.736.736 0 00.934-.092.739.739 0 00.217-.523zm52.25 0a.743.743 0 00-.884-.726.737.737 0 00-.582.581.736.736 0 00.315.76.736.736 0 00.934-.092.739.739 0 00.217-.523zM59.698 31.167a.74.74 0 10-1.48 0 .74.74 0 001.48 0zm121.917 0a.735.735 0 00-.457-.684.738.738 0 00-1.009.54.745.745 0 00.315.76.74.74 0 001.151-.616zM16.157 36.194a.74.74 0 10-1.481.001.74.74 0 001.481 0zm148.041-5.027a.734.734 0 00-.456-.684.74.74 0 10.456.684zM33.573 36.194a.74.74 0 10-1.48.001.74.74 0 001.48 0zm165.459-5.027a.736.736 0 00-.457-.684.738.738 0 00-1.009.539.737.737 0 00.315.76.736.736 0 00.934-.092.739.739 0 00.217-.523zm-104.5 0a.74.74 0 10-1.48 0 .74.74 0 001.48 0zm-17.417 0a.74.74 0 10-1.479 0 .74.74 0 001.48 0zm52.25 0a.742.742 0 00-.456-.684.742.742 0 00-1.01.54.745.745 0 00.315.759.741.741 0 001.151-.615zm17.417 0a.743.743 0 00-.884-.726.736.736 0 00-.582.581.737.737 0 00.315.76.736.736 0 00.934-.092.739.739 0 00.217-.523zm-34.834 0a.734.734 0 00-.456-.684.74.74 0 10.456.684zM85.824 156.861a.741.741 0 10-1.483 0 .741.741 0 001.483 0zm60.958-15.083a.74.74 0 10-1.478 0 .74.74 0 001.478 0zm-52.25 0a.737.737 0 00-.457-.684.744.744 0 00-.806.161.736.736 0 00-.16.806.739.739 0 001.423-.283zm-34.833 0a.737.737 0 00-.457-.684.745.745 0 00-.807.161.737.737 0 00-.16.806.734.734 0 00.684.457.743.743 0 00.683-.457.742.742 0 00.056-.283zm17.416 0a.737.737 0 00-.457-.684.745.745 0 00-.806.161.737.737 0 00.112 1.138.735.735 0 00.935-.092.729.729 0 00.216-.523zm52.25 0a.738.738 0 10-1.423.283.736.736 0 001.207.24.737.737 0 00.216-.523zm-17.417 0a.738.738 0 00-1.465-.144.735.735 0 00.314.759.736.736 0 00.935-.092.725.725 0 00.216-.523zm-69.666 0a.737.737 0 00-.457-.684.744.744 0 00-.806.161.737.737 0 00-.16.806.739.739 0 001.423-.283zm130.625-5.028a.744.744 0 00-.457-.684.754.754 0 00-.428-.042.74.74 0 10.885.726zm-148.042 5.028a.737.737 0 00-.457-.684.745.745 0 00-.806.161.737.737 0 00.112 1.138.735.735 0 00.935-.092.729.729 0 00.216-.523zm165.458-5.028a.743.743 0 00-.457-.684.752.752 0 00-.427-.042.74.74 0 10.884.726zM77.115 171.944a.741.741 0 00-1.263-.523.745.745 0 00-.16.807.739.739 0 001.423-.284zm78.375-25.138a.737.737 0 00-.457-.684.735.735 0 00-.806.16.745.745 0 00-.161.807.738.738 0 00.684.456.741.741 0 00.74-.739zm8.708-5.028a.738.738 0 00-1.465-.144.735.735 0 00.314.759.736.736 0 00.935-.092.725.725 0 00.216-.523zM50.99 146.806a.741.741 0 10-1.482-.001.741.741 0 001.482.001zm17.417 0a.742.742 0 00-.457-.684.736.736 0 00-.806.16.737.737 0 00-.16.806.742.742 0 00.683.457.742.742 0 00.74-.739zm34.833 0a.744.744 0 00-.456-.684.738.738 0 00-.807.16.748.748 0 00-.203.379.748.748 0 00.315.76.743.743 0 00.934-.092.74.74 0 00.217-.523zm-17.416 0a.742.742 0 00-.457-.684.736.736 0 00-.807.16.74.74 0 101.263.524zm52.249 0a.736.736 0 00-.884-.726.743.743 0 00-.581.581.738.738 0 00.725.884.743.743 0 00.524-.216.743.743 0 00.216-.523zm-17.416 0a.745.745 0 00-.457-.684.735.735 0 00-.806.16.74.74 0 101.263.524zm34.833-10.056a.744.744 0 00-.457-.684.737.737 0 00-.806.161.745.745 0 00-.161.807.743.743 0 00.967.4.739.739 0 00.457-.684zm43.542 5.028a.738.738 0 00-1.466-.144.735.735 0 00.315.759.731.731 0 00.694.069.735.735 0 00.401-.401.744.744 0 00.056-.283zm-17.417 0a.74.74 0 10-1.478 0 .74.74 0 001.478 0zM59.698 171.944a.742.742 0 00-1.263-.523.745.745 0 00-.16.807.74.74 0 001.424-.284zm-43.541-25.138a.742.742 0 00-.457-.684.736.736 0 00-.806.16.736.736 0 00-.16.806.742.742 0 00.683.457.742.742 0 00.74-.739zm69.666-60.334a.74.74 0 10-1.481.001.74.74 0 001.481 0zM7.448 141.778a.737.737 0 00-.457-.684.745.745 0 00-.806.161.736.736 0 00-.16.806.734.734 0 00.683.457.744.744 0 00.684-.457.74.74 0 00.056-.283zm69.667-10.056a.741.741 0 00-1.263-.523.745.745 0 00-.16.807.744.744 0 00.683.456.744.744 0 00.684-.457.735.735 0 00.056-.283zm-17.416 0a.742.742 0 00-1.264-.523.745.745 0 00-.16.807.745.745 0 00.684.456.744.744 0 00.523-.216.745.745 0 00.217-.524zm78.374 5.028a.743.743 0 00-.456-.684.756.756 0 00-.428-.042.74.74 0 10.884.726zm-43.541-5.028a.742.742 0 00-.885-.725.739.739 0 10.428 1.409.746.746 0 00.4-.401.737.737 0 00.057-.283zm17.416 0a.743.743 0 00-.456-.683.739.739 0 00-.967.967.743.743 0 001.367-.001.722.722 0 00.056-.283zm17.417 0a.736.736 0 00-.457-.683.735.735 0 00-.806.16.745.745 0 00-.203.379.747.747 0 00.315.76.743.743 0 001.095-.333.74.74 0 00.056-.283zm-104.5 0a.741.741 0 00-1.263-.523.745.745 0 00-.16.807.744.744 0 00.683.456.744.744 0 00.684-.457.735.735 0 00.056-.283zm130.625-5.028a.744.744 0 00-.457-.683.737.737 0 00-.806.16.745.745 0 00-.161.807.738.738 0 00.967.4.736.736 0 00.457-.684zm17.417 0a.744.744 0 00-.457-.683.737.737 0 00-.807.16.743.743 0 00.113 1.139.74.74 0 001.151-.616zM7.448 131.722a.742.742 0 00-1.263-.523.744.744 0 00-.16.807.745.745 0 00.683.456.744.744 0 00.684-.457.736.736 0 00.056-.283zm182.875-5.028a.743.743 0 00-.124-.411.745.745 0 00-.76-.314.74.74 0 10.884.725zm-78.375 45.25a.743.743 0 00-.124-.411.745.745 0 00-.76-.314.74.74 0 10.884.725zm-69.666-40.222a.742.742 0 00-1.263-.523.74.74 0 101.263.523zm-8.708 5.028a.742.742 0 00-1.264-.523.74.74 0 101.264.523zm52.25 0a.742.742 0 00-1.264-.523.74.74 0 101.263.523zm-34.834 0a.741.741 0 00-1.263-.523.74.74 0 101.263.523zm17.417 0a.742.742 0 00-1.263-.523.737.737 0 00-.16.806.734.734 0 00.683.457.744.744 0 00.684-.457.74.74 0 00.056-.283zm34.833 0a.736.736 0 00-.457-.684.744.744 0 00-1.009.54.743.743 0 00.726.884.74.74 0 00.74-.74zm17.417 0a.744.744 0 00-.457-.684.754.754 0 00-.428-.042.74.74 0 10.885.726zm60.958-5.028a.744.744 0 00-.457-.683.737.737 0 00-.806.16.745.745 0 00-.161.807.738.738 0 00.967.4.752.752 0 00.241-.16.752.752 0 00.216-.524zm-17.417 0a.739.739 0 00-.884-.725.74.74 0 10.884.725zm-17.416 0a.744.744 0 00-.457-.683.737.737 0 00-.807.16.743.743 0 00.113 1.139.738.738 0 00.934-.092.755.755 0 00.217-.524zM16.157 136.75a.742.742 0 00-1.263-.523.737.737 0 00-.16.806.734.734 0 00.683.457.744.744 0 00.684-.457.74.74 0 00.056-.283zm182.875-5.028a.736.736 0 00-.457-.684.738.738 0 00-1.009.54.735.735 0 00.315.76.738.738 0 00.934-.092.755.755 0 00.217-.524zm-104.5 40.222a.742.742 0 00-1.263-.523.744.744 0 00-.16.807.744.744 0 00.683.457.745.745 0 00.74-.741zm0-10.055a.741.741 0 10-1.482 0 .741.741 0 001.482 0zm43.541-35.195a.743.743 0 00-.124-.411.745.745 0 00-.76-.314.74.74 0 10.884.725zm-78.375 35.195a.741.741 0 10-1.482 0 .741.741 0 001.483 0zm17.417 0a.74.74 0 10-1.48 0 .74.74 0 001.48 0zm34.833 0a.735.735 0 00-.456-.684.746.746 0 00-.807.161.736.736 0 00-.16.806.742.742 0 00.683.457.74.74 0 00.74-.74zm52.25 0a.735.735 0 00-.456-.684.746.746 0 00-.807.161.736.736 0 00-.16.806.742.742 0 00.683.457.74.74 0 00.74-.74zm8.709-5.028a.744.744 0 00-.457-.684.743.743 0 00-1.009.54.735.735 0 00.315.759.74.74 0 001.151-.615zm-43.542 5.028a.743.743 0 00-.456-.684.746.746 0 00-.807.161.745.745 0 00-.203.378.746.746 0 00.315.76.736.736 0 00.934-.092.74.74 0 00.217-.523zM7.448 171.944a.741.741 0 00-1.263-.523.744.744 0 00-.16.807.74.74 0 001.423-.284zm34.834-10.055a.741.741 0 10-1.482 0 .741.741 0 001.482 0zm148.041-5.028a.735.735 0 00-.456-.684.746.746 0 00-.807.161.735.735 0 00-.16.806.742.742 0 00.683.457.74.74 0 00.74-.74zm-165.458 5.028a.74.74 0 10-1.48 0 .74.74 0 001.48 0zm-17.417 0a.741.741 0 10-1.481 0 .741.741 0 001.481 0zm139.334 0a.744.744 0 00-.457-.684.743.743 0 00-1.009.539.737.737 0 00.315.76.74.74 0 001.151-.615zm-26.125 5.028a.744.744 0 00-.457-.684.735.735 0 00-.806.16.745.745 0 00-.161.807.738.738 0 00.684.457.74.74 0 00.74-.74zm-17.417 0a.743.743 0 00-.456-.684.738.738 0 00-.807.16.752.752 0 00-.203.379.746.746 0 00.315.76.738.738 0 001.151-.615zm78.375-5.028a.736.736 0 00-.457-.684.743.743 0 00-1.009.54.743.743 0 00.315.759.736.736 0 00.934-.092.74.74 0 00.217-.523zm-43.542 5.028a.735.735 0 00-.456-.684.737.737 0 00-.807.16.743.743 0 00.112 1.139.744.744 0 00.935-.092.743.743 0 00.216-.523zm-69.666 0a.741.741 0 10-1.482 0 .741.741 0 001.482 0zm87.083 0a.736.736 0 00-.457-.684.735.735 0 00-.806.16.745.745 0 00-.161.807.738.738 0 00.684.457.738.738 0 00.74-.74zm-69.667 0a.741.741 0 10-1.482 0 .741.741 0 001.483 0zm113.209-5.028a.736.736 0 00-.457-.684.735.735 0 00-.806.16.745.745 0 00-.161.807.738.738 0 00.684.457.74.74 0 00.74-.74zm-8.709 5.028a.735.735 0 00-.456-.684.737.737 0 00-.807.16.743.743 0 00.112 1.139.744.744 0 00.935-.092.743.743 0 00.216-.523zm-174.166 0a.741.741 0 10-1.482 0 .741.741 0 001.482 0zm34.833 0a.74.74 0 10-1.48 0 .74.74 0 001.48 0zm-17.416 0a.741.741 0 10-1.483 0 .741.741 0 001.483 0zm-17.417-10.056a.741.741 0 10-1.482 0 .741.741 0 001.482 0zm95.791-5.028a.735.735 0 00-.456-.683.746.746 0 00-.428-.043.745.745 0 00-.581.582.745.745 0 00.314.76.743.743 0 00.935-.092.743.743 0 00.216-.524zm-17.416 0a.741.741 0 10-1.482 0 .741.741 0 001.482 0zm-17.417 0a.74.74 0 10-1.48 0 .74.74 0 001.48 0zm69.667 0a.744.744 0 00-.457-.683.743.743 0 00-.806.16.737.737 0 00.112 1.139.738.738 0 00.934-.092.74.74 0 00.217-.524zm-17.417 0a.743.743 0 00-.456-.683.74.74 0 10.456.683zm-69.667 0a.741.741 0 10-1.482 0 .741.741 0 001.483 0zm-34.833 0a.74.74 0 10-1.48 0 .74.74 0 001.48 0zm165.458-5.027a.736.736 0 00-.884-.726.743.743 0 00-.581.581.738.738 0 00.725.884.743.743 0 00.524-.216.743.743 0 00.216-.523zM42.282 171.944a.742.742 0 00-1.263-.523.744.744 0 00-.16.807.744.744 0 00.683.457.745.745 0 00.74-.741zm0-20.111a.741.741 0 10-1.482 0 .741.741 0 001.482 0zm-34.834 0a.74.74 0 10-1.481 0 .74.74 0 001.481 0zm156.75 0a.735.735 0 00-.456-.683.746.746 0 00-.428-.043.745.745 0 00-.581.582.745.745 0 00.314.76.743.743 0 00.935-.092.743.743 0 00.216-.524zm-43.541 5.028a.744.744 0 00-.457-.684.743.743 0 00-1.009.54.735.735 0 00.315.759.74.74 0 001.151-.615zm52.25 10.056a.744.744 0 00-.457-.684.737.737 0 00-.806.16.745.745 0 00-.161.807.738.738 0 00.684.457.74.74 0 00.74-.74zm-69.667-10.056a.743.743 0 00-.456-.684.746.746 0 00-.807.161.743.743 0 00.523 1.263.738.738 0 00.74-.74zm52.25 0a.736.736 0 00-.457-.684.743.743 0 00-1.009.54.743.743 0 00.315.759.736.736 0 00.934-.092.738.738 0 00.217-.523zm-87.083 0a.741.741 0 10-1.482 0 .741.741 0 001.482 0zm69.666 0a.735.735 0 00-.456-.684.746.746 0 00-.807.161.735.735 0 00-.16.806.742.742 0 00.683.457.74.74 0 00.74-.74zm34.834-10.055a.745.745 0 00-.457-.684.735.735 0 00-.806.16.74.74 0 101.263.524zm26.125 5.027a.736.736 0 00-.457-.684.743.743 0 00-1.009.54.735.735 0 00.315.759.743.743 0 001.151-.615zM24.865 171.944a.741.741 0 00-1.263-.523.745.745 0 00-.16.807.739.739 0 001.423-.284zm156.75-20.111a.736.736 0 00-.457-.683.743.743 0 00-.806.16.737.737 0 00.112 1.139.743.743 0 00.934-.092.74.74 0 00.217-.524zm-148.042 5.028a.741.741 0 10-1.482 0 .741.741 0 001.483 0zm17.417 0a.74.74 0 10-1.48 0 .74.74 0 001.48 0zm-17.416-10.055a.742.742 0 00-.457-.684.736.736 0 00-.807.16.74.74 0 101.264.524zm-8.709-45.25a.741.741 0 10-1.482-.001.741.741 0 001.482.001zm-17.417 0a.742.742 0 00-.456-.684.736.736 0 00-.807.16.74.74 0 101.263.524zm87.084 0a.736.736 0 00-.457-.684.736.736 0 00-.806.16.736.736 0 00-.16.806.742.742 0 00.683.457.742.742 0 00.74-.739zm-52.25 0a.736.736 0 00-.457-.684.736.736 0 00-.806.16.736.736 0 00-.16.806.742.742 0 00.683.457.742.742 0 00.74-.739zm78.375 25.138a.744.744 0 00-.457-.683.737.737 0 00-.807.16.743.743 0 00.113 1.139.74.74 0 001.151-.616zm-60.958-25.138a.742.742 0 00-.457-.684.736.736 0 00-.807.16.74.74 0 101.264.524zm-43.542 75.416a.742.742 0 00-1.263-.523.74.74 0 101.263.523zm121.916-80.444a.741.741 0 00-.884-.726.74.74 0 10.884.726zm-17.416 0a.742.742 0 00-.885-.726.745.745 0 00-.581.582.736.736 0 00.315.76.736.736 0 00.934-.093.75.75 0 00.217-.523zm34.833 0a.742.742 0 00-.885-.726.738.738 0 00-.581.582.745.745 0 00.315.76.741.741 0 001.151-.616zm17.417 0a.742.742 0 00-.885-.726.745.745 0 00-.581.582.736.736 0 00.315.76.736.736 0 00.934-.093.75.75 0 00.217-.523zm-69.667 0a.734.734 0 00-.457-.684.739.739 0 10.457.684zm87.083 0a.741.741 0 00-.884-.726.74.74 0 10.884.726zm-156.75 10.055a.741.741 0 10-1.482 0 .741.741 0 001.483 0zm69.667 0a.743.743 0 00-.456-.683.74.74 0 10.456.683zm-52.25 0a.74.74 0 10-1.48 0 .74.74 0 001.48 0zm60.958-5.027a.736.736 0 00-.884-.726.743.743 0 00-.581.581.738.738 0 00.725.884.743.743 0 00.524-.216.743.743 0 00.216-.523zm87.084 70.388a.736.736 0 00-.457-.683.737.737 0 00-.806.16.74.74 0 101.263.523zM68.407 106.583a.741.741 0 10-1.482 0 .741.741 0 001.482 0zm17.416 0a.741.741 0 10-1.482 0 .741.741 0 001.483 0zm113.209-5.027a.737.737 0 00-.457-.684.743.743 0 00-.806.16.737.737 0 00.112 1.139.738.738 0 00.934-.092.74.74 0 00.217-.523zm-52.25 0a.745.745 0 00-.457-.684.735.735 0 00-.806.16.74.74 0 101.263.524zm-17.417 0a.744.744 0 00-.456-.684.738.738 0 00-.807.16.748.748 0 00-.203.379.747.747 0 00.315.76.743.743 0 00.934-.092.74.74 0 00.217-.523zm34.833 0a.736.736 0 00-.884-.726.743.743 0 00-.581.581.738.738 0 00.725.884.743.743 0 00.524-.216.743.743 0 00.216-.523zm17.417 0a.737.737 0 00-.457-.684.735.735 0 00-.806.16.745.745 0 00-.161.807.738.738 0 00.684.456.741.741 0 00.74-.739zm-165.458 5.027a.741.741 0 10-1.482 0 .741.741 0 001.482 0zM7.448 91.5a.74.74 0 10-1.48 0 .74.74 0 001.48 0zm43.542 85.472a.741.741 0 00-1.263-.523.745.745 0 00-.16.807.744.744 0 00.683.456.744.744 0 00.684-.457.735.735 0 00.056-.283zM24.865 91.5a.74.74 0 10-1.48 0 .74.74 0 001.48 0zm34.834 0a.741.741 0 10-1.483.001.741.741 0 001.483-.001zm130.624-5.028a.742.742 0 00-.456-.683.742.742 0 00-1.009.54.736.736 0 00.314.759.741.741 0 001.151-.616zM42.282 91.5a.74.74 0 10-1.481 0 .74.74 0 001.481 0zm60.958-5.028a.735.735 0 00-.457-.683.739.739 0 10.457.683zM77.115 91.5a.74.74 0 10-1.48 0 .74.74 0 001.48 0zm43.542-5.028a.743.743 0 00-.885-.725.745.745 0 00-.581.581.736.736 0 00.315.76.736.736 0 00.934-.092.75.75 0 00.217-.524zm34.833 0a.743.743 0 00-.885-.725.738.738 0 00-.581.581.745.745 0 00.315.76.74.74 0 001.151-.616zm-17.417 0a.742.742 0 00-.456-.683.742.742 0 00-1.009.54.737.737 0 00.314.759.741.741 0 001.151-.616zm34.834 0a.743.743 0 00-.885-.725.745.745 0 00-.581.581.736.736 0 00.315.76.736.736 0 00.934-.092.75.75 0 00.217-.524zM85.823 96.528a.74.74 0 10-1.48 0 .74.74 0 001.48 0zm-69.666 0a.74.74 0 10-1.481 0 .74.74 0 001.481 0zm17.417 0a.74.74 0 10-1.48 0 .74.74 0 001.48 0zM199.031 91.5a.735.735 0 00-.457-.684.741.741 0 00-.967.967.74.74 0 001.424-.283zM33.573 176.972a.742.742 0 00-1.263-.523.745.745 0 00-.16.807.745.745 0 00.684.456.743.743 0 00.683-.457.738.738 0 00.056-.283zm34.834-80.444a.74.74 0 10-1.48 0 .74.74 0 001.48 0zm-17.417 0a.74.74 0 10-1.48 0 .74.74 0 001.48 0zM94.532 91.5a.74.74 0 10-1.48 0 .74.74 0 001.48 0zm17.416 0a.742.742 0 00-.457-.683.738.738 0 00-.966.967.743.743 0 00.683.456.74.74 0 00.74-.74zm17.417 0a.735.735 0 00-.457-.683.738.738 0 00-.966.967.737.737 0 00.966.4.745.745 0 00.401-.4.744.744 0 00.056-.284zm34.833 0a.742.742 0 00-.457-.683.738.738 0 00-.966.967.743.743 0 00.683.456.74.74 0 00.74-.74zm-17.416 0a.743.743 0 00-.885-.725.745.745 0 00-.581.581.736.736 0 00.315.76.736.736 0 00.934-.093.751.751 0 00.217-.523zm34.833 0a.743.743 0 00-.885-.725.738.738 0 00-.581.581.745.745 0 00.315.76.741.741 0 001.151-.616zm-104.5 10.056a.741.741 0 10-1.482-.001.741.741 0 001.482.001zM59.7 121.667a.741.741 0 10-1.483 0 .741.741 0 001.483 0zm-52.25 0a.74.74 0 10-1.482 0 .74.74 0 001.481 0zm17.416 0a.74.74 0 10-1.48 0 .74.74 0 001.48 0zm17.417 0a.741.741 0 10-1.482 0 .741.741 0 001.482 0zm34.833 0a.74.74 0 10-1.48 0 .74.74 0 001.48 0zm17.417 0a.741.741 0 10-1.482 0 .741.741 0 001.482 0zm52.25 50.277a.744.744 0 00-.457-.683.737.737 0 00-.807.16.743.743 0 00.113 1.139.74.74 0 001.151-.616zm8.708-55.305a.736.736 0 00-.457-.684.743.743 0 00-1.009.54.743.743 0 00.315.759.736.736 0 00.934-.092.74.74 0 00.217-.523zm-43.542 5.028a.735.735 0 00-.456-.684.737.737 0 00-.807.16.743.743 0 00.112 1.139.744.744 0 00.935-.092.743.743 0 00.216-.523zm26.125-5.028a.735.735 0 00-.456-.684.746.746 0 00-.807.161.736.736 0 00-.16.806.742.742 0 00.683.457.74.74 0 00.74-.74zm34.834 0a.744.744 0 00-.457-.684.743.743 0 00-1.009.539.737.737 0 00.315.76.74.74 0 001.151-.615zm17.416 0a.735.735 0 00-.456-.684.746.746 0 00-.807.161.736.736 0 00-.16.806.742.742 0 00.683.457.74.74 0 00.74-.74zM68.407 126.694a.742.742 0 00-.885-.725.739.739 0 00-.266 1.341.743.743 0 00.934-.092.75.75 0 00.217-.524zm-17.417 0a.741.741 0 00-1.263-.523.745.745 0 00-.16.807.739.739 0 001.423-.284zm-17.416 0a.742.742 0 00-1.264-.523.745.745 0 00-.16.807.74.74 0 001.424-.284zm87.083-10.055a.744.744 0 00-.457-.684.743.743 0 00-1.009.539.737.737 0 00.315.76.74.74 0 001.151-.615zm-34.834 10.055a.742.742 0 00-1.263-.523.745.745 0 00-.16.807.74.74 0 001.423-.284zm-69.666 0a.742.742 0 00-.884-.725.739.739 0 00-.267 1.341.743.743 0 00.934-.092.75.75 0 00.217-.524zm87.083 0a.736.736 0 00-.457-.683.735.735 0 00-.806.16.745.745 0 00-.203.379.746.746 0 00.315.76.744.744 0 00.935-.092.745.745 0 00.216-.524zm95.792-5.027a.736.736 0 00-.457-.684.735.735 0 00-.806.16.74.74 0 101.263.524zm-52.25 0a.744.744 0 00-.457-.684.735.735 0 00-.806.16.745.745 0 00-.161.807.738.738 0 00.684.457.74.74 0 00.74-.74zm17.416 0a.735.735 0 00-.456-.684.737.737 0 00-.807.16.743.743 0 00.112 1.139.744.744 0 00.935-.092.743.743 0 00.216-.523zm-34.833 0a.743.743 0 00-.456-.684.738.738 0 00-.807.16.752.752 0 00-.203.379.746.746 0 00.315.76.738.738 0 001.151-.615zm52.25 0a.736.736 0 00-.457-.684.735.735 0 00-.806.161.738.738 0 00.523 1.263.738.738 0 00.74-.74zm-52.25 50.277a.736.736 0 00-.457-.683.735.735 0 00-.806.16.745.745 0 00-.203.379.746.746 0 00.315.76.744.744 0 00.935-.092.745.745 0 00.216-.524zm0-60.333a.743.743 0 00-.456-.684.746.746 0 00-.807.161.743.743 0 00.523 1.263.738.738 0 00.74-.74zm-69.667 0a.741.741 0 10-1.482 0 .741.741 0 001.483 0zm-17.416 0a.741.741 0 10-1.482 0 .741.741 0 001.482 0zm-17.417 0a.74.74 0 10-1.48 0 .74.74 0 001.48 0zm69.667 0a.741.741 0 10-1.482 0 .741.741 0 001.482 0zm-87.084 0a.74.74 0 10-1.481 0 .74.74 0 001.481 0zm104.5 0a.735.735 0 00-.456-.684.746.746 0 00-.807.161.735.735 0 00-.16.806.742.742 0 00.683.457.74.74 0 00.74-.74zm-34.833 0a.74.74 0 10-1.48 0 .74.74 0 001.48 0zm78.375-5.027a.737.737 0 00-.457-.684.743.743 0 00-.806.16.74.74 0 101.263.524zm-17.417 0a.736.736 0 00-.456-.684.746.746 0 00-.428-.043.745.745 0 00-.581.582.745.745 0 00.314.76.743.743 0 00.935-.092.743.743 0 00.216-.523zm43.542 65.36a.744.744 0 00-.457-.683.737.737 0 00-.806.16.745.745 0 00-.161.807.738.738 0 00.967.4.736.736 0 00.457-.684zm8.708-65.36a.736.736 0 00-.456-.684.746.746 0 00-.428-.043.745.745 0 00-.581.582.745.745 0 00.314.76.743.743 0 00.935-.092.743.743 0 00.216-.523zm-17.416 0a.745.745 0 00-.457-.684.743.743 0 00-.806.16.737.737 0 00.112 1.139.738.738 0 00.934-.092.74.74 0 00.217-.523zm8.708 5.027a.736.736 0 00-.457-.684.743.743 0 00-1.009.54.743.743 0 00.315.759.736.736 0 00.934-.092.736.736 0 00.217-.523zm-165.458 5.028a.741.741 0 10-1.482 0 .741.741 0 001.482 0zm52.25 0a.741.741 0 10-1.482 0 .741.741 0 001.482 0zm-34.833 0a.741.741 0 10-1.483 0 .741.741 0 001.483 0zm17.416 0a.741.741 0 10-1.482 0 .741.741 0 001.482 0zm34.833 0a.741.741 0 10-1.482 0 .741.741 0 001.483 0zm34.834-10.056a.744.744 0 00-.457-.683.743.743 0 00-.806.16.737.737 0 00.112 1.139.738.738 0 00.934-.092.74.74 0 00.217-.524zm78.375 5.028a.736.736 0 00-.457-.684.743.743 0 00-1.009.539.737.737 0 00.315.76.74.74 0 001.151-.615zm-34.834 60.333a.743.743 0 00-.456-.683.738.738 0 00-1.009.539.737.737 0 00.314.76.744.744 0 00.935-.092.742.742 0 00.216-.524zm0-60.333a.735.735 0 00-.456-.684.746.746 0 00-.807.161.735.735 0 00-.16.806.742.742 0 00.683.457.74.74 0 00.74-.74zm-17.416 0a.744.744 0 00-.457-.684.743.743 0 00-1.009.54.735.735 0 00.315.759.74.74 0 001.151-.615zm-43.542 5.028a.743.743 0 00-.456-.684.746.746 0 00-.807.161.745.745 0 00-.203.378.746.746 0 00.315.76.736.736 0 00.934-.092.74.74 0 00.217-.523zM42.282 1a.74.74 0 10-1.481 0 .74.74 0 001.481 0zm17.417 0a.74.74 0 10-1.482 0 .74.74 0 001.482 0zM7.449 1a.74.74 0 10-1.48 0 .74.74 0 001.48 0zm17.416 0a.74.74 0 10-1.48 0 .74.74 0 001.48 0zm52.25 0a.74.74 0 10-1.48 0 .74.74 0 001.48 0zm87.083 0a.742.742 0 00-.456-.683.743.743 0 00-1.009.539.736.736 0 00.314.76.741.741 0 001.151-.616zM94.532 1a.74.74 0 10-1.481 0 .74.74 0 001.481 0zm87.083 0a.743.743 0 00-.885-.725.738.738 0 00-.581.581.745.745 0 00.315.76.741.741 0 001.151-.616zm17.417 0a.735.735 0 00-.457-.684.74.74 0 10.457.684zm-52.25 0a.743.743 0 00-.885-.726.745.745 0 00-.581.582.736.736 0 00.315.76.736.736 0 00.934-.093.75.75 0 00.217-.523zm-34.834 0a.742.742 0 00-.456-.683.743.743 0 00-1.009.539.736.736 0 00.314.76.741.741 0 001.151-.616zm17.417 0a.735.735 0 00-.457-.683.738.738 0 00-.966.966.737.737 0 00.967.4.75.75 0 00.4-.4.744.744 0 00.056-.283z" fill="#2E71E5"/></svg>