<svg width="89" height="53" viewBox="0 0 89 53" fill="none" xmlns="http://www.w3.org/2000/svg">
<g clip-path="url(#clip0)">
<path d="M25.37 19.2486C25.37 20.3393 25.4861 21.2236 25.6891 21.8721C25.9212 22.5206 26.2112 23.228 26.6173 23.9944C26.7623 24.2303 26.8204 24.4661 26.8204 24.6724C26.8204 24.9672 26.6463 25.262 26.2692 25.5567L24.4418 26.7948C24.1807 26.9716 23.9197 27.0601 23.6876 27.0601C23.3976 27.0601 23.1075 26.9127 22.8174 26.6474C22.4113 26.2052 22.0633 25.7336 21.7732 25.262C21.4831 24.7608 21.1931 24.2008 20.874 23.5228C18.6115 26.2347 15.7688 27.5907 12.346 27.5907C9.90946 27.5907 7.96602 26.8832 6.54469 25.4683C5.12336 24.0534 4.39819 22.1669 4.39819 19.8087C4.39819 17.3031 5.26839 15.2692 7.0378 13.7364C8.80721 12.2036 11.1567 11.4372 14.1444 11.4372C15.1307 11.4372 16.1459 11.5256 17.2191 11.673C18.2924 11.8204 19.3946 12.0562 20.5549 12.3215V10.1696C20.5549 7.92937 20.0908 6.36707 19.1916 5.45328C18.2634 4.53949 16.697 4.09733 14.4635 4.09733C13.4483 4.09733 12.404 4.21524 11.3308 4.48053C10.2575 4.74583 9.2133 5.07008 8.19807 5.48276C7.73396 5.6891 7.38588 5.80701 7.18283 5.86596C6.97979 5.92492 6.83475 5.95439 6.71873 5.95439C6.31263 5.95439 6.10959 5.65962 6.10959 5.0406V3.59622C6.10959 3.12458 6.1676 2.77086 6.31263 2.56452C6.45767 2.35818 6.71873 2.15184 7.12482 1.9455C8.14006 1.41491 9.35834 0.972748 10.7797 0.619021C12.201 0.235818 13.7093 0.0589544 15.3047 0.0589544C18.7565 0.0589544 21.2801 0.854839 22.9045 2.44661C24.4998 4.03838 25.312 6.45551 25.312 9.698V19.2486H25.37ZM13.5933 23.7291C14.5505 23.7291 15.5368 23.5523 16.581 23.1986C17.6252 22.8448 18.5535 22.1963 19.3366 21.312C19.8007 20.7519 20.1488 20.1329 20.3229 19.4255C20.4969 18.718 20.6129 17.8632 20.6129 16.861V15.6229C19.7717 15.4166 18.8725 15.2397 17.9443 15.1218C17.0161 15.0039 16.1169 14.9449 15.2177 14.9449C13.2742 14.9449 11.8529 15.3281 10.8957 16.124C9.93847 16.9199 9.47436 18.04 9.47436 19.5139C9.47436 20.8993 9.82244 21.931 10.5476 22.6385C11.2438 23.3754 12.259 23.7291 13.5933 23.7291ZM36.8857 26.9127C36.3636 26.9127 36.0155 26.8243 35.7834 26.6179C35.5514 26.441 35.3483 26.0284 35.1743 25.4683L28.3577 2.68243C28.1837 2.09288 28.0967 1.70968 28.0967 1.50334C28.0967 1.0317 28.3287 0.766407 28.7928 0.766407H31.6355C32.1866 0.766407 32.5637 0.854839 32.7667 1.06118C32.9988 1.23804 33.1728 1.65072 33.3469 2.21079L38.22 21.7247L42.745 2.21079C42.8901 1.62125 43.0641 1.23804 43.2962 1.06118C43.5282 0.884316 43.9343 0.766407 44.4564 0.766407H46.777C47.3281 0.766407 47.7052 0.854839 47.9372 1.06118C48.1693 1.23804 48.3723 1.65072 48.4883 2.21079L53.0714 21.9605L58.0896 2.21079C58.2636 1.62125 58.4666 1.23804 58.6697 1.06118C58.9017 0.884316 59.2788 0.766407 59.801 0.766407H62.4986C62.9627 0.766407 63.2237 1.00222 63.2237 1.50334C63.2237 1.65072 63.1947 1.79811 63.1657 1.97497C63.1367 2.15184 63.0787 2.38765 62.9627 2.7119L55.9721 25.4978C55.798 26.0873 55.595 26.4705 55.3629 26.6474C55.1309 26.8243 54.7538 26.9422 54.2607 26.9422H51.7661C51.215 26.9422 50.8379 26.8537 50.6058 26.6474C50.3738 26.441 50.1707 26.0578 50.0547 25.4683L45.5587 6.45551L41.0916 25.4388C40.9466 26.0284 40.7726 26.4116 40.5405 26.6179C40.3085 26.8243 39.9024 26.9127 39.3802 26.9127H36.8857ZM74.1593 27.7086C72.6509 27.7086 71.1426 27.5317 69.6922 27.178C68.2419 26.8243 67.1106 26.441 66.3565 25.9989C65.8924 25.7336 65.5733 25.4388 65.4573 25.1735C65.3412 24.9082 65.2832 24.6135 65.2832 24.3482V22.8448C65.2832 22.2258 65.5153 21.931 65.9504 21.931C66.1244 21.931 66.2985 21.9605 66.4725 22.0195C66.6465 22.0784 66.9076 22.1963 67.1977 22.3142C68.1839 22.7564 69.2571 23.1101 70.3884 23.3459C71.5487 23.5818 72.6799 23.6997 73.8402 23.6997C75.6676 23.6997 77.0889 23.3754 78.0752 22.7269C79.0614 22.0784 79.5835 21.1352 79.5835 19.9266C79.5835 19.1012 79.3224 18.4233 78.8003 17.8632C78.2782 17.3031 77.292 16.802 75.8707 16.3304L71.6647 15.0039C69.5472 14.3259 67.9808 13.3237 67.0236 11.9972C66.0664 10.7002 65.5733 9.25584 65.5733 7.72303C65.5733 6.48498 65.8343 5.39433 66.3565 4.45106C66.8786 3.50779 67.5747 2.68243 68.4449 2.03393C69.3151 1.35595 70.3014 0.854839 71.4616 0.501112C72.6219 0.147386 73.8402 0 75.1165 0C75.7546 0 76.4218 0.0294772 77.0599 0.117909C77.7271 0.20634 78.3362 0.324249 78.9454 0.442158C79.5255 0.589544 80.0766 0.73693 80.5987 0.913793C81.1209 1.09066 81.527 1.26752 81.817 1.44438C82.2231 1.6802 82.5132 1.91602 82.6872 2.18131C82.8613 2.41713 82.9483 2.74138 82.9483 3.15406V4.53949C82.9483 5.15851 82.7162 5.48276 82.2811 5.48276C82.0491 5.48276 81.672 5.36485 81.1789 5.12903C79.5255 4.36263 77.6691 3.97942 75.6096 3.97942C73.9562 3.97942 72.6509 4.24472 71.7517 4.80478C70.8525 5.36485 70.3884 6.21969 70.3884 7.42825C70.3884 8.25362 70.6785 8.96107 71.2586 9.52114C71.8387 10.0812 72.912 10.6413 74.4493 11.1424L78.5683 12.4689C80.6568 13.1468 82.1651 14.0901 83.0643 15.2987C83.9635 16.5072 84.3986 17.8927 84.3986 19.4255C84.3986 20.693 84.1376 21.8426 83.6444 22.8448C83.1223 23.8471 82.4262 24.7314 81.527 25.4388C80.6277 26.1758 79.5545 26.7063 78.3072 27.0895C77.0019 27.5022 75.6386 27.7086 74.1593 27.7086Z" fill="#252F3E"/>
<path fill-rule="evenodd" clip-rule="evenodd" d="M79.6417 42.0345C70.0985 49.1975 56.2333 53 44.3115 53C27.6037 53 12.5492 46.7214 1.17861 36.2865C0.279403 35.4611 1.09159 34.341 2.16484 34.9895C14.4637 42.2408 29.6342 46.633 45.3268 46.633C55.9142 46.633 67.5459 44.3927 78.2494 39.7942C79.8447 39.0573 81.2081 40.8554 79.6417 42.0345Z" fill="#FF9900"/>
<path fill-rule="evenodd" clip-rule="evenodd" d="M83.6155 37.436C82.3972 35.8442 75.5517 36.6696 72.4479 37.0528C71.5197 37.1707 71.3747 36.3454 72.2159 35.7263C77.6691 31.8353 86.6322 32.9555 87.6765 34.2525C88.7207 35.579 87.3864 44.6874 82.2812 49.05C81.498 49.728 80.7439 49.3743 81.0919 48.49C82.2522 45.5717 84.8338 38.9983 83.6155 37.436Z" fill="#FF9900"/>
</g>
<defs>
<clipPath id="clip0">
<rect width="89" height="53" fill="white"/>
</clipPath>
</defs>
</svg>
