<svg width="307" height="288" viewBox="0 0 307 288" fill="none" xmlns="http://www.w3.org/2000/svg">
<path d="M292.711 108.338V42.291L232.895 9.26733L173.078 42.291V108.338L232.895 141.362L292.711 108.338ZM213.731 100.572C213.731 104.541 210.449 107.672 206.399 107.672H205.966C201.819 107.672 198.543 104.37 198.543 100.572V50.0516C198.543 46.1713 202.166 42.9515 207.174 42.9515C210.894 42.9515 215.115 44.355 217.701 47.4097L252.053 86.7134V50.0516C252.053 46.0832 255.505 42.9515 259.476 42.9515H259.909C264.051 42.9515 267.332 46.2538 267.332 50.0516V100.578H267.417C267.417 104.458 263.697 107.678 258.622 107.678C254.993 107.678 250.845 106.274 248.259 103.22L213.731 63.916V100.572Z" fill="#0E191F"/>
<g clip-path="url(#clip0)">
<path d="M132.323 263.489C130.048 260.43 126.362 257.892 122.459 255.204C118.257 252.316 113.941 249.345 111.779 245.892C119.981 244.258 130.358 241.297 130.858 241.156C131.75 240.901 132.45 240.233 132.715 239.383C132.982 238.532 132.782 237.61 132.182 236.93C131.647 236.324 119.084 222.268 98.8045 215.372C97.91 213.664 96.9127 211.474 95.7536 208.941C87.5865 191.074 70.6314 153.995 25.8977 149.006C22.333 146.71 12.9907 141 8.30194 141C2.48358 141 0 143.368 0 148.916C0 151.616 2.30509 154.773 6.06431 159.702C7.90189 162.111 10.9775 166.144 11.0693 167.386C11.0693 171.705 16.3229 185.686 21.6063 191.667C21.4551 191.974 21.3036 192.275 21.1549 192.574C18.8145 197.276 16.6039 201.719 16.6039 212.242C16.6039 226.1 23.5653 233.351 30.4404 233.351C34.7076 233.351 36.8316 228.733 37.8532 223.327C41.6449 230.663 47.8389 240.221 56.5165 246.062C57.7678 246.897 59.4946 246.613 60.3756 245.428C61.2567 244.235 60.9594 242.591 59.7107 241.748C45.9497 232.487 38.6775 211.634 38.6046 211.422C38.183 210.191 36.8588 209.428 35.5398 209.637C34.1967 209.84 33.2075 210.946 33.2075 212.242C33.2075 219.488 31.7591 227.208 30.4401 228.073C26.4487 228.073 22.1382 222.02 22.1382 212.242C22.1382 202.906 23.9109 199.345 26.154 194.836C26.573 193.993 27.0052 193.127 27.4351 192.205C27.9296 191.141 27.6377 189.893 26.7136 189.133C22.4492 185.632 16.6039 170.89 16.6039 167.386C16.6039 164.685 14.2988 161.529 10.5396 156.6C8.70199 154.19 5.62638 150.158 5.53454 148.916C5.53454 146.277 5.53454 146.277 8.30194 146.277C10.545 146.277 17.8551 150.144 23.3412 153.731C23.7168 153.976 24.1519 154.131 24.6085 154.177C66.6669 158.527 82.2896 192.694 90.6808 211.051C92.0942 214.144 93.3157 216.816 94.4183 218.769C94.7506 219.359 95.3047 219.805 95.9668 220.019C109.779 224.482 120.078 232.822 124.905 237.301C120.192 238.561 112.665 240.478 107.471 241.303C106.709 241.424 106.033 241.844 105.612 242.46C105.188 243.076 105.053 243.831 105.242 244.544C106.941 251.038 113.465 255.526 119.219 259.484C122.74 261.907 126.064 264.195 127.805 266.539C128.345 267.266 129.199 267.653 130.067 267.653C130.62 267.653 131.177 267.496 131.664 267.168C132.909 266.326 133.207 264.679 132.323 263.489Z" fill="#0E191F"/>
<path d="M24.9056 162.109C24.9056 163.567 26.1434 164.748 27.673 164.748C29.1998 164.748 30.4404 165.93 30.4404 167.386C30.4404 168.845 31.6782 170.025 33.2078 170.025C34.7375 170.025 35.9752 168.845 35.9752 167.386C35.9752 163.021 32.2513 159.47 27.6733 159.47C26.1434 159.47 24.9056 160.65 24.9056 162.109Z" fill="#0E191F"/>
<path d="M132.323 263.489C130.048 260.43 126.362 257.892 122.459 255.204C118.257 252.316 113.941 249.345 111.779 245.892C119.981 244.258 130.358 241.297 130.858 241.156C131.75 240.901 132.45 240.233 132.715 239.383C132.982 238.532 132.782 237.61 132.182 236.93C131.647 236.324 119.084 222.268 98.8045 215.372C97.91 213.664 96.9127 211.474 95.7536 208.941C87.5865 191.074 70.6314 153.995 25.8977 149.006C22.333 146.71 12.9907 141 8.30194 141C2.48358 141 0 143.368 0 148.916C0 151.616 2.30509 154.773 6.06431 159.702C7.90189 162.111 10.9775 166.144 11.0693 167.386C11.0693 171.705 16.3229 185.686 21.6063 191.667C21.4551 191.974 21.3036 192.275 21.1549 192.574C18.8145 197.276 16.6039 201.719 16.6039 212.242C16.6039 226.1 23.5653 233.351 30.4404 233.351C34.7076 233.351 36.8316 228.733 37.8532 223.327C41.6449 230.663 47.8389 240.221 56.5165 246.062C57.7678 246.897 59.4946 246.613 60.3756 245.428C61.2567 244.235 60.9594 242.591 59.7107 241.748C45.9497 232.487 38.6775 211.634 38.6046 211.422C38.183 210.191 36.8588 209.428 35.5398 209.637C34.1967 209.84 33.2075 210.946 33.2075 212.242C33.2075 219.488 31.7591 227.208 30.4401 228.073C26.4487 228.073 22.1382 222.02 22.1382 212.242C22.1382 202.906 23.9109 199.345 26.154 194.836C26.573 193.993 27.0052 193.127 27.4351 192.205C27.9296 191.141 27.6377 189.893 26.7136 189.133C22.4492 185.632 16.6039 170.89 16.6039 167.386C16.6039 164.685 14.2988 161.529 10.5396 156.6C8.70199 154.19 5.62638 150.158 5.53454 148.916C5.53454 146.277 5.53454 146.277 8.30194 146.277C10.545 146.277 17.8551 150.144 23.3412 153.731C23.7168 153.976 24.1519 154.131 24.6085 154.177C66.6669 158.527 82.2896 192.694 90.6808 211.051C92.0942 214.144 93.3157 216.816 94.4183 218.769C94.7506 219.359 95.3047 219.805 95.9668 220.019C109.779 224.482 120.078 232.822 124.905 237.301C120.192 238.561 112.665 240.478 107.471 241.303C106.709 241.424 106.033 241.844 105.612 242.46C105.188 243.076 105.053 243.831 105.242 244.544C106.941 251.038 113.465 255.526 119.219 259.484C122.74 261.907 126.064 264.195 127.805 266.539C128.345 267.266 129.199 267.653 130.067 267.653C130.62 267.653 131.177 267.496 131.664 267.168C132.909 266.326 133.207 264.679 132.323 263.489ZM24.9058 162.109C24.9058 163.567 26.1436 164.747 27.6732 164.747C29.2 164.747 30.4406 165.93 30.4406 167.386C30.4406 168.845 31.6784 170.025 33.208 170.025C34.7377 170.025 35.9754 168.845 35.9754 167.386C35.9754 163.021 32.2515 159.47 27.6735 159.47C26.1436 159.47 24.9058 160.65 24.9058 162.109Z" fill="url(#paint0_linear)"/>
</g>
<g clip-path="url(#clip1)">
<path d="M14.8914 85.8514C23.0663 85.8514 29.6934 79.2244 29.6934 71.0494C29.6934 62.8745 23.0663 56.2474 14.8914 56.2474C6.71644 56.2474 0.0893555 62.8745 0.0893555 71.0494C0.0893555 79.2244 6.71644 85.8514 14.8914 85.8514Z" fill="#0E191F"/>
<path d="M115.546 29.604C123.721 29.604 130.348 22.9769 130.348 14.802C130.348 6.62708 123.721 0 115.546 0C107.371 0 100.744 6.62708 100.744 14.802C100.744 22.9769 107.371 29.604 115.546 29.604Z" fill="#0E191F"/>
<path d="M115.546 142.099C123.721 142.099 130.348 135.472 130.348 127.297C130.348 119.122 123.721 112.495 115.546 112.495C107.371 112.495 100.744 119.122 100.744 127.297C100.744 135.472 107.371 142.099 115.546 142.099Z" fill="#0E191F"/>
<path d="M63.7974 93.5486C60.5475 90.7694 57.9382 87.3191 56.1491 83.4351C54.3601 79.5512 53.4337 75.3257 53.4337 71.0495C53.4337 66.7733 54.3601 62.5479 56.1491 58.6639C57.9382 54.78 60.5475 51.3297 63.7974 48.5505C64.3246 48.1028 64.6784 47.4846 64.7974 46.8032C64.9163 46.1218 64.793 45.4203 64.4487 44.8204L52.6071 24.1568C52.3996 23.7959 52.1183 23.4828 51.7817 23.2379C51.445 22.9931 51.0605 22.822 50.6532 22.7358C50.2432 22.6522 49.8201 22.6565 49.4119 22.7483C49.0037 22.8402 48.6196 23.0175 48.2849 23.2687C38.4313 30.3925 31.01 40.3772 27.0292 51.8661C26.8278 52.4348 26.805 53.0514 26.9637 53.6333C27.1224 54.2153 27.4551 54.7349 27.9173 55.1226C30.3009 57.0367 32.2245 59.4614 33.5462 62.2179C34.8679 64.9745 35.5541 67.9925 35.5541 71.0495C35.5541 74.1065 34.8679 77.1246 33.5462 79.8811C32.2245 82.6376 30.3009 85.0624 27.9173 86.9765C27.4551 87.3641 27.1224 87.8837 26.9637 88.4657C26.805 89.0477 26.8278 89.6643 27.0292 90.2329C30.9675 101.728 38.3471 111.733 48.1665 118.89C48.6626 119.262 49.2632 119.469 49.8835 119.482H50.4756C50.8828 119.396 51.2674 119.224 51.6041 118.98C51.9407 118.735 52.222 118.422 52.4294 118.061L64.271 97.3971C64.6682 96.8059 64.839 96.0914 64.752 95.3845C64.665 94.6776 64.3261 94.0258 63.7974 93.5486ZM69.5405 41.86C69.8876 42.4576 70.4327 42.915 71.0815 43.1529C71.7303 43.3908 72.4419 43.3942 73.093 43.1626C77.1546 41.6462 81.4996 41.0404 85.8211 41.3881C90.1425 41.7357 94.3348 43.0282 98.1018 45.1743C101.869 47.3204 105.118 50.2677 107.621 53.8078C110.124 57.3479 111.818 61.3945 112.585 65.6616C112.709 66.3412 113.067 66.9559 113.597 67.3992C114.127 67.8425 114.795 68.0866 115.486 68.0891H139.169C139.584 68.0912 139.995 68.006 140.375 67.8391C140.755 67.6722 141.095 67.4272 141.375 67.1201C141.654 66.8131 141.865 66.4508 141.995 66.0567C142.125 65.6626 142.171 65.2456 142.13 64.8327C140.908 53.3842 136.336 42.5507 128.985 33.6893C128.549 33.1666 127.945 32.8106 127.276 32.6812C126.608 32.5517 125.915 32.6569 125.314 32.9788C122.322 34.6315 118.963 35.5068 115.545 35.5247C110.151 35.5575 104.959 33.4738 101.085 29.7209C97.2102 25.9681 94.9618 20.8455 94.8224 15.4532C94.8036 14.7641 94.545 14.1031 94.091 13.5842C93.637 13.0654 93.0162 12.7213 92.3356 12.6112C81.0027 10.7111 69.3609 12.2153 58.8831 16.9334C58.5013 17.1016 58.1593 17.3487 57.8797 17.6583C57.6 17.968 57.389 18.3333 57.2604 18.7302C57.1318 19.1271 57.0886 19.5468 57.1335 19.9616C57.1785 20.3764 57.3107 20.777 57.5213 21.1372L69.5405 41.86ZM139.228 74.0099H115.545C114.854 74.0125 114.186 74.2565 113.656 74.6999C113.126 75.1432 112.768 75.7579 112.644 76.4375C111.872 80.683 110.181 84.7084 107.69 88.2318C105.199 91.7551 101.967 94.6913 98.222 96.8347C94.4768 98.978 90.3083 100.277 86.0085 100.64C81.7087 101.003 77.3814 100.421 73.3299 98.9365C72.6788 98.7048 71.9672 98.7083 71.3184 98.9462C70.6695 99.1841 70.1244 99.6415 69.7774 100.239L57.9358 120.962C57.7251 121.322 57.593 121.723 57.548 122.137C57.503 122.552 57.5463 122.972 57.6748 123.369C57.8034 123.766 58.0145 124.131 58.2941 124.441C58.5738 124.75 58.9157 124.997 59.2976 125.166C69.7754 129.884 81.4172 131.388 92.7501 129.488C93.4306 129.378 94.0515 129.034 94.5054 128.515C94.9594 127.996 95.2181 127.335 95.2368 126.646C95.2622 123.091 96.2122 119.604 97.9933 116.528C99.7745 113.451 102.326 110.891 105.396 109.099C108.466 107.307 111.949 106.345 115.504 106.307C119.059 106.27 122.562 107.157 125.67 108.883C126.27 109.205 126.963 109.31 127.632 109.181C128.3 109.052 128.904 108.696 129.341 108.173C136.542 99.342 141.008 88.6 142.189 77.2664C142.23 76.8535 142.184 76.4364 142.054 76.0424C141.924 75.6483 141.713 75.286 141.434 74.9789C141.155 74.6718 140.814 74.4269 140.434 74.26C140.054 74.093 139.643 74.0078 139.228 74.0099V74.0099Z" fill="#0E191F"/>
</g>
<path d="M233.594 176.845C194.518 176.845 163.903 193.425 163.903 214.594C163.903 235.762 194.518 252.343 233.594 252.343C272.67 252.343 303.284 235.762 303.284 214.594C303.284 193.425 272.67 176.845 233.594 176.845ZM226.358 188.46H233.966L231.552 200.075H238.347C242.656 200.075 245.549 200.676 247.195 202.186C248.804 203.67 249.292 206.109 248.647 209.434L245.627 223.305H237.891L240.67 210.476C241.013 208.72 240.874 207.494 240.287 206.847C239.698 206.199 238.402 205.883 236.463 205.883H230.374L226.697 223.305H219.075L226.358 188.46ZM192.941 200.075H208.424C215.808 200.075 220.277 205.02 218.529 212.404C216.499 220.982 211.058 223.305 201.051 223.305H196.266L194.744 232.017H187.055L192.941 200.075ZM253.92 200.075H269.403C276.787 200.075 281.256 205.02 279.508 212.404C277.481 220.982 272.037 223.305 262.033 223.305H257.248L255.726 232.017H248.037L253.92 200.075ZM199.533 205.883L197.343 217.498H202.309C206.609 217.498 210.602 217.01 211.27 210.601C211.519 208.119 210.489 205.883 205.52 205.883H199.533ZM260.512 205.883L258.322 217.498H263.288C267.588 217.498 271.581 217.01 272.252 210.601C272.498 208.119 271.468 205.883 266.499 205.883H260.512Z" fill="#0E191F"/>
<defs>
<linearGradient id="paint0_linear" x1="-12.4664" y1="171.657" x2="141.869" y2="247.122" gradientUnits="userSpaceOnUse">
<stop stop-color="white" stop-opacity="0.2"/>
<stop offset="1" stop-color="white" stop-opacity="0"/>
</linearGradient>
<clipPath id="clip0">
<rect width="132.832" height="126.654" fill="white" transform="translate(0 141)"/>
</clipPath>
<clipPath id="clip1">
<rect width="142.099" height="142.099" fill="white" transform="translate(0.0893555)"/>
</clipPath>
</defs>
</svg>
