<svg width="356" height="261" viewBox="0 0 356 261" fill="none" xmlns="http://www.w3.org/2000/svg">
<path d="M79.5384 71.8204L13.4609 116.022L78.4906 213.236L144.568 169.034L79.5384 71.8204Z" fill="#F5F5F5"/>
<path d="M110.547 164.44L109.798 169.073L76.9253 164.346L77.6737 159.712L110.547 164.44Z" fill="#E0E0E0"/>
<path d="M93.9921 147.911L98.7067 148.588L93.4794 180.881L88.7588 180.198L93.9921 147.911Z" fill="#E0E0E0"/>
<path d="M63.7416 106.869C63.7888 106.934 57.1646 111.444 48.9434 116.924C40.7222 122.404 34.0215 126.802 33.9744 126.732C33.9272 126.661 40.5513 122.157 48.7725 116.671C56.9937 111.185 63.665 106.798 63.7416 106.869Z" fill="#E0E0E0"/>
<path d="M88.0337 100.777C88.0809 100.848 77.0604 108.28 63.4232 117.382C49.786 126.485 38.6712 133.805 38.6358 133.741C38.6005 133.676 49.5974 126.232 63.2523 117.13C76.9071 108.027 87.9866 100.707 88.0337 100.777Z" fill="#E0E0E0"/>
<path d="M92.9073 108.045C92.9544 108.116 81.9339 115.554 68.2967 124.656C54.6595 133.758 43.5447 141.079 43.5094 141.008C43.474 140.938 54.4827 133.506 68.1258 124.397C81.7689 115.289 92.8601 107.975 92.9073 108.045Z" fill="#E0E0E0"/>
<path d="M97.7815 115.319C97.8287 115.389 86.8081 122.827 73.1709 131.924C59.5338 141.02 48.4189 148.352 48.4189 148.282C48.4189 148.211 59.3864 140.773 73.0295 131.671C86.6726 122.569 97.7344 115.248 97.7815 115.319Z" fill="#E0E0E0"/>
<path d="M102.637 122.592C102.684 122.663 91.6638 130.095 78.0266 139.197C64.3895 148.299 53.2746 155.62 53.2452 155.549C53.2157 155.479 64.2303 148.047 77.8852 138.944C91.54 129.842 102.637 122.521 102.637 122.592Z" fill="#E0E0E0"/>
<path d="M300.694 136.983L245.161 174.047L299.86 255.632L355.393 218.567L300.694 136.983Z" fill="#F5F5F5"/>
<path d="M326.702 214.726L326.072 218.618L298.461 214.649L299.098 210.757L326.702 214.726Z" fill="#E0E0E0"/>
<path d="M312.8 200.843L316.76 201.414L312.37 228.532L308.403 227.962L312.8 200.843Z" fill="#E0E0E0"/>
<path d="M287.37 166.404C287.417 166.475 281.86 170.267 274.953 174.871C268.046 179.475 262.412 183.156 262.365 183.103C262.317 183.05 267.881 179.246 274.782 174.636C281.683 170.026 287.323 166.304 287.37 166.404Z" fill="#E0E0E0"/>
<path d="M307.79 161.259C307.837 161.329 298.591 167.586 287.164 175.224C275.736 182.862 266.384 189.012 266.337 188.942C266.289 188.871 275.536 182.615 286.963 174.971C298.39 167.327 307.725 161.188 307.79 161.259Z" fill="#E0E0E0"/>
<path d="M311.886 167.362C311.933 167.433 302.687 173.689 291.259 181.333C279.832 188.977 270.479 195.116 270.432 195.045C270.385 194.975 279.602 188.748 291.059 181.104C302.516 173.46 311.851 167.298 311.886 167.362Z" fill="#E0E0E0"/>
<path d="M315.976 173.46C316.023 173.531 306.771 179.787 295.35 187.431C283.928 195.075 274.57 201.214 274.523 201.143C274.475 201.073 283.722 194.822 295.149 187.172C306.576 179.522 315.935 173.401 315.976 173.46Z" fill="#E0E0E0"/>
<path d="M320.101 179.581C320.148 179.652 310.902 185.902 299.475 193.546C288.048 201.19 278.695 207.329 278.648 207.264C278.6 207.2 287.847 200.937 299.274 193.293C310.701 185.649 320.025 179.511 320.101 179.581Z" fill="#E0E0E0"/>
<path d="M212.838 75.4636L152.244 43.1284L104.524 132.149L165.117 164.484L212.838 75.4636Z" fill="#F5F5F5"/>
<path d="M154.746 136.633L150.904 137.945L141.145 111.032L144.993 109.715L154.746 136.633Z" fill="#E0E0E0"/>
<path d="M160.64 117.324L162.042 121.187L135.251 130.342L133.849 126.479L160.64 117.324Z" fill="#E0E0E0"/>
<path d="M179.676 77.6158C179.628 77.704 173.488 74.5171 165.95 70.501C158.412 66.485 152.348 63.151 152.395 63.0628C152.442 62.9746 158.589 66.1616 166.127 70.1776C173.664 74.1937 179.723 77.5217 179.676 77.6158Z" fill="#E0E0E0"/>
<path d="M194.22 93.6273C194.173 93.7155 184.001 88.3765 171.501 81.7085C159.001 75.0406 148.912 69.5605 148.959 69.4723C149.006 69.3841 159.172 74.7172 171.672 81.391C184.172 88.0648 194.267 93.5391 194.22 93.6273Z" fill="#E0E0E0"/>
<path d="M190.649 100.289C190.602 100.377 180.43 95.0442 167.93 88.3704C155.43 81.6966 145.341 76.2223 145.388 76.1341C145.435 76.0459 155.601 81.385 168.101 88.0529C180.601 94.7208 190.696 100.201 190.649 100.289Z" fill="#E0E0E0"/>
<path d="M187.077 106.951C187.03 107.039 176.858 101.706 164.359 95.0384C151.859 88.3704 141.769 82.9079 141.817 82.8021C141.864 82.6962 152.03 88.047 164.529 94.715C177.029 101.383 187.125 106.863 187.077 106.951Z" fill="#E0E0E0"/>
<path d="M183.506 113.613C183.459 113.702 173.287 108.368 160.787 101.701C148.288 95.0326 138.192 89.5524 138.245 89.4642C138.298 89.376 148.458 94.7092 160.958 101.377C173.458 108.045 183.553 113.525 183.506 113.613Z" fill="#E0E0E0"/>
<path opacity="0.2" d="M183.818 0H182.298V25.8602H183.818V0Z" fill="black"/>
<path d="M147.562 57.1478H218.554C218.554 57.1478 212 25.8721 182.522 25.8721C156.302 25.8721 147.562 57.1478 147.562 57.1478Z" fill="#FFAF2D"/>
<path d="M183.818 0H182.298V25.8602H183.818V0Z" fill="#FFAF2D"/>
<path d="M341.123 258.62C341.123 258.702 264.951 258.773 171.006 258.773C77.0601 258.773 0.876953 258.72 0.876953 258.62C0.876953 258.52 77.0365 258.467 171.006 258.467C264.975 258.467 341.123 258.532 341.123 258.62Z" fill="#263238"/>
<path d="M19.7123 221.794C20.7087 221.865 21.6803 222.137 22.5693 222.591C23.4584 223.046 24.2465 223.675 24.8866 224.44C26.1595 225.979 27.0608 227.79 27.5209 229.732C28.5169 233.448 27.904 237.84 26.8432 241.539C22.8122 240.098 20.3193 235.806 19.1819 233.548C17.4139 229.985 16.359 222.458 19.6946 221.788" fill="#FFAF2D"/>
<path d="M32.6482 246.049C32.0429 245.112 31.6967 244.032 31.645 242.919C31.5932 241.806 31.8377 240.699 32.3535 239.71C32.8855 238.731 33.6077 237.867 34.4779 237.17C35.3481 236.472 36.3489 235.955 37.4218 235.647C38.406 235.341 39.5493 235.218 40.4038 235.788C40.789 236.079 41.089 236.467 41.2725 236.913C41.456 237.359 41.5162 237.846 41.4469 238.323C41.2922 239.278 40.8854 240.175 40.2683 240.922C38.3058 243.573 35.9249 245.778 32.6069 246.049" fill="#FFAF2D"/>
<path d="M33.0958 258.473C33.0084 258.223 32.9471 257.965 32.9131 257.703C32.8071 257.15 32.6656 256.439 32.4947 255.586C31.9657 253.252 31.8184 250.847 32.0586 248.465C32.3365 246.072 33.25 243.797 34.7047 241.874C35.1492 241.299 35.6617 240.78 36.2311 240.328C36.3858 240.205 36.5471 240.091 36.7143 239.986C36.7675 239.942 36.8271 239.907 36.8911 239.881C36.1457 240.516 35.4647 241.223 34.8579 241.992C33.4799 243.916 32.6122 246.157 32.3356 248.507C31.9584 251.247 32.424 253.757 32.6951 255.563C32.8365 256.462 32.9544 257.191 33.0192 257.697C33.0656 257.953 33.0913 258.213 33.0958 258.473V258.473Z" fill="#263238"/>
<path d="M21.0088 227.456C21.0761 227.549 21.1315 227.65 21.1738 227.756C21.2799 227.991 21.4213 228.285 21.5863 228.656C21.9458 229.438 22.4468 230.573 23.0538 231.978C24.2678 234.795 25.8944 238.711 27.5917 243.074C29.2889 247.437 30.7328 251.417 31.717 254.316C32.2238 255.763 32.6187 256.939 32.8957 257.756C33.0194 258.144 33.1137 258.456 33.1903 258.697C33.2324 258.805 33.262 258.917 33.2787 259.032C33.219 258.932 33.1715 258.826 33.1373 258.714C33.0489 258.479 32.9369 258.173 32.7896 257.791L31.5461 254.381C30.4912 251.506 29.0178 247.531 27.3265 243.174C25.6351 238.816 24.0321 234.889 22.8652 232.054C22.2759 230.661 21.8221 229.526 21.4862 228.697C21.3329 228.321 21.2092 228.021 21.1149 227.78C21.0706 227.675 21.0351 227.567 21.0088 227.456V227.456Z" fill="#263238"/>
<path d="M28.3048 250.253C27.0921 248.239 25.4164 246.541 23.416 245.301C21.4157 244.061 19.1482 243.313 16.801 243.121C15.6223 243.038 14.1726 243.238 13.6422 244.297C13.1118 245.355 13.819 246.649 14.6323 247.507C16.3602 249.311 18.5846 250.563 21.0251 251.108C23.4656 251.652 26.013 251.463 28.346 250.565" fill="#FFAF2D"/>
<path d="M18.6162 246.307C18.8661 246.295 19.1166 246.305 19.3647 246.337C19.6552 246.352 19.9446 246.386 20.231 246.437C20.5669 246.501 20.9618 246.537 21.3743 246.654C21.8354 246.752 22.2901 246.877 22.7357 247.031C23.2519 247.196 23.7577 247.392 24.2503 247.619C25.3832 248.125 26.4548 248.758 27.4444 249.506C28.4226 250.272 29.3086 251.148 30.0847 252.117C30.4198 252.539 30.7288 252.98 31.0099 253.44C31.264 253.836 31.4962 254.247 31.7053 254.669C31.8824 255.012 32.0398 255.366 32.1768 255.727C32.295 255.995 32.3954 256.27 32.4773 256.55C32.5646 256.785 32.6298 257.027 32.6718 257.274C32.607 257.274 32.3241 256.262 31.5285 254.757C31.3119 254.353 31.0739 253.96 30.8154 253.581C30.5282 253.135 30.2174 252.706 29.8843 252.293C28.3428 250.393 26.3771 248.878 24.1442 247.871C23.6315 247.648 23.1423 247.436 22.665 247.283C22.2267 247.124 21.7801 246.989 21.3272 246.878C19.677 246.425 18.6103 246.372 18.6162 246.307Z" fill="#263238"/>
<path d="M286.132 62.0221C284.399 62.4161 283.557 64.4094 283.392 66.1734C283.227 67.9374 283.451 69.8072 282.708 71.4184C281.871 73.2294 279.873 74.57 279.808 76.5634C279.767 77.7805 280.492 78.9154 280.457 80.1443C280.398 82.1435 278.359 83.6723 278.247 85.648C278.17 87.0886 279.131 88.4645 278.901 89.8874C278.724 90.9929 277.858 91.8631 277.492 92.9215C276.768 95.0383 278.223 97.3609 280.115 98.5487C281.175 99.2135 282.367 99.6394 283.609 99.7966C284.851 99.9539 286.112 99.8386 287.305 99.459C288.498 99.0793 289.593 98.4444 290.514 97.5985C291.435 96.7527 292.16 95.7164 292.638 94.562C293.687 92.0219 293.458 89.1583 293.228 86.4241C292.52 77.8942 291.994 69.3525 291.648 60.7991" fill="#263238"/>
<path d="M281.1 92.116C281.456 91.8949 281.734 91.568 281.895 91.1811C282.065 90.7209 282.134 90.2295 282.096 89.7405C282.031 89.0921 281.887 88.4542 281.665 87.8412C281.383 87.0707 281.279 86.2468 281.359 85.4304C281.506 84.5131 282.166 83.7605 282.762 83.0196C283.082 82.657 283.35 82.2513 283.557 81.8142C283.765 81.3723 283.798 80.8686 283.651 80.403C283.345 79.4446 282.402 78.739 281.972 77.6277C281.77 77.0775 281.737 76.4796 281.878 75.9107C282.011 75.3773 282.209 74.862 282.467 74.376C282.964 73.5008 283.36 72.5716 283.646 71.6065C284.058 69.7426 283.864 67.9609 284.146 66.4968C284.303 65.3242 284.825 64.2302 285.637 63.3687C285.867 63.1366 286.129 62.9386 286.415 62.7807C286.514 62.7294 286.619 62.6918 286.728 62.6689C286.358 62.8718 286.019 63.1252 285.72 63.4216C284.967 64.2917 284.493 65.367 284.359 66.5086C284.255 67.2885 284.2 68.0739 284.194 68.8606C284.192 69.7864 284.101 70.7098 283.923 71.6183C283.641 72.6055 283.246 73.5567 282.744 74.4525C282.302 75.3756 281.895 76.4575 282.284 77.4689C282.673 78.4803 283.61 79.18 283.97 80.2619C284.132 80.7964 284.092 81.3717 283.858 81.8789C283.628 82.3599 283.33 82.8054 282.974 83.2019C282.384 83.9428 281.742 84.6484 281.601 85.4716C281.518 86.2524 281.611 87.0417 281.872 87.7824C282.082 88.4145 282.213 89.0703 282.261 89.7346C282.29 90.2462 282.199 90.7576 281.995 91.2281C281.869 91.5231 281.665 91.7789 281.406 91.969C281.314 92.0363 281.21 92.0862 281.1 92.116V92.116Z" fill="#455A64"/>
<path d="M276.491 106.057L271.187 121.345L249.004 122.521L245.303 130.753L268.464 133.105C269.558 133.554 270.732 133.776 271.915 133.759C273.098 133.741 274.265 133.485 275.346 133.005C276.426 132.526 277.398 131.832 278.203 130.967C279.007 130.102 279.628 129.083 280.027 127.972L286.209 110.755L276.491 106.057Z" fill="#B78876"/>
<path d="M322.347 250.312C322.347 250.312 306.093 198.791 305.745 197.121C305.433 195.604 311.639 158.531 312.428 148.905L290.464 149.722V149.94L281.129 150.457L289.486 255.78H299.593L298.591 220.823C304.826 237.517 313.76 254.533 313.76 254.533L322.347 250.312Z" fill="#B78876"/>
<path d="M299.004 233.365C299.004 233.048 298.88 221.652 298.88 221.652C298.756 222.335 295.008 211.762 295.096 211.121C295.143 210.786 299.004 233.365 299.004 233.365Z" fill="#A36957"/>
<path d="M294.672 206.112C294.62 206.321 294.598 206.537 294.607 206.752C294.574 207.34 294.574 207.929 294.607 208.516C294.607 208.887 294.66 209.287 294.707 209.722C294.754 210.157 294.819 210.616 294.919 211.092C295.129 212.132 295.406 213.157 295.75 214.161C296.481 216.296 297.294 218.16 297.866 219.512C298.137 220.1 298.373 220.659 298.573 221.106C298.645 221.313 298.744 221.511 298.868 221.694C298.836 221.49 298.777 221.292 298.691 221.106C298.555 220.717 298.349 220.159 298.102 219.471C297.583 218.095 296.805 216.213 296.08 214.102C295.737 213.113 295.456 212.104 295.238 211.08C295.131 210.61 295.061 210.157 294.996 209.734C294.931 209.31 294.884 208.91 294.854 208.558C294.784 207.829 294.754 207.241 294.737 206.829C294.748 206.588 294.726 206.347 294.672 206.112V206.112Z" fill="#A36957"/>
<path d="M289.297 256.315V255.368L299.652 254.916L299.681 258.826L299.045 258.867C296.198 259.032 284.576 259.514 282.679 258.943C280.551 258.308 289.297 256.315 289.297 256.315Z" fill="#455A64"/>
<path d="M299.817 258.591C299.758 258.594 299.699 258.594 299.64 258.591L299.133 258.626L297.259 258.708C295.679 258.773 293.493 258.832 291.083 258.843C288.672 258.855 286.48 258.814 284.895 258.767L283.026 258.691H282.514H282.337C282.396 258.686 282.455 258.686 282.514 258.691H283.026L284.901 258.726C286.48 258.726 288.666 258.773 291.077 258.761C293.487 258.749 295.679 258.708 297.259 258.667L299.133 258.62H299.817V258.591Z" fill="#263238"/>
<path d="M285.92 258.92C285.834 258.612 285.716 258.314 285.567 258.032C285.38 257.771 285.165 257.533 284.924 257.32C285.246 257.435 285.513 257.666 285.673 257.967C285.868 258.244 285.956 258.583 285.92 258.92V258.92Z" fill="#263238"/>
<path d="M288.973 257.373C288.973 257.373 288.802 257.215 288.649 256.979C288.495 256.744 288.401 256.538 288.431 256.521C288.46 256.503 288.602 256.674 288.755 256.909C288.908 257.144 289.002 257.356 288.973 257.373Z" fill="#263238"/>
<path d="M289.81 256.956C289.81 256.985 289.621 256.874 289.444 256.715C289.268 256.556 289.138 256.409 289.161 256.386C289.185 256.362 289.35 256.468 289.527 256.627C289.704 256.785 289.833 256.903 289.81 256.956Z" fill="#263238"/>
<path d="M290.334 255.956C290.161 256.02 289.976 256.044 289.792 256.027C289.612 256.051 289.428 256.033 289.256 255.974C289.427 255.911 289.61 255.887 289.792 255.903C289.975 255.879 290.16 255.897 290.334 255.956V255.956Z" fill="#263238"/>
<path d="M290.511 255.274C290.336 255.388 290.131 255.449 289.922 255.451C289.722 255.477 289.518 255.449 289.333 255.368C289.527 255.336 289.724 255.32 289.922 255.321C290.116 255.287 290.314 255.271 290.511 255.274Z" fill="#263238"/>
<path d="M288.625 256.474C288.405 256.515 288.179 256.515 287.959 256.474C287.721 256.445 287.486 256.394 287.258 256.321C287.116 256.282 286.98 256.227 286.851 256.156C286.773 256.11 286.714 256.037 286.686 255.95C286.675 255.901 286.679 255.85 286.697 255.803C286.715 255.756 286.746 255.715 286.786 255.686C286.95 255.607 287.128 255.565 287.31 255.564C287.491 255.562 287.671 255.6 287.835 255.676C288 255.752 288.145 255.864 288.262 256.003C288.378 256.142 288.462 256.304 288.507 256.48C288.519 256.538 288.519 256.598 288.507 256.656C288.441 256.444 288.337 256.244 288.201 256.068C288.044 255.892 287.839 255.765 287.612 255.703C287.351 255.619 287.067 255.64 286.822 255.762C286.722 255.839 286.763 255.962 286.875 256.033C286.995 256.098 287.121 256.151 287.252 256.191C287.474 256.264 287.7 256.321 287.93 256.362C288.372 256.456 288.625 256.456 288.625 256.474Z" fill="#263238"/>
<path d="M288.454 256.509C288.368 256.372 288.339 256.208 288.372 256.05C288.393 255.877 288.456 255.712 288.554 255.568C288.61 255.47 288.689 255.387 288.785 255.328C288.88 255.268 288.99 255.233 289.102 255.227C289.169 255.243 289.228 255.283 289.266 255.339C289.304 255.396 289.319 255.465 289.309 255.533C289.294 255.638 289.256 255.739 289.197 255.827C289.107 255.973 289.002 256.109 288.884 256.233C288.782 256.35 288.652 256.441 288.507 256.497C288.507 256.497 288.637 256.38 288.819 256.168C288.925 256.047 289.018 255.915 289.096 255.774C289.185 255.633 289.25 255.38 289.096 255.351C288.943 255.321 288.766 255.503 288.666 255.633C288.573 255.76 288.508 255.907 288.478 256.062C288.454 256.21 288.446 256.359 288.454 256.509V256.509Z" fill="#263238"/>
<path d="M299.599 255.78C299.599 255.78 299.304 255.78 298.839 255.809C298.232 255.882 297.659 256.122 297.182 256.504C296.706 256.885 296.347 257.392 296.145 257.967C295.992 258.408 295.98 258.708 295.957 258.702C295.933 258.696 295.957 258.626 295.957 258.496C295.972 258.307 296.007 258.12 296.063 257.938C296.25 257.336 296.611 256.802 297.1 256.403C297.595 256.011 298.197 255.776 298.827 255.727C299.023 255.703 299.22 255.703 299.416 255.727C299.479 255.737 299.54 255.754 299.599 255.78V255.78Z" fill="#263238"/>
<path d="M294.642 257.767C294.148 257.882 293.641 257.932 293.134 257.914C292.629 257.939 292.124 257.896 291.631 257.785C291.631 257.75 292.303 257.785 293.134 257.785C293.965 257.785 294.637 257.732 294.642 257.767Z" fill="#263238"/>
<path d="M296.657 257.75C296.657 257.75 296.604 257.891 296.534 258.044C296.463 258.197 296.428 258.338 296.393 258.332C296.358 258.326 296.34 258.173 296.422 257.991C296.504 257.808 296.634 257.72 296.657 257.75Z" fill="#263238"/>
<path d="M297.417 256.803C297.417 256.803 297.376 256.932 297.27 257.038C297.164 257.144 297.059 257.215 297.029 257.191C297 257.168 297.07 257.062 297.176 256.95C297.282 256.838 297.388 256.774 297.417 256.803Z" fill="#263238"/>
<path d="M298.502 256.368C298.502 256.403 298.361 256.403 298.207 256.456C298.054 256.509 297.948 256.591 297.919 256.568C297.889 256.544 297.978 256.403 298.166 256.339C298.355 256.274 298.514 256.333 298.502 256.368Z" fill="#263238"/>
<path d="M299.274 256.156C299.274 256.191 299.232 256.244 299.144 256.274C299.056 256.303 298.98 256.309 298.968 256.274C298.956 256.238 299.015 256.185 299.097 256.156C299.179 256.127 299.262 256.127 299.274 256.156Z" fill="#263238"/>
<path d="M313.554 255.404L313.165 254.539L322.424 249.9L324.056 253.428L323.467 253.728C320.938 255.039 310.537 260.225 308.568 260.484C306.394 260.796 313.554 255.404 313.554 255.404Z" fill="#455A64"/>
<path d="M324.091 253.175L323.938 253.269L323.484 253.504L321.81 254.351C320.396 255.051 318.428 255.997 316.229 256.997C314.031 257.997 312.016 258.849 310.554 259.455L308.816 260.155L308.344 260.337C308.29 260.362 308.232 260.38 308.173 260.39L308.332 260.313L308.798 260.108L310.519 259.373C311.975 258.749 313.978 257.879 316.176 256.879C318.375 255.88 320.349 254.951 321.775 254.269L323.461 253.463L323.926 253.246L324.091 253.175Z" fill="#263238"/>
<path d="M311.568 259.155C311.364 258.907 311.133 258.682 310.879 258.485C310.602 258.321 310.307 258.191 310 258.097C310.339 258.092 310.671 258.191 310.951 258.38C311.231 258.57 311.447 258.84 311.568 259.155V259.155Z" fill="#263238"/>
<path d="M313.695 256.497C313.695 256.497 313.471 256.427 313.235 256.274C313 256.121 312.829 255.974 312.846 255.945C312.864 255.915 313.07 256.015 313.306 256.168C313.542 256.321 313.713 256.468 313.695 256.497Z" fill="#263238"/>
<path d="M314.273 255.78C314.273 255.809 314.073 255.78 313.843 255.709C313.613 255.639 313.442 255.551 313.448 255.515C313.597 255.501 313.747 255.526 313.884 255.586C314.108 255.639 314.285 255.721 314.273 255.78Z" fill="#263238"/>
<path d="M314.356 254.651C314.356 254.686 314.161 254.81 313.89 254.939C313.734 255.033 313.559 255.091 313.377 255.109C313.377 255.074 313.572 254.951 313.837 254.821C313.996 254.728 314.173 254.67 314.356 254.651V254.651Z" fill="#263238"/>
<path d="M314.238 253.957C314.238 253.957 314.067 254.192 313.76 254.363C313.587 254.48 313.381 254.542 313.171 254.539C313.34 254.426 313.519 254.329 313.707 254.251C313.996 254.092 314.208 253.928 314.238 253.957Z" fill="#263238"/>
<path d="M313.029 255.827C312.85 255.95 312.65 256.041 312.44 256.097C312.208 256.165 311.972 256.214 311.733 256.244C311.588 256.262 311.442 256.262 311.297 256.244C311.206 256.238 311.121 256.195 311.061 256.127C311.034 256.085 311.019 256.036 311.019 255.986C311.019 255.936 311.034 255.887 311.061 255.845C311.24 255.628 311.489 255.48 311.765 255.427C312.042 255.373 312.328 255.417 312.576 255.551C312.722 255.627 312.85 255.733 312.953 255.862C313.023 255.956 313.053 256.015 313.047 256.021C312.902 255.859 312.728 255.726 312.534 255.627C312.327 255.53 312.095 255.495 311.868 255.527C311.733 255.541 311.602 255.581 311.483 255.646C311.364 255.711 311.258 255.798 311.173 255.903C311.108 256.015 311.173 256.109 311.332 256.127C311.467 256.138 311.603 256.138 311.739 256.127C311.973 256.103 312.206 256.062 312.434 256.003C312.77 255.909 313.029 255.809 313.029 255.827Z" fill="#263238"/>
<path d="M312.864 255.927C312.733 255.834 312.641 255.696 312.605 255.539C312.553 255.373 312.541 255.198 312.57 255.027C312.58 254.914 312.619 254.806 312.683 254.712C312.747 254.619 312.834 254.543 312.935 254.492C313.083 254.445 313.424 254.745 313.448 254.857C313.471 254.969 313.277 254.91 313.265 255.004C313.246 255.171 313.207 255.335 313.147 255.492C313.104 255.643 313.023 255.781 312.912 255.892C312.912 255.892 312.982 255.733 313.065 255.468C313.107 255.312 313.137 255.153 313.153 254.992C313.153 254.827 313.153 254.575 312.965 254.616C312.776 254.657 312.723 254.886 312.682 255.051C312.646 255.204 312.646 255.363 312.682 255.515C312.73 255.658 312.792 255.795 312.864 255.927V255.927Z" fill="#263238"/>
<path d="M322.736 250.7C322.736 250.7 322.453 250.8 322.052 251.041C321.528 251.353 321.101 251.805 320.82 252.346C320.548 252.892 320.431 253.502 320.484 254.11C320.52 254.581 320.632 254.851 320.608 254.863C320.57 254.804 320.54 254.741 320.52 254.675C320.461 254.495 320.42 254.31 320.396 254.122C320.312 253.496 320.42 252.859 320.708 252.296C320.995 251.733 321.448 251.27 322.005 250.97C322.172 250.878 322.347 250.803 322.529 250.747C322.595 250.721 322.665 250.705 322.736 250.7V250.7Z" fill="#263238"/>
<path d="M319.028 254.545C318.198 255.122 317.269 255.544 316.288 255.792C316.288 255.756 316.907 255.521 317.661 255.204C318.416 254.886 319.011 254.516 319.028 254.545Z" fill="#263238"/>
<path d="M320.862 253.704C320.891 253.704 320.862 253.851 320.862 254.022C320.862 254.192 320.862 254.333 320.862 254.345C320.862 254.357 320.744 254.216 320.744 254.022C320.744 253.828 320.832 253.686 320.862 253.704Z" fill="#263238"/>
<path d="M321.162 252.528C321.191 252.528 321.162 252.663 321.126 252.805C321.091 252.946 321.003 253.052 320.973 253.04C320.944 253.028 320.973 252.905 321.009 252.763C321.044 252.622 321.126 252.516 321.162 252.528Z" fill="#263238"/>
<path d="M321.975 251.664C321.975 251.699 321.858 251.752 321.74 251.864C321.622 251.975 321.557 252.093 321.528 252.081C321.498 252.07 321.528 251.905 321.657 251.77C321.787 251.634 321.97 251.664 321.975 251.664Z" fill="#263238"/>
<path d="M322.594 251.182C322.594 251.182 322.594 251.276 322.523 251.341C322.452 251.405 322.388 251.441 322.364 251.417C322.341 251.394 322.364 251.323 322.435 251.258C322.505 251.194 322.57 251.158 322.594 251.182Z" fill="#263238"/>
<path d="M311.002 131.5L309.281 110.509L318.121 110.667C318.121 110.667 318.528 107.569 317.226 100.783C316.424 96.62 313.648 94.0681 310.531 92.5511V92.4923L310.26 92.4217C307.693 91.2721 304.953 90.5587 302.15 90.3108L291.277 90.4343C291.277 90.4343 282.973 89.3759 278.394 95.3088C276.626 97.5844 271.14 113.16 271.14 113.16L284.193 119.429L282.973 110.791C282.973 110.791 283.221 117.053 284.023 119.023C284.465 120.128 285.791 123.562 285.791 123.562L285.62 133.923L311.002 131.5Z" fill="#FFAF2D"/>
<path d="M305.009 107.463L303.394 114.319H318.617L317.615 102.817L305.009 107.463Z" fill="#FFAF2D"/>
<path d="M318.616 114.319C317.951 114.196 317.277 114.13 316.601 114.119C315.351 114.048 313.654 113.984 311.721 113.995C309.788 114.007 308.085 114.089 306.835 114.183C306.159 114.207 305.487 114.29 304.826 114.43C305.5 114.484 306.178 114.484 306.853 114.43C308.096 114.389 309.8 114.342 311.721 114.336C313.642 114.33 315.345 114.336 316.595 114.366C317.269 114.403 317.945 114.388 318.616 114.319V114.319Z" fill="#263238"/>
<path d="M304.349 102.765C304.276 103.35 304.26 103.941 304.302 104.529C304.302 105.605 304.349 107.086 304.414 108.727C304.478 110.367 304.555 111.855 304.626 112.925C304.629 113.518 304.692 114.109 304.814 114.689C304.887 114.104 304.903 113.513 304.862 112.925C304.862 111.849 304.814 110.362 304.75 108.721C304.685 107.081 304.608 105.599 304.537 104.523C304.535 103.932 304.472 103.343 304.349 102.765Z" fill="#263238"/>
<g opacity="0.3">
<path opacity="0.3" d="M290.5 108.703C290.5 108.703 293.882 133.735 303.394 133.07C303.394 133.07 307.679 133.023 309.052 130.183V129.066L290.5 108.703Z" fill="black"/>
</g>
<g opacity="0.3">
<path opacity="0.3" d="M304.348 104.24L302.527 116.512L303.706 118.664L305.651 114.454L304.826 114.431L304.348 104.24Z" fill="black"/>
</g>
<path d="M285.737 123.574C285.624 123.391 285.537 123.193 285.478 122.986C285.331 122.604 285.136 122.045 284.889 121.345C284.299 119.522 283.813 117.667 283.433 115.789C283.055 113.91 282.815 112.005 282.714 110.091C282.679 109.356 282.667 108.762 282.679 108.327C282.664 108.115 282.678 107.901 282.72 107.692C282.767 107.692 282.803 108.598 282.926 110.044C283.092 111.941 283.362 113.827 283.734 115.695C284.17 117.882 284.694 119.84 285.095 121.246C285.284 121.898 285.443 122.457 285.572 122.915C285.653 123.128 285.709 123.349 285.737 123.574V123.574Z" fill="#263238"/>
<path d="M289.58 130.765C289.498 130.765 289.262 130.254 289.056 129.589C288.878 129.182 288.799 128.739 288.826 128.296C289.086 128.655 289.265 129.066 289.35 129.501C289.519 129.9 289.598 130.332 289.58 130.765V130.765Z" fill="#263238"/>
<path d="M290.894 130.671C290.449 129.492 290.43 128.194 290.841 127.002C290.887 127.613 290.887 128.226 290.841 128.837C290.905 129.446 290.922 130.059 290.894 130.671V130.671Z" fill="#263238"/>
<path d="M284.459 119.717C284.417 119.787 281.382 118.352 277.675 116.506C273.968 114.66 270.992 113.096 271.028 113.019C271.063 112.943 274.104 114.383 277.811 116.23C281.518 118.076 284.494 119.64 284.459 119.717Z" fill="#263238"/>
<path d="M289.81 92.4629C289.875 89.4877 289.892 86.3595 289.892 86.3595C289.892 86.3595 286.068 85.6245 285.402 80.603C284.765 75.8167 286.545 64.58 286.545 64.58C292.132 62.4749 297.937 64.3859 301.762 68.9018L300.813 93.0509C300.701 95.8557 298.196 97.996 295.19 97.8549C292.15 97.7079 289.745 95.2971 289.81 92.4629Z" fill="#B78876"/>
<path d="M286.25 73.5587C286.245 73.7236 286.303 73.8842 286.413 74.0077C286.522 74.1312 286.675 74.2083 286.84 74.2232C286.923 74.2312 287.008 74.2222 287.088 74.1967C287.168 74.1711 287.242 74.1295 287.305 74.0745C287.369 74.0195 287.42 73.9522 287.457 73.8766C287.493 73.8011 287.514 73.719 287.517 73.6352C287.522 73.471 287.464 73.3111 287.354 73.1885C287.245 73.066 287.092 72.9901 286.928 72.9766C286.844 72.9639 286.758 72.9695 286.677 72.9929C286.595 73.0163 286.52 73.0571 286.455 73.1123C286.391 73.1676 286.339 73.2361 286.304 73.3132C286.268 73.3902 286.25 73.474 286.25 73.5587V73.5587Z" fill="#263238"/>
<path d="M286.015 72.7178C286.091 72.8001 286.604 72.4532 287.282 72.4767C287.959 72.5002 288.46 72.853 288.543 72.7707C288.625 72.6884 288.507 72.5826 288.289 72.412C287.994 72.1988 287.64 72.0817 287.276 72.0769C286.917 72.0632 286.563 72.1664 286.268 72.3709C286.05 72.5296 285.973 72.6766 286.015 72.7178Z" fill="#263238"/>
<path d="M293.269 73.9938C293.262 74.159 293.32 74.3204 293.43 74.4442C293.54 74.568 293.693 74.6447 293.858 74.6583C293.943 74.671 294.029 74.6654 294.111 74.6416C294.193 74.6178 294.269 74.5765 294.334 74.5206C294.398 74.4647 294.45 74.3954 294.485 74.3177C294.52 74.2399 294.537 74.1555 294.536 74.0702C294.543 73.9056 294.485 73.7449 294.375 73.6221C294.265 73.4992 294.111 73.4238 293.947 73.4117C293.863 73.399 293.777 73.4045 293.696 73.4279C293.614 73.4514 293.538 73.4921 293.474 73.5474C293.41 73.6027 293.358 73.6712 293.323 73.7483C293.287 73.8253 293.269 73.9091 293.269 73.9938V73.9938Z" fill="#263238"/>
<path d="M293.222 73.1529C293.299 73.2411 293.811 72.8942 294.489 72.9118C295.167 72.9295 295.668 73.2882 295.756 73.2058C295.845 73.1235 295.715 73.0177 295.497 72.853C295.207 72.6341 294.853 72.5145 294.489 72.512C294.129 72.5012 293.774 72.6041 293.476 72.806C293.263 72.9648 293.187 73.1118 293.222 73.1529Z" fill="#263238"/>
<path d="M290.582 78.204C290.22 78.0799 289.844 78.0028 289.462 77.9747C289.285 77.9747 289.12 77.91 289.097 77.7924C289.082 77.6086 289.128 77.4251 289.226 77.2691L289.78 75.9461C290.296 74.8216 290.719 73.6575 291.047 72.4651C290.444 73.5455 289.927 74.6721 289.503 75.8343C289.321 76.2989 289.138 76.7457 288.967 77.1691C288.853 77.3792 288.815 77.6224 288.861 77.8571C288.884 77.9208 288.922 77.9784 288.971 78.0253C289.02 78.0722 289.079 78.1072 289.144 78.1275C289.241 78.1558 289.342 78.1716 289.444 78.1746C289.821 78.2324 290.203 78.2423 290.582 78.204V78.204Z" fill="#263238"/>
<path d="M289.892 86.3594C292.25 86.4536 294.588 85.8939 296.646 84.7424C296.646 84.7424 294.931 88.1352 289.927 87.5413L289.892 86.3594Z" fill="#A36957"/>
<path d="M295.438 71.1478C295.297 71.3653 294.766 71.2713 294.177 71.1478C293.588 71.0243 293.069 70.9243 292.998 70.6715C292.927 70.4187 293.546 70.0835 294.336 70.2423C295.126 70.401 295.579 70.9596 295.438 71.1478Z" fill="#263238"/>
<path d="M288.56 70.1483C288.507 70.4011 287.941 70.4952 287.293 70.5246C286.645 70.554 286.073 70.5246 285.996 70.2659C285.92 70.0071 286.468 69.6426 287.252 69.6073C288.036 69.572 288.613 69.9072 288.56 70.1483Z" fill="#263238"/>
<path d="M290.594 79.8562C290.519 79.8386 290.441 79.8464 290.372 79.8784C290.302 79.9104 290.246 79.9647 290.211 80.0326C290.177 80.0925 290.16 80.1602 290.161 80.2289C290.161 80.2976 290.18 80.3648 290.215 80.4241C290.25 80.4833 290.3 80.5324 290.359 80.5665C290.419 80.6006 290.487 80.6186 290.555 80.6186C290.624 80.6186 290.692 80.6006 290.752 80.5665C290.811 80.5324 290.861 80.4833 290.896 80.4241C290.931 80.3648 290.949 80.2976 290.95 80.2289C290.951 80.1602 290.934 80.0925 290.9 80.0326C290.858 79.9536 290.79 79.8913 290.707 79.8561C290.625 79.8208 290.533 79.8146 290.446 79.8385" fill="#A36957"/>
<path d="M290.753 79.9266C290.753 79.8972 290.641 79.7267 290.34 79.7914C290.251 79.8148 290.168 79.8613 290.102 79.9263C290.036 79.9913 289.988 80.0725 289.963 80.1618C289.932 80.2744 289.934 80.3938 289.971 80.5049C290.008 80.6159 290.077 80.7134 290.17 80.7851C290.268 80.8521 290.384 80.888 290.503 80.888C290.621 80.888 290.737 80.8521 290.835 80.7851C290.914 80.7324 290.975 80.6585 291.013 80.572C291.051 80.4855 291.063 80.3901 291.048 80.2971C290.989 79.9854 290.759 79.9384 290.747 79.9795C290.735 80.0207 290.83 80.1265 290.812 80.3088C290.808 80.3539 290.793 80.3973 290.768 80.4352C290.744 80.4731 290.71 80.5044 290.67 80.5264C290.625 80.5527 290.573 80.5666 290.52 80.5666C290.467 80.5666 290.416 80.5527 290.37 80.5264C290.329 80.4916 290.297 80.4468 290.279 80.3963C290.26 80.3458 290.255 80.2913 290.264 80.2383C290.271 80.1918 290.289 80.1477 290.316 80.1098C290.344 80.0719 290.381 80.0413 290.423 80.0207C290.588 79.9207 290.735 79.9678 290.753 79.9266Z" fill="#263238"/>
<path d="M299.475 74.7992C298.885 76.1752 297.424 77.2394 297.624 78.7271C297.754 79.6855 298.373 80.5793 298.255 81.5436C298.102 82.7196 296.846 83.5898 296.664 84.7952C296.446 86.2711 297.889 87.4177 298.461 88.7936C299.304 90.8046 298.231 93.0625 298.202 95.2616C298.236 96.9313 298.877 98.5317 300.004 99.7664C301.131 101.001 302.668 101.786 304.331 101.977C305.674 102.088 307.189 101.683 307.867 100.53C308.456 99.5776 308.326 98.3663 308.668 97.3138C309.187 95.7379 310.69 94.5854 311.026 92.9626C311.615 90.0226 308.02 87.553 308.256 84.5424C308.356 83.2547 309.152 82.1375 309.487 80.8909C309.701 80.0717 309.718 79.2136 309.535 78.3868C309.353 77.56 308.977 76.788 308.438 76.134C307.549 75.0815 306.264 74.37 305.492 73.241C304.637 71.9416 304.608 70.301 304.313 68.7664C303.917 66.901 303.054 65.1662 301.804 63.724C300.554 62.2819 298.958 61.1795 297.165 60.52C295.372 59.8604 293.44 59.6652 291.551 59.9525C289.662 60.2399 287.877 61.0005 286.362 62.1631C286.362 62.1631 285.507 66.038 289.497 66.6907C293.487 67.3434 295.332 66.5908 295.78 68.1842C295.674 68.8407 295.726 69.5127 295.931 70.1454C296.136 70.778 296.488 71.3532 296.958 71.824C298.585 73.5762 300.135 73.1999 299.475 74.7992Z" fill="#263238"/>
<path d="M305.81 101.677C305.687 101.681 305.564 101.669 305.445 101.642C305.099 101.581 304.76 101.488 304.431 101.365C303.214 100.9 302.147 100.113 301.343 99.0898C300.779 98.3835 300.337 97.5887 300.035 96.7378C299.69 95.7687 299.509 94.7495 299.498 93.7213C299.486 92.5881 299.629 91.4586 299.923 90.3639C300.083 89.7857 300.28 89.2181 300.512 88.6645C300.755 88.1135 300.97 87.5502 301.154 86.977C301.316 86.4121 301.316 85.8131 301.154 85.2483C300.982 84.6922 300.759 84.1529 300.488 83.6371C300.215 83.1257 299.985 82.5928 299.799 82.0437C299.617 81.5002 299.575 80.9201 299.675 80.3561C299.911 79.2507 300.583 78.4275 300.983 77.5866C301.365 76.8083 301.547 75.9476 301.514 75.0817C301.46 73.8146 300.999 72.5983 300.2 71.6125C299.89 71.2672 299.557 70.9431 299.204 70.6423C299.617 70.874 299.986 71.1765 300.294 71.5361C301.152 72.5204 301.658 73.7615 301.732 75.0641C301.781 75.9677 301.602 76.8691 301.213 77.6866C300.807 78.5568 300.152 79.3859 299.952 80.3973C299.752 81.4086 300.229 82.4729 300.754 83.496C301.04 84.0265 301.273 84.5839 301.449 85.1601C301.623 85.7752 301.623 86.4265 301.449 87.0417C301.253 87.6349 301.027 88.2177 300.771 88.788C300.54 89.3296 300.343 89.8854 300.182 90.4521C299.889 91.5191 299.745 92.621 299.752 93.7272C299.733 95.6112 300.343 97.4478 301.484 98.9487C302.248 99.9594 303.264 100.752 304.431 101.248C305.309 101.589 305.816 101.642 305.81 101.677Z" fill="#455A64"/>
<path d="M305.221 72.0063C304.934 72.0804 304.639 72.1238 304.343 72.1356C303.534 72.2219 302.718 72.2002 301.915 72.0709C301.306 71.981 300.722 71.7709 300.195 71.4529C299.669 71.1348 299.212 70.7153 298.85 70.2187C298.513 69.5906 298.245 68.9282 298.049 68.2431C297.797 67.5587 297.324 66.9773 296.705 66.5908C295.414 65.7735 293.9 65.6735 292.58 65.5147C291.362 65.4542 290.18 65.0859 289.144 64.4446C288.45 63.9859 287.949 63.2892 287.735 62.4865C287.684 62.269 287.67 62.0443 287.694 61.8221C287.694 61.6692 287.729 61.5928 287.741 61.5928C287.748 61.884 287.786 62.1737 287.853 62.4571C288.097 63.2077 288.598 63.8487 289.268 64.2682C290.285 64.8601 291.433 65.1914 292.609 65.2325C293.929 65.3854 295.497 65.4618 296.876 66.3321C297.551 66.7549 298.065 67.3901 298.338 68.1372C298.522 68.805 298.777 69.4515 299.098 70.0659C299.784 71.0054 300.813 71.6387 301.962 71.8299C302.739 71.974 303.53 72.0272 304.319 71.9886C304.62 71.9718 304.921 71.9777 305.221 72.0063V72.0063Z" fill="#455A64"/>
<path d="M303.759 67.2201C303.537 67.2941 303.303 67.328 303.069 67.32C301.971 67.3274 300.913 66.9053 300.123 66.144C299.762 65.7833 299.455 65.3735 299.209 64.9269C298.679 64.0331 298.166 62.9335 297.064 62.4749C296.002 62.1195 294.871 62.0207 293.764 62.1868C292.829 62.3177 291.881 62.3177 290.947 62.1868C290.297 62.0968 289.685 61.828 289.179 61.4106C289.048 61.2969 288.933 61.1664 288.837 61.0225C288.766 60.9206 288.737 60.8677 288.749 60.8638C288.749 60.8638 288.914 61.0519 289.255 61.3165C289.759 61.6741 290.345 61.9005 290.959 61.9751C291.876 62.0783 292.803 62.0625 293.717 61.928C294.873 61.7397 296.057 61.8407 297.164 62.2221C297.733 62.4772 298.221 62.8842 298.573 63.3981C298.883 63.8564 299.169 64.3315 299.427 64.821C299.66 65.2484 299.947 65.6437 300.282 65.997C300.578 66.2958 300.918 66.5476 301.29 66.7438C301.838 67.0293 302.44 67.1957 303.058 67.2318C303.511 67.2259 303.753 67.1907 303.759 67.2201Z" fill="#455A64"/>
<path d="M307.566 100.407C307.537 100.407 307.726 100.019 307.944 99.2895C308.239 98.2659 308.37 97.2022 308.333 96.1378C308.29 94.5622 307.859 93.0213 307.077 91.6514C306.647 90.8811 305.993 90.1931 305.457 89.3464C305.173 88.9151 304.973 88.4344 304.867 87.9293C304.774 87.3977 304.819 86.8513 304.997 86.3417C305.327 85.3245 305.916 84.4719 306.046 83.537C306.176 82.6021 305.728 81.773 305.28 80.9909C305.049 80.6104 304.838 80.2178 304.649 79.8149C304.477 79.4242 304.364 79.01 304.313 78.586C304.258 77.8388 304.282 77.0879 304.384 76.3457C304.573 75.2966 304.475 74.2161 304.101 73.2176C303.934 72.8678 303.698 72.5556 303.406 72.3003C303.406 72.3003 303.435 72.3003 303.476 72.3356C303.546 72.3702 303.61 72.4158 303.665 72.4708C303.896 72.6624 304.083 72.901 304.213 73.1705C304.639 74.1777 304.772 75.2843 304.596 76.3634C304.515 77.0918 304.505 77.8263 304.567 78.5566C304.712 79.3781 305.038 80.1573 305.521 80.838C305.773 81.2354 305.988 81.6546 306.164 82.0905C306.35 82.561 306.41 83.0714 306.341 83.5723C306.199 84.6013 305.592 85.4715 305.286 86.4299C305.125 86.8924 305.082 87.3875 305.162 87.8705C305.265 88.3377 305.453 88.7821 305.716 89.1818C306.217 89.9991 306.895 90.6988 307.325 91.5044C308.114 92.9205 308.536 94.5115 308.551 96.1319C308.569 97.2166 308.402 98.2964 308.056 99.3248C307.961 99.6031 307.847 99.8742 307.714 100.136C307.678 100.233 307.628 100.324 307.566 100.407V100.407Z" fill="#455A64"/>
<path d="M283.563 209.969C283.563 209.969 279.591 172.431 279.361 158.56C279.131 144.689 285.614 131.001 285.614 131.001L311.002 129.948C311.002 129.948 316.023 144.019 316.112 149.94C316.289 161.43 313.053 172.772 313.424 181.886L314.273 209.992" fill="#263238"/>
<path d="M315.128 163.817C314.995 163.931 314.855 164.037 314.709 164.134L314.479 164.293L314.232 164.534C314.014 164.722 313.816 164.933 313.642 165.163C312.823 166.163 312.228 167.956 311.656 170.185C311.364 171.421 310.933 172.62 310.372 173.76C310.201 174.072 310.004 174.369 309.782 174.648C309.676 174.789 309.576 174.942 309.452 175.077L309.063 175.465C308.506 175.984 307.859 176.399 307.154 176.688C305.734 177.311 304.125 177.605 302.663 178.34C301.166 179.144 300.009 180.459 299.404 182.045C298.685 183.638 298.225 185.308 297.636 186.872C297.047 188.436 296.251 189.93 294.984 190.882C293.773 191.722 292.334 192.175 290.859 192.182C289.491 192.264 288.224 192.223 287.087 192.393C286.063 192.499 285.085 192.868 284.246 193.464C283.634 193.941 283.175 194.587 282.926 195.322C282.768 195.785 282.734 196.282 282.826 196.762C282.897 197.092 282.985 197.25 282.968 197.256C282.873 197.109 282.805 196.945 282.767 196.774C282.643 196.284 282.659 195.768 282.814 195.286C283.048 194.515 283.511 193.833 284.14 193.328C285 192.681 286.017 192.275 287.087 192.152C288.266 191.964 289.521 191.988 290.871 191.9C292.302 191.89 293.698 191.447 294.872 190.629C296.063 189.591 296.942 188.244 297.412 186.737C298.001 185.19 298.432 183.515 299.18 181.892C299.814 180.241 301.024 178.874 302.586 178.04C304.107 177.288 305.716 177 307.101 176.4C307.779 176.12 308.401 175.722 308.939 175.224L309.311 174.853C309.429 174.724 309.529 174.577 309.635 174.442C309.843 174.174 310.026 173.889 310.183 173.589C310.748 172.465 311.184 171.282 311.485 170.061C312.075 167.839 312.717 166.022 313.583 165.016C313.756 164.787 313.954 164.578 314.173 164.393C314.267 164.311 314.35 164.228 314.432 164.164L314.674 164.011C314.821 163.937 314.972 163.872 315.128 163.817V163.817Z" fill="#FAFAFA"/>
<path d="M315.281 146.447C315.308 146.612 315.32 146.779 315.316 146.947C315.314 147.432 315.255 147.916 315.139 148.387C314.632 150.107 313.635 151.644 312.269 152.809C311.368 153.636 310.38 154.363 309.323 154.979C308.185 155.649 306.93 156.29 305.639 157.019C304.284 157.744 303.021 158.631 301.879 159.659C300.708 160.819 299.743 162.169 299.027 163.652C298.304 165.155 297.479 166.607 296.558 167.997C296.089 168.645 295.547 169.237 294.943 169.761C294.347 170.267 293.692 170.699 292.992 171.049C291.726 171.67 290.406 172.175 289.049 172.56C287.788 172.948 286.61 173.295 285.584 173.736C284.654 174.106 283.768 174.579 282.944 175.147C282.324 175.576 281.767 176.089 281.288 176.67C280.887 177.174 280.552 177.728 280.292 178.317C280.334 178.154 280.389 177.994 280.457 177.84C280.65 177.396 280.898 176.977 281.194 176.594C281.664 175.988 282.22 175.453 282.844 175.006C283.671 174.418 284.563 173.924 285.502 173.536C286.637 173.075 287.796 172.672 288.973 172.331C290.31 171.937 291.612 171.429 292.862 170.814C293.526 170.468 294.148 170.05 294.719 169.567C295.3 169.051 295.822 168.471 296.275 167.838C297.184 166.455 298.001 165.013 298.72 163.523C299.46 162.007 300.457 160.63 301.667 159.454C302.829 158.41 304.116 157.513 305.498 156.784C306.794 156.061 308.05 155.432 309.187 154.767C310.241 154.172 311.229 153.467 312.134 152.662C313.488 151.531 314.493 150.041 315.033 148.364C315.184 147.736 315.267 147.093 315.281 146.447V146.447Z" fill="#FAFAFA"/>
<path d="M279.491 160.524C279.467 160.488 279.449 160.448 279.437 160.406C279.393 160.293 279.356 160.177 279.325 160.059C279.224 159.592 279.245 159.106 279.384 158.648C279.714 157.472 281.017 155.961 283.115 155.214C284.164 154.856 285.348 154.626 286.586 154.321C287.614 154.151 288.586 153.738 289.421 153.117C290.257 152.496 290.932 151.685 291.389 150.751C291.724 150.066 292.018 149.361 292.267 148.641C292.728 147.075 293.354 145.564 294.135 144.131C295.031 142.722 296.389 141.668 297.978 141.149C299.423 140.682 300.898 140.308 302.392 140.032C303.725 139.777 305.017 139.337 306.229 138.727C307.255 138.142 308.14 137.339 308.822 136.375C309.828 134.983 310.402 133.327 310.472 131.612C310.474 130.983 310.433 130.354 310.348 129.73C310.526 130.341 310.608 130.976 310.59 131.612C310.567 133.364 310.012 135.068 308.998 136.498C308.308 137.494 307.404 138.324 306.352 138.927C305.124 139.56 303.813 140.017 302.457 140.285C300.977 140.565 299.516 140.941 298.084 141.408C296.559 141.907 295.254 142.919 294.395 144.272C293.626 145.685 293.008 147.175 292.55 148.717C292.295 149.451 291.994 150.168 291.648 150.863C291.299 151.531 290.855 152.145 290.328 152.686C289.293 153.628 288.019 154.268 286.645 154.538C285.396 154.856 284.217 155.056 283.186 155.397C281.141 156.09 279.844 157.519 279.496 158.66C279.354 159.1 279.315 159.567 279.384 160.024C279.434 160.187 279.47 160.355 279.491 160.524V160.524Z" fill="#FAFAFA"/>
<path d="M313.1 192.276C313.124 192.398 313.138 192.522 313.141 192.646C313.152 193.003 313.115 193.359 313.029 193.705C312.659 194.98 311.875 196.096 310.801 196.88C310.084 197.45 309.291 197.917 308.444 198.268C307.542 198.65 306.546 198.956 305.497 199.279C304.408 199.596 303.343 199.989 302.309 200.455C301.235 200.967 300.272 201.684 299.474 202.566C298.614 203.46 297.871 204.442 297.046 205.312C296.257 206.155 295.34 206.869 294.33 207.429C292.609 208.365 290.685 208.866 288.725 208.887C287.412 208.901 286.108 208.684 284.871 208.246C284.535 208.131 284.208 207.991 283.892 207.828C283.777 207.781 283.669 207.72 283.568 207.646C283.687 207.679 283.803 207.72 283.916 207.77C284.24 207.908 284.57 208.029 284.906 208.134C286.141 208.521 287.431 208.701 288.725 208.669C290.641 208.62 292.518 208.109 294.194 207.182C295.173 206.628 296.062 205.928 296.828 205.106C297.636 204.248 298.372 203.271 299.25 202.354C300.095 201.439 301.113 200.7 302.244 200.179C303.294 199.711 304.375 199.318 305.48 199.003C306.517 198.685 307.507 198.415 308.426 198.027C309.249 197.691 310.022 197.246 310.725 196.704C311.781 195.959 312.568 194.895 312.97 193.669C313.057 193.21 313.1 192.743 313.1 192.276V192.276Z" fill="#FAFAFA"/>
<path d="M310.206 114.342L305.291 114.46C305.102 115.449 304.726 116.393 304.183 117.241C300.058 110.126 296.893 100.601 296.104 96.773C296.221 96.3908 296.357 95.9674 296.528 95.497C296.65 94.7825 296.628 94.0508 296.463 93.345C296.322 92.4924 296.086 91.3458 296.015 90.8166C295.797 89.1937 295.532 88.9408 294.966 89.1231C294.2 89.376 295.284 93.6684 294.654 93.7624C294.312 93.8095 293.9 92.3395 293.782 91.1341C293.664 89.9287 293.11 86.2125 292.715 85.9656C292.126 85.601 291.613 86.1772 291.766 87.3768C291.919 88.5763 292.102 92.2219 291.466 92.2748C290.829 92.3277 290.287 86.1655 290.287 86.1655C290.287 86.1655 290.387 84.8248 289.645 84.8542C288.313 84.913 289.356 91.4046 289.468 92.022C289.55 92.4453 288.878 92.5276 288.796 92.0631C288.713 91.5986 288.407 85.9068 287.028 85.9538C285.979 85.9538 287.835 91.2987 287.246 92.5335C286.657 93.7683 286.256 88.347 285.26 88.4175C284.889 88.4469 284.612 88.5175 285.295 91.581C285.95 94.015 286.737 96.4117 287.653 98.7604C289.232 107.257 296.163 134.44 307.024 129.466C313.106 126.679 315.569 114.342 315.569 114.342H310.206Z" fill="#B78876"/>
<path d="M289.256 92.4337C289.302 92.4454 289.351 92.4454 289.397 92.4337C289.468 92.412 289.529 92.3657 289.569 92.3032C289.609 92.2407 289.625 92.1661 289.615 92.0926C289.615 91.7281 289.544 91.1989 289.462 90.5109C289.324 89.6818 289.233 88.8454 289.191 88.006C289.191 87.5121 289.191 86.9829 289.22 86.4243C289.229 86.1403 289.259 85.8573 289.309 85.5776C289.356 85.313 289.533 84.9896 289.739 85.0425H289.774C289.981 85.0425 290.146 85.1954 290.21 85.4423C290.283 85.6983 290.311 85.9648 290.293 86.2303V86.2303C290.414 87.877 290.625 89.516 290.924 91.1401C290.971 91.3576 291.018 91.5811 291.089 91.8045C291.12 91.9188 291.159 92.0308 291.206 92.1397C291.237 92.2002 291.27 92.2591 291.307 92.3161C291.333 92.359 291.369 92.3952 291.412 92.4218C291.455 92.4483 291.504 92.4645 291.554 92.4689C291.64 92.4595 291.721 92.4249 291.787 92.3694C291.853 92.3139 291.901 92.2401 291.925 92.1573C291.976 92.0423 292.014 91.922 292.037 91.7986C292.083 91.5616 292.115 91.3221 292.132 91.0813C292.185 90.1015 292.172 89.1192 292.09 88.1413C292.016 87.653 291.996 87.158 292.031 86.6654C292.053 86.4526 292.156 86.2565 292.32 86.1185C292.358 86.0961 292.4 86.0819 292.444 86.0769C292.487 86.0718 292.532 86.076 292.574 86.0891C292.624 86.1011 292.671 86.121 292.715 86.1479C292.745 86.1703 292.768 86.201 292.78 86.2361C292.966 86.713 293.102 87.2075 293.187 87.712C293.293 88.2295 293.381 88.7645 293.464 89.2996C293.546 89.8347 293.623 90.3757 293.687 90.9225C293.738 91.4868 293.829 92.0468 293.959 92.5983C294.028 92.8803 294.117 93.1573 294.224 93.4274C294.284 93.5786 294.367 93.7195 294.471 93.8449C294.511 93.897 294.565 93.9368 294.626 93.9597C294.688 93.9826 294.755 93.9876 294.819 93.9742C294.879 93.9546 294.932 93.9199 294.975 93.8735C295.017 93.8272 295.047 93.7707 295.061 93.7096C295.13 93.4091 295.152 93.0996 295.125 92.7923C295.125 92.4983 295.09 92.2043 295.061 91.9221C295.019 91.4282 294.972 90.9401 294.955 90.458C294.94 90.2211 294.94 89.9834 294.955 89.7465C294.966 89.6416 294.992 89.5388 295.031 89.4407C295.043 89.4084 295.061 89.3785 295.084 89.3525V89.3525H295.161C295.55 89.1938 295.679 89.7347 295.786 90.1699C295.892 90.605 295.933 91.0989 296.027 91.5634C296.18 92.4866 296.381 93.4097 296.481 94.2917C296.549 94.7141 296.533 95.1457 296.434 95.5618C296.292 95.9852 296.151 96.4027 296.015 96.8201V96.8613V96.8966C296.706 99.7853 297.586 102.626 298.65 105.399C299.581 107.91 300.518 110.103 301.337 111.867C302.156 113.631 302.899 115.013 303.406 115.942L303.995 116.994C304.059 117.12 304.136 117.238 304.225 117.347C304.175 117.217 304.114 117.091 304.042 116.971L303.453 115.895C302.969 114.948 302.274 113.543 301.473 111.779C300.671 110.015 299.764 107.822 298.856 105.311C297.817 102.542 296.955 99.7096 296.275 96.8319V96.9142C296.41 96.5026 296.546 96.0851 296.687 95.6677C296.81 95.2094 296.834 94.7305 296.758 94.2623C296.652 93.3392 296.457 92.4454 296.304 91.5164C296.216 91.0577 296.157 90.5873 296.063 90.1052C296.056 89.8575 296.015 89.6119 295.939 89.3761C295.872 89.2326 295.757 89.1164 295.615 89.0468C295.463 88.9974 295.3 88.9974 295.149 89.0468H295.055C295.005 89.0627 294.959 89.0888 294.919 89.1232C294.854 89.1786 294.803 89.2493 294.772 89.329C294.718 89.4563 294.684 89.5912 294.672 89.7289C294.654 89.9834 294.654 90.2388 294.672 90.4933C294.672 90.9872 294.742 91.4811 294.784 91.975C294.784 92.2631 294.831 92.563 294.843 92.8276C294.866 93.0928 294.852 93.36 294.801 93.6214C294.801 93.6802 294.754 93.6685 294.801 93.6979L294.766 93.6626C294.691 93.5665 294.631 93.4594 294.589 93.3451C294.486 93.0907 294.402 92.8294 294.336 92.563C294.206 92.0275 294.118 91.4831 294.071 90.9343C294.008 90.3815 293.931 89.8347 293.841 89.2937C293.758 88.7528 293.664 88.2236 293.558 87.6944C293.469 87.1557 293.319 86.629 293.11 86.1244C293.07 86.0401 293.006 85.9688 292.927 85.9186C292.858 85.8789 292.785 85.8473 292.709 85.8245C292.625 85.8025 292.538 85.7974 292.452 85.8096C292.366 85.8217 292.283 85.8508 292.208 85.8951C292.087 85.9857 291.985 86.1004 291.91 86.2319C291.835 86.3634 291.788 86.509 291.772 86.6595C291.734 86.9267 291.734 87.1979 291.772 87.4651C291.772 87.7179 291.831 87.9649 291.849 88.2118C291.931 89.1739 291.949 90.1404 291.902 91.1048C291.888 91.3339 291.858 91.5618 291.813 91.7869C291.796 91.892 291.767 91.9947 291.725 92.0926C291.71 92.1314 291.688 92.1672 291.66 92.1985C291.66 92.2514 291.619 92.1985 291.625 92.269C291.625 92.2102 291.625 92.269 291.625 92.1926C291.599 92.1529 291.575 92.1116 291.554 92.0691C291.513 91.975 291.477 91.8692 291.442 91.7692C291.377 91.5575 291.33 91.34 291.283 91.1283C290.976 89.5182 290.753 87.8931 290.617 86.2597V86.2597C290.635 85.964 290.601 85.6676 290.517 85.3835C290.478 85.2354 290.398 85.101 290.287 84.9955C290.229 84.9399 290.161 84.8966 290.086 84.8683C290.011 84.84 289.931 84.8272 289.851 84.8308H289.886C289.787 84.8163 289.685 84.8314 289.594 84.8743C289.502 84.9171 289.426 84.9859 289.374 85.0719C289.286 85.2122 289.226 85.3678 289.197 85.5305C289.147 85.8221 289.12 86.1169 289.114 86.4125C289.114 87.0005 289.114 87.5121 289.114 88.0119C289.17 88.8566 289.278 89.6971 289.438 90.5285C289.539 91.2106 289.615 91.7398 289.651 92.0985C289.662 92.1613 289.651 92.2261 289.62 92.2818C289.589 92.3376 289.539 92.3808 289.48 92.4043C289.303 92.4219 289.25 92.4278 289.256 92.4337Z" fill="#A36957"/>
<path d="M250.872 122.439C249.722 122.415 248.574 122.547 247.46 122.833C244.413 123.633 239.162 126.808 238.944 130.73H242.763C242.763 130.73 240.624 135.269 241.249 134.846C242.881 133.752 246.122 130.465 246.122 130.465L250.872 122.439Z" fill="#B78876"/>
<path d="M302.928 54.0959C302.84 54.0959 302.498 50.956 302.156 47.0399C301.814 43.1238 301.602 39.9839 301.685 39.9839C301.767 39.9839 302.115 43.1238 302.457 47.0399C302.799 50.956 303.011 54.0959 302.928 54.0959Z" fill="#263238"/>
<path d="M319.671 40.2251C319.736 40.2721 317.161 44.0059 313.914 48.5629C310.666 53.1199 307.973 56.7949 307.902 56.7243C307.832 56.6538 310.413 52.9435 313.66 48.3865C316.907 43.8295 319.601 40.178 319.671 40.2251Z" fill="#263238"/>
<path d="M326.625 57.1475C326.625 57.2298 323.631 57.9178 319.907 58.6822C316.182 59.4466 313.141 59.9993 313.124 59.917C313.106 59.8347 316.112 59.1467 319.842 58.3823C323.572 57.6179 326.584 57.0652 326.625 57.1475Z" fill="#263238"/>
<path d="M126.211 137.91L105.348 244.808L102.637 258.802L241.72 258.132C247.967 258.103 253.507 252.57 255.504 244.349L280.174 143.431C281.7 137.192 278.353 130.701 273.615 130.707L132.811 130.854C129.747 130.848 127 133.741 126.211 137.91Z" fill="#FFAF2D"/>
<g opacity="0.5">
<path opacity="0.5" d="M126.211 137.91L105.348 244.808L102.637 258.802L241.72 258.132C247.967 258.103 253.507 252.57 255.504 244.349L280.174 143.431C281.7 137.192 278.353 130.701 273.615 130.707L132.811 130.854C129.747 130.848 127 133.741 126.211 137.91Z" fill="black"/>
</g>
<path d="M228.395 237.552L213.662 119.123C213.072 114.272 209.189 110.65 204.61 110.668L172.314 110.768C171.114 110.781 169.929 111.038 168.832 111.523C167.734 112.009 166.748 112.712 165.932 113.59L150.609 129.86L60.7946 130.342C55.3079 130.371 51.0883 135.558 51.8131 141.379L65.4916 250.835C66.0809 255.68 69.9646 259.296 74.5319 259.29L231.088 258.979C248.521 259.337 250.189 254.204 250.189 254.204C230.175 258.62 228.395 237.581 228.395 237.552Z" fill="#FFAF2D"/>
<g opacity="0.5">
<path opacity="0.5" d="M160.887 213.868L155.606 219.524L114.942 183.021L120.223 177.365L160.887 213.868Z" fill="white"/>
<path opacity="0.5" d="M153.397 176.112L159.231 181.351L122.439 220.777L116.599 215.537L153.397 176.112Z" fill="white"/>
</g>
<path d="M250.749 61.0226C250.558 60.9424 250.394 60.8096 250.276 60.6399C250.158 60.4702 250.091 60.2705 250.083 60.0641L249.847 54.6075C249.839 54.4379 249.87 54.2688 249.939 54.1134C250.007 53.9581 250.111 53.8207 250.242 53.7123C250.373 53.6039 250.527 53.5275 250.693 53.4889C250.859 53.4504 251.031 53.4508 251.197 53.4903C251.653 53.5885 252.125 53.5928 252.583 53.5028C253.041 53.4128 253.475 53.2305 253.86 52.967C254.215 52.7431 254.519 52.4492 254.756 52.1034C254.992 51.7575 255.154 51.367 255.234 50.956C255.287 50.5399 255.256 50.1172 255.143 49.7132C255.029 49.3092 254.836 48.932 254.573 48.604C254.297 48.2308 253.95 47.9156 253.552 47.6765C253.153 47.4374 252.711 47.279 252.251 47.2105C251.324 47.159 250.407 47.4213 249.647 47.9548C248.888 48.4884 248.331 49.262 248.067 50.1505C247.979 50.4197 247.79 50.6446 247.54 50.7784C247.29 50.9122 246.998 50.9446 246.725 50.8688C246.451 50.7931 246.218 50.6149 246.072 50.3716C245.927 50.1282 245.882 49.8384 245.946 49.5625C246.347 48.165 247.218 46.948 248.412 46.1159C249.607 45.2839 251.052 44.8876 252.505 44.9937C253.261 45.0942 253.989 45.3454 254.646 45.7322C255.304 46.1191 255.876 46.6338 256.33 47.2457C256.771 47.8129 257.094 48.4626 257.279 49.1565C257.464 49.8503 257.508 50.5742 257.408 51.2853C257.274 51.9953 256.996 52.6705 256.591 53.2692C256.185 53.8678 255.661 54.3773 255.051 54.7663C254.167 55.3602 253.134 55.6962 252.069 55.7365L252.251 59.9465C252.258 60.1315 252.218 60.3152 252.135 60.4806C252.052 60.646 251.928 60.7878 251.775 60.8927C251.622 60.9977 251.445 61.0625 251.261 61.0811C251.076 61.0996 250.89 61.0714 250.719 60.999L250.749 61.0226Z" fill="#FFAF2D"/>
<path d="M252.364 63.2569C252.376 63.4344 252.335 63.6117 252.247 63.7662C252.158 63.9207 252.026 64.0455 251.866 64.1248C251.706 64.2042 251.527 64.2344 251.35 64.2118C251.173 64.1892 251.006 64.1147 250.872 63.9978C250.737 63.8809 250.641 63.7268 250.594 63.555C250.547 63.3832 250.553 63.2014 250.61 63.0327C250.666 62.864 250.772 62.7159 250.913 62.6072C251.055 62.4984 251.225 62.434 251.403 62.4219C251.521 62.4131 251.64 62.4278 251.752 62.4651C251.865 62.5024 251.969 62.5616 252.058 62.6393C252.147 62.7169 252.22 62.8115 252.273 62.9175C252.325 63.0235 252.356 63.1389 252.364 63.2569Z" fill="#FFAF2D"/>
<path d="M231.813 53.3256C231.839 53.2093 231.856 53.0914 231.867 52.9728C231.867 52.7141 231.931 52.3848 231.978 51.9203C232.036 51.35 232.133 50.7842 232.267 50.2269C232.344 49.8976 232.385 49.533 232.503 49.1626C232.621 48.7921 232.739 48.3923 232.868 47.9866C233.551 45.9764 234.545 44.0855 235.815 42.3829C237.479 40.1783 239.59 38.3473 242.009 37.0086C243.386 36.234 244.852 35.6298 246.376 35.2093C248.02 34.7745 249.714 34.5531 251.415 34.5508C252.311 34.5364 253.207 34.5836 254.096 34.6919C254.55 34.7389 254.998 34.8565 255.452 34.933C255.911 35.0114 256.363 35.1214 256.807 35.2623C258.665 35.7802 260.432 36.5794 262.046 37.6319C265.637 39.9552 268.371 43.3814 269.837 47.3927C270.627 49.5414 271.026 51.8133 271.016 54.1018C271.04 56.4593 270.622 58.8006 269.784 61.0049L269.519 61.6752L269.484 61.7634L269.519 61.8516C270.998 65.2444 272.466 68.5784 273.851 71.8065L274.098 71.5242L265.258 68.1432L265.152 68.1021L265.064 68.1844C262.725 70.4451 259.862 72.0934 256.73 72.9825C254.054 73.7175 251.252 73.878 248.51 73.4533C245.767 73.0287 243.145 72.0285 240.818 70.5187C238.913 69.2717 237.233 67.711 235.85 65.903C233.847 63.2639 232.549 60.16 232.079 56.883C232.008 56.295 231.949 55.8011 231.896 55.3542C231.843 54.9073 231.896 54.5428 231.867 54.2311C231.837 53.9195 231.867 53.7137 231.867 53.5432C231.896 53.5387 231.923 53.5234 231.941 53.5002C231.96 53.477 231.969 53.4476 231.966 53.4181C231.964 53.3885 231.951 53.3609 231.929 53.3407C231.907 53.3205 231.879 53.3093 231.849 53.3093C231.819 53.3093 231.79 53.3205 231.769 53.3407C231.747 53.3609 231.734 53.3885 231.731 53.4181C231.729 53.4476 231.738 53.477 231.757 53.5002C231.775 53.5234 231.802 53.5387 231.831 53.5432C231.831 53.7137 231.831 53.943 231.831 54.2311C231.831 54.5193 231.831 54.9191 231.831 55.366C231.831 55.8129 231.931 56.3244 231.99 56.9065C232.184 58.3208 232.522 59.7118 232.998 61.0578C233.673 62.8354 234.58 64.516 235.697 66.0558C237.085 67.8961 238.777 69.4868 240.701 70.7598C243.056 72.3073 245.715 73.3371 248.5 73.7812C251.285 74.2252 254.133 74.0732 256.854 73.3353C260.024 72.4371 262.922 70.7729 265.293 68.4902L265.099 68.5313L273.939 71.93L274.381 72.1005L274.187 71.6477C272.784 68.4196 271.334 65.0915 269.861 61.6929V61.8634L270.132 61.1754C270.992 58.9231 271.42 56.5295 271.393 54.1194C271.412 51.7823 271.012 49.4607 270.214 47.2633C268.717 43.1721 265.921 39.6808 262.253 37.3203C260.597 36.2432 258.784 35.4298 256.878 34.9095C256.427 34.7671 255.966 34.659 255.499 34.5861C255.039 34.5037 254.585 34.3861 254.126 34.345C253.224 34.2334 252.317 34.1823 251.409 34.1921C249.681 34.1994 247.961 34.4327 246.293 34.8859C244.75 35.3233 243.264 35.9432 241.867 36.7323C239.424 38.1038 237.301 39.9778 235.638 42.2301C234.372 43.9608 233.391 45.8823 232.733 47.9219C232.609 48.3453 232.491 48.751 232.385 49.0979C232.291 49.4524 232.217 49.8116 232.161 50.1739C232.035 50.7351 231.952 51.3052 231.914 51.8791C231.878 52.3319 231.855 52.6788 231.837 52.9375C231.812 53.0653 231.804 53.1958 231.813 53.3256Z" fill="#263238"/>
</svg>
