<svg width="64" height="64" viewBox="0 0 64 64" fill="none" xmlns="http://www.w3.org/2000/svg">
<circle cx="32" cy="32" r="31.4495" fill="#FAFAFA" stroke="black" stroke-width="1.10105"/>
<path d="M44.667 36.7503V24.8753L34.7711 19.3091M29.2295 19.3091L19.3336 24.8753V36.7503M21.7086 40.4616L32.0003 46.2503L38.3336 42.6878L42.292 40.4608M32.0003 26.4586L34.3753 27.844L36.7503 29.2295V34.7711L34.3753 36.1565L32.0003 37.542L29.6253 36.1565L27.2503 34.7711V29.2295L29.6253 27.844L32.0003 26.4586ZM32.0003 26.4586V20.917M36.7503 34.3753L42.292 37.542M27.2503 34.3753L21.7086 37.542" stroke="black" stroke-width="3.16667" stroke-linecap="round" stroke-linejoin="round"/>
<path d="M32.0002 20.9166C33.3119 20.9166 34.3752 19.8533 34.3752 18.5416C34.3752 17.2299 33.3119 16.1666 32.0002 16.1666C30.6886 16.1666 29.6252 17.2299 29.6252 18.5416C29.6252 19.8533 30.6886 20.9166 32.0002 20.9166Z" stroke="black" stroke-width="3.16667" stroke-linecap="round" stroke-linejoin="round"/>
<path d="M19.3336 41.5C20.6453 41.5 21.7086 40.4367 21.7086 39.125C21.7086 37.8133 20.6453 36.75 19.3336 36.75C18.0219 36.75 16.9586 37.8133 16.9586 39.125C16.9586 40.4367 18.0219 41.5 19.3336 41.5Z" stroke="black" stroke-width="3.16667" stroke-linecap="round" stroke-linejoin="round"/>
<path d="M44.667 41.5C45.9787 41.5 47.042 40.4367 47.042 39.125C47.042 37.8133 45.9787 36.75 44.667 36.75C43.3553 36.75 42.292 37.8133 42.292 39.125C42.292 40.4367 43.3553 41.5 44.667 41.5Z" stroke="black" stroke-width="3.16667" stroke-linecap="round" stroke-linejoin="round"/>
</svg>
