<svg width="144" height="144" viewBox="0 0 144 144" fill="none" xmlns="http://www.w3.org/2000/svg"><path d="M72.53 128.7a54.787 54.787 0 01-45.258-23.85 54.784 54.784 0 019.368-72.355 54.78 54.78 0 0172.95 1.125l-13 13.6a36 36 0 100 53.43l13 13.6a54.638 54.638 0 01-37.06 14.45zm44.081-27.401a4.49 4.49 0 114.49-4.49 4.5 4.5 0 01-4.49 4.49z" fill="#E03875"></path><path d="M72.18 85.79A11.87 11.87 0 1184 73.93a11.88 11.88 0 01-11.82 11.86zm49.58.21a4.488 4.488 0 01-4.404-5.366 4.488 4.488 0 016.122-3.273 4.495 4.495 0 012.772 4.148 4.503 4.503 0 01-4.49 4.49zm-13.35-.56a4.488 4.488 0 01-4.4-5.385 4.487 4.487 0 013.555-3.515 4.49 4.49 0 11.845 8.9zm13.35-14.57a4.488 4.488 0 01-4.404-5.366 4.488 4.488 0 016.122-3.273 4.496 4.496 0 012.772 4.149 4.503 4.503 0 01-4.49 4.49zm-13.35.51a4.493 4.493 0 01-4.148-2.772 4.491 4.491 0 114.148 2.771zm8.461-15.61a4.49 4.49 0 11-.02-8.981 4.49 4.49 0 01.02 8.981z" fill="#E03875"></path></svg>