<svg width="64" height="64" viewBox="0 0 64 64" fill="none" xmlns="http://www.w3.org/2000/svg">
<circle cx="32" cy="32" r="31.4495" fill="#FAFAFA" stroke="black" stroke-width="1.10105"/>
<mask id="mask0_313_310" style="mask-type:luminance" maskUnits="userSpaceOnUse" x="13" y="15" width="36" height="36">
<path d="M46.8334 22.7084V44.0834C46.8334 46.707 39.7448 48.8334 31.0001 48.8334C22.2553 48.8334 15.1667 46.707 15.1667 44.0834V22.7084" stroke="white" stroke-width="4" stroke-linecap="round" stroke-linejoin="round"/>
<path d="M46.8334 36.9584C46.8334 39.582 39.7448 41.7084 31.0001 41.7084C22.2553 41.7084 15.1667 39.582 15.1667 36.9584M46.8334 29.8334C46.8334 32.457 39.7448 34.5834 31.0001 34.5834C22.2553 34.5834 15.1667 32.457 15.1667 29.8334" stroke="white" stroke-width="4" stroke-linecap="round" stroke-linejoin="round"/>
<path d="M31.0001 26.6667C39.7446 26.6667 46.8334 24.54 46.8334 21.9167C46.8334 19.2933 39.7446 17.1667 31.0001 17.1667C22.2556 17.1667 15.1667 19.2933 15.1667 21.9167C15.1667 24.54 22.2556 26.6667 31.0001 26.6667Z" fill="white" stroke="white" stroke-width="4" stroke-linecap="round" stroke-linejoin="round"/>
</mask>
<g mask="url(#mask0_313_310)">
<path d="M12 14H50V52H12V14Z" fill="black"/>
</g>
</svg>
