<svg width="64" height="64" viewBox="0 0 64 64" fill="none" xmlns="http://www.w3.org/2000/svg">
<circle cx="32" cy="32" r="31.4495" fill="#FAFAFA" stroke="black" stroke-width="1.10105"/>
<path d="M15.25 36.5626C15.25 37.5229 15.4391 38.4738 15.8066 39.361C16.1741 40.2482 16.7128 41.0543 17.3918 41.7334C18.7631 43.1047 20.6231 43.8751 22.5625 43.8751H42.0625C43.5022 43.8777 44.8893 43.3342 45.944 42.3543C46.9987 41.3744 47.6426 40.0309 47.7456 38.5949C47.8487 37.1589 47.4034 35.7372 46.4995 34.6167C45.5955 33.4961 44.3003 32.7601 42.875 32.557C42.8909 29.7925 41.8994 27.1168 40.086 25.0302C38.2725 22.9435 35.7612 21.5887 33.0215 21.2189C30.2818 20.8492 27.5012 21.4898 25.1995 23.0211C22.8978 24.5524 21.2325 26.8696 20.515 29.5394C18.9958 29.983 17.6615 30.9074 16.7122 32.1737C15.7629 33.44 15.2498 34.98 15.25 36.5626Z" stroke="black" stroke-width="1.625" stroke-linejoin="round"/>
</svg>
