<svg width="64" height="64" viewBox="0 0 64 64" fill="none" xmlns="http://www.w3.org/2000/svg">
<circle cx="32" cy="32" r="31.4495" fill="#FAFAFA" stroke="black" stroke-width="1.10105"/>
<path d="M35.75 21.3125C35.75 20.9976 35.8751 20.6955 36.0978 20.4728C36.3205 20.2501 36.6226 20.125 36.9375 20.125C37.2525 20.125 37.5545 20.2501 37.7772 20.4728C37.9999 20.6955 38.125 20.9976 38.125 21.3125C38.125 21.6274 37.9999 21.9295 37.7772 22.1522C37.5545 22.3749 37.2525 22.5 36.9375 22.5C36.6226 22.5 36.3205 22.3749 36.0978 22.1522C35.8751 21.9295 35.75 21.6274 35.75 21.3125ZM36.9375 17.75C36.2513 17.7497 35.5796 17.9476 35.0032 18.3199C34.4267 18.6922 33.9701 19.2231 33.6881 19.8487C33.4062 20.4744 33.3109 21.1681 33.4138 21.8466C33.5166 22.525 33.8133 23.1593 34.268 23.6733L32.7884 26.3356C31.9446 26.0695 31.0521 25.9953 30.176 26.1186C29.2999 26.2419 28.4624 26.5595 27.7249 27.0481L25.9033 25.2218C26.2655 24.4634 26.348 23.6015 26.1361 22.7882C25.9242 21.975 25.4317 21.2628 24.7455 20.7776C24.0594 20.2923 23.2238 20.0653 22.3864 20.1366C21.549 20.2079 20.7638 20.573 20.1696 21.1672C19.5753 21.7614 19.2103 22.5466 19.139 23.384C19.0677 24.2214 19.2947 25.057 19.7799 25.7432C20.2652 26.4293 20.9773 26.9219 21.7906 27.1337C22.6038 27.3456 23.4658 27.2631 24.2241 26.9009L26.0458 28.7249C25.5558 29.4618 25.2376 30.2994 25.1147 31.1758C24.9918 32.0522 25.0673 32.9451 25.3356 33.7884L22.6733 35.268C22.0434 34.7117 21.2371 34.396 20.397 34.3766C19.5568 34.3573 18.7369 34.6355 18.082 35.1623C17.4272 35.689 16.9797 36.4303 16.8186 37.255C16.6574 38.0798 16.793 38.935 17.2014 39.6695C17.6098 40.4039 18.2647 40.9704 19.0504 41.2687C19.836 41.567 20.7019 41.5779 21.4948 41.2996C22.2878 41.0213 22.9568 40.4716 23.3836 39.7477C23.8105 39.0238 23.9677 38.1723 23.8275 37.3438L26.4923 35.8641C27.1277 36.6072 27.9371 37.1815 28.8484 37.5358C29.7596 37.8901 30.7444 38.0134 31.7149 37.8948L32.3751 39.8755C31.712 40.3916 31.2526 41.1256 31.0782 41.9477C30.9038 42.7697 31.0257 43.627 31.4222 44.3679C31.8187 45.1088 32.4644 45.6857 33.2451 45.9966C34.0258 46.3075 34.8913 46.3324 35.6887 46.0669C36.486 45.8014 37.1638 45.2626 37.6022 44.5458C38.0407 43.8289 38.2117 42.9801 38.0849 42.1493C37.9581 41.3186 37.5417 40.5594 36.9093 40.006C36.2769 39.4526 35.4692 39.1405 34.629 39.125L33.9664 37.1443C35.2299 36.4151 36.1989 35.2348 36.6525 33.8216L38.2176 33.9974C38.4089 34.8157 38.8834 35.54 39.557 36.0424C40.2307 36.5447 41.0603 36.7927 41.8992 36.7426C42.7381 36.6924 43.5322 36.3473 44.1413 35.7683C44.7503 35.1893 45.1351 34.4136 45.2275 33.5783C45.3199 32.743 45.1141 31.902 44.6464 31.2038C44.1787 30.5056 43.4792 29.9952 42.6716 29.7628C41.864 29.5305 41.0003 29.5911 40.233 29.934C39.4658 30.2769 38.8445 30.8799 38.4789 31.6366L36.9114 31.4633C36.7732 29.9232 36.0385 28.4981 34.8641 27.4923L36.3438 24.8251C36.8298 24.9073 37.3277 24.8878 37.8058 24.7676C38.2839 24.6475 38.7319 24.4295 39.1214 24.1273C39.5109 23.8252 39.8334 23.4455 40.0687 23.0122C40.3039 22.579 40.4466 22.1017 40.4878 21.6104C40.529 21.1192 40.4679 20.6247 40.3082 20.1583C40.1484 19.692 39.8937 19.2638 39.56 18.901C39.2263 18.5381 38.8209 18.2485 38.3695 18.0503C37.9181 17.8522 37.4305 17.75 36.9375 17.75ZM22.6875 22.5C23.0025 22.5 23.3045 22.6251 23.5272 22.8478C23.7499 23.0705 23.875 23.3726 23.875 23.6875C23.875 24.0024 23.7499 24.3045 23.5272 24.5272C23.3045 24.7499 23.0025 24.875 22.6875 24.875C22.3726 24.875 22.0705 24.7499 21.8478 24.5272C21.6251 24.3045 21.5 24.0024 21.5 23.6875C21.5 23.3726 21.6251 23.0705 21.8478 22.8478C22.0705 22.6251 22.3726 22.5 22.6875 22.5ZM20.3125 36.75C20.6275 36.75 20.9295 36.8751 21.1522 37.0978C21.3749 37.3205 21.5 37.6226 21.5 37.9375C21.5 38.2524 21.3749 38.5545 21.1522 38.7772C20.9295 38.9999 20.6275 39.125 20.3125 39.125C19.9976 39.125 19.6955 38.9999 19.4728 38.7772C19.2501 38.5545 19.125 38.2524 19.125 37.9375C19.125 37.6226 19.2501 37.3205 19.4728 37.0978C19.6955 36.8751 19.9976 36.75 20.3125 36.75ZM33.375 42.6875C33.375 42.3726 33.5001 42.0705 33.7228 41.8478C33.9455 41.6251 34.2476 41.5 34.5625 41.5C34.8775 41.5 35.1795 41.6251 35.4022 41.8478C35.6249 42.0705 35.75 42.3726 35.75 42.6875C35.75 43.0024 35.6249 43.3045 35.4022 43.5272C35.1795 43.7499 34.8775 43.875 34.5625 43.875C34.2476 43.875 33.9455 43.7499 33.7228 43.5272C33.5001 43.3045 33.375 43.0024 33.375 42.6875ZM41.6875 32C42.0025 32 42.3045 32.1251 42.5272 32.3478C42.7499 32.5705 42.875 32.8726 42.875 33.1875C42.875 33.5024 42.7499 33.8045 42.5272 34.0272C42.3045 34.2499 42.0025 34.375 41.6875 34.375C41.3726 34.375 41.0705 34.2499 40.8478 34.0272C40.6251 33.8045 40.5 33.5024 40.5 33.1875C40.5 32.8726 40.6251 32.5705 40.8478 32.3478C41.0705 32.1251 41.3726 32 41.6875 32ZM31 28.4375C31.9448 28.4375 32.851 28.8128 33.5191 29.4809C34.1872 30.149 34.5625 31.0552 34.5625 32C34.5625 32.9448 34.1872 33.851 33.5191 34.5191C32.851 35.1872 31.9448 35.5625 31 35.5625C30.0552 35.5625 29.149 35.1872 28.4809 34.5191C27.8128 33.851 27.4375 32.9448 27.4375 32C27.4375 31.0552 27.8128 30.149 28.4809 29.4809C29.149 28.8128 30.0552 28.4375 31 28.4375Z" fill="black"/>
</svg>
