<svg width="24" height="25" viewBox="0 0 24 25" fill="none" xmlns="http://www.w3.org/2000/svg">
<path fill-rule="evenodd" clip-rule="evenodd" d="M12.8046 21.2851C14.6442 19.2231 19 13.8509 19 9.21068C19 5.3122 15.866 2.15186 12 2.15186C8.13401 2.15186 5 5.3122 5 9.21068C5 13.8509 9.3558 19.2231 11.1954 21.2851C11.6305 21.7728 12.3695 21.7728 12.8046 21.2851ZM12 12.1519C13.6569 12.1519 15 10.8087 15 9.15186C15 7.495 13.6569 6.15186 12 6.15186C10.3431 6.15186 9 7.495 9 9.15186C9 10.8087 10.3431 12.1519 12 12.1519Z" fill="white"/>
</svg>
