<svg width="24" height="25" viewBox="0 0 24 25" fill="none" xmlns="http://www.w3.org/2000/svg">
<path fill-rule="evenodd" clip-rule="evenodd" d="M2 8.22955V14.9424L7.65873 10.9004L2 8.22955ZM2 18.1201V16.7857L9.07743 11.7304L8.90461 11.4885L10.7314 12.3507C11.5346 12.7298 12.4654 12.7298 13.2686 12.3507L15.0954 11.4885L14.9226 11.7304L22 16.7857V18.1201C22 19.2247 21.1046 20.1201 20 20.1201H4C2.89543 20.1201 2 19.2247 2 18.1201ZM22 14.9424V8.22955L16.3413 10.9004L22 14.9424ZM20.6434 4.22584C20.9484 4.32941 21.2203 4.50457 21.4392 4.7313C21.6436 4.98409 21.766 5.3059 21.766 5.6563V6.68131L12.6284 10.9942C12.2305 11.182 11.7695 11.182 11.3716 10.9942L2.23401 6.68131V5.65631C2.23401 5.3059 2.35643 4.98408 2.56083 4.7313C2.77968 4.50456 3.05161 4.32941 3.35661 4.22585C3.46868 4.19855 3.58576 4.18408 3.70623 4.18408H20.2938C20.4142 4.18408 20.5313 4.19855 20.6434 4.22584Z" fill="white"/>
</svg>
