<svg width="64" height="64" viewBox="0 0 64 64" fill="none" xmlns="http://www.w3.org/2000/svg">
<circle cx="32" cy="32" r="31.4495" fill="#FAFAFA" stroke="black" stroke-width="1.10105"/>
<path d="M15.6357 45.104H27.6477C28.9737 45.104 29.9877 44.09 29.9877 42.764C29.9877 34.73 29.9877 28.958 29.9877 21.236C29.9877 19.91 28.9737 18.896 27.6477 18.896H15.6357C14.3097 18.896 13.2957 19.91 13.2957 21.236C13.2957 28.958 13.2957 34.73 13.2957 42.764C13.2957 44.09 14.3097 45.104 15.6357 45.104ZM14.8557 21.236C14.8557 20.768 15.1677 20.456 15.6357 20.456H27.6477C28.1157 20.456 28.4277 20.768 28.4277 21.236V24.044H14.8557V21.236ZM14.8557 25.526H28.4277V42.764C28.4277 43.232 28.1157 43.544 27.6477 43.544H15.6357C15.1677 43.544 14.8557 43.232 14.8557 42.764V25.526ZM34.0437 21.236C34.0437 28.958 34.0437 34.73 34.0437 42.764C34.0437 44.09 35.0577 45.104 36.3837 45.104H48.3957C49.7217 45.104 50.7357 44.09 50.7357 42.764V21.236C50.7357 19.91 49.7217 18.896 48.3957 18.896H36.3837C35.0577 18.896 34.0437 19.91 34.0437 21.236ZM49.1757 42.764C49.1757 43.232 48.8637 43.544 48.3957 43.544H36.3837C35.9157 43.544 35.6037 43.232 35.6037 42.764V25.526H49.1757V42.764ZM49.1757 21.236V24.044H35.6037V21.236C35.6037 20.768 35.9157 20.456 36.3837 20.456H48.3957C48.8637 20.456 49.1757 20.768 49.1757 21.236Z" fill="black"/>
<path d="M19.6136 34.1061H19.8476C20.0036 34.1061 20.0816 34.0281 20.2376 33.9501C20.3156 33.8721 20.3936 33.7941 20.4716 33.6381L20.7056 32.7801C20.7056 32.7021 20.7836 32.7021 20.7836 32.7021H22.5776C22.6556 32.7021 22.6556 32.7021 22.6556 32.7801L22.8896 33.6381C22.8896 33.7941 22.9676 33.8721 23.1236 33.9501C23.2796 34.0281 23.3576 34.1061 23.4356 34.1061H23.7476C23.8256 34.1061 23.9816 34.0281 23.9816 33.9501C24.0596 33.8721 24.0596 33.7941 24.0596 33.6381L22.4216 28.7241C22.3436 28.5681 22.3436 28.4901 22.1876 28.4121C22.1096 28.3341 21.9536 28.2561 21.7976 28.2561H21.4856C21.3296 28.2561 21.2516 28.2561 21.0956 28.4121C21.0176 28.4901 20.9396 28.5681 20.8616 28.7241L19.2236 33.6381C19.2236 33.7161 19.2236 33.8721 19.3016 33.9501C19.3796 34.0281 19.4576 34.1061 19.6136 34.1061ZM21.6416 29.3481L22.3436 31.8441C22.3436 31.8441 22.3436 31.8441 22.3436 31.9221C22.3436 31.9221 22.3436 31.9221 22.2656 31.9221H20.9396C20.9396 31.9221 20.9396 31.9221 20.8616 31.9221C20.8616 31.9221 20.8616 31.9221 20.8616 31.8441L21.6416 29.3481ZM40.8296 34.1061C41.2196 34.1841 41.6096 34.1841 41.9996 34.1841C42.7796 34.1841 43.4036 34.0281 43.7936 33.7161C44.1836 33.4041 44.3396 33.0141 44.3396 32.3901C44.3396 32.0001 44.1836 31.6881 43.9496 31.4541C43.7156 31.2201 43.4036 31.0641 42.9356 30.9861C43.2476 30.9081 43.5596 30.7521 43.7936 30.5181C44.0276 30.2841 44.1056 29.9721 44.1056 29.6601C44.1056 28.7241 43.4036 28.2561 41.9216 28.2561C41.5316 28.2561 41.2196 28.2561 40.8296 28.3341C40.6736 28.3341 40.5956 28.4121 40.5176 28.4901C40.4396 28.5681 40.3616 28.7241 40.3616 28.8021V33.5601C40.3616 33.7161 40.4396 33.7941 40.5176 33.8721C40.5956 34.0281 40.7516 34.1061 40.8296 34.1061ZM41.4536 29.2701C41.4536 29.1921 41.4536 29.1921 41.5316 29.1921C41.6876 29.1921 41.8436 29.1921 41.9996 29.1921C42.3896 29.1921 42.7016 29.2701 42.8576 29.3481C43.0136 29.5041 43.0916 29.6601 43.0916 29.8941C43.0916 30.1281 43.0136 30.3621 42.7796 30.5181C42.5456 30.6741 42.2336 30.7521 41.6876 30.7521H41.4536C41.3756 30.7521 41.3756 30.7521 41.3756 30.6741V29.2701H41.4536ZM41.4536 31.5321L41.7656 31.4541C42.3116 31.4541 42.7016 31.5321 42.9356 31.6881C43.1696 31.8441 43.2476 32.0781 43.2476 32.3121C43.2476 32.6241 43.1696 32.8581 42.9356 33.0141C42.7016 33.1701 42.3896 33.2481 41.9996 33.2481C41.8436 33.2481 41.6876 33.2481 41.4536 33.1701C41.3756 33.1701 41.3756 33.1701 41.3756 33.0921V31.5321H41.4536ZM41.9996 16.1661C35.9156 12.3441 28.1156 12.3441 22.0316 16.1661C21.6416 16.4001 21.5636 16.8681 21.7976 17.2581C22.0316 17.6481 22.4996 17.7261 22.8896 17.4921C28.4276 13.9821 35.6036 13.9821 41.1416 17.4921C41.5316 17.7261 41.9996 17.6481 42.2336 17.2581C42.4676 16.8681 42.3116 16.4001 41.9996 16.1661ZM21.7976 46.7421C21.5636 47.1321 21.6416 47.6001 22.0316 47.8341C25.0736 49.7841 28.5836 50.7201 32.0156 50.7201C35.4476 50.7201 38.9576 49.7841 41.9996 47.8341C42.3896 47.6001 42.4676 47.1321 42.2336 46.7421C41.9996 46.3521 41.5316 46.2741 41.1416 46.5081C35.6036 50.0181 28.4276 50.0181 22.8896 46.5081C22.4996 46.2741 22.0316 46.4301 21.7976 46.7421ZM16.8056 37.6161H26.5556C27.0236 37.6161 27.3356 37.3041 27.3356 36.8361C27.3356 36.3681 27.0236 36.0561 26.5556 36.0561H16.8056C16.3376 36.0561 16.0256 36.3681 16.0256 36.8361C16.0256 37.3041 16.3376 37.6161 16.8056 37.6161ZM16.8056 40.8921H26.5556C27.0236 40.8921 27.3356 40.5801 27.3356 40.1121C27.3356 39.6441 27.0236 39.3321 26.5556 39.3321H16.8056C16.3376 39.3321 16.0256 39.6441 16.0256 40.1121C16.0256 40.5801 16.3376 40.8921 16.8056 40.8921ZM37.4756 37.6161H47.2256C47.6936 37.6161 48.0056 37.3041 48.0056 36.8361C48.0056 36.3681 47.6936 36.0561 47.2256 36.0561H37.4756C37.0076 36.0561 36.6956 36.3681 36.6956 36.8361C36.6956 37.3041 37.0856 37.6161 37.4756 37.6161ZM37.4756 40.8921H47.2256C47.6936 40.8921 48.0056 40.5801 48.0056 40.1121C48.0056 39.6441 47.6936 39.3321 47.2256 39.3321H37.4756C37.0076 39.3321 36.6956 39.6441 36.6956 40.1121C36.6956 40.5801 37.0856 40.8921 37.4756 40.8921ZM16.9616 21.3141H16.5716C16.1036 21.3141 15.7916 21.6261 15.7916 22.0941C15.7916 22.5621 16.1036 22.8741 16.5716 22.8741H16.9616C17.4296 22.8741 17.7416 22.5621 17.7416 22.0941C17.7416 21.6261 17.4296 21.3141 16.9616 21.3141ZM19.4576 21.3141H19.0676C18.5996 21.3141 18.2876 21.6261 18.2876 22.0941C18.2876 22.5621 18.5996 22.8741 19.0676 22.8741H19.4576C19.9256 22.8741 20.2376 22.5621 20.2376 22.0941C20.2376 21.6261 19.8476 21.3141 19.4576 21.3141ZM37.3976 23.0301H37.7876C38.2556 23.0301 38.5676 22.7181 38.5676 22.2501C38.5676 21.7821 38.2556 21.4701 37.7876 21.4701H37.3976C36.9296 21.4701 36.6176 21.7821 36.6176 22.2501C36.6176 22.7181 36.9296 23.0301 37.3976 23.0301ZM39.8936 23.0301H40.2836C40.7516 23.0301 41.0636 22.7181 41.0636 22.2501C41.0636 21.7821 40.7516 21.4701 40.2836 21.4701H39.8936C39.4256 21.4701 39.1136 21.7821 39.1136 22.2501C39.1136 22.7181 39.4256 23.0301 39.8936 23.0301Z" fill="black"/>
</svg>
