<svg width="24" height="25" viewBox="0 0 24 25" fill="none" xmlns="http://www.w3.org/2000/svg">
<path d="M13 6.15186C13 6.15186 14.4689 6.37071 16.125 8.02686C17.7811 9.683 18 11.1519 18 11.1519" stroke="white" stroke-width="1.5" stroke-linecap="round"/>
<path d="M13 3.15186C13 3.15186 15.3502 3.50202 18 6.15186C20.6498 8.80169 21 11.1519 21 11.1519" stroke="white" stroke-width="1.5" stroke-linecap="round"/>
<path d="M8.81246 7.09913L7.23283 4.41071C6.92409 3.88524 6.2541 3.70571 5.75283 4.05236C4.76655 4.73442 3.29662 5.93096 2.93095 7.21026C2.36331 9.19613 4.40957 13.9255 7.1916 16.7076C9.97371 19.4897 14.4618 21.2945 16.4478 20.7271C17.727 20.3616 18.9238 18.8923 19.6061 17.9062C19.953 17.4049 19.7735 16.7347 19.2479 16.4259L16.5595 14.8463C16.0494 14.5466 15.3944 14.6946 15.0627 15.1844L14.3236 16.2758C14.0037 16.7481 13.3828 16.8997 12.9049 16.5881C12.1352 16.0863 10.9373 15.2166 9.68936 13.9687C8.44161 12.7209 7.57201 11.5231 7.07014 10.7534C6.75847 10.2755 6.91019 9.65434 7.38278 9.33455L8.47403 8.59613C8.96407 8.26453 9.1122 7.60928 8.81246 7.09913Z" fill="white"/>
</svg>
