<svg width="40" height="40" viewBox="0 0 64 64" fill="none" xmlns="http://www.w3.org/2000/svg">
<g clip-path="url(#clip0_31_2078)">
<path d="M14.064 28C16.8329 28 19.5397 28.8211 21.842 30.3594C24.1443 31.8978 25.9387 34.0843 26.9983 36.6424C28.0579 39.2006 28.3352 42.0155 27.795 44.7313C27.2548 47.447 25.9214 49.9416 23.9635 51.8995C22.0056 53.8574 19.511 55.1908 16.7953 55.731C14.0795 56.2712 11.2646 55.9939 8.70643 54.9343C6.14827 53.8747 3.96177 52.0803 2.42343 49.778C0.885086 47.4757 0.064 44.7689 0.064 42L0 40C0 32.5739 2.94999 25.452 8.20101 20.201C13.452 14.95 20.5739 12 28 12V20C25.3724 19.9929 22.7695 20.5068 20.3417 21.512C17.914 22.5171 15.7096 23.9936 13.856 25.856C13.1356 26.5751 12.471 27.348 11.868 28.168C12.584 28.056 13.316 27.996 14.06 27.996L14.064 28ZM50.064 28C52.8329 28 55.5397 28.8211 57.842 30.3594C60.1443 31.8978 61.9387 34.0843 62.9983 36.6424C64.0579 39.2006 64.3352 42.0155 63.795 44.7313C63.2548 47.447 61.9214 49.9416 59.9635 51.8995C58.0056 53.8574 55.511 55.1908 52.7953 55.731C50.0795 56.2712 47.2646 55.9939 44.7064 54.9343C42.1483 53.8747 39.9618 52.0803 38.4234 49.778C36.8851 47.4757 36.064 44.7689 36.064 42L36 40C36 32.5739 38.95 25.452 44.201 20.201C49.452 14.95 56.5739 12 64 12V20C61.3724 19.9929 58.7695 20.5068 56.3417 21.512C53.914 22.5171 51.7096 23.9936 49.856 25.856C49.1356 26.5751 48.471 27.348 47.868 28.168C48.584 28.056 49.316 28 50.064 28Z" fill="black"/>
</g>
<defs>
<clipPath id="clip0_31_2078">
<rect width="64" height="64" fill="white"/>
</clipPath>
</defs>
</svg>
