<svg width="32" height="33" viewBox="0 0 32 33" fill="none" xmlns="http://www.w3.org/2000/svg">
<g id="Twitter">
<rect y="0.151855" width="32" height="32" rx="16" fill="white"/>
<path id="Vector" d="M13.072 24.592C20.168 24.592 24.048 18.712 24.048 13.616C24.048 13.448 24.048 13.28 24.04 13.12C24.792 12.576 25.448 11.896 25.968 11.12C25.28 11.424 24.536 11.632 23.752 11.728C24.552 11.248 25.16 10.496 25.448 9.59201C24.704 10.032 23.88 10.352 23 10.528C22.296 9.77601 21.296 9.31201 20.184 9.31201C18.056 9.31201 16.328 11.04 16.328 13.168C16.328 13.472 16.36 13.768 16.432 14.048C13.224 13.888 10.384 12.352 8.48003 10.016C8.15203 10.584 7.96003 11.248 7.96003 11.952C7.96003 13.288 8.64003 14.472 9.68003 15.16C9.04803 15.144 8.45603 14.968 7.93603 14.68C7.93603 14.696 7.93603 14.712 7.93603 14.728C7.93603 16.6 9.26402 18.152 11.032 18.512C10.712 18.6 10.368 18.648 10.016 18.648C9.76803 18.648 9.52803 18.624 9.28803 18.576C9.77603 20.112 11.2 21.224 12.888 21.256C11.568 22.288 9.90403 22.904 8.09603 22.904C7.78403 22.904 7.48003 22.888 7.17603 22.848C8.86403 23.952 10.896 24.592 13.072 24.592Z" fill="#272727"/>
</g>
</svg>
