<svg width="64" height="64" viewBox="0 0 64 64" fill="none" xmlns="http://www.w3.org/2000/svg">
<circle cx="32" cy="32" r="31.4495" fill="#FAFAFA" stroke="black" stroke-width="1.10105"/>
<path d="M46.1252 28.8438C46.9574 28.8476 47.7742 28.619 48.4835 28.1837C49.1928 27.7484 49.7664 27.1237 50.1398 26.3799C50.5132 25.6362 50.6714 24.8029 50.5967 23.9741C50.5221 23.1452 50.2174 22.3537 49.7171 21.6886C49.2168 21.0236 48.5408 20.5114 47.7651 20.2099C46.9894 19.9084 46.145 19.8295 45.3268 19.982C44.5087 20.1346 43.7495 20.5126 43.1346 21.0734C42.5197 21.6342 42.0737 22.3556 41.8467 23.1562H37.594V21.9375C37.5928 20.9682 37.2072 20.0389 36.5217 19.3535C35.8363 18.668 34.907 18.2824 33.9377 18.2812H29.0627C28.0934 18.2824 27.1641 18.668 26.4787 19.3535C25.7932 20.0389 25.4076 20.9682 25.4065 21.9375V23.1562H21.1537C20.8596 22.1185 20.2 21.2222 19.2967 20.6327C18.3935 20.0432 17.3075 19.8003 16.2391 19.9488C15.1708 20.0973 14.1922 20.6272 13.484 21.4407C12.7757 22.2542 12.3856 23.2964 12.3856 24.375C12.3856 25.4536 12.7757 26.4958 13.484 27.3093C14.1922 28.1228 15.1708 28.6527 16.2391 28.8012C17.3075 28.9497 18.3935 28.7068 19.2967 28.1173C20.2 27.5278 20.8596 26.6315 21.1537 25.5938H24.3015C22.6724 26.8395 21.3442 28.4356 20.4151 30.2639C19.4861 32.0922 18.9799 34.1059 18.9341 36.1562H18.5002C17.5309 36.1574 16.6016 36.543 15.9162 37.2285C15.2307 37.9139 14.8452 38.8432 14.844 39.8125V43.0625C14.8452 44.0318 15.2307 44.9611 15.9162 45.6465C16.6016 46.332 17.5309 46.7176 18.5002 46.7188H21.7502C22.2571 46.7201 22.758 46.6095 23.2173 46.395C23.8694 46.1163 24.4249 45.6515 24.8143 45.0588C25.2036 44.466 25.4096 43.7717 25.4065 43.0625V39.8125C25.4053 38.8432 25.0197 37.9139 24.3342 37.2285C23.6488 36.543 22.7195 36.1574 21.7502 36.1562H21.3712C21.4154 34.5335 21.8105 32.9396 22.5294 31.4841C23.2483 30.0286 24.274 28.7461 25.5358 27.7248C25.737 28.508 26.1925 29.2023 26.8308 29.6989C27.469 30.1955 28.254 30.4662 29.0627 30.4688H33.9377C34.7464 30.4662 35.5314 30.1955 36.1696 29.6989C36.8079 29.2023 37.2634 28.508 37.4646 27.7248C38.7264 28.7461 39.7521 30.0286 40.471 31.4841C41.1899 32.9396 41.585 34.5335 41.6292 36.1562H41.2502C40.2809 36.1574 39.3516 36.543 38.6662 37.2285C37.9807 37.9139 37.5951 38.8432 37.594 39.8125V43.0625C37.5885 43.7637 37.7887 44.451 38.1697 45.0397C38.5508 45.6283 39.0959 46.0923 39.7379 46.3744C40.21 46.6005 40.7267 46.7182 41.2502 46.7188H44.5002C45.4695 46.7176 46.3988 46.332 47.0842 45.6465C47.7697 44.9611 48.1553 44.0318 48.1565 43.0625V39.8125C48.1553 38.8432 47.7697 37.9139 47.0842 37.2285C46.3988 36.543 45.4695 36.1574 44.5002 36.1562H44.0663C44.0205 34.1059 43.5144 32.0922 42.5853 30.2639C41.6562 28.4356 40.328 26.8395 38.699 25.5938H41.8466C42.1097 26.5269 42.6696 27.3489 43.4416 27.9353C44.2137 28.5217 45.1557 28.8406 46.1252 28.8438ZM46.1252 22.3438C46.5269 22.3438 46.9197 22.4629 47.2537 22.6861C47.5877 22.9093 47.8481 23.2265 48.0018 23.5977C48.1556 23.9688 48.1958 24.3773 48.1174 24.7713C48.039 25.1653 47.8456 25.5272 47.5615 25.8113C47.2774 26.0954 46.9155 26.2888 46.5215 26.3672C46.1275 26.4456 45.719 26.4054 45.3479 26.2516C44.9767 26.0979 44.6595 25.8375 44.4363 25.5035C44.2131 25.1695 44.094 24.7767 44.094 24.375C44.0945 23.8364 44.3086 23.3201 44.6894 22.9392C45.0703 22.5584 45.5866 22.3442 46.1252 22.3438ZM16.8752 26.4062C16.4735 26.4062 16.0807 26.2871 15.7467 26.0639C15.4127 25.8407 15.1523 25.5235 14.9986 25.1523C14.8448 24.7812 14.8046 24.3727 14.883 23.9787C14.9614 23.5847 15.1548 23.2228 15.4389 22.9387C15.723 22.6546 16.0849 22.4612 16.4789 22.3828C16.873 22.3044 17.2814 22.3446 17.6525 22.4984C18.0237 22.6521 18.3409 22.9125 18.5641 23.2465C18.7873 23.5805 18.9065 23.9733 18.9065 24.375C18.906 24.9136 18.6918 25.4299 18.311 25.8108C17.9301 26.1916 17.4138 26.4058 16.8752 26.4062ZM21.7502 38.5938C22.0733 38.5942 22.383 38.7228 22.6115 38.9513C22.8399 39.1797 22.9685 39.4894 22.969 39.8125V43.0625C22.9674 43.3006 22.8954 43.533 22.7621 43.7304C22.6289 43.9277 22.4402 44.0813 22.2199 44.1718C22.0737 44.2435 21.9131 44.281 21.7502 44.2812H18.5002C18.1771 44.2808 17.8674 44.1522 17.639 43.9238C17.4105 43.6953 17.2819 43.3856 17.2815 43.0625V39.8125C17.2819 39.4894 17.4105 39.1797 17.639 38.9513C17.8674 38.7228 18.1771 38.5942 18.5002 38.5938H21.7502ZM35.1565 26.8125C35.1522 27.1344 35.0224 27.4419 34.7948 27.6696C34.5671 27.8972 34.2596 28.027 33.9377 28.0312H29.0627C28.7408 28.027 28.4333 27.8972 28.2056 27.6696C27.978 27.4419 27.8482 27.1344 27.844 26.8125V21.9375C27.8482 21.6156 27.978 21.3081 28.2056 21.0804C28.4333 20.8528 28.7408 20.723 29.0627 20.7188H33.9377C34.2596 20.723 34.5671 20.8528 34.7948 21.0804C35.0224 21.3081 35.1522 21.6156 35.1565 21.9375V26.8125ZM44.5002 38.5938C44.8233 38.5942 45.133 38.7228 45.3615 38.9513C45.5899 39.1797 45.7185 39.4894 45.719 39.8125V43.0625C45.7185 43.3856 45.5899 43.6953 45.3615 43.9238C45.133 44.1522 44.8233 44.2808 44.5002 44.2812H41.2502C41.0708 44.2786 40.8944 44.234 40.7353 44.1511C40.5251 44.0574 40.3467 43.9046 40.2217 43.7113C40.0968 43.518 40.0307 43.2926 40.0315 43.0625V39.8125C40.0319 39.4894 40.1605 39.1797 40.389 38.9513C40.6174 38.7228 40.9271 38.5942 41.2502 38.5938H44.5002Z" fill="black"/>
</svg>
